<svg xmlns="http://www.w3.org/2000/svg" xmlns:xlink="http://www.w3.org/1999/xlink" width="200" zoomAndPan="magnify" viewBox="0 0 150 149.999998" height="200" preserveAspectRatio="xMidYMid meet" version="1.0"><defs><clipPath id="id1"><path d="M 0 50.476562 L 66 50.476562 L 66 99.226562 L 0 99.226562 Z M 0 50.476562 " clip-rule="nonzero"/></clipPath><clipPath id="id2"><path d="M 68 50.476562 L 127 50.476562 L 127 99 L 68 99 Z M 68 50.476562 " clip-rule="nonzero"/></clipPath><clipPath id="id3"><path d="M 128 50.476562 L 150 50.476562 L 150 64 L 128 64 Z M 128 50.476562 " clip-rule="nonzero"/></clipPath></defs><g clip-path="url(#id1)"><path fill="#545454" d="M 57.628906 93 C 52.054688 89.433594 44.492188 88.804688 32.292969 92.171875 C 19.289062 95.207031 14.953125 97.15625 9.257812 93.246094 C 7.070312 91.324219 6.289062 88.234375 6.875 83.78125 C 8.230469 76.519531 11.902344 69.535156 18.421875 61.785156 C 22.0625 57.753906 25.4375 54.292969 29.894531 52.90625 C 33.3125 52.03125 32.992188 54.703125 32.578125 55.082031 C 32.144531 55.082031 31.410156 55.152344 30.84375 55.519531 C 30.382812 55.875 29.121094 57.019531 29.054688 58.558594 C 28.957031 60.914062 31.410156 60.421875 32.46875 59.128906 C 33.609375 57.671875 35.292969 54.878906 33.96875 52.277344 C 33.410156 51.351562 32.453125 50.710938 31.261719 50.492188 C 27.179688 50.261719 23.375 52.195312 19.867188 54.335938 C 12.195312 59.632812 6.058594 66.972656 2.585938 75.007812 C 0.582031 79.859375 -1.226562 86.804688 1.488281 92.457031 C 3.585938 96.378906 7.945312 98.460938 13.144531 98.027344 C 16.792969 97.644531 21.203125 96.472656 24.171875 95.765625 C 27.136719 95.058594 42.324219 89.867188 47.3125 98.898438 C 47.3125 98.898438 48.972656 95.699219 53.117188 95.628906 C 56.527344 95.316406 61.445312 96.609375 65.027344 99.226562 C 63.832031 97.441406 60.449219 94.8125 57.628906 93 Z M 57.628906 93 " fill-opacity="1" fill-rule="nonzero"/></g><path fill="#545454" d="M 33.839844 62.695312 C 31 60.84375 25.292969 64.386719 20.722656 70.460938 C 16.539062 75.910156 14.734375 82.242188 16.699219 85.167969 C 19.621094 88.613281 25.046875 83.601562 27.355469 80.921875 L 27.652344 80.605469 C 29.222656 78.929688 30.433594 76.914062 31.605469 74.980469 C 31.605469 74.980469 32.6875 73.210938 32.738281 73.128906 C 33.402344 73.007812 34.207031 72.816406 35.109375 72.558594 C 35.097656 72.597656 31.648438 78.359375 32 81.21875 C 32.109375 82.089844 32.027344 85.277344 35.15625 86.246094 C 39.328125 86.941406 42.660156 83.726562 45.601562 80.867188 C 45.601562 80.867188 46.101562 80.390625 46.382812 80.117188 C 46.3125 80.402344 46.21875 80.78125 46.21875 80.78125 C 44.996094 85.003906 46.644531 85.890625 47.675781 86.21875 C 50.785156 87.117188 54.503906 82.621094 54.515625 82.621094 C 54.421875 84.039062 54.136719 85.210938 55.640625 86.148438 C 57.058594 86.652344 58.492188 85.886719 59.582031 85.164062 C 63.507812 82.414062 66.671875 78.105469 69.226562 74.382812 L 67.597656 74.382812 C 67.578125 74.382812 63.574219 80.152344 60.976562 81.40625 C 60.972656 81.40625 60.5 81.644531 60.226562 81.457031 C 59.890625 81.167969 60.023438 80.574219 60.230469 80.152344 C 60.246094 80.125 70.265625 62.847656 70.265625 62.847656 L 65.535156 62.847656 C 65.535156 62.847656 65.019531 63.675781 64.976562 63.730469 C 64.945312 63.703125 64.867188 63.5625 64.816406 63.492188 C 61.882812 59.460938 55.242188 65.664062 50.246094 72.855469 C 48.320312 75.617188 45.871094 78.730469 43.332031 80.980469 C 43.332031 80.980469 39.566406 84.410156 37.957031 81.945312 C 37.371094 80.910156 37.550781 79.394531 37.882812 78.402344 C 39.753906 73.105469 42.980469 68.296875 46.652344 65.394531 C 47.691406 64.589844 48.816406 64.359375 49.375 64.699219 C 49.90625 65.011719 49.992188 65.789062 49.65625 66.320312 C 48.800781 66.292969 48.117188 66.550781 47.558594 67.125 C 46.460938 68.269531 46.082031 69.371094 46.429688 70.40625 C 48.125 72.804688 51.503906 68.0625 51.339844 65.175781 C 51.28125 64.140625 50.726562 63.160156 49.898438 62.683594 C 48.660156 61.949219 46.777344 62.140625 45.554688 62.726562 C 43.921875 63.335938 41.335938 65.476562 39.828125 67.136719 C 37.929688 69.222656 34.667969 71.535156 33.652344 71.277344 C 33.984375 70.390625 36.738281 64.792969 33.839844 62.695312 Z M 56.65625 70.976562 C 57.578125 69.710938 60.257812 66.320312 60.910156 65.746094 C 63.105469 63.828125 63.984375 64.671875 64.058594 65.269531 C 62.011719 68.921875 59.589844 73.101562 57.316406 76.863281 C 57.320312 76.847656 56.601562 77.9375 56.601562 77.9375 C 55.597656 79.460938 54.585938 80.769531 52.9375 81.683594 C 52.699219 81.75 52.3125 81.777344 52.054688 81.585938 C 51.742188 81.382812 51.621094 81.042969 51.65625 80.6875 C 51.753906 79.515625 52.953125 75.9375 56.65625 70.976562 Z M 30.914062 73.171875 C 30.914062 73.171875 30.871094 73.292969 30.851562 73.332031 C 30.847656 73.332031 28.789062 76.671875 28.789062 76.671875 C 27.546875 78.320312 25.996094 80.390625 24.058594 81.382812 C 23.480469 81.574219 22.6875 81.695312 22.28125 81.191406 C 21.425781 80.171875 21.867188 78.753906 22.226562 77.609375 L 22.355469 77.203125 C 23.382812 74.425781 25.019531 71.972656 26.609375 69.699219 C 26.628906 69.683594 26.671875 69.671875 26.691406 69.671875 C 26.691406 69.683594 26.699219 69.683594 26.703125 69.710938 C 27.699219 71.617188 29.574219 72.503906 30.972656 72.910156 C 30.980469 72.910156 30.988281 72.925781 30.988281 72.953125 C 30.988281 72.992188 30.96875 73.046875 30.914062 73.171875 Z M 32.863281 69.234375 C 32.851562 69.261719 31.945312 71.332031 31.945312 71.332031 C 31.816406 71.441406 31.605469 71.386719 31.371094 71.332031 L 30.960938 71.261719 C 29.683594 70.867188 28.71875 70.023438 28.421875 69.015625 C 28.011719 67.054688 29.695312 65.515625 30.4375 64.957031 C 31.152344 64.46875 32.257812 64.207031 32.902344 64.710938 C 33.296875 65.175781 33.449219 65.773438 33.449219 66.429688 C 33.449219 67.3125 33.175781 68.308594 32.863281 69.234375 Z M 32.863281 69.234375 " fill-opacity="1" fill-rule="nonzero"/><g clip-path="url(#id2)"><path fill="#545454" d="M 92.6875 75.554688 C 92.230469 74.574219 91.148438 73.945312 89.992188 74.015625 C 86.242188 74.355469 82.578125 77.417969 80.652344 81.820312 C 79.640625 84.078125 79.089844 85.945312 78.730469 88.914062 C 79.894531 87.582031 82.273438 85.386719 84.96875 84.1875 C 84.96875 84.1875 85.335938 81.34375 87.210938 78.808594 C 87.917969 77.761719 89.335938 76.070312 90.929688 76.519531 C 92.320312 76.984375 91.832031 80.8125 89.980469 84.515625 C 88.613281 87.238281 86.519531 89.964844 84.402344 91.84375 C 82.53125 93.421875 79.761719 95.328125 77.335938 93.859375 C 75.808594 92.960938 75.03125 91.082031 75.195312 88.65625 C 75.925781 81.777344 79.074219 75.921875 83.582031 69.25 C 88.230469 63.050781 93.351562 56.691406 100.253906 53.300781 C 101.660156 52.589844 102.964844 52.425781 104.09375 52.863281 C 104.09375 52.863281 97.613281 56.40625 94.527344 62.957031 C 93.738281 64.617188 92.648438 66.863281 93.746094 68.851562 C 94.324219 69.886719 95.34375 69.96875 96.164062 69.914062 C 99.949219 69.042969 102.394531 65.53125 104.394531 62.316406 C 105.554688 59.878906 106.582031 57.453125 106.582031 54.757812 C 106.582031 54.429688 106.566406 53.992188 106.539062 53.667969 C 108.347656 52.714844 112.054688 54.402344 112.054688 54.402344 C 114.953125 55.355469 121.125 60.054688 123.203125 60.953125 C 124.21875 59.78125 125.890625 58.011719 126.828125 57.125 L 125.46875 56.296875 C 123.289062 54.972656 120.988281 53.722656 118.722656 52.480469 C 113.578125 49.691406 109.390625 50.671875 107.261719 51.433594 C 106.421875 51.734375 105.65625 51.992188 105.65625 51.992188 C 104.074219 50.277344 101.480469 50.4375 99.570312 50.902344 C 92.695312 52.863281 86.316406 57.644531 79.472656 65.9375 C 74.441406 72.433594 71.324219 78.046875 69.660156 83.589844 C 68.378906 87.320312 67.988281 92.808594 71.117188 96.066406 C 73.777344 98.828125 77.304688 98.230469 79.796875 97.238281 C 85.191406 94.59375 90.042969 88.902344 92.460938 82.351562 C 93.042969 80.402344 93.691406 77.652344 92.6875 75.554688 Z M 105.097656 55.027344 C 104.382812 63.175781 98.011719 67.953125 96.4375 68.335938 C 95.480469 68.527344 93.851562 68.105469 95.308594 64.6875 C 97.449219 60.082031 101.109375 56.171875 105.03125 54.171875 C 105.128906 54.511719 105.125 54.730469 105.097656 55.027344 Z M 105.097656 55.027344 " fill-opacity="1" fill-rule="nonzero"/></g><g clip-path="url(#id3)"><path fill="#545454" d="M 142.878906 56.0625 C 139.453125 58 135.898438 59.25 131.601562 58.816406 C 130.410156 60.148438 129.25 61.527344 128.179688 62.941406 C 134.214844 64.46875 140.609375 61.074219 144.179688 57.847656 C 147.953125 54.59375 149.886719 50.492188 149.886719 50.492188 C 149.886719 50.492188 147.058594 53.707031 142.878906 56.0625 Z M 142.878906 56.0625 " fill-opacity="1" fill-rule="nonzero"/></g><path fill="#545454" d="M 75.597656 66.941406 L 78.132812 62.847656 L 73.636719 62.847656 L 71.101562 66.941406 Z M 75.597656 66.941406 " fill-opacity="1" fill-rule="nonzero"/><path fill="#545454" d="M 131.582031 93.378906 C 131.101562 93.707031 130.421875 93.457031 130.675781 92.707031 C 131.308594 90.800781 133.820312 86.914062 133.820312 86.914062 L 140.820312 74.570312 L 136.027344 74.570312 C 135.796875 74.941406 135.3125 75.796875 135.3125 75.796875 C 135.089844 75.429688 134.425781 74.613281 134.152344 74.4375 C 132.980469 73.699219 131.261719 74.050781 130.074219 74.714844 C 124.921875 77.710938 121.15625 83.632812 118.191406 88.25 C 118.191406 88.25 115.070312 93.382812 113.335938 93.765625 C 111.980469 93.875 112.121094 92.0625 112.179688 91.640625 C 112.703125 88.589844 113.917969 85.6875 115.144531 83.058594 C 117.632812 81.34375 120.476562 79.097656 123.058594 76.628906 C 128.664062 71.304688 133.386719 65.269531 134.078125 63.921875 C 134.078125 63.921875 133.332031 64.074219 132.449219 64.101562 C 128.136719 70.078125 119.3125 78.769531 116.636719 80.0625 C 117.820312 77.230469 125.480469 63.703125 131.996094 57.234375 L 133.019531 56.253906 C 134.605469 54.714844 136.25 53.136719 137.527344 52.878906 C 137.664062 52.863281 137.835938 52.878906 137.988281 53.191406 C 138.046875 54.390625 137.597656 55.273438 137.082031 56.28125 L 136.359375 57.753906 C 136.359375 57.753906 137.382812 57.5625 138.054688 57.34375 C 138.832031 55.886719 139.695312 54.253906 139.375 52.304688 C 139.269531 51.679688 138.8125 51.203125 138.21875 51.09375 C 136.273438 50.726562 134.15625 52.15625 132.453125 53.3125 L 132.382812 53.355469 C 123.621094 60.175781 116.222656 70.011719 109.753906 83.441406 C 109.285156 83.792969 107.472656 84.214844 107.164062 84.011719 C 107.804688 82.703125 108.609375 80.949219 109.011719 79.039062 C 109.078125 78.496094 109.144531 77.9375 109.144531 77.394531 C 109.144531 76.21875 108.863281 75.117188 107.804688 74.355469 C 106.566406 73.742188 105.035156 74.027344 104.003906 74.492188 C 99.378906 76.398438 95.921875 81.109375 93.429688 84.992188 C 92.089844 87.457031 90.75 90.097656 90.382812 93.125 C 90.121094 95.492188 90.652344 97.019531 92.007812 97.78125 C 93.398438 98.488281 95.15625 97.753906 95.84375 97.398438 C 100.527344 94.949219 103.800781 90.03125 106.382812 85.535156 C 106.484375 85.523438 107.890625 85.484375 108.957031 85.210938 C 108.972656 85.210938 108.976562 85.210938 109 85.222656 C 108.941406 85.425781 108.390625 87.0625 108.390625 87.0625 C 106.753906 91.828125 106 95.070312 107.542969 96.992188 C 109.75 99.703125 113.402344 96.894531 116.375 93.191406 C 115.738281 97.628906 118.054688 98.324219 119.816406 97.984375 C 121.84375 97.441406 124.105469 95.289062 125.152344 94.1875 C 124.816406 95.480469 124.90625 97.792969 126.75 98.027344 C 128.015625 98.257812 128.960938 97.574219 130.054688 96.988281 C 133.980469 94.863281 138.679688 87.785156 139.902344 85.738281 L 138.300781 85.738281 C 136.566406 88.34375 134.359375 91.757812 131.582031 93.378906 Z M 96.34375 92.90625 C 96.097656 92.539062 96.011719 92.136719 96.003906 91.703125 C 95.957031 89.03125 98.847656 84.246094 100.886719 81.640625 C 100.890625 81.640625 100.890625 81.640625 100.890625 81.640625 C 101.746094 83.503906 103.683594 84.699219 104.851562 85.203125 C 103.402344 88.417969 98.421875 95.304688 96.34375 92.90625 Z M 105.671875 83.765625 C 105.535156 83.863281 103.09375 83.046875 102.621094 80.796875 C 102.21875 78.863281 103.558594 77.351562 104.855469 76.589844 C 105.414062 76.152344 106.25 76.003906 106.867188 76.222656 C 107.4375 76.601562 107.59375 77.285156 107.59375 78.019531 C 107.59375 78.46875 107.53125 78.933594 107.480469 79.355469 C 107.480469 79.355469 107.46875 79.4375 107.46875 79.449219 C 107.0625 80.960938 106.4375 82.445312 105.671875 83.765625 Z M 125.253906 92.046875 C 125.253906 92.046875 124.792969 92.457031 124.792969 92.457031 C 124.132812 93.042969 123.453125 93.667969 122.636719 93.355469 C 122.410156 93.273438 122.25 92.972656 122.214844 92.742188 C 122.175781 91.066406 122.933594 89.515625 123.671875 88.003906 L 123.859375 87.605469 C 125.976562 84.09375 128.4375 79.953125 132.050781 77.078125 C 132.660156 76.644531 133.320312 76.277344 134.019531 76.5625 C 134.179688 76.710938 134.367188 76.96875 134.367188 77.230469 C 134.367188 77.3125 134.292969 77.527344 134.25 77.597656 C 133.242188 79.21875 132.28125 80.921875 131.347656 82.554688 C 129.519531 85.78125 127.625 89.121094 125.253906 92.046875 Z M 125.253906 92.046875 " fill-opacity="1" fill-rule="nonzero"/></svg>