<svg xmlns="http://www.w3.org/2000/svg" xmlns:xlink="http://www.w3.org/1999/xlink" width="200" zoomAndPan="magnify" viewBox="0 0 150 149.999998" height="200" preserveAspectRatio="xMidYMid meet" version="1.0"><defs><clipPath id="id1"><path d="M 33 77 L 143.023438 77 L 143.023438 104.40625 L 33 104.40625 Z M 33 77 " clip-rule="nonzero"/></clipPath><clipPath id="id2"><path d="M 128 55 L 143.023438 55 L 143.023438 70 L 128 70 Z M 128 55 " clip-rule="nonzero"/></clipPath><clipPath id="id3"><path d="M 6.195312 39.070312 L 139 39.070312 L 139 73 L 6.195312 73 Z M 6.195312 39.070312 " clip-rule="nonzero"/></clipPath></defs><path fill="#545454" d="M 67.429688 84.355469 L 67.429688 87.765625 L 66.300781 87.765625 L 63.511719 97.71875 L 58.902344 97.71875 L 56.714844 91.082031 L 54.457031 97.71875 L 49.976562 97.71875 L 47.132812 87.765625 L 45.984375 87.765625 L 45.984375 84.355469 L 52.265625 84.355469 L 52.265625 87.765625 L 51.167969 87.765625 L 52.597656 93.417969 L 55.121094 84.355469 L 58.335938 84.355469 L 60.992188 93.214844 L 62.253906 87.765625 L 61.125 87.765625 L 61.125 84.355469 Z M 67.429688 84.355469 " fill-opacity="1" fill-rule="nonzero"/><path fill="#545454" d="M 101.273438 84.363281 L 101.273438 87.765625 L 100.121094 87.765625 L 96.355469 97.722656 L 91.851562 97.722656 L 88.085938 87.765625 L 86.933594 87.765625 L 86.933594 84.363281 L 93.21875 84.363281 L 93.21875 87.765625 L 92.125 87.765625 L 94.089844 93.257812 L 96.082031 87.765625 L 94.988281 87.765625 L 94.988281 84.363281 Z M 101.273438 84.363281 " fill-opacity="1" fill-rule="nonzero"/><path fill="#545454" d="M 111.332031 84.355469 L 111.332031 87.765625 L 109.570312 87.765625 L 109.570312 94.3125 L 111.332031 94.3125 L 111.332031 97.71875 L 104.027344 97.71875 L 104.027344 94.3125 L 105.355469 94.3125 L 105.355469 87.765625 L 104.027344 87.765625 L 104.027344 84.355469 Z M 111.332031 84.355469 " fill-opacity="1" fill-rule="nonzero"/><path fill="#545454" d="M 120.078125 85.472656 C 121.035156 84.632812 122.292969 84.121094 123.671875 84.121094 C 126.675781 84.121094 129.082031 86.558594 129.082031 89.5625 L 129.082031 94.675781 L 130.707031 94.675781 L 130.707031 97.71875 L 125.101562 97.71875 L 125.101562 89.761719 C 125.101562 88.519531 124.085938 87.5 122.84375 87.5 C 121.601562 87.5 120.589844 88.511719 120.589844 89.753906 L 120.585938 94.3125 L 122.316406 94.3125 L 122.316406 97.71875 L 115.046875 97.71875 L 115.046875 94.3125 L 116.375 94.3125 L 116.375 87.761719 L 115.046875 87.761719 L 115.046875 84.355469 L 120.078125 84.355469 L 120.078125 85.472656 " fill-opacity="1" fill-rule="nonzero"/><path fill="#545454" d="M 68.585938 91.074219 C 68.585938 94.949219 71.726562 98.085938 75.597656 98.085938 C 77.1875 98.085938 78.652344 97.558594 79.828125 96.664062 L 79.828125 97.714844 L 84.917969 97.714844 L 84.917969 94.308594 L 83.277344 94.308594 L 83.277344 87.757812 L 84.917969 87.757812 L 84.917969 84.351562 L 79.828125 84.351562 L 79.828125 85.488281 C 78.652344 84.59375 77.1875 84.0625 75.597656 84.0625 C 71.726562 84.0625 68.585938 87.203125 68.585938 91.074219 M 72.550781 91.074219 C 72.550781 89.207031 74.066406 87.695312 75.929688 87.695312 C 77.800781 87.695312 79.316406 89.207031 79.316406 91.074219 C 79.316406 92.945312 77.800781 94.460938 75.929688 94.460938 C 74.066406 94.460938 72.550781 92.945312 72.550781 91.074219 " fill-opacity="1" fill-rule="nonzero"/><g clip-path="url(#id1)"><path fill="#545454" d="M 33.804688 91.074219 C 33.804688 98.4375 39.773438 104.402344 47.132812 104.402344 L 129.691406 104.40625 C 137.054688 104.40625 143.023438 98.441406 143.023438 91.082031 C 143.023438 83.71875 137.054688 77.753906 129.691406 77.753906 L 47.132812 77.75 C 39.773438 77.75 33.804688 83.714844 33.804688 91.074219 M 47.132812 101.089844 C 41.605469 101.089844 37.121094 96.609375 37.121094 91.074219 C 37.121094 85.550781 41.605469 81.066406 47.132812 81.066406 L 129.691406 81.070312 C 135.222656 81.070312 139.703125 85.550781 139.703125 91.082031 C 139.703125 96.609375 135.222656 101.089844 129.691406 101.089844 Z M 47.132812 101.089844 " fill-opacity="1" fill-rule="nonzero"/></g><path fill="#545454" d="M 63.71875 61.03125 C 63.671875 60.648438 63.601562 60.226562 63.570312 59.738281 C 63.53125 59.738281 63.351562 60.085938 63.171875 60.519531 C 63.171875 60.519531 63.113281 60.648438 62.945312 61.03125 L 62.085938 62.886719 C 61.890625 63.292969 61.949219 63.636719 62.214844 63.636719 L 63.636719 63.640625 C 63.898438 63.640625 64.0625 63.304688 64 62.890625 Z M 65.410156 68.714844 C 65.144531 68.710938 64.875 68.378906 64.8125 67.960938 L 64.558594 66.34375 C 64.492188 65.929688 64.226562 65.597656 63.964844 65.597656 L 61.277344 65.585938 C 61.015625 65.585938 60.640625 65.921875 60.445312 66.335938 L 59.6875 67.945312 C 59.492188 68.363281 59.121094 68.699219 58.859375 68.699219 L 55.925781 68.691406 C 55.664062 68.691406 55.621094 68.367188 55.828125 67.976562 L 62.300781 55.847656 C 62.507812 55.453125 62.890625 55.132812 63.15625 55.136719 L 65.632812 55.144531 C 65.894531 55.144531 66.175781 55.464844 66.265625 55.855469 L 68.941406 68.011719 C 69.023438 68.40625 68.878906 68.730469 68.621094 68.726562 Z M 65.410156 68.714844 " fill-opacity="1" fill-rule="nonzero"/><path fill="#545454" d="M 83.867188 68.773438 C 83.605469 68.773438 83.421875 68.386719 83.453125 67.914062 L 83.664062 65.058594 C 83.691406 64.59375 83.757812 63.824219 83.796875 63.347656 C 83.796875 63.347656 83.847656 62.726562 84.011719 61.898438 C 83.972656 61.898438 83.765625 62.210938 83.550781 62.589844 C 83.550781 62.589844 83.027344 63.507812 82.5625 64.226562 L 80 68.136719 C 79.769531 68.488281 79.363281 68.78125 79.101562 68.777344 L 77.578125 68.773438 C 77.3125 68.773438 77 68.484375 76.878906 68.132812 L 75.730469 64.84375 C 75.605469 64.496094 75.410156 63.914062 75.296875 63.554688 C 75.296875 63.554688 75.007812 62.675781 74.855469 61.871094 C 74.820312 61.871094 74.726562 62.261719 74.648438 62.730469 C 74.648438 62.730469 74.535156 63.480469 74.355469 64.183594 L 73.40625 67.886719 C 73.289062 68.359375 72.972656 68.738281 72.710938 68.734375 L 69.777344 68.730469 C 69.519531 68.730469 69.398438 68.347656 69.519531 67.875 L 72.496094 56.054688 C 72.617188 55.589844 72.929688 55.203125 73.191406 55.207031 L 75.558594 55.214844 C 75.820312 55.214844 76.136719 55.5 76.253906 55.851562 L 77.902344 60.648438 C 78.027344 61.003906 78.21875 61.589844 78.328125 61.949219 C 78.328125 61.949219 78.75 63.347656 78.976562 64.347656 C 79.015625 64.347656 79.21875 64.027344 79.433594 63.636719 C 79.433594 63.636719 80.175781 62.269531 80.816406 61.296875 L 84.386719 55.875 C 84.621094 55.527344 85.023438 55.242188 85.28125 55.242188 L 87.621094 55.25 C 87.882812 55.25 88.078125 55.632812 88.046875 56.09375 L 87.359375 67.933594 C 87.335938 68.394531 87.101562 68.78125 86.839844 68.777344 Z M 83.867188 68.773438 " fill-opacity="1" fill-rule="nonzero"/><path fill="#545454" d="M 95.789062 61.125 C 95.742188 60.746094 95.671875 60.320312 95.636719 59.828125 C 95.605469 59.828125 95.425781 60.179688 95.242188 60.609375 C 95.242188 60.609375 95.183594 60.742188 95.019531 61.121094 L 94.15625 62.972656 C 93.964844 63.390625 94.019531 63.730469 94.28125 63.730469 L 95.710938 63.738281 C 95.96875 63.738281 96.136719 63.394531 96.070312 62.976562 Z M 97.480469 68.804688 C 97.214844 68.804688 96.949219 68.46875 96.886719 68.050781 L 96.628906 66.441406 C 96.570312 66.023438 96.292969 65.683594 96.039062 65.683594 L 93.347656 65.675781 C 93.085938 65.675781 92.714844 66.011719 92.519531 66.429688 L 91.757812 68.039062 C 91.566406 68.453125 91.195312 68.789062 90.933594 68.789062 L 88 68.78125 C 87.738281 68.78125 87.699219 68.457031 87.902344 68.0625 L 94.367188 55.9375 C 94.578125 55.546875 94.96875 55.226562 95.222656 55.226562 L 97.703125 55.230469 C 97.964844 55.230469 98.253906 55.554688 98.339844 55.953125 L 101.015625 68.105469 C 101.097656 68.496094 100.953125 68.816406 100.691406 68.816406 Z M 97.480469 68.804688 " fill-opacity="1" fill-rule="nonzero"/><path fill="#545454" d="M 112.730469 68.898438 C 112.472656 68.898438 112.105469 68.683594 111.921875 68.433594 L 108.867188 64.226562 C 108.683594 63.976562 108.390625 63.558594 108.214844 63.292969 C 108.214844 63.292969 107.3125 61.984375 106.882812 61.15625 C 106.839844 61.15625 106.773438 61.546875 106.722656 62.015625 C 106.722656 62.015625 106.628906 63.003906 106.515625 63.722656 L 105.851562 67.964844 C 105.777344 68.449219 105.5 68.832031 105.242188 68.828125 L 102.203125 68.824219 C 101.941406 68.824219 101.789062 68.429688 101.863281 67.953125 L 103.707031 56.15625 C 103.777344 55.683594 104.058594 55.296875 104.320312 55.296875 L 106.546875 55.300781 C 106.8125 55.300781 107.171875 55.515625 107.347656 55.777344 L 110.03125 59.734375 C 110.210938 60 110.5 60.429688 110.671875 60.695312 C 110.671875 60.695312 111.488281 61.929688 111.855469 62.675781 C 111.894531 62.664062 111.96875 62.269531 112.011719 61.792969 C 112.011719 61.792969 112.097656 60.917969 112.210938 60.21875 L 112.835938 56.183594 C 112.914062 55.707031 113.191406 55.320312 113.453125 55.324219 L 116.519531 55.332031 C 116.78125 55.332031 116.9375 55.722656 116.863281 56.195312 L 115.011719 68.03125 C 114.941406 68.511719 114.664062 68.898438 114.398438 68.898438 Z M 112.730469 68.898438 " fill-opacity="1" fill-rule="nonzero"/><path fill="#545454" d="M 128.523438 58.183594 C 128.113281 57.863281 127.332031 57.503906 125.96875 57.5 C 123.625 57.492188 121.992188 59.4375 121.570312 62.109375 C 121.160156 64.761719 122.148438 66.714844 124.628906 66.722656 C 125.886719 66.726562 126.878906 66.429688 127.472656 66.007812 L 127.054688 67.660156 C 126.933594 68.125 126.617188 68.578125 126.34375 68.660156 C 126.34375 68.660156 124.960938 69.082031 123.492188 69.074219 C 119.230469 69.0625 116.578125 66.511719 117.265625 62.097656 C 117.949219 57.707031 121.402344 55.15625 125.667969 55.164062 C 127.316406 55.171875 128.660156 55.667969 128.660156 55.667969 C 128.898438 55.761719 129.003906 56.21875 128.890625 56.683594 Z M 128.523438 58.183594 " fill-opacity="1" fill-rule="nonzero"/><g clip-path="url(#id2)"><path fill="#545454" d="M 136.289062 57.574219 C 134.636719 57.570312 132.984375 59.449219 132.5625 62.136719 C 132.144531 64.8125 133.214844 66.703125 134.859375 66.703125 C 136.507812 66.710938 138.164062 64.828125 138.582031 62.160156 C 138.996094 59.464844 137.929688 57.578125 136.289062 57.574219 M 134.484375 69.101562 C 130.042969 69.09375 127.570312 66.308594 128.222656 62.128906 C 128.878906 57.953125 132.21875 55.183594 136.65625 55.191406 C 141.109375 55.207031 143.574219 57.996094 142.917969 62.167969 C 142.265625 66.34375 138.925781 69.113281 134.484375 69.101562 " fill-opacity="1" fill-rule="nonzero"/></g><g clip-path="url(#id3)"><path fill="#545454" d="M 22.457031 66.460938 C 20.691406 55.679688 42.074219 46.285156 80.375 41.527344 C 106.097656 38.339844 131.585938 41.507812 138.433594 47.910156 C 132.113281 40.144531 104.949219 36.898438 70.261719 40.59375 C 33.480469 44.503906 4.824219 54.742188 6.246094 63.464844 C 6.960938 67.8125 15.03125 70.964844 27.507812 72.539062 C 24.832031 71.207031 22.789062 68.503906 22.457031 66.460938 " fill-opacity="1" fill-rule="nonzero"/></g><path fill="#545454" d="M 45.777344 67.996094 C 43.949219 57.597656 64.796875 46.679688 92.328125 43.601562 C 112.324219 41.367188 132.472656 44.222656 139.421875 49.40625 C 133.519531 42.816406 109.949219 39.949219 82.753906 42.988281 C 52.199219 46.402344 28.617188 55.984375 30.09375 64.390625 C 30.855469 68.71875 38.125 71.894531 49.171875 73.484375 C 47.308594 71.84375 46.132812 70.003906 45.777344 67.996094 " fill-opacity="1" fill-rule="nonzero"/></svg>