<svg xmlns="http://www.w3.org/2000/svg" xmlns:xlink="http://www.w3.org/1999/xlink" width="200" zoomAndPan="magnify" viewBox="0 0 150 149.999998" height="200" preserveAspectRatio="xMidYMid meet" version="1.0"><defs><clipPath id="id1"><path d="M 99 53 L 147 53 L 147 96 L 99 96 Z M 99 53 " clip-rule="nonzero"/></clipPath><clipPath id="id2"><path d="M 99.480469 77.046875 C 99.480469 84.667969 103.121094 91.441406 108.757812 95.714844 L 109.792969 95.714844 C 104.613281 91.570312 101.296875 85.199219 101.296875 78.046875 C 101.296875 65.566406 111.417969 55.449219 123.902344 55.449219 C 134.8125 55.449219 143.921875 63.179688 146.042969 73.46875 C 144.3125 62.234375 134.609375 53.636719 122.902344 53.636719 C 109.964844 53.636719 99.480469 64.117188 99.480469 77.046875 " clip-rule="nonzero"/></clipPath></defs><g clip-path="url(#id1)"><g clip-path="url(#id2)"><path fill="#545454" d="M 167.085938 74.675781 L 122.761719 30.355469 L 78.441406 74.675781 L 122.761719 118.996094 Z M 167.085938 74.675781 " fill-opacity="1" fill-rule="nonzero"/></g></g><path fill="#545454" d="M 116 89.597656 C 116.472656 89.644531 117.308594 90.144531 117.679688 90.691406 C 119.113281 92.847656 120.585938 93.621094 122.953125 92.910156 C 125.269531 92.214844 127.371094 90.324219 128.792969 87.53125 C 129.121094 86.792969 130.035156 87.042969 130.808594 87.894531 C 132.898438 90.179688 135.75 89.082031 137.582031 86.429688 C 138.335938 85.34375 138.125 83.878906 137.265625 83.109375 C 134.765625 80.855469 131.785156 81.792969 130.453125 84.089844 C 129.730469 85.183594 128.941406 84.449219 129.425781 83.113281 C 130.527344 80.089844 130.742188 77.742188 128.179688 76.175781 C 126.566406 75.1875 126.195312 74.917969 124.613281 72.753906 C 123.585938 71.34375 121.933594 71.234375 120.414062 72.300781 C 118.429688 74.054688 116.066406 74.820312 113.554688 74.828125 C 112.644531 74.828125 111.625 74.804688 110.707031 74.828125 C 109.5625 74.855469 109.117188 75.105469 108.652344 75.796875 C 105.878906 79.910156 106.488281 83.40625 109.671875 84.496094 C 110.976562 84.941406 111.765625 85.238281 112.492188 86.800781 C 113.292969 88.605469 114.429688 89.441406 116 89.597656 M 123.144531 62.851562 C 120.761719 65.605469 121.335938 68.363281 123.5 69.679688 C 126.429688 71.460938 129.050781 69.574219 130.613281 66.933594 C 133.003906 62.910156 132.050781 61.523438 130.609375 60.835938 C 129.554688 60.328125 126.207031 59.324219 123.144531 62.851562 M 111.648438 65.28125 C 109.761719 68.582031 109.773438 71.917969 112.859375 72.984375 C 114.464844 73.542969 117.578125 72.34375 118.976562 68.71875 C 120.320312 65.230469 119.269531 61.957031 117.277344 61.445312 C 114.65625 60.773438 113.289062 62.414062 111.648438 65.28125 M 130.835938 73.179688 C 131.457031 71.957031 133.136719 68.144531 136.6875 68.972656 C 138.625 69.425781 140.085938 70.289062 138.109375 74.292969 C 136.519531 77.511719 134.492188 79.039062 132.460938 78.570312 C 130.636719 78.148438 129.207031 76.371094 130.835938 73.179688 " fill-opacity="1" fill-rule="evenodd"/><path fill="#545454" d="M 16.394531 85.578125 L 20.027344 67.460938 L 27.128906 67.460938 L 27.847656 63.855469 L 6.785156 63.855469 L 6.066406 67.460938 L 13.226562 67.460938 L 9.589844 85.578125 Z M 31.785156 85.578125 L 36.113281 63.855469 L 29.308594 63.855469 L 24.984375 85.578125 Z M 48.414062 82.421875 C 48.117188 82.445312 47.777344 82.476562 47.433594 82.496094 C 44.523438 82.289062 42.660156 80.183594 42.660156 77.136719 C 42.660156 72.609375 45.691406 67.230469 50.605469 66.933594 C 54.8125 66.871094 57.195312 68.261719 57.5 68.390625 L 58.3125 64.214844 C 56.121094 63.640625 53.835938 63.3125 51.523438 63.3125 L 50.515625 63.3125 C 40.808594 63.3125 35.492188 71.695312 35.492188 77.828125 C 35.492188 82.695312 38.46875 86.121094 44.507812 86.121094 C 44.714844 86.121094 44.917969 86.117188 45.125 86.113281 C 45.253906 86.117188 45.382812 86.121094 45.511719 86.121094 C 48.726562 86.121094 51.550781 85.730469 54.316406 85.128906 L 56.238281 75.453125 L 49.824219 75.453125 Z M 70.164062 85.578125 L 77.238281 85.578125 L 73 75.664062 C 76.125 74.3125 78.738281 71.488281 78.738281 68.121094 C 78.738281 66.105469 77.355469 63.851562 73.058594 63.851562 L 61.179688 63.851562 L 56.851562 85.578125 L 63.292969 85.578125 L 66.871094 67.46875 C 67.425781 67.417969 68.796875 67.484375 69.6875 67.46875 C 70.800781 67.503906 71.933594 67.738281 71.933594 69.113281 C 71.933594 71.15625 69.894531 73.648438 66.976562 73.648438 L 66.195312 73.667969 Z M 77.621094 85.578125 L 81.949219 63.855469 L 97.707031 63.855469 L 96.988281 67.460938 L 88.03125 67.460938 L 86.949219 72.75 L 94.132812 72.75 L 93.5 75.992188 L 86.347656 75.992188 L 85.144531 81.972656 L 94.824219 81.972656 L 94.101562 85.578125 " fill-opacity="1" fill-rule="evenodd"/></svg>