<svg xmlns="http://www.w3.org/2000/svg" xmlns:xlink="http://www.w3.org/1999/xlink" width="200" zoomAndPan="magnify" viewBox="0 0 150 149.999998" height="200" preserveAspectRatio="xMidYMid meet" version="1.0"><defs><clipPath id="id1"><path d="M 0 39.949219 L 150 39.949219 L 150 109.699219 L 0 109.699219 Z M 0 39.949219 " clip-rule="nonzero"/></clipPath></defs><g clip-path="url(#id1)"><path fill="#545454" d="M 0 52.957031 L 0 102.136719 L 150 109.691406 L 150 39.960938 Z M 0 52.957031 " fill-opacity="1" fill-rule="nonzero"/></g><path fill="#ffffff" d="M 49.648438 85.527344 C 44.609375 85.527344 41.628906 81.617188 41.628906 77.1875 C 41.628906 72.789062 44.578125 68.917969 49.648438 68.917969 C 54.621094 68.917969 57.601562 72.828125 57.601562 77.1875 C 57.640625 81.617188 54.628906 85.527344 49.648438 85.527344 M 49.648438 63.148438 C 40.679688 63.148438 35.378906 69.855469 35.378906 77.1875 C 35.378906 84.550781 40.679688 91.261719 49.648438 91.261719 C 58.550781 91.261719 63.851562 84.550781 63.851562 77.1875 C 63.859375 69.863281 58.550781 63.148438 49.648438 63.148438 M 35.898438 63.832031 L 17.511719 63.832031 L 17.511719 69.40625 L 23.601562 69.40625 L 23.601562 90.574219 L 29.820312 90.574219 L 29.820312 69.40625 L 35.898438 69.40625 Z M 75.828125 78.035156 L 72.03125 78.035156 L 72.03125 69.109375 L 75.828125 69.109375 C 78.871094 69.109375 80.578125 70.699219 80.578125 73.566406 C 80.550781 76.472656 78.851562 78.035156 75.828125 78.035156 M 86.730469 73.476562 C 86.730469 68.300781 82.898438 63.832031 76.488281 63.832031 L 65.851562 63.832031 L 65.851562 90.574219 L 72 90.574219 L 72 83.179688 L 74.878906 83.179688 L 79.691406 90.574219 L 86.730469 90.574219 L 81.070312 82.035156 C 84.378906 80.570312 86.730469 77.707031 86.730469 73.476562 M 117.070312 81.945312 L 120.308594 70.640625 L 123.390625 81.945312 Z M 98.578125 78.035156 L 94.78125 78.035156 L 94.78125 69.109375 L 98.578125 69.109375 C 101.621094 69.109375 103.328125 70.699219 103.328125 73.566406 C 103.328125 76.472656 101.628906 78.035156 98.578125 78.035156 M 123.648438 63.832031 L 117.171875 63.832031 L 108.558594 89.210938 L 103.808594 82.042969 C 107.121094 80.542969 109.46875 77.714844 109.46875 73.476562 C 109.46875 68.300781 105.640625 63.832031 99.230469 63.832031 L 88.601562 63.832031 L 88.601562 90.574219 L 94.75 90.574219 L 94.75 83.179688 L 97.628906 83.179688 L 102.441406 90.574219 L 114.449219 90.574219 L 115.601562 86.960938 L 124.929688 86.960938 L 126.109375 90.574219 L 132.921875 90.574219 Z M 123.648438 63.832031 " fill-opacity="1" fill-rule="nonzero"/></svg>