<svg xmlns="http://www.w3.org/2000/svg" xmlns:xlink="http://www.w3.org/1999/xlink" width="200" zoomAndPan="magnify" viewBox="0 0 150 149.999998" height="200" preserveAspectRatio="xMidYMid meet" version="1.0"><defs><clipPath id="id1"><path d="M 0 86 L 7 86 L 7 95.25 L 0 95.25 Z M 0 86 " clip-rule="nonzero"/></clipPath><clipPath id="id2"><path d="M 9 86 L 17 86 L 17 95.25 L 9 95.25 Z M 9 86 " clip-rule="nonzero"/></clipPath><clipPath id="id3"><path d="M 19 86 L 26 86 L 26 95.25 L 19 95.25 Z M 19 86 " clip-rule="nonzero"/></clipPath><clipPath id="id4"><path d="M 28.089844 85.851562 L 37.527344 85.851562 L 37.527344 95.242188 L 28.089844 95.242188 Z M 28.089844 85.851562 " clip-rule="nonzero"/></clipPath><clipPath id="id5"><path d="M 40.097656 86 L 46.316406 86 L 46.316406 95.242188 L 40.097656 95.242188 Z M 40.097656 86 " clip-rule="nonzero"/></clipPath><clipPath id="id6"><path d="M 57.46875 86 L 62.402344 86 L 62.402344 95.242188 L 57.46875 95.242188 Z M 57.46875 86 " clip-rule="nonzero"/></clipPath><clipPath id="id7"><path d="M 72.480469 86.066406 L 80.199219 86.066406 L 80.199219 95.242188 L 72.480469 95.242188 Z M 72.480469 86.066406 " clip-rule="nonzero"/></clipPath><clipPath id="id8"><path d="M 83 85.636719 L 92.421875 85.636719 L 92.421875 95.242188 L 83 95.242188 Z M 83 85.636719 " clip-rule="nonzero"/></clipPath><clipPath id="id9"><path d="M 95.636719 85.636719 L 103.574219 85.636719 L 103.574219 95.242188 L 95.636719 95.242188 Z M 95.636719 85.636719 " clip-rule="nonzero"/></clipPath><clipPath id="id10"><path d="M 107.21875 85.851562 L 112.363281 85.851562 L 112.363281 95.242188 L 107.21875 95.242188 Z M 107.21875 85.851562 " clip-rule="nonzero"/></clipPath><clipPath id="id11"><path d="M 114.078125 86 L 122 86 L 122 95.242188 L 114.078125 95.242188 Z M 114.078125 86 " clip-rule="nonzero"/></clipPath><clipPath id="id12"><path d="M 123.730469 83.921875 L 133.378906 83.921875 L 133.378906 95.242188 L 123.730469 95.242188 Z M 123.730469 83.921875 " clip-rule="nonzero"/></clipPath><clipPath id="id13"><path d="M 136.382812 86 L 141.527344 86 L 141.527344 95.242188 L 136.382812 95.242188 Z M 136.382812 86 " clip-rule="nonzero"/></clipPath><clipPath id="id14"><path d="M 144.101562 86 L 150 86 L 150 95.242188 L 144.101562 95.242188 Z M 144.101562 86 " clip-rule="nonzero"/></clipPath><clipPath id="id15"><path d="M 0 54.757812 L 150 54.757812 L 150 56.902344 L 0 56.902344 Z M 0 54.757812 " clip-rule="nonzero"/></clipPath><clipPath id="id16"><path d="M 0 79.417969 L 150 79.417969 L 150 81.5625 L 0 81.5625 Z M 0 79.417969 " clip-rule="nonzero"/></clipPath><clipPath id="id17"><path d="M 0 58 L 150 58 L 150 78.347656 L 0 78.347656 Z M 0 58 " clip-rule="nonzero"/></clipPath></defs><g clip-path="url(#id1)"><path fill="#545454" d="M 3.914062 87.539062 L 3.914062 95.023438 L 2.429688 95.023438 L 2.429688 87.539062 L 0 87.539062 L 0 86.339844 L 6.332031 86.339844 L 6.332031 87.539062 " fill-opacity="1" fill-rule="nonzero"/></g><g clip-path="url(#id2)"><path fill="#545454" d="M 9.023438 86.355469 L 10.417969 86.355469 L 10.417969 91.484375 C 10.417969 92.246094 10.597656 92.816406 10.960938 93.199219 C 11.320312 93.582031 11.863281 93.773438 12.582031 93.773438 C 13.296875 93.773438 13.835938 93.582031 14.199219 93.199219 C 14.5625 92.816406 14.742188 92.246094 14.742188 91.484375 L 14.742188 86.355469 L 16.152344 86.355469 L 16.152344 91.609375 C 16.152344 92.753906 15.855469 93.609375 15.265625 94.175781 C 14.671875 94.742188 13.777344 95.023438 12.582031 95.023438 C 11.386719 95.023438 10.496094 94.742188 9.90625 94.175781 C 9.316406 93.613281 9.023438 92.757812 9.023438 91.609375 " fill-opacity="1" fill-rule="nonzero"/></g><g clip-path="url(#id3)"><path fill="#545454" d="M 21.273438 93.84375 L 21.746094 93.84375 C 22.226562 93.84375 22.589844 93.824219 22.828125 93.785156 C 23.066406 93.746094 23.253906 93.675781 23.394531 93.578125 C 23.5625 93.464844 23.695312 93.308594 23.785156 93.113281 C 23.878906 92.921875 23.925781 92.707031 23.925781 92.476562 C 23.925781 92.199219 23.867188 91.957031 23.757812 91.75 C 23.644531 91.546875 23.484375 91.386719 23.277344 91.269531 C 23.148438 91.203125 22.996094 91.152344 22.828125 91.121094 C 22.664062 91.089844 22.441406 91.074219 22.164062 91.074219 L 21.273438 91.074219 Z M 21.273438 90.007812 L 21.796875 90.007812 C 22.453125 90.007812 22.917969 89.914062 23.1875 89.730469 C 23.457031 89.546875 23.59375 89.238281 23.59375 88.804688 C 23.59375 88.328125 23.46875 87.996094 23.21875 87.804688 C 22.96875 87.613281 22.496094 87.515625 21.796875 87.515625 L 21.273438 87.515625 Z M 19.929688 95.023438 L 19.929688 86.339844 L 22.058594 86.339844 C 22.667969 86.339844 23.117188 86.375 23.40625 86.441406 C 23.699219 86.507812 23.945312 86.621094 24.148438 86.773438 C 24.410156 86.972656 24.613281 87.230469 24.757812 87.550781 C 24.902344 87.871094 24.976562 88.226562 24.976562 88.613281 C 24.976562 89.074219 24.871094 89.460938 24.664062 89.773438 C 24.457031 90.082031 24.152344 90.300781 23.757812 90.421875 C 24.25 90.5 24.636719 90.730469 24.921875 91.113281 C 25.203125 91.496094 25.34375 91.976562 25.34375 92.558594 C 25.34375 92.910156 25.285156 93.242188 25.164062 93.558594 C 25.046875 93.875 24.878906 94.144531 24.65625 94.367188 C 24.425781 94.609375 24.140625 94.777344 23.796875 94.875 C 23.453125 94.976562 22.878906 95.023438 22.070312 95.023438 " fill-opacity="1" fill-rule="nonzero"/></g><g clip-path="url(#id4)"><path fill="#545454" d="M 35.96875 90.550781 C 35.96875 90.097656 35.890625 89.667969 35.730469 89.261719 C 35.570312 88.855469 35.34375 88.492188 35.046875 88.175781 C 34.757812 87.863281 34.421875 87.621094 34.039062 87.453125 C 33.660156 87.285156 33.257812 87.199219 32.835938 87.199219 C 32.414062 87.199219 32.011719 87.28125 31.632812 87.449219 C 31.25 87.617188 30.910156 87.859375 30.613281 88.175781 C 30.316406 88.488281 30.089844 88.851562 29.933594 89.257812 C 29.777344 89.664062 29.699219 90.09375 29.699219 90.550781 C 29.699219 91.003906 29.777344 91.429688 29.933594 91.832031 C 30.089844 92.234375 30.316406 92.597656 30.613281 92.914062 C 30.910156 93.230469 31.25 93.472656 31.628906 93.640625 C 32.007812 93.808594 32.410156 93.890625 32.835938 93.890625 C 33.253906 93.890625 33.652344 93.808594 34.027344 93.640625 C 34.40625 93.472656 34.746094 93.230469 35.046875 92.914062 C 35.34375 92.597656 35.570312 92.234375 35.730469 91.828125 C 35.890625 91.425781 35.96875 91 35.96875 90.550781 M 37.421875 90.550781 C 37.421875 91.1875 37.308594 91.785156 37.078125 92.351562 C 36.851562 92.917969 36.519531 93.421875 36.078125 93.867188 C 35.636719 94.308594 35.140625 94.648438 34.582031 94.886719 C 34.027344 95.121094 33.445312 95.242188 32.835938 95.242188 C 32.21875 95.242188 31.628906 95.121094 31.066406 94.882812 C 30.507812 94.644531 30.011719 94.304688 29.582031 93.867188 C 29.140625 93.421875 28.8125 92.921875 28.582031 92.359375 C 28.355469 91.796875 28.242188 91.195312 28.242188 90.550781 C 28.242188 89.910156 28.355469 89.308594 28.582031 88.742188 C 28.8125 88.179688 29.140625 87.671875 29.582031 87.222656 C 30.019531 86.78125 30.515625 86.441406 31.070312 86.210938 C 31.625 85.976562 32.214844 85.863281 32.835938 85.863281 C 33.453125 85.863281 34.039062 85.976562 34.59375 86.210938 C 35.144531 86.441406 35.640625 86.78125 36.078125 87.222656 C 36.519531 87.675781 36.851562 88.183594 37.078125 88.753906 C 37.308594 89.320312 37.421875 89.921875 37.421875 90.550781 " fill-opacity="1" fill-rule="nonzero"/></g><g clip-path="url(#id5)"><path fill="#545454" d="M 40.292969 93.25 L 41.472656 92.71875 C 41.582031 93.113281 41.789062 93.410156 42.085938 93.617188 C 42.382812 93.824219 42.765625 93.925781 43.226562 93.925781 C 43.667969 93.925781 44.015625 93.808594 44.273438 93.574219 C 44.53125 93.335938 44.660156 93.019531 44.660156 92.625 C 44.660156 92.109375 44.21875 91.648438 43.332031 91.242188 C 43.210938 91.183594 43.113281 91.140625 43.046875 91.109375 C 42.046875 90.640625 41.378906 90.210938 41.046875 89.828125 C 40.710938 89.449219 40.546875 88.980469 40.546875 88.429688 C 40.546875 87.710938 40.796875 87.132812 41.300781 86.6875 C 41.804688 86.246094 42.460938 86.023438 43.277344 86.023438 C 43.949219 86.023438 44.507812 86.148438 44.960938 86.398438 C 45.410156 86.648438 45.722656 87.007812 45.898438 87.472656 L 44.742188 88.050781 C 44.558594 87.773438 44.359375 87.574219 44.144531 87.445312 C 43.925781 87.316406 43.675781 87.253906 43.394531 87.253906 C 42.996094 87.253906 42.683594 87.351562 42.449219 87.554688 C 42.214844 87.753906 42.097656 88.019531 42.097656 88.355469 C 42.097656 88.886719 42.613281 89.378906 43.636719 89.832031 C 43.714844 89.867188 43.777344 89.898438 43.824219 89.917969 C 44.722656 90.316406 45.339844 90.707031 45.671875 91.089844 C 46.007812 91.472656 46.175781 91.949219 46.175781 92.523438 C 46.175781 93.355469 45.90625 94.015625 45.363281 94.503906 C 44.820312 94.996094 44.089844 95.242188 43.167969 95.242188 C 42.390625 95.242188 41.757812 95.066406 41.261719 94.722656 C 40.769531 94.378906 40.445312 93.886719 40.292969 93.25 " fill-opacity="1" fill-rule="nonzero"/></g><g clip-path="url(#id6)"><path fill="#545454" d="M 57.488281 95.242188 L 57.488281 86.023438 L 62.304688 86.023438 L 62.304688 87.292969 L 58.894531 87.292969 L 58.894531 89.605469 L 62.304688 89.605469 L 62.304688 90.921875 L 58.894531 90.921875 L 58.894531 93.898438 L 62.304688 93.898438 L 62.304688 95.242188 " fill-opacity="1" fill-rule="nonzero"/></g><g clip-path="url(#id7)"><path fill="#545454" d="M 79.949219 88.40625 C 79.550781 88.066406 79.128906 87.8125 78.6875 87.640625 C 78.246094 87.472656 77.777344 87.386719 77.289062 87.386719 C 76.347656 87.386719 75.578125 87.691406 74.984375 88.300781 C 74.394531 88.910156 74.097656 89.699219 74.097656 90.667969 C 74.097656 91.605469 74.386719 92.378906 74.960938 92.988281 C 75.539062 93.597656 76.265625 93.902344 77.144531 93.902344 C 77.65625 93.902344 78.140625 93.8125 78.605469 93.628906 C 79.066406 93.449219 79.511719 93.171875 79.9375 92.804688 L 79.9375 94.402344 C 79.558594 94.675781 79.148438 94.878906 78.703125 95.011719 C 78.257812 95.148438 77.773438 95.214844 77.253906 95.214844 C 76.59375 95.214844 75.984375 95.105469 75.421875 94.890625 C 74.863281 94.671875 74.367188 94.351562 73.945312 93.925781 C 73.523438 93.511719 73.199219 93.023438 72.972656 92.457031 C 72.746094 91.894531 72.632812 91.292969 72.632812 90.65625 C 72.632812 90.019531 72.746094 89.421875 72.972656 88.863281 C 73.199219 88.300781 73.527344 87.808594 73.957031 87.386719 C 74.386719 86.960938 74.875 86.636719 75.429688 86.417969 C 75.988281 86.195312 76.585938 86.085938 77.230469 86.085938 C 77.738281 86.085938 78.222656 86.160156 78.683594 86.308594 C 79.144531 86.457031 79.589844 86.683594 80.023438 86.984375 " fill-opacity="1" fill-rule="nonzero"/></g><g clip-path="url(#id8)"><path fill="#545454" d="M 90.882812 90.527344 C 90.882812 90.074219 90.800781 89.644531 90.644531 89.238281 C 90.484375 88.832031 90.257812 88.46875 89.960938 88.152344 C 89.671875 87.835938 89.335938 87.597656 88.957031 87.425781 C 88.574219 87.257812 88.171875 87.171875 87.75 87.171875 C 87.328125 87.171875 86.925781 87.257812 86.542969 87.425781 C 86.164062 87.589844 85.824219 87.832031 85.527344 88.152344 C 85.230469 88.464844 85.003906 88.824219 84.847656 89.230469 C 84.691406 89.640625 84.613281 90.070312 84.613281 90.527344 C 84.613281 90.976562 84.691406 91.40625 84.847656 91.808594 C 85.003906 92.210938 85.230469 92.570312 85.527344 92.890625 C 85.824219 93.207031 86.164062 93.449219 86.542969 93.617188 C 86.921875 93.78125 87.324219 93.867188 87.75 93.867188 C 88.167969 93.867188 88.566406 93.78125 88.941406 93.617188 C 89.320312 93.449219 89.660156 93.207031 89.960938 92.890625 C 90.257812 92.570312 90.484375 92.210938 90.644531 91.804688 C 90.800781 91.398438 90.882812 90.972656 90.882812 90.527344 M 92.335938 90.527344 C 92.335938 91.160156 92.222656 91.761719 91.992188 92.328125 C 91.765625 92.894531 91.429688 93.398438 90.992188 93.839844 C 90.550781 94.285156 90.054688 94.625 89.496094 94.859375 C 88.941406 95.097656 88.359375 95.214844 87.75 95.214844 C 87.132812 95.214844 86.542969 95.097656 85.980469 94.859375 C 85.421875 94.621094 84.925781 94.28125 84.496094 93.839844 C 84.054688 93.398438 83.726562 92.894531 83.496094 92.332031 C 83.269531 91.769531 83.15625 91.167969 83.15625 90.527344 C 83.15625 89.886719 83.269531 89.285156 83.496094 88.71875 C 83.726562 88.152344 84.054688 87.644531 84.496094 87.199219 C 84.933594 86.753906 85.429688 86.417969 85.984375 86.183594 C 86.539062 85.953125 87.128906 85.835938 87.75 85.835938 C 88.367188 85.835938 88.953125 85.953125 89.507812 86.183594 C 90.058594 86.417969 90.554688 86.753906 90.992188 87.199219 C 91.429688 87.648438 91.765625 88.160156 91.992188 88.726562 C 92.222656 89.296875 92.335938 89.894531 92.335938 90.527344 " fill-opacity="1" fill-rule="nonzero"/></g><g clip-path="url(#id9)"><path fill="#545454" d="M 95.789062 94.875 L 95.789062 85.785156 L 101.289062 91.128906 C 101.441406 91.28125 101.589844 91.441406 101.746094 91.613281 C 101.898438 91.785156 102.0625 91.976562 102.230469 92.191406 L 102.230469 86.128906 L 103.53125 86.128906 L 103.53125 95.214844 L 97.917969 89.773438 C 97.769531 89.628906 97.625 89.472656 97.484375 89.308594 C 97.34375 89.144531 97.210938 88.972656 97.085938 88.792969 L 97.085938 94.875 " fill-opacity="1" fill-rule="nonzero"/></g><g clip-path="url(#id10)"><path fill="#545454" d="M 107.390625 95.214844 L 107.390625 85.996094 L 112.207031 85.996094 L 112.207031 87.269531 L 108.792969 87.269531 L 108.792969 89.582031 L 112.207031 89.582031 L 112.207031 90.894531 L 108.792969 90.894531 L 108.792969 93.875 L 112.207031 93.875 L 112.207031 95.214844 " fill-opacity="1" fill-rule="nonzero"/></g><g clip-path="url(#id11)"><path fill="#545454" d="M 114.253906 95.214844 L 117.308594 90.402344 L 114.609375 86.015625 L 116.214844 86.015625 L 117.570312 88.265625 C 117.644531 88.382812 117.78125 88.625 117.976562 88.996094 L 118.074219 89.175781 C 118.140625 89.046875 118.21875 88.910156 118.300781 88.761719 C 118.386719 88.617188 118.480469 88.457031 118.585938 88.277344 L 120.019531 86.015625 L 121.589844 86.015625 L 118.835938 90.375 L 121.800781 95.214844 L 120.109375 95.214844 L 118.535156 92.605469 L 118.511719 92.5625 C 118.339844 92.25 118.179688 91.953125 118.035156 91.675781 C 117.960938 91.820312 117.882812 91.96875 117.796875 92.121094 C 117.710938 92.273438 117.617188 92.429688 117.519531 92.589844 L 115.875 95.214844 " fill-opacity="1" fill-rule="nonzero"/></g><g clip-path="url(#id12)"><path fill="#545454" d="M 130.300781 83.925781 C 130.230469 84.320312 130.089844 84.625 129.882812 84.839844 C 129.675781 85.058594 129.425781 85.164062 129.128906 85.164062 C 129.074219 85.164062 129.023438 85.164062 128.96875 85.15625 C 128.917969 85.152344 128.863281 85.140625 128.808594 85.128906 L 128.0625 84.941406 C 127.996094 84.925781 127.949219 84.917969 127.917969 84.914062 C 127.886719 84.910156 127.855469 84.910156 127.832031 84.910156 C 127.691406 84.910156 127.582031 84.941406 127.503906 85.003906 C 127.421875 85.070312 127.359375 85.171875 127.316406 85.3125 L 126.773438 85.3125 C 126.867188 84.894531 127.003906 84.582031 127.191406 84.375 C 127.378906 84.171875 127.617188 84.070312 127.910156 84.070312 C 127.972656 84.070312 128.03125 84.074219 128.09375 84.082031 C 128.15625 84.089844 128.21875 84.101562 128.277344 84.117188 L 128.984375 84.300781 C 129.015625 84.308594 129.050781 84.316406 129.089844 84.320312 C 129.132812 84.324219 129.191406 84.328125 129.265625 84.328125 C 129.390625 84.328125 129.496094 84.292969 129.578125 84.222656 C 129.664062 84.152344 129.722656 84.054688 129.757812 83.925781 Z M 131.753906 90.644531 C 131.753906 90.203125 131.671875 89.785156 131.507812 89.386719 C 131.347656 88.988281 131.113281 88.636719 130.808594 88.328125 C 130.511719 88.019531 130.164062 87.785156 129.773438 87.621094 C 129.382812 87.457031 128.96875 87.375 128.539062 87.375 C 128.105469 87.375 127.691406 87.457031 127.300781 87.617188 C 126.910156 87.78125 126.5625 88.015625 126.253906 88.328125 C 125.949219 88.632812 125.71875 88.984375 125.558594 89.378906 C 125.394531 89.777344 125.316406 90.199219 125.316406 90.644531 C 125.316406 91.082031 125.394531 91.5 125.558594 91.894531 C 125.71875 92.285156 125.949219 92.636719 126.253906 92.949219 C 126.5625 93.257812 126.90625 93.492188 127.296875 93.65625 C 127.6875 93.816406 128.101562 93.898438 128.539062 93.898438 C 128.96875 93.898438 129.375 93.816406 129.761719 93.65625 C 130.148438 93.492188 130.5 93.257812 130.808594 92.949219 C 131.113281 92.636719 131.347656 92.285156 131.507812 91.890625 C 131.671875 91.496094 131.753906 91.078125 131.753906 90.644531 M 133.246094 90.644531 C 133.246094 91.261719 133.128906 91.847656 132.894531 92.398438 C 132.660156 92.949219 132.316406 93.441406 131.867188 93.875 C 131.414062 94.308594 130.902344 94.640625 130.332031 94.871094 C 129.761719 95.101562 129.164062 95.214844 128.539062 95.214844 C 127.902344 95.214844 127.296875 95.097656 126.722656 94.867188 C 126.144531 94.632812 125.636719 94.304688 125.195312 93.875 C 124.746094 93.441406 124.40625 92.953125 124.171875 92.40625 C 123.941406 91.859375 123.824219 91.269531 123.824219 90.644531 C 123.824219 90.019531 123.941406 89.433594 124.171875 88.878906 C 124.40625 88.328125 124.746094 87.835938 125.195312 87.398438 C 125.644531 86.964844 126.15625 86.636719 126.726562 86.410156 C 127.296875 86.183594 127.898438 86.070312 128.539062 86.070312 C 129.171875 86.070312 129.773438 86.183594 130.339844 86.410156 C 130.910156 86.636719 131.417969 86.964844 131.867188 87.398438 C 132.316406 87.839844 132.660156 88.335938 132.894531 88.890625 C 133.128906 89.441406 133.246094 90.027344 133.246094 90.644531 " fill-opacity="1" fill-rule="nonzero"/></g><g clip-path="url(#id13)"><path fill="#545454" d="M 136.59375 95.226562 L 136.59375 86.015625 L 141.410156 86.015625 L 141.410156 87.289062 L 137.996094 87.289062 L 137.996094 89.597656 L 141.410156 89.597656 L 141.410156 90.910156 L 137.996094 90.910156 L 137.996094 93.886719 L 141.410156 93.886719 L 141.410156 95.226562 " fill-opacity="1" fill-rule="nonzero"/></g><g clip-path="url(#id14)"><path fill="#545454" d="M 144.269531 93.238281 L 145.410156 92.710938 C 145.515625 93.101562 145.714844 93.402344 146.003906 93.605469 C 146.292969 93.8125 146.660156 93.914062 147.109375 93.914062 C 147.53125 93.914062 147.871094 93.796875 148.121094 93.5625 C 148.371094 93.324219 148.496094 93.007812 148.496094 92.613281 C 148.496094 92.097656 148.066406 91.636719 147.210938 91.234375 C 147.089844 91.171875 147 91.128906 146.933594 91.101562 C 145.964844 90.628906 145.320312 90.203125 144.996094 89.820312 C 144.675781 89.4375 144.515625 88.96875 144.515625 88.417969 C 144.515625 87.703125 144.757812 87.121094 145.246094 86.675781 C 145.730469 86.234375 146.367188 86.011719 147.15625 86.011719 C 147.804688 86.011719 148.347656 86.136719 148.785156 86.386719 C 149.21875 86.636719 149.523438 86.996094 149.691406 87.464844 L 148.574219 88.039062 C 148.398438 87.765625 148.203125 87.5625 147.996094 87.433594 C 147.785156 87.304688 147.542969 87.242188 147.269531 87.242188 C 146.886719 87.242188 146.582031 87.34375 146.355469 87.542969 C 146.128906 87.742188 146.015625 88.011719 146.015625 88.347656 C 146.015625 88.875 146.511719 89.367188 147.503906 89.824219 C 147.582031 89.859375 147.640625 89.886719 147.683594 89.90625 C 148.554688 90.308594 149.148438 90.699219 149.472656 91.082031 C 149.796875 91.460938 149.960938 91.941406 149.960938 92.511719 C 149.960938 93.34375 149.699219 94.003906 149.171875 94.496094 C 148.648438 94.984375 147.941406 95.230469 147.046875 95.230469 C 146.300781 95.230469 145.6875 95.058594 145.207031 94.714844 C 144.730469 94.371094 144.417969 93.878906 144.269531 93.238281 " fill-opacity="1" fill-rule="nonzero"/></g><g clip-path="url(#id15)"><path fill="#545454" d="M 0.0351562 56.773438 L 150 56.773438 L 150 54.757812 L 0.0351562 54.757812 Z M 0.0351562 56.773438 " fill-opacity="1" fill-rule="nonzero"/></g><g clip-path="url(#id16)"><path fill="#545454" d="M 0.0351562 81.527344 L 150 81.527344 L 150 79.515625 L 0.0351562 79.515625 Z M 0.0351562 81.527344 " fill-opacity="1" fill-rule="nonzero"/></g><g clip-path="url(#id17)"><path fill="#545454" d="M 0.0351562 78.265625 L 150 78.265625 L 150 58.070312 L 0.0351562 58.070312 Z M 0.0351562 78.265625 " fill-opacity="1" fill-rule="nonzero"/></g><path fill="#ffffff" d="M 22.355469 70.855469 C 20.945312 70.855469 19.800781 69.578125 19.800781 68 C 19.800781 66.421875 20.945312 65.144531 22.355469 65.144531 C 23.765625 65.144531 24.910156 66.421875 24.910156 68 C 24.910156 69.578125 23.765625 70.855469 22.355469 70.855469 M 22.367188 60.132812 C 17.902344 60.132812 14.285156 63.679688 14.285156 68.058594 C 14.285156 72.4375 17.902344 75.988281 22.367188 75.988281 C 26.832031 75.988281 30.449219 72.4375 30.449219 68.058594 C 30.449219 63.679688 26.832031 60.132812 22.367188 60.132812 " fill-opacity="1" fill-rule="nonzero"/><path fill="#ffffff" d="M 36.175781 67.601562 L 36.175781 64.625 C 36.175781 64.625 38.382812 64.371094 38.511719 65.714844 C 38.511719 65.714844 39.085938 67.824219 36.175781 67.601562 M 40.8125 69.710938 C 42.796875 69.648438 43.53125 67.410156 43.53125 67.410156 C 43.753906 66.671875 43.722656 65.074219 43.722656 65.074219 C 43.152344 60.46875 37.96875 60.882812 37.96875 60.882812 L 30.835938 60.882812 L 30.835938 75.988281 L 36.175781 75.988281 L 36.175781 70.894531 L 38.796875 75.988281 L 44.84375 75.988281 " fill-opacity="1" fill-rule="nonzero"/><path fill="#ffffff" d="M 50.375 67.601562 L 50.375 64.625 C 50.375 64.625 52.582031 64.371094 52.710938 65.714844 C 52.710938 65.714844 53.285156 67.824219 50.375 67.601562 M 55.011719 69.710938 C 56.996094 69.648438 57.730469 67.410156 57.730469 67.410156 C 57.957031 66.671875 57.921875 65.074219 57.921875 65.074219 C 57.351562 60.46875 52.167969 60.882812 52.167969 60.882812 L 45.035156 60.882812 L 45.035156 75.988281 L 50.375 75.988281 L 50.375 70.894531 L 53 75.988281 L 59.042969 75.988281 " fill-opacity="1" fill-rule="nonzero"/><path fill="#ffffff" d="M 83.382812 70.894531 L 83.382812 60.863281 L 78.199219 60.863281 L 78.199219 75.988281 L 86.355469 75.988281 L 86.355469 70.894531 " fill-opacity="1" fill-rule="nonzero"/><path fill="#ffffff" d="M 92.523438 70.285156 L 93.648438 65.265625 L 94.875 70.285156 Z M 96.269531 75.988281 L 102.058594 75.988281 L 96.6875 60.863281 L 90.832031 60.863281 L 86.226562 73.835938 L 86.226562 75.988281 L 91.25 75.988281 L 91.746094 73.773438 L 95.730469 73.773438 " fill-opacity="1" fill-rule="nonzero"/><path fill="#ffffff" d="M 102.058594 74.5 L 103.828125 70.230469 C 103.828125 70.230469 105.375 71.464844 106.871094 71.742188 C 106.871094 71.742188 108.601562 72.175781 108.648438 71.09375 C 108.648438 71.09375 108.816406 70.277344 106.898438 70.0625 C 106.898438 70.0625 103.707031 69.75 102.960938 66.847656 C 102.960938 66.847656 102.601562 64.640625 103.609375 63.152344 C 103.609375 63.152344 105.039062 60.46875 108.933594 60.46875 C 108.933594 60.46875 112.414062 60.683594 113.972656 61.882812 L 112.390625 65.722656 C 112.390625 65.722656 110.710938 64.714844 109.679688 64.617188 C 109.679688 64.617188 108.503906 64.347656 108.25 65.195312 C 108.25 65.195312 107.984375 66.03125 109.679688 66.199219 C 109.679688 66.199219 112.222656 66.480469 113.347656 67.902344 C 113.347656 67.902344 114.507812 69.078125 114.261719 71.359375 C 114.261719 71.359375 114.238281 73.757812 111.71875 75.171875 C 111.71875 75.171875 110.253906 76.25 107.542969 76.15625 C 107.542969 76.15625 103.789062 76.058594 102.058594 74.5 " fill-opacity="1" fill-rule="nonzero"/><path fill="#ffffff" d="M 125.46875 60.851562 L 114.296875 60.851562 L 114.296875 65.679688 L 117.21875 65.679688 L 117.21875 76.160156 L 122.558594 76.160156 L 122.558594 65.679688 L 125.46875 65.679688 " fill-opacity="1" fill-rule="nonzero"/><path fill="#ffffff" d="M 126.269531 76.160156 L 131.769531 76.160156 L 131.769531 60.851562 L 126.269531 60.851562 Z M 126.269531 76.160156 " fill-opacity="1" fill-rule="nonzero"/><path fill="#ffffff" d="M 148.019531 76.160156 L 142.472656 68.167969 L 147.074219 60.851562 L 141.167969 60.851562 L 137.992188 66.851562 L 137.992188 60.851562 L 132.585938 60.851562 L 132.585938 76.160156 L 137.992188 76.160156 L 137.992188 69.84375 L 141.449219 76.160156 " fill-opacity="1" fill-rule="nonzero"/><path fill="#ffffff" d="M 10.558594 71.34375 C 9.113281 71.34375 7.691406 70.367188 7.691406 68.402344 C 7.691406 66.394531 9.175781 65.464844 10.589844 65.394531 C 11.851562 65.328125 13.132812 66.148438 13.5625 66.640625 L 13.585938 61.65625 L 13.585938 61.417969 C 13.429688 61.285156 12.777344 60.96875 12.777344 60.96875 C 12.257812 60.695312 11.558594 60.457031 9.917969 60.46875 C 5.617188 60.496094 2.144531 63.585938 2.144531 68.429688 C 2.144531 73.191406 5.328125 76.203125 9.628906 76.203125 C 12.109375 76.203125 12.882812 75.753906 13.679688 75.289062 L 13.691406 69.871094 C 12.730469 70.894531 11.367188 71.34375 10.558594 71.34375 " fill-opacity="1" fill-rule="nonzero"/><path fill="#ffffff" d="M 70.195312 64.921875 L 70.203125 67.417969 L 71.578125 67.417969 C 72.308594 67.417969 72.511719 66.980469 72.511719 66.105469 C 72.511719 65.144531 71.863281 64.921875 71.132812 64.921875 Z M 70.101562 71.214844 L 70.125 75.988281 L 64.847656 75.988281 L 64.847656 60.875 L 71.445312 60.875 C 74.390625 60.875 77.617188 61.765625 77.703125 66.019531 C 77.800781 70.855469 74.574219 71.25 71.601562 71.25 " fill-opacity="1" fill-rule="nonzero"/></svg>