<svg xmlns="http://www.w3.org/2000/svg" xmlns:xlink="http://www.w3.org/1999/xlink" width="200" zoomAndPan="magnify" viewBox="0 0 150 149.999998" height="200" preserveAspectRatio="xMidYMid meet" version="1.0"><defs><clipPath id="id1"><path d="M 22 108 L 150 108 L 150 134.699219 L 22 134.699219 Z M 22 108 " clip-rule="nonzero"/></clipPath><clipPath id="id2"><path d="M 0 109 L 21 109 L 21 134.699219 L 0 134.699219 Z M 0 109 " clip-rule="nonzero"/></clipPath><clipPath id="id3"><path d="M 57 14.699219 L 135 14.699219 L 135 94 L 57 94 Z M 57 14.699219 " clip-rule="nonzero"/></clipPath></defs><g clip-path="url(#id1)"><path fill="#545454" d="M 30.542969 126.042969 C 28.597656 126.042969 27.179688 127.019531 27.179688 128.890625 C 27.179688 130.644531 28.414062 131.867188 30.265625 131.867188 C 31.5 131.867188 32.734375 131.179688 33.507812 130.203125 L 33.507812 127.707031 C 33.507812 126.875 32.425781 126.042969 30.542969 126.042969 M 72.558594 125.695312 C 72.652344 128.980469 74.75 131.359375 78.363281 131.359375 C 80.554688 131.359375 82.222656 130.171875 82.808594 129.429688 C 83.085938 129.636719 83.367188 129.949219 83.367188 130.675781 C 83.367188 132.308594 81.390625 134.570312 76.789062 134.570312 C 72.160156 134.570312 68.390625 130.886719 68.390625 126.074219 C 68.390625 120.773438 71.878906 116.984375 77.035156 116.984375 C 81.726562 116.984375 83.890625 120.429688 83.890625 123.363281 C 83.890625 124.226562 83.703125 125.027344 83.332031 125.695312 Z M 79.105469 123.574219 C 79.847656 123.574219 79.878906 123.140625 79.878906 122.5625 C 79.847656 120.832031 78.484375 119.234375 76.417969 119.234375 C 73.734375 119.234375 72.683594 121.480469 72.589844 123.574219 Z M 122.664062 125.386719 C 122.664062 129.402344 123.222656 131.445312 125.816406 131.445312 C 128.652344 131.445312 129.425781 128.921875 129.425781 126.625 L 129.425781 122.246094 C 129.425781 120.742188 128.710938 120.160156 127.078125 120.335938 C 126.398438 118.644531 128.652344 117.570312 129.921875 117.320312 C 130.320312 117.261719 130.691406 117.199219 131.035156 117.199219 C 132.820312 117.199219 133.507812 118.3125 133.507812 119.972656 C 133.507812 120.585938 133.449219 121.699219 133.449219 126.308594 C 133.449219 128.253906 133.417969 129.285156 133.417969 129.605469 C 133.417969 131.121094 134.121094 131.894531 135.753906 131.71875 C 136.421875 133.414062 134.183594 134.214844 132.910156 134.453125 C 132.515625 134.511719 132.160156 134.570312 131.867188 134.570312 C 130.171875 134.570312 129.824219 133.472656 129.484375 131.898438 C 129.246094 132.191406 129.023438 132.433594 128.5625 132.875 C 127.449219 133.914062 126 134.539062 124.363281 134.539062 C 122.570312 134.539062 121.058594 133.855469 120.101562 132.730469 C 118.621094 130.976562 118.621094 128.71875 118.621094 125.417969 L 118.621094 122.25 C 118.621094 120.746094 117.910156 120.160156 116.273438 120.335938 C 115.59375 118.644531 117.851562 117.570312 119.113281 117.324219 C 119.515625 117.261719 119.882812 117.199219 120.226562 117.199219 C 122.015625 117.199219 122.695312 118.3125 122.695312 119.976562 Z M 114.855469 125.730469 C 114.855469 120.523438 111.242188 116.984375 106.242188 116.984375 C 101.609375 116.984375 97.503906 120.523438 97.503906 125.730469 C 97.503906 131.003906 101.363281 134.539062 106.085938 134.539062 C 111.085938 134.539062 114.855469 130.945312 114.855469 125.730469 M 37.367188 130.320312 C 37.367188 131.648438 38.230469 132.070312 39.742188 132.28125 C 39.648438 133.824219 38.570312 134.421875 37.304688 134.539062 C 35.882812 134.65625 34.492188 134 33.9375 132.523438 C 33.289062 133.109375 31.375 134.597656 28.875 134.597656 C 25.449219 134.597656 22.886719 132.308594 22.886719 129.191406 C 22.886719 125.894531 25.757812 123.941406 29.800781 123.941406 C 31.191406 123.941406 32.640625 124.226562 33.503906 124.675781 L 33.503906 122.46875 C 33.503906 120.488281 32.640625 119.234375 30.386719 119.234375 C 29.925781 119.234375 28.90625 119.355469 28.101562 119.660156 C 28.195312 119.972656 28.257812 120.308594 28.257812 120.613281 C 28.257812 121.820312 27.488281 122.800781 26.191406 122.800781 C 25.046875 122.800781 24.183594 121.882812 24.183594 120.707031 C 24.183594 118.550781 26.898438 116.980469 30.667969 116.980469 C 33.660156 116.980469 35.484375 117.691406 36.441406 118.921875 C 37.304688 120.003906 37.367188 121.667969 37.367188 124.066406 Z M 110.441406 125.984375 C 110.441406 129.984375 108.710938 132.160156 106.273438 132.160156 C 104.109375 132.160156 102.011719 129.988281 102.011719 125.242188 C 102.011719 121.542969 103.554688 119.234375 106.085938 119.234375 C 108.585938 119.234375 110.441406 121.792969 110.441406 125.984375 M 49.589844 119.910156 C 49.683594 120.960938 50.578125 121.695312 51.628906 121.695312 C 52.957031 121.695312 53.757812 120.523438 53.757812 119.382812 C 53.757812 117.78125 52.460938 116.953125 51.164062 116.953125 C 49.683594 116.953125 48.109375 118.0625 47.214844 119.722656 L 47.152344 119.753906 C 46.875 118.277344 46.164062 117.164062 44.679688 117.164062 C 44.339844 117.164062 43.972656 117.230469 43.570312 117.351562 C 42.335938 117.71875 40.511719 118.671875 41.195312 120.363281 C 42.921875 120.03125 43.539062 120.613281 43.539062 122.117188 L 43.539062 129.28125 C 43.539062 130.703125 43.355469 131.296875 42.859375 131.714844 C 42.394531 132.070312 41.902344 132.214844 41.59375 132.277344 C 40.886719 133.820312 42.273438 134.300781 45.703125 134.300781 C 49.128906 134.300781 50.300781 133.820312 49.589844 132.277344 C 49.28125 132.214844 48.417969 132.066406 47.957031 131.714844 C 47.460938 131.296875 47.246094 130.703125 47.246094 129.28125 L 47.246094 124.960938 C 47.246094 121.109375 48.664062 120.09375 49.589844 119.910156 M 92.070312 117.414062 L 96.484375 117.414062 C 97.011719 118.671875 96.300781 119.691406 95.3125 119.785156 C 95.003906 119.816406 94.664062 119.816406 94.355469 119.816406 C 93.550781 119.816406 92.75 119.753906 92.195312 119.753906 L 92.195312 129.28125 C 92.195312 130.703125 92.441406 131.300781 92.933594 131.714844 C 93.398438 132.070312 94.480469 132.21875 94.789062 132.277344 C 95.5 133.820312 93.832031 134.300781 90.40625 134.300781 C 86.980469 134.300781 85.558594 133.820312 86.265625 132.277344 C 86.574219 132.214844 87.070312 132.070312 87.535156 131.714844 C 88.027344 131.300781 88.210938 130.703125 88.210938 129.28125 L 88.210938 119.6875 L 85.617188 119.597656 C 85.09375 118.339844 85.804688 117.441406 86.851562 117.441406 L 88.152344 117.441406 L 88.152344 116.210938 C 88.152344 113.714844 88.613281 112.328125 89.230469 111.40625 C 90.1875 109.925781 91.824219 108.910156 94.386719 108.910156 C 97.628906 108.910156 100.25 110.421875 100.25 112.699219 C 100.25 113.683594 99.570312 114.886719 98.152344 114.886719 C 97.105469 114.886719 96.113281 113.992188 96.113281 112.882812 C 96.113281 112.421875 96.300781 111.929688 96.546875 111.621094 C 96.175781 111.191406 95.40625 110.972656 94.664062 110.972656 C 92.53125 110.972656 92.070312 112.542969 92.070312 114.515625 Z M 63.636719 119.910156 C 63.730469 120.960938 64.625 121.695312 65.675781 121.695312 C 67.003906 121.695312 67.804688 120.523438 67.804688 119.382812 C 67.804688 117.78125 66.507812 116.953125 65.210938 116.953125 C 63.730469 116.953125 62.15625 118.0625 61.261719 119.722656 L 61.199219 119.753906 C 60.921875 118.277344 60.210938 117.164062 58.730469 117.164062 C 58.390625 117.164062 58.019531 117.230469 57.617188 117.351562 C 56.382812 117.71875 54.5625 118.671875 55.242188 120.363281 C 56.96875 120.03125 57.585938 120.613281 57.585938 122.117188 L 57.585938 129.28125 C 57.585938 130.703125 57.402344 131.296875 56.90625 131.714844 C 56.445312 132.070312 55.953125 132.214844 55.644531 132.277344 C 54.933594 133.820312 56.324219 134.300781 59.75 134.300781 C 63.175781 134.300781 64.347656 133.820312 63.636719 132.277344 C 63.332031 132.214844 62.464844 132.066406 62.003906 131.714844 C 61.507812 131.296875 61.292969 130.703125 61.292969 129.28125 L 61.292969 124.960938 C 61.292969 121.109375 62.710938 120.09375 63.636719 119.910156 M 145.804688 119.910156 C 145.90625 120.960938 146.808594 121.695312 147.863281 121.695312 C 149.171875 121.695312 149.976562 120.523438 149.976562 119.382812 C 149.976562 117.78125 148.699219 116.953125 147.382812 116.953125 C 145.90625 116.953125 144.351562 118.0625 143.457031 119.722656 L 143.367188 119.753906 C 143.097656 118.277344 142.378906 117.164062 140.925781 117.164062 C 140.5625 117.164062 140.210938 117.226562 139.789062 117.351562 C 138.570312 117.71875 136.753906 118.671875 137.417969 120.363281 C 139.152344 120.03125 139.757812 120.613281 139.757812 122.117188 L 139.757812 129.28125 C 139.757812 130.703125 139.582031 131.296875 139.070312 131.714844 C 138.628906 132.070312 138.121094 132.214844 137.824219 132.277344 C 137.109375 133.820312 138.511719 134.300781 141.933594 134.300781 C 145.359375 134.300781 146.519531 133.820312 145.804688 132.277344 C 145.507812 132.214844 144.644531 132.066406 144.164062 131.714844 C 143.695312 131.296875 143.488281 130.703125 143.488281 129.28125 L 143.488281 124.960938 C 143.488281 121.109375 144.882812 120.09375 145.804688 119.910156 " fill-opacity="1" fill-rule="nonzero"/></g><g clip-path="url(#id2)"><path fill="#545454" d="M 0.0234375 122.324219 C 0.0234375 130.097656 5.394531 134.699219 11.230469 134.699219 C 16.476562 134.699219 20.152344 131.019531 20.152344 127.953125 C 20.152344 126.320312 19.132812 125.136719 17.804688 125.136719 C 16.445312 125.136719 15.304688 126.054688 15.304688 127.632812 C 15.304688 128.640625 15.859375 129.207031 16.261719 129.652344 C 15.550781 131.019531 14.039062 132.148438 11.691406 132.148438 C 7.800781 132.148438 4.992188 128.105469 4.992188 122.292969 C 4.992188 116.476562 7.675781 112.410156 11.570312 112.410156 C 13.914062 112.410156 15.425781 113.546875 16.136719 114.90625 C 15.734375 115.367188 15.179688 115.921875 15.179688 116.9375 C 15.179688 118.507812 16.324219 119.429688 17.683594 119.429688 C 19.011719 119.429688 20.027344 118.234375 20.027344 116.597656 C 20.027344 113.546875 16.355469 109.851562 11.105469 109.851562 C 5.269531 109.851562 0.0234375 114.902344 0.0234375 122.324219 " fill-opacity="1" fill-rule="nonzero"/></g><path fill="#545454" d="M 50.589844 17.375 L 17.832031 48.988281 C 16.195312 50.375 15.152344 52 15.152344 54.332031 C 15.152344 56.648438 16.199219 58.28125 17.832031 59.679688 L 50.589844 91.28125 C 50.800781 91.492188 51.003906 91.578125 51.175781 91.578125 C 51.484375 91.578125 51.699219 91.296875 51.691406 90.96875 C 51.679688 90.773438 51.597656 90.550781 51.402344 90.355469 C 43.714844 80.824219 38.121094 69.898438 38.121094 54.445312 C 38.121094 38.984375 43.714844 27.839844 51.402344 18.304688 C 51.597656 18.113281 51.679688 17.890625 51.691406 17.691406 C 51.699219 17.355469 51.484375 17.082031 51.175781 17.082031 C 51.003906 17.078125 50.800781 17.164062 50.589844 17.375 " fill-opacity="1" fill-rule="nonzero"/><g clip-path="url(#id3)"><path fill="#545454" d="M 75.773438 14.699219 C 62.945312 14.699219 57.933594 32.832031 57.933594 54.441406 C 57.933594 76.0625 62.945312 93.953125 75.773438 93.953125 C 83.46875 93.953125 90.03125 89.453125 90.050781 85.757812 C 90.054688 84.949219 89.742188 84.175781 89.0625 83.5 C 85.414062 79.984375 83.984375 76.46875 83.976562 73.367188 C 83.953125 67.449219 89.101562 63.039062 93.847656 63.039062 C 100.371094 63.039062 104.21875 68.15625 104.21875 74.777344 C 104.21875 81.054688 101.535156 86.285156 98.621094 90.46875 C 98.503906 90.640625 98.453125 90.832031 98.453125 91 C 98.457031 91.328125 98.648438 91.597656 98.9375 91.597656 C 99.117188 91.597656 99.324219 91.503906 99.546875 91.277344 L 132.3125 59.675781 C 133.949219 58.28125 134.992188 56.648438 134.992188 54.328125 C 134.992188 52 133.949219 50.375 132.3125 48.988281 L 99.546875 17.375 C 99.324219 17.152344 99.117188 17.054688 98.9375 17.054688 C 98.648438 17.054688 98.457031 17.328125 98.453125 17.65625 C 98.453125 17.828125 98.503906 18.015625 98.621094 18.1875 C 101.535156 22.371094 104.21875 27.605469 104.21875 33.875 C 104.21875 40.496094 100.371094 45.617188 93.847656 45.617188 C 89.101562 45.617188 83.953125 41.210938 83.976562 35.289062 C 83.984375 32.1875 85.414062 28.671875 89.0625 25.15625 C 89.742188 24.476562 90.054688 23.710938 90.050781 22.898438 C 90.03125 19.199219 83.46875 14.699219 75.773438 14.699219 " fill-opacity="1" fill-rule="nonzero"/></g></svg>