<svg xmlns="http://www.w3.org/2000/svg" xmlns:xlink="http://www.w3.org/1999/xlink" width="200" zoomAndPan="magnify" viewBox="0 0 150 149.999998" height="200" preserveAspectRatio="xMidYMid meet" version="1.0"><defs><clipPath id="id1"><path d="M 81 38 L 110 38 L 110 65 L 81 65 Z M 81 38 " clip-rule="nonzero"/></clipPath><clipPath id="id2"><path d="M 95.230469 64.554688 L 106.824219 51.632812 C 108.730469 49.503906 109.863281 46.769531 109.128906 43.914062 C 108.566406 41.726562 106.960938 39.8125 104.84375 38.988281 C 101.773438 37.792969 98.976562 39.300781 97.003906 41.691406 L 95.230469 43.839844 L 93.457031 41.691406 C 91.484375 39.300781 88.6875 37.792969 85.613281 38.988281 C 83.496094 39.8125 81.890625 41.726562 81.328125 43.914062 C 80.597656 46.769531 81.726562 49.503906 83.636719 51.632812 Z M 95.230469 64.554688 " clip-rule="nonzero"/></clipPath><linearGradient x1="494.504" gradientTransform="matrix(0.549373, 0, 0, 0.505366, -190.563186, -86.234719)" y1="245.418128" x2="494.504" gradientUnits="userSpaceOnUse" y2="298.380338" id="id3"><stop stop-opacity="1" stop-color="rgb(32.899475%, 32.899475%, 32.899475%)" offset="0"/><stop stop-opacity="1" stop-color="rgb(32.861328%, 32.861328%, 32.861328%)" offset="0.03125"/><stop stop-opacity="1" stop-color="rgb(32.69043%, 32.69043%, 32.69043%)" offset="0.0390625"/><stop stop-opacity="1" stop-color="rgb(32.426453%, 32.426453%, 32.426453%)" offset="0.046875"/><stop stop-opacity="1" stop-color="rgb(32.16095%, 32.16095%, 32.16095%)" offset="0.0546875"/><stop stop-opacity="1" stop-color="rgb(31.896973%, 31.896973%, 31.896973%)" offset="0.0625"/><stop stop-opacity="1" stop-color="rgb(31.63147%, 31.63147%, 31.63147%)" offset="0.0703125"/><stop stop-opacity="1" stop-color="rgb(31.367493%, 31.367493%, 31.367493%)" offset="0.078125"/><stop stop-opacity="1" stop-color="rgb(31.10199%, 31.10199%, 31.10199%)" offset="0.0859375"/><stop stop-opacity="1" stop-color="rgb(30.838013%, 30.838013%, 30.838013%)" offset="0.09375"/><stop stop-opacity="1" stop-color="rgb(30.57251%, 30.57251%, 30.57251%)" offset="0.101563"/><stop stop-opacity="1" stop-color="rgb(30.308533%, 30.308533%, 30.308533%)" offset="0.109375"/><stop stop-opacity="1" stop-color="rgb(30.04303%, 30.04303%, 30.04303%)" offset="0.117188"/><stop stop-opacity="1" stop-color="rgb(29.779053%, 29.779053%, 29.779053%)" offset="0.125"/><stop stop-opacity="1" stop-color="rgb(29.51355%, 29.51355%, 29.51355%)" offset="0.132813"/><stop stop-opacity="1" stop-color="rgb(29.249573%, 29.249573%, 29.249573%)" offset="0.140625"/><stop stop-opacity="1" stop-color="rgb(28.98407%, 28.98407%, 28.98407%)" offset="0.148438"/><stop stop-opacity="1" stop-color="rgb(28.720093%, 28.720093%, 28.720093%)" offset="0.15625"/><stop stop-opacity="1" stop-color="rgb(28.45459%, 28.45459%, 28.45459%)" offset="0.164063"/><stop stop-opacity="1" stop-color="rgb(28.190613%, 28.190613%, 28.190613%)" offset="0.171875"/><stop stop-opacity="1" stop-color="rgb(27.926636%, 27.926636%, 27.926636%)" offset="0.179688"/><stop stop-opacity="1" stop-color="rgb(27.661133%, 27.661133%, 27.661133%)" offset="0.1875"/><stop stop-opacity="1" stop-color="rgb(27.397156%, 27.397156%, 27.397156%)" offset="0.195313"/><stop stop-opacity="1" stop-color="rgb(27.131653%, 27.131653%, 27.131653%)" offset="0.203125"/><stop stop-opacity="1" stop-color="rgb(26.867676%, 26.867676%, 26.867676%)" offset="0.210938"/><stop stop-opacity="1" stop-color="rgb(26.602173%, 26.602173%, 26.602173%)" offset="0.21875"/><stop stop-opacity="1" stop-color="rgb(26.338196%, 26.338196%, 26.338196%)" offset="0.226563"/><stop stop-opacity="1" stop-color="rgb(26.072693%, 26.072693%, 26.072693%)" offset="0.234375"/><stop stop-opacity="1" stop-color="rgb(25.808716%, 25.808716%, 25.808716%)" offset="0.242188"/><stop stop-opacity="1" stop-color="rgb(25.543213%, 25.543213%, 25.543213%)" offset="0.25"/><stop stop-opacity="1" stop-color="rgb(25.279236%, 25.279236%, 25.279236%)" offset="0.257812"/><stop stop-opacity="1" stop-color="rgb(25.013733%, 25.013733%, 25.013733%)" offset="0.265625"/><stop stop-opacity="1" stop-color="rgb(24.749756%, 24.749756%, 24.749756%)" offset="0.273438"/><stop stop-opacity="1" stop-color="rgb(24.484253%, 24.484253%, 24.484253%)" offset="0.28125"/><stop stop-opacity="1" stop-color="rgb(24.220276%, 24.220276%, 24.220276%)" offset="0.289062"/><stop stop-opacity="1" stop-color="rgb(23.954773%, 23.954773%, 23.954773%)" offset="0.296875"/><stop stop-opacity="1" stop-color="rgb(23.690796%, 23.690796%, 23.690796%)" offset="0.304688"/><stop stop-opacity="1" stop-color="rgb(23.425293%, 23.425293%, 23.425293%)" offset="0.3125"/><stop stop-opacity="1" stop-color="rgb(23.161316%, 23.161316%, 23.161316%)" offset="0.320313"/><stop stop-opacity="1" stop-color="rgb(22.895813%, 22.895813%, 22.895813%)" offset="0.328125"/><stop stop-opacity="1" stop-color="rgb(22.631836%, 22.631836%, 22.631836%)" offset="0.335938"/><stop stop-opacity="1" stop-color="rgb(22.366333%, 22.366333%, 22.366333%)" offset="0.34375"/><stop stop-opacity="1" stop-color="rgb(22.102356%, 22.102356%, 22.102356%)" offset="0.351563"/><stop stop-opacity="1" stop-color="rgb(21.836853%, 21.836853%, 21.836853%)" offset="0.359375"/><stop stop-opacity="1" stop-color="rgb(21.572876%, 21.572876%, 21.572876%)" offset="0.367188"/><stop stop-opacity="1" stop-color="rgb(21.307373%, 21.307373%, 21.307373%)" offset="0.375"/><stop stop-opacity="1" stop-color="rgb(21.043396%, 21.043396%, 21.043396%)" offset="0.382812"/><stop stop-opacity="1" stop-color="rgb(20.777893%, 20.777893%, 20.777893%)" offset="0.390625"/><stop stop-opacity="1" stop-color="rgb(20.513916%, 20.513916%, 20.513916%)" offset="0.398438"/><stop stop-opacity="1" stop-color="rgb(20.248413%, 20.248413%, 20.248413%)" offset="0.40625"/><stop stop-opacity="1" stop-color="rgb(19.984436%, 19.984436%, 19.984436%)" offset="0.414063"/><stop stop-opacity="1" stop-color="rgb(19.718933%, 19.718933%, 19.718933%)" offset="0.421875"/><stop stop-opacity="1" stop-color="rgb(19.454956%, 19.454956%, 19.454956%)" offset="0.429688"/><stop stop-opacity="1" stop-color="rgb(19.189453%, 19.189453%, 19.189453%)" offset="0.4375"/><stop stop-opacity="1" stop-color="rgb(18.925476%, 18.925476%, 18.925476%)" offset="0.445313"/><stop stop-opacity="1" stop-color="rgb(18.659973%, 18.659973%, 18.659973%)" offset="0.453125"/><stop stop-opacity="1" stop-color="rgb(18.395996%, 18.395996%, 18.395996%)" offset="0.460938"/><stop stop-opacity="1" stop-color="rgb(18.132019%, 18.132019%, 18.132019%)" offset="0.46875"/><stop stop-opacity="1" stop-color="rgb(17.866516%, 17.866516%, 17.866516%)" offset="0.476563"/><stop stop-opacity="1" stop-color="rgb(17.602539%, 17.602539%, 17.602539%)" offset="0.484375"/><stop stop-opacity="1" stop-color="rgb(17.337036%, 17.337036%, 17.337036%)" offset="0.492188"/><stop stop-opacity="1" stop-color="rgb(17.073059%, 17.073059%, 17.073059%)" offset="0.5"/><stop stop-opacity="1" stop-color="rgb(16.807556%, 16.807556%, 16.807556%)" offset="0.507812"/><stop stop-opacity="1" stop-color="rgb(16.543579%, 16.543579%, 16.543579%)" offset="0.515625"/><stop stop-opacity="1" stop-color="rgb(16.278076%, 16.278076%, 16.278076%)" offset="0.523438"/><stop stop-opacity="1" stop-color="rgb(16.014099%, 16.014099%, 16.014099%)" offset="0.53125"/><stop stop-opacity="1" stop-color="rgb(15.748596%, 15.748596%, 15.748596%)" offset="0.539062"/><stop stop-opacity="1" stop-color="rgb(15.484619%, 15.484619%, 15.484619%)" offset="0.546875"/><stop stop-opacity="1" stop-color="rgb(15.219116%, 15.219116%, 15.219116%)" offset="0.554688"/><stop stop-opacity="1" stop-color="rgb(14.955139%, 14.955139%, 14.955139%)" offset="0.5625"/><stop stop-opacity="1" stop-color="rgb(14.689636%, 14.689636%, 14.689636%)" offset="0.570313"/><stop stop-opacity="1" stop-color="rgb(14.425659%, 14.425659%, 14.425659%)" offset="0.578125"/><stop stop-opacity="1" stop-color="rgb(14.160156%, 14.160156%, 14.160156%)" offset="0.585938"/><stop stop-opacity="1" stop-color="rgb(13.896179%, 13.896179%, 13.896179%)" offset="0.59375"/><stop stop-opacity="1" stop-color="rgb(13.630676%, 13.630676%, 13.630676%)" offset="0.601563"/><stop stop-opacity="1" stop-color="rgb(13.366699%, 13.366699%, 13.366699%)" offset="0.609375"/><stop stop-opacity="1" stop-color="rgb(13.101196%, 13.101196%, 13.101196%)" offset="0.617188"/><stop stop-opacity="1" stop-color="rgb(12.837219%, 12.837219%, 12.837219%)" offset="0.625"/><stop stop-opacity="1" stop-color="rgb(12.571716%, 12.571716%, 12.571716%)" offset="0.632812"/><stop stop-opacity="1" stop-color="rgb(12.307739%, 12.307739%, 12.307739%)" offset="0.640625"/><stop stop-opacity="1" stop-color="rgb(12.042236%, 12.042236%, 12.042236%)" offset="0.648438"/><stop stop-opacity="1" stop-color="rgb(11.778259%, 11.778259%, 11.778259%)" offset="0.65625"/><stop stop-opacity="1" stop-color="rgb(11.512756%, 11.512756%, 11.512756%)" offset="0.664063"/><stop stop-opacity="1" stop-color="rgb(11.248779%, 11.248779%, 11.248779%)" offset="0.671875"/><stop stop-opacity="1" stop-color="rgb(10.983276%, 10.983276%, 10.983276%)" offset="0.679688"/><stop stop-opacity="1" stop-color="rgb(10.719299%, 10.719299%, 10.719299%)" offset="0.6875"/><stop stop-opacity="1" stop-color="rgb(10.453796%, 10.453796%, 10.453796%)" offset="0.695313"/><stop stop-opacity="1" stop-color="rgb(10.189819%, 10.189819%, 10.189819%)" offset="0.703125"/><stop stop-opacity="1" stop-color="rgb(9.924316%, 9.924316%, 9.924316%)" offset="0.710938"/><stop stop-opacity="1" stop-color="rgb(9.660339%, 9.660339%, 9.660339%)" offset="0.71875"/><stop stop-opacity="1" stop-color="rgb(9.394836%, 9.394836%, 9.394836%)" offset="0.726562"/><stop stop-opacity="1" stop-color="rgb(9.130859%, 9.130859%, 9.130859%)" offset="0.734375"/><stop stop-opacity="1" stop-color="rgb(8.865356%, 8.865356%, 8.865356%)" offset="0.742188"/><stop stop-opacity="1" stop-color="rgb(8.601379%, 8.601379%, 8.601379%)" offset="0.75"/><stop stop-opacity="1" stop-color="rgb(8.337402%, 8.337402%, 8.337402%)" offset="0.757813"/><stop stop-opacity="1" stop-color="rgb(8.071899%, 8.071899%, 8.071899%)" offset="0.765625"/><stop stop-opacity="1" stop-color="rgb(7.807922%, 7.807922%, 7.807922%)" offset="0.773438"/><stop stop-opacity="1" stop-color="rgb(7.542419%, 7.542419%, 7.542419%)" offset="0.78125"/><stop stop-opacity="1" stop-color="rgb(7.278442%, 7.278442%, 7.278442%)" offset="0.789062"/><stop stop-opacity="1" stop-color="rgb(7.012939%, 7.012939%, 7.012939%)" offset="0.796875"/><stop stop-opacity="1" stop-color="rgb(6.748962%, 6.748962%, 6.748962%)" offset="0.804688"/><stop stop-opacity="1" stop-color="rgb(6.483459%, 6.483459%, 6.483459%)" offset="0.8125"/><stop stop-opacity="1" stop-color="rgb(6.219482%, 6.219482%, 6.219482%)" offset="0.820313"/><stop stop-opacity="1" stop-color="rgb(5.953979%, 5.953979%, 5.953979%)" offset="0.828125"/><stop stop-opacity="1" stop-color="rgb(5.690002%, 5.690002%, 5.690002%)" offset="0.835938"/><stop stop-opacity="1" stop-color="rgb(5.4245%, 5.4245%, 5.4245%)" offset="0.84375"/><stop stop-opacity="1" stop-color="rgb(5.160522%, 5.160522%, 5.160522%)" offset="0.851563"/><stop stop-opacity="1" stop-color="rgb(4.89502%, 4.89502%, 4.89502%)" offset="0.859375"/><stop stop-opacity="1" stop-color="rgb(4.631042%, 4.631042%, 4.631042%)" offset="0.867188"/><stop stop-opacity="1" stop-color="rgb(4.36554%, 4.36554%, 4.36554%)" offset="0.875"/><stop stop-opacity="1" stop-color="rgb(4.101562%, 4.101562%, 4.101562%)" offset="0.882812"/><stop stop-opacity="1" stop-color="rgb(3.83606%, 3.83606%, 3.83606%)" offset="0.890625"/><stop stop-opacity="1" stop-color="rgb(3.572083%, 3.572083%, 3.572083%)" offset="0.898438"/><stop stop-opacity="1" stop-color="rgb(3.30658%, 3.30658%, 3.30658%)" offset="0.90625"/><stop stop-opacity="1" stop-color="rgb(3.042603%, 3.042603%, 3.042603%)" offset="0.914063"/><stop stop-opacity="1" stop-color="rgb(2.7771%, 2.7771%, 2.7771%)" offset="0.921875"/><stop stop-opacity="1" stop-color="rgb(2.513123%, 2.513123%, 2.513123%)" offset="0.929688"/><stop stop-opacity="1" stop-color="rgb(2.24762%, 2.24762%, 2.24762%)" offset="0.9375"/><stop stop-opacity="1" stop-color="rgb(1.983643%, 1.983643%, 1.983643%)" offset="0.945313"/><stop stop-opacity="1" stop-color="rgb(1.71814%, 1.71814%, 1.71814%)" offset="0.953125"/><stop stop-opacity="1" stop-color="rgb(1.454163%, 1.454163%, 1.454163%)" offset="0.960938"/><stop stop-opacity="1" stop-color="rgb(1.18866%, 1.18866%, 1.18866%)" offset="0.96875"/><stop stop-opacity="1" stop-color="rgb(0.924683%, 0.924683%, 0.924683%)" offset="0.976562"/><stop stop-opacity="1" stop-color="rgb(0.65918%, 0.65918%, 0.65918%)" offset="0.984375"/><stop stop-opacity="1" stop-color="rgb(0.395203%, 0.395203%, 0.395203%)" offset="0.992188"/><stop stop-opacity="1" stop-color="rgb(0.131226%, 0.131226%, 0.131226%)" offset="1"/></linearGradient><clipPath id="id4"><path d="M 39 38 L 68 38 L 68 65 L 39 65 Z M 39 38 " clip-rule="nonzero"/></clipPath><clipPath id="id5"><path d="M 53.835938 64.554688 L 65.429688 51.632812 C 67.335938 49.503906 68.46875 46.769531 67.734375 43.914062 C 67.171875 41.726562 65.566406 39.8125 63.449219 38.988281 C 60.378906 37.792969 57.582031 39.300781 55.609375 41.691406 L 53.835938 43.839844 L 52.0625 41.691406 C 50.089844 39.300781 47.292969 37.792969 44.21875 38.988281 C 42.101562 39.8125 40.496094 41.726562 39.933594 43.914062 C 39.203125 46.769531 40.332031 49.503906 42.242188 51.632812 Z M 53.835938 64.554688 " clip-rule="nonzero"/></clipPath><linearGradient x1="419.15601" gradientTransform="matrix(0.549373, 0, 0, 0.505366, -190.563186, -86.234719)" y1="245.418128" x2="419.15601" gradientUnits="userSpaceOnUse" y2="298.380338" id="id6"><stop stop-opacity="1" stop-color="rgb(32.899475%, 32.899475%, 32.899475%)" offset="0"/><stop stop-opacity="1" stop-color="rgb(32.861328%, 32.861328%, 32.861328%)" offset="0.03125"/><stop stop-opacity="1" stop-color="rgb(32.69043%, 32.69043%, 32.69043%)" offset="0.0390625"/><stop stop-opacity="1" stop-color="rgb(32.426453%, 32.426453%, 32.426453%)" offset="0.046875"/><stop stop-opacity="1" stop-color="rgb(32.16095%, 32.16095%, 32.16095%)" offset="0.0546875"/><stop stop-opacity="1" stop-color="rgb(31.896973%, 31.896973%, 31.896973%)" offset="0.0625"/><stop stop-opacity="1" stop-color="rgb(31.63147%, 31.63147%, 31.63147%)" offset="0.0703125"/><stop stop-opacity="1" stop-color="rgb(31.367493%, 31.367493%, 31.367493%)" offset="0.078125"/><stop stop-opacity="1" stop-color="rgb(31.10199%, 31.10199%, 31.10199%)" offset="0.0859375"/><stop stop-opacity="1" stop-color="rgb(30.838013%, 30.838013%, 30.838013%)" offset="0.09375"/><stop stop-opacity="1" stop-color="rgb(30.57251%, 30.57251%, 30.57251%)" offset="0.101563"/><stop stop-opacity="1" stop-color="rgb(30.308533%, 30.308533%, 30.308533%)" offset="0.109375"/><stop stop-opacity="1" stop-color="rgb(30.04303%, 30.04303%, 30.04303%)" offset="0.117188"/><stop stop-opacity="1" stop-color="rgb(29.779053%, 29.779053%, 29.779053%)" offset="0.125"/><stop stop-opacity="1" stop-color="rgb(29.51355%, 29.51355%, 29.51355%)" offset="0.132813"/><stop stop-opacity="1" stop-color="rgb(29.249573%, 29.249573%, 29.249573%)" offset="0.140625"/><stop stop-opacity="1" stop-color="rgb(28.98407%, 28.98407%, 28.98407%)" offset="0.148438"/><stop stop-opacity="1" stop-color="rgb(28.720093%, 28.720093%, 28.720093%)" offset="0.15625"/><stop stop-opacity="1" stop-color="rgb(28.45459%, 28.45459%, 28.45459%)" offset="0.164063"/><stop stop-opacity="1" stop-color="rgb(28.190613%, 28.190613%, 28.190613%)" offset="0.171875"/><stop stop-opacity="1" stop-color="rgb(27.926636%, 27.926636%, 27.926636%)" offset="0.179688"/><stop stop-opacity="1" stop-color="rgb(27.661133%, 27.661133%, 27.661133%)" offset="0.1875"/><stop stop-opacity="1" stop-color="rgb(27.397156%, 27.397156%, 27.397156%)" offset="0.195313"/><stop stop-opacity="1" stop-color="rgb(27.131653%, 27.131653%, 27.131653%)" offset="0.203125"/><stop stop-opacity="1" stop-color="rgb(26.867676%, 26.867676%, 26.867676%)" offset="0.210938"/><stop stop-opacity="1" stop-color="rgb(26.602173%, 26.602173%, 26.602173%)" offset="0.21875"/><stop stop-opacity="1" stop-color="rgb(26.338196%, 26.338196%, 26.338196%)" offset="0.226563"/><stop stop-opacity="1" stop-color="rgb(26.072693%, 26.072693%, 26.072693%)" offset="0.234375"/><stop stop-opacity="1" stop-color="rgb(25.808716%, 25.808716%, 25.808716%)" offset="0.242188"/><stop stop-opacity="1" stop-color="rgb(25.543213%, 25.543213%, 25.543213%)" offset="0.25"/><stop stop-opacity="1" stop-color="rgb(25.279236%, 25.279236%, 25.279236%)" offset="0.257812"/><stop stop-opacity="1" stop-color="rgb(25.013733%, 25.013733%, 25.013733%)" offset="0.265625"/><stop stop-opacity="1" stop-color="rgb(24.749756%, 24.749756%, 24.749756%)" offset="0.273438"/><stop stop-opacity="1" stop-color="rgb(24.484253%, 24.484253%, 24.484253%)" offset="0.28125"/><stop stop-opacity="1" stop-color="rgb(24.220276%, 24.220276%, 24.220276%)" offset="0.289062"/><stop stop-opacity="1" stop-color="rgb(23.954773%, 23.954773%, 23.954773%)" offset="0.296875"/><stop stop-opacity="1" stop-color="rgb(23.690796%, 23.690796%, 23.690796%)" offset="0.304688"/><stop stop-opacity="1" stop-color="rgb(23.425293%, 23.425293%, 23.425293%)" offset="0.3125"/><stop stop-opacity="1" stop-color="rgb(23.161316%, 23.161316%, 23.161316%)" offset="0.320313"/><stop stop-opacity="1" stop-color="rgb(22.895813%, 22.895813%, 22.895813%)" offset="0.328125"/><stop stop-opacity="1" stop-color="rgb(22.631836%, 22.631836%, 22.631836%)" offset="0.335938"/><stop stop-opacity="1" stop-color="rgb(22.366333%, 22.366333%, 22.366333%)" offset="0.34375"/><stop stop-opacity="1" stop-color="rgb(22.102356%, 22.102356%, 22.102356%)" offset="0.351563"/><stop stop-opacity="1" stop-color="rgb(21.836853%, 21.836853%, 21.836853%)" offset="0.359375"/><stop stop-opacity="1" stop-color="rgb(21.572876%, 21.572876%, 21.572876%)" offset="0.367188"/><stop stop-opacity="1" stop-color="rgb(21.307373%, 21.307373%, 21.307373%)" offset="0.375"/><stop stop-opacity="1" stop-color="rgb(21.043396%, 21.043396%, 21.043396%)" offset="0.382812"/><stop stop-opacity="1" stop-color="rgb(20.777893%, 20.777893%, 20.777893%)" offset="0.390625"/><stop stop-opacity="1" stop-color="rgb(20.513916%, 20.513916%, 20.513916%)" offset="0.398438"/><stop stop-opacity="1" stop-color="rgb(20.248413%, 20.248413%, 20.248413%)" offset="0.40625"/><stop stop-opacity="1" stop-color="rgb(19.984436%, 19.984436%, 19.984436%)" offset="0.414063"/><stop stop-opacity="1" stop-color="rgb(19.718933%, 19.718933%, 19.718933%)" offset="0.421875"/><stop stop-opacity="1" stop-color="rgb(19.454956%, 19.454956%, 19.454956%)" offset="0.429688"/><stop stop-opacity="1" stop-color="rgb(19.189453%, 19.189453%, 19.189453%)" offset="0.4375"/><stop stop-opacity="1" stop-color="rgb(18.925476%, 18.925476%, 18.925476%)" offset="0.445313"/><stop stop-opacity="1" stop-color="rgb(18.659973%, 18.659973%, 18.659973%)" offset="0.453125"/><stop stop-opacity="1" stop-color="rgb(18.395996%, 18.395996%, 18.395996%)" offset="0.460938"/><stop stop-opacity="1" stop-color="rgb(18.132019%, 18.132019%, 18.132019%)" offset="0.46875"/><stop stop-opacity="1" stop-color="rgb(17.866516%, 17.866516%, 17.866516%)" offset="0.476563"/><stop stop-opacity="1" stop-color="rgb(17.602539%, 17.602539%, 17.602539%)" offset="0.484375"/><stop stop-opacity="1" stop-color="rgb(17.337036%, 17.337036%, 17.337036%)" offset="0.492188"/><stop stop-opacity="1" stop-color="rgb(17.073059%, 17.073059%, 17.073059%)" offset="0.5"/><stop stop-opacity="1" stop-color="rgb(16.807556%, 16.807556%, 16.807556%)" offset="0.507812"/><stop stop-opacity="1" stop-color="rgb(16.543579%, 16.543579%, 16.543579%)" offset="0.515625"/><stop stop-opacity="1" stop-color="rgb(16.278076%, 16.278076%, 16.278076%)" offset="0.523438"/><stop stop-opacity="1" stop-color="rgb(16.014099%, 16.014099%, 16.014099%)" offset="0.53125"/><stop stop-opacity="1" stop-color="rgb(15.748596%, 15.748596%, 15.748596%)" offset="0.539062"/><stop stop-opacity="1" stop-color="rgb(15.484619%, 15.484619%, 15.484619%)" offset="0.546875"/><stop stop-opacity="1" stop-color="rgb(15.219116%, 15.219116%, 15.219116%)" offset="0.554688"/><stop stop-opacity="1" stop-color="rgb(14.955139%, 14.955139%, 14.955139%)" offset="0.5625"/><stop stop-opacity="1" stop-color="rgb(14.689636%, 14.689636%, 14.689636%)" offset="0.570313"/><stop stop-opacity="1" stop-color="rgb(14.425659%, 14.425659%, 14.425659%)" offset="0.578125"/><stop stop-opacity="1" stop-color="rgb(14.160156%, 14.160156%, 14.160156%)" offset="0.585938"/><stop stop-opacity="1" stop-color="rgb(13.896179%, 13.896179%, 13.896179%)" offset="0.59375"/><stop stop-opacity="1" stop-color="rgb(13.630676%, 13.630676%, 13.630676%)" offset="0.601563"/><stop stop-opacity="1" stop-color="rgb(13.366699%, 13.366699%, 13.366699%)" offset="0.609375"/><stop stop-opacity="1" stop-color="rgb(13.101196%, 13.101196%, 13.101196%)" offset="0.617188"/><stop stop-opacity="1" stop-color="rgb(12.837219%, 12.837219%, 12.837219%)" offset="0.625"/><stop stop-opacity="1" stop-color="rgb(12.571716%, 12.571716%, 12.571716%)" offset="0.632812"/><stop stop-opacity="1" stop-color="rgb(12.307739%, 12.307739%, 12.307739%)" offset="0.640625"/><stop stop-opacity="1" stop-color="rgb(12.042236%, 12.042236%, 12.042236%)" offset="0.648438"/><stop stop-opacity="1" stop-color="rgb(11.778259%, 11.778259%, 11.778259%)" offset="0.65625"/><stop stop-opacity="1" stop-color="rgb(11.512756%, 11.512756%, 11.512756%)" offset="0.664063"/><stop stop-opacity="1" stop-color="rgb(11.248779%, 11.248779%, 11.248779%)" offset="0.671875"/><stop stop-opacity="1" stop-color="rgb(10.983276%, 10.983276%, 10.983276%)" offset="0.679688"/><stop stop-opacity="1" stop-color="rgb(10.719299%, 10.719299%, 10.719299%)" offset="0.6875"/><stop stop-opacity="1" stop-color="rgb(10.453796%, 10.453796%, 10.453796%)" offset="0.695313"/><stop stop-opacity="1" stop-color="rgb(10.189819%, 10.189819%, 10.189819%)" offset="0.703125"/><stop stop-opacity="1" stop-color="rgb(9.924316%, 9.924316%, 9.924316%)" offset="0.710938"/><stop stop-opacity="1" stop-color="rgb(9.660339%, 9.660339%, 9.660339%)" offset="0.71875"/><stop stop-opacity="1" stop-color="rgb(9.394836%, 9.394836%, 9.394836%)" offset="0.726562"/><stop stop-opacity="1" stop-color="rgb(9.130859%, 9.130859%, 9.130859%)" offset="0.734375"/><stop stop-opacity="1" stop-color="rgb(8.865356%, 8.865356%, 8.865356%)" offset="0.742188"/><stop stop-opacity="1" stop-color="rgb(8.601379%, 8.601379%, 8.601379%)" offset="0.75"/><stop stop-opacity="1" stop-color="rgb(8.337402%, 8.337402%, 8.337402%)" offset="0.757813"/><stop stop-opacity="1" stop-color="rgb(8.071899%, 8.071899%, 8.071899%)" offset="0.765625"/><stop stop-opacity="1" stop-color="rgb(7.807922%, 7.807922%, 7.807922%)" offset="0.773438"/><stop stop-opacity="1" stop-color="rgb(7.542419%, 7.542419%, 7.542419%)" offset="0.78125"/><stop stop-opacity="1" stop-color="rgb(7.278442%, 7.278442%, 7.278442%)" offset="0.789062"/><stop stop-opacity="1" stop-color="rgb(7.012939%, 7.012939%, 7.012939%)" offset="0.796875"/><stop stop-opacity="1" stop-color="rgb(6.748962%, 6.748962%, 6.748962%)" offset="0.804688"/><stop stop-opacity="1" stop-color="rgb(6.483459%, 6.483459%, 6.483459%)" offset="0.8125"/><stop stop-opacity="1" stop-color="rgb(6.219482%, 6.219482%, 6.219482%)" offset="0.820313"/><stop stop-opacity="1" stop-color="rgb(5.953979%, 5.953979%, 5.953979%)" offset="0.828125"/><stop stop-opacity="1" stop-color="rgb(5.690002%, 5.690002%, 5.690002%)" offset="0.835938"/><stop stop-opacity="1" stop-color="rgb(5.4245%, 5.4245%, 5.4245%)" offset="0.84375"/><stop stop-opacity="1" stop-color="rgb(5.160522%, 5.160522%, 5.160522%)" offset="0.851563"/><stop stop-opacity="1" stop-color="rgb(4.89502%, 4.89502%, 4.89502%)" offset="0.859375"/><stop stop-opacity="1" stop-color="rgb(4.631042%, 4.631042%, 4.631042%)" offset="0.867188"/><stop stop-opacity="1" stop-color="rgb(4.36554%, 4.36554%, 4.36554%)" offset="0.875"/><stop stop-opacity="1" stop-color="rgb(4.101562%, 4.101562%, 4.101562%)" offset="0.882812"/><stop stop-opacity="1" stop-color="rgb(3.83606%, 3.83606%, 3.83606%)" offset="0.890625"/><stop stop-opacity="1" stop-color="rgb(3.572083%, 3.572083%, 3.572083%)" offset="0.898438"/><stop stop-opacity="1" stop-color="rgb(3.30658%, 3.30658%, 3.30658%)" offset="0.90625"/><stop stop-opacity="1" stop-color="rgb(3.042603%, 3.042603%, 3.042603%)" offset="0.914063"/><stop stop-opacity="1" stop-color="rgb(2.7771%, 2.7771%, 2.7771%)" offset="0.921875"/><stop stop-opacity="1" stop-color="rgb(2.513123%, 2.513123%, 2.513123%)" offset="0.929688"/><stop stop-opacity="1" stop-color="rgb(2.24762%, 2.24762%, 2.24762%)" offset="0.9375"/><stop stop-opacity="1" stop-color="rgb(1.983643%, 1.983643%, 1.983643%)" offset="0.945313"/><stop stop-opacity="1" stop-color="rgb(1.71814%, 1.71814%, 1.71814%)" offset="0.953125"/><stop stop-opacity="1" stop-color="rgb(1.454163%, 1.454163%, 1.454163%)" offset="0.960938"/><stop stop-opacity="1" stop-color="rgb(1.18866%, 1.18866%, 1.18866%)" offset="0.96875"/><stop stop-opacity="1" stop-color="rgb(0.924683%, 0.924683%, 0.924683%)" offset="0.976562"/><stop stop-opacity="1" stop-color="rgb(0.65918%, 0.65918%, 0.65918%)" offset="0.984375"/><stop stop-opacity="1" stop-color="rgb(0.395203%, 0.395203%, 0.395203%)" offset="0.992188"/><stop stop-opacity="1" stop-color="rgb(0.131226%, 0.131226%, 0.131226%)" offset="1"/></linearGradient><clipPath id="id7"><path d="M 60 69 L 89 69 L 89 96 L 60 96 Z M 60 69 " clip-rule="nonzero"/></clipPath><clipPath id="id8"><path d="M 74.53125 95.269531 L 86.125 82.34375 C 88.035156 80.21875 89.164062 77.480469 88.433594 74.625 C 87.871094 72.4375 86.265625 70.523438 84.148438 69.699219 C 81.074219 68.503906 78.277344 70.011719 76.304688 72.402344 L 74.53125 74.550781 L 72.757812 72.402344 C 70.785156 70.011719 67.992188 68.503906 64.917969 69.699219 C 62.800781 70.523438 61.195312 72.4375 60.632812 74.625 C 59.898438 77.480469 61.03125 80.21875 62.9375 82.34375 Z M 74.53125 95.269531 " clip-rule="nonzero"/></clipPath><linearGradient x1="456.82901" gradientTransform="matrix(0.549373, 0, 0, 0.505366, -190.563186, -86.234719)" y1="306.189963" x2="456.82901" gradientUnits="userSpaceOnUse" y2="359.152089" id="id9"><stop stop-opacity="1" stop-color="rgb(32.899475%, 32.899475%, 32.899475%)" offset="0"/><stop stop-opacity="1" stop-color="rgb(32.861328%, 32.861328%, 32.861328%)" offset="0.03125"/><stop stop-opacity="1" stop-color="rgb(32.69043%, 32.69043%, 32.69043%)" offset="0.0390625"/><stop stop-opacity="1" stop-color="rgb(32.426453%, 32.426453%, 32.426453%)" offset="0.046875"/><stop stop-opacity="1" stop-color="rgb(32.16095%, 32.16095%, 32.16095%)" offset="0.0546875"/><stop stop-opacity="1" stop-color="rgb(31.896973%, 31.896973%, 31.896973%)" offset="0.0625"/><stop stop-opacity="1" stop-color="rgb(31.63147%, 31.63147%, 31.63147%)" offset="0.0703125"/><stop stop-opacity="1" stop-color="rgb(31.367493%, 31.367493%, 31.367493%)" offset="0.078125"/><stop stop-opacity="1" stop-color="rgb(31.10199%, 31.10199%, 31.10199%)" offset="0.0859375"/><stop stop-opacity="1" stop-color="rgb(30.838013%, 30.838013%, 30.838013%)" offset="0.09375"/><stop stop-opacity="1" stop-color="rgb(30.57251%, 30.57251%, 30.57251%)" offset="0.101563"/><stop stop-opacity="1" stop-color="rgb(30.308533%, 30.308533%, 30.308533%)" offset="0.109375"/><stop stop-opacity="1" stop-color="rgb(30.04303%, 30.04303%, 30.04303%)" offset="0.117188"/><stop stop-opacity="1" stop-color="rgb(29.779053%, 29.779053%, 29.779053%)" offset="0.125"/><stop stop-opacity="1" stop-color="rgb(29.515076%, 29.515076%, 29.515076%)" offset="0.132812"/><stop stop-opacity="1" stop-color="rgb(29.249573%, 29.249573%, 29.249573%)" offset="0.140625"/><stop stop-opacity="1" stop-color="rgb(28.985596%, 28.985596%, 28.985596%)" offset="0.148438"/><stop stop-opacity="1" stop-color="rgb(28.720093%, 28.720093%, 28.720093%)" offset="0.15625"/><stop stop-opacity="1" stop-color="rgb(28.456116%, 28.456116%, 28.456116%)" offset="0.164062"/><stop stop-opacity="1" stop-color="rgb(28.190613%, 28.190613%, 28.190613%)" offset="0.171875"/><stop stop-opacity="1" stop-color="rgb(27.926636%, 27.926636%, 27.926636%)" offset="0.179687"/><stop stop-opacity="1" stop-color="rgb(27.661133%, 27.661133%, 27.661133%)" offset="0.1875"/><stop stop-opacity="1" stop-color="rgb(27.397156%, 27.397156%, 27.397156%)" offset="0.195312"/><stop stop-opacity="1" stop-color="rgb(27.131653%, 27.131653%, 27.131653%)" offset="0.203125"/><stop stop-opacity="1" stop-color="rgb(26.867676%, 26.867676%, 26.867676%)" offset="0.210938"/><stop stop-opacity="1" stop-color="rgb(26.602173%, 26.602173%, 26.602173%)" offset="0.21875"/><stop stop-opacity="1" stop-color="rgb(26.338196%, 26.338196%, 26.338196%)" offset="0.226562"/><stop stop-opacity="1" stop-color="rgb(26.072693%, 26.072693%, 26.072693%)" offset="0.234375"/><stop stop-opacity="1" stop-color="rgb(25.808716%, 25.808716%, 25.808716%)" offset="0.242188"/><stop stop-opacity="1" stop-color="rgb(25.543213%, 25.543213%, 25.543213%)" offset="0.25"/><stop stop-opacity="1" stop-color="rgb(25.279236%, 25.279236%, 25.279236%)" offset="0.257813"/><stop stop-opacity="1" stop-color="rgb(25.013733%, 25.013733%, 25.013733%)" offset="0.265625"/><stop stop-opacity="1" stop-color="rgb(24.749756%, 24.749756%, 24.749756%)" offset="0.273438"/><stop stop-opacity="1" stop-color="rgb(24.484253%, 24.484253%, 24.484253%)" offset="0.28125"/><stop stop-opacity="1" stop-color="rgb(24.220276%, 24.220276%, 24.220276%)" offset="0.289063"/><stop stop-opacity="1" stop-color="rgb(23.954773%, 23.954773%, 23.954773%)" offset="0.296875"/><stop stop-opacity="1" stop-color="rgb(23.690796%, 23.690796%, 23.690796%)" offset="0.304688"/><stop stop-opacity="1" stop-color="rgb(23.425293%, 23.425293%, 23.425293%)" offset="0.3125"/><stop stop-opacity="1" stop-color="rgb(23.161316%, 23.161316%, 23.161316%)" offset="0.320313"/><stop stop-opacity="1" stop-color="rgb(22.895813%, 22.895813%, 22.895813%)" offset="0.328125"/><stop stop-opacity="1" stop-color="rgb(22.631836%, 22.631836%, 22.631836%)" offset="0.335938"/><stop stop-opacity="1" stop-color="rgb(22.366333%, 22.366333%, 22.366333%)" offset="0.34375"/><stop stop-opacity="1" stop-color="rgb(22.102356%, 22.102356%, 22.102356%)" offset="0.351562"/><stop stop-opacity="1" stop-color="rgb(21.836853%, 21.836853%, 21.836853%)" offset="0.359375"/><stop stop-opacity="1" stop-color="rgb(21.572876%, 21.572876%, 21.572876%)" offset="0.367188"/><stop stop-opacity="1" stop-color="rgb(21.307373%, 21.307373%, 21.307373%)" offset="0.375"/><stop stop-opacity="1" stop-color="rgb(21.043396%, 21.043396%, 21.043396%)" offset="0.382812"/><stop stop-opacity="1" stop-color="rgb(20.777893%, 20.777893%, 20.777893%)" offset="0.390625"/><stop stop-opacity="1" stop-color="rgb(20.513916%, 20.513916%, 20.513916%)" offset="0.398438"/><stop stop-opacity="1" stop-color="rgb(20.248413%, 20.248413%, 20.248413%)" offset="0.40625"/><stop stop-opacity="1" stop-color="rgb(19.984436%, 19.984436%, 19.984436%)" offset="0.414062"/><stop stop-opacity="1" stop-color="rgb(19.720459%, 19.720459%, 19.720459%)" offset="0.421875"/><stop stop-opacity="1" stop-color="rgb(19.454956%, 19.454956%, 19.454956%)" offset="0.429688"/><stop stop-opacity="1" stop-color="rgb(19.190979%, 19.190979%, 19.190979%)" offset="0.4375"/><stop stop-opacity="1" stop-color="rgb(18.925476%, 18.925476%, 18.925476%)" offset="0.445313"/><stop stop-opacity="1" stop-color="rgb(18.661499%, 18.661499%, 18.661499%)" offset="0.453125"/><stop stop-opacity="1" stop-color="rgb(18.395996%, 18.395996%, 18.395996%)" offset="0.460938"/><stop stop-opacity="1" stop-color="rgb(18.132019%, 18.132019%, 18.132019%)" offset="0.46875"/><stop stop-opacity="1" stop-color="rgb(17.866516%, 17.866516%, 17.866516%)" offset="0.476563"/><stop stop-opacity="1" stop-color="rgb(17.602539%, 17.602539%, 17.602539%)" offset="0.484375"/><stop stop-opacity="1" stop-color="rgb(17.337036%, 17.337036%, 17.337036%)" offset="0.492188"/><stop stop-opacity="1" stop-color="rgb(17.073059%, 17.073059%, 17.073059%)" offset="0.5"/><stop stop-opacity="1" stop-color="rgb(16.807556%, 16.807556%, 16.807556%)" offset="0.507813"/><stop stop-opacity="1" stop-color="rgb(16.543579%, 16.543579%, 16.543579%)" offset="0.515625"/><stop stop-opacity="1" stop-color="rgb(16.278076%, 16.278076%, 16.278076%)" offset="0.523438"/><stop stop-opacity="1" stop-color="rgb(16.014099%, 16.014099%, 16.014099%)" offset="0.53125"/><stop stop-opacity="1" stop-color="rgb(15.748596%, 15.748596%, 15.748596%)" offset="0.539063"/><stop stop-opacity="1" stop-color="rgb(15.484619%, 15.484619%, 15.484619%)" offset="0.546875"/><stop stop-opacity="1" stop-color="rgb(15.219116%, 15.219116%, 15.219116%)" offset="0.554688"/><stop stop-opacity="1" stop-color="rgb(14.955139%, 14.955139%, 14.955139%)" offset="0.5625"/><stop stop-opacity="1" stop-color="rgb(14.689636%, 14.689636%, 14.689636%)" offset="0.570312"/><stop stop-opacity="1" stop-color="rgb(14.425659%, 14.425659%, 14.425659%)" offset="0.578125"/><stop stop-opacity="1" stop-color="rgb(14.160156%, 14.160156%, 14.160156%)" offset="0.585938"/><stop stop-opacity="1" stop-color="rgb(13.896179%, 13.896179%, 13.896179%)" offset="0.59375"/><stop stop-opacity="1" stop-color="rgb(13.630676%, 13.630676%, 13.630676%)" offset="0.601563"/><stop stop-opacity="1" stop-color="rgb(13.366699%, 13.366699%, 13.366699%)" offset="0.609375"/><stop stop-opacity="1" stop-color="rgb(13.101196%, 13.101196%, 13.101196%)" offset="0.617188"/><stop stop-opacity="1" stop-color="rgb(12.837219%, 12.837219%, 12.837219%)" offset="0.625"/><stop stop-opacity="1" stop-color="rgb(12.571716%, 12.571716%, 12.571716%)" offset="0.632813"/><stop stop-opacity="1" stop-color="rgb(12.307739%, 12.307739%, 12.307739%)" offset="0.640625"/><stop stop-opacity="1" stop-color="rgb(12.042236%, 12.042236%, 12.042236%)" offset="0.648438"/><stop stop-opacity="1" stop-color="rgb(11.778259%, 11.778259%, 11.778259%)" offset="0.65625"/><stop stop-opacity="1" stop-color="rgb(11.512756%, 11.512756%, 11.512756%)" offset="0.664063"/><stop stop-opacity="1" stop-color="rgb(11.248779%, 11.248779%, 11.248779%)" offset="0.671875"/><stop stop-opacity="1" stop-color="rgb(10.983276%, 10.983276%, 10.983276%)" offset="0.679688"/><stop stop-opacity="1" stop-color="rgb(10.719299%, 10.719299%, 10.719299%)" offset="0.6875"/><stop stop-opacity="1" stop-color="rgb(10.453796%, 10.453796%, 10.453796%)" offset="0.695313"/><stop stop-opacity="1" stop-color="rgb(10.189819%, 10.189819%, 10.189819%)" offset="0.703125"/><stop stop-opacity="1" stop-color="rgb(9.925842%, 9.925842%, 9.925842%)" offset="0.710938"/><stop stop-opacity="1" stop-color="rgb(9.660339%, 9.660339%, 9.660339%)" offset="0.71875"/><stop stop-opacity="1" stop-color="rgb(9.396362%, 9.396362%, 9.396362%)" offset="0.726562"/><stop stop-opacity="1" stop-color="rgb(9.130859%, 9.130859%, 9.130859%)" offset="0.734375"/><stop stop-opacity="1" stop-color="rgb(8.866882%, 8.866882%, 8.866882%)" offset="0.742188"/><stop stop-opacity="1" stop-color="rgb(8.601379%, 8.601379%, 8.601379%)" offset="0.75"/><stop stop-opacity="1" stop-color="rgb(8.337402%, 8.337402%, 8.337402%)" offset="0.757813"/><stop stop-opacity="1" stop-color="rgb(8.071899%, 8.071899%, 8.071899%)" offset="0.765625"/><stop stop-opacity="1" stop-color="rgb(7.807922%, 7.807922%, 7.807922%)" offset="0.773438"/><stop stop-opacity="1" stop-color="rgb(7.542419%, 7.542419%, 7.542419%)" offset="0.78125"/><stop stop-opacity="1" stop-color="rgb(7.278442%, 7.278442%, 7.278442%)" offset="0.789062"/><stop stop-opacity="1" stop-color="rgb(7.012939%, 7.012939%, 7.012939%)" offset="0.796875"/><stop stop-opacity="1" stop-color="rgb(6.748962%, 6.748962%, 6.748962%)" offset="0.804688"/><stop stop-opacity="1" stop-color="rgb(6.483459%, 6.483459%, 6.483459%)" offset="0.8125"/><stop stop-opacity="1" stop-color="rgb(6.219482%, 6.219482%, 6.219482%)" offset="0.820312"/><stop stop-opacity="1" stop-color="rgb(5.953979%, 5.953979%, 5.953979%)" offset="0.828125"/><stop stop-opacity="1" stop-color="rgb(5.690002%, 5.690002%, 5.690002%)" offset="0.835937"/><stop stop-opacity="1" stop-color="rgb(5.4245%, 5.4245%, 5.4245%)" offset="0.84375"/><stop stop-opacity="1" stop-color="rgb(5.160522%, 5.160522%, 5.160522%)" offset="0.851563"/><stop stop-opacity="1" stop-color="rgb(4.89502%, 4.89502%, 4.89502%)" offset="0.859375"/><stop stop-opacity="1" stop-color="rgb(4.631042%, 4.631042%, 4.631042%)" offset="0.867188"/><stop stop-opacity="1" stop-color="rgb(4.36554%, 4.36554%, 4.36554%)" offset="0.875"/><stop stop-opacity="1" stop-color="rgb(4.101562%, 4.101562%, 4.101562%)" offset="0.882812"/><stop stop-opacity="1" stop-color="rgb(3.83606%, 3.83606%, 3.83606%)" offset="0.890625"/><stop stop-opacity="1" stop-color="rgb(3.572083%, 3.572083%, 3.572083%)" offset="0.898438"/><stop stop-opacity="1" stop-color="rgb(3.30658%, 3.30658%, 3.30658%)" offset="0.90625"/><stop stop-opacity="1" stop-color="rgb(3.042603%, 3.042603%, 3.042603%)" offset="0.914063"/><stop stop-opacity="1" stop-color="rgb(2.7771%, 2.7771%, 2.7771%)" offset="0.921875"/><stop stop-opacity="1" stop-color="rgb(2.513123%, 2.513123%, 2.513123%)" offset="0.929688"/><stop stop-opacity="1" stop-color="rgb(2.24762%, 2.24762%, 2.24762%)" offset="0.9375"/><stop stop-opacity="1" stop-color="rgb(1.983643%, 1.983643%, 1.983643%)" offset="0.945312"/><stop stop-opacity="1" stop-color="rgb(1.71814%, 1.71814%, 1.71814%)" offset="0.953125"/><stop stop-opacity="1" stop-color="rgb(1.454163%, 1.454163%, 1.454163%)" offset="0.960938"/><stop stop-opacity="1" stop-color="rgb(1.18866%, 1.18866%, 1.18866%)" offset="0.96875"/><stop stop-opacity="1" stop-color="rgb(0.924683%, 0.924683%, 0.924683%)" offset="0.976563"/><stop stop-opacity="1" stop-color="rgb(0.660706%, 0.660706%, 0.660706%)" offset="0.984375"/><stop stop-opacity="1" stop-color="rgb(0.395203%, 0.395203%, 0.395203%)" offset="0.992188"/><stop stop-opacity="1" stop-color="rgb(0.131226%, 0.131226%, 0.131226%)" offset="1"/></linearGradient></defs><path fill="#545454" d="M 75 0 C 76.226562 0 77.453125 0.03125 78.679688 0.0898438 C 79.90625 0.152344 81.128906 0.242188 82.351562 0.363281 C 83.574219 0.480469 84.789062 0.632812 86.003906 0.8125 C 87.21875 0.992188 88.429688 1.203125 89.632812 1.441406 C 90.835938 1.679688 92.03125 1.949219 93.222656 2.246094 C 94.414062 2.546875 95.597656 2.875 96.769531 3.230469 C 97.945312 3.585938 99.109375 3.972656 100.265625 4.382812 C 101.421875 4.796875 102.566406 5.238281 103.703125 5.710938 C 104.835938 6.179688 105.957031 6.675781 107.066406 7.199219 C 108.175781 7.726562 109.273438 8.277344 110.355469 8.855469 C 111.4375 9.433594 112.503906 10.039062 113.558594 10.671875 C 114.609375 11.300781 115.648438 11.957031 116.667969 12.640625 C 117.6875 13.320312 118.691406 14.027344 119.675781 14.757812 C 120.664062 15.492188 121.628906 16.246094 122.578125 17.023438 C 123.527344 17.804688 124.457031 18.605469 125.367188 19.429688 C 126.277344 20.253906 127.164062 21.097656 128.03125 21.96875 C 128.902344 22.835938 129.746094 23.722656 130.570312 24.632812 C 131.394531 25.542969 132.195312 26.472656 132.976562 27.421875 C 133.753906 28.371094 134.507812 29.335938 135.242188 30.324219 C 135.972656 31.308594 136.679688 32.3125 137.359375 33.332031 C 138.042969 34.351562 138.699219 35.390625 139.328125 36.441406 C 139.960938 37.496094 140.566406 38.5625 141.144531 39.644531 C 141.722656 40.726562 142.273438 41.824219 142.800781 42.933594 C 143.324219 44.042969 143.820312 45.164062 144.289062 46.300781 C 144.761719 47.433594 145.203125 48.578125 145.617188 49.734375 C 146.027344 50.890625 146.414062 52.054688 146.769531 53.230469 C 147.125 54.402344 147.453125 55.585938 147.753906 56.777344 C 148.050781 57.96875 148.320312 59.164062 148.558594 60.367188 C 148.796875 61.570312 149.007812 62.78125 149.1875 63.996094 C 149.367188 65.210938 149.519531 66.425781 149.640625 67.648438 C 149.757812 68.871094 149.847656 70.09375 149.910156 71.320312 C 149.96875 72.546875 150 73.773438 150 75 C 150 76.226562 149.96875 77.453125 149.910156 78.679688 C 149.847656 79.90625 149.757812 81.128906 149.640625 82.351562 C 149.519531 83.574219 149.367188 84.789062 149.1875 86.003906 C 149.007812 87.21875 148.796875 88.429688 148.558594 89.632812 C 148.320312 90.835938 148.050781 92.03125 147.753906 93.222656 C 147.453125 94.414062 147.125 95.597656 146.769531 96.769531 C 146.414062 97.945312 146.03125 99.109375 145.617188 100.265625 C 145.203125 101.421875 144.761719 102.566406 144.289062 103.703125 C 143.820312 104.835938 143.324219 105.957031 142.800781 107.066406 C 142.273438 108.175781 141.722656 109.273438 141.144531 110.355469 C 140.566406 111.4375 139.960938 112.503906 139.328125 113.558594 C 138.699219 114.609375 138.042969 115.648438 137.359375 116.667969 C 136.679688 117.6875 135.972656 118.691406 135.242188 119.675781 C 134.507812 120.664062 133.753906 121.628906 132.976562 122.578125 C 132.195312 123.527344 131.394531 124.457031 130.570312 125.367188 C 129.746094 126.277344 128.902344 127.164062 128.03125 128.03125 C 127.164062 128.902344 126.277344 129.746094 125.367188 130.570312 C 124.457031 131.394531 123.527344 132.195312 122.578125 132.976562 C 121.628906 133.753906 120.664062 134.507812 119.675781 135.242188 C 118.691406 135.972656 117.6875 136.679688 116.667969 137.359375 C 115.648438 138.042969 114.609375 138.699219 113.558594 139.328125 C 112.503906 139.960938 111.4375 140.566406 110.355469 141.144531 C 109.273438 141.722656 108.175781 142.273438 107.066406 142.800781 C 105.957031 143.324219 104.835938 143.820312 103.703125 144.292969 C 102.566406 144.761719 101.421875 145.203125 100.265625 145.617188 C 99.109375 146.03125 97.945312 146.414062 96.769531 146.769531 C 95.597656 147.125 94.414062 147.453125 93.222656 147.753906 C 92.03125 148.050781 90.835938 148.320312 89.632812 148.558594 C 88.429688 148.796875 87.21875 149.007812 86.003906 149.1875 C 84.789062 149.367188 83.574219 149.519531 82.351562 149.640625 C 81.128906 149.757812 79.90625 149.847656 78.679688 149.910156 C 77.453125 149.96875 76.226562 150 75 150 C 73.773438 150 72.546875 149.96875 71.320312 149.910156 C 70.09375 149.847656 68.871094 149.757812 67.648438 149.640625 C 66.425781 149.519531 65.210938 149.367188 63.996094 149.1875 C 62.78125 149.007812 61.570312 148.796875 60.367188 148.558594 C 59.164062 148.320312 57.96875 148.050781 56.777344 147.753906 C 55.585938 147.453125 54.402344 147.125 53.230469 146.769531 C 52.054688 146.414062 50.890625 146.03125 49.734375 145.617188 C 48.578125 145.203125 47.433594 144.761719 46.300781 144.292969 C 45.164062 143.820312 44.042969 143.324219 42.933594 142.800781 C 41.824219 142.273438 40.726562 141.722656 39.644531 141.144531 C 38.5625 140.566406 37.496094 139.960938 36.441406 139.328125 C 35.390625 138.699219 34.351562 138.042969 33.332031 137.359375 C 32.3125 136.679688 31.308594 135.972656 30.324219 135.242188 C 29.335938 134.507812 28.371094 133.753906 27.421875 132.976562 C 26.472656 132.195312 25.542969 131.394531 24.632812 130.570312 C 23.722656 129.746094 22.835938 128.902344 21.96875 128.03125 C 21.097656 127.164062 20.253906 126.277344 19.429688 125.367188 C 18.605469 124.457031 17.804688 123.527344 17.023438 122.578125 C 16.246094 121.628906 15.492188 120.664062 14.757812 119.675781 C 14.027344 118.691406 13.320312 117.6875 12.640625 116.667969 C 11.957031 115.648438 11.300781 114.609375 10.671875 113.558594 C 10.039062 112.503906 9.433594 111.4375 8.855469 110.355469 C 8.277344 109.273438 7.726562 108.175781 7.199219 107.066406 C 6.675781 105.957031 6.179688 104.835938 5.710938 103.703125 C 5.238281 102.566406 4.796875 101.421875 4.382812 100.265625 C 3.972656 99.109375 3.585938 97.945312 3.230469 96.773438 C 2.875 95.597656 2.546875 94.414062 2.246094 93.222656 C 1.949219 92.03125 1.679688 90.835938 1.441406 89.632812 C 1.203125 88.429688 0.992188 87.21875 0.8125 86.003906 C 0.632812 84.789062 0.480469 83.574219 0.359375 82.351562 C 0.242188 81.128906 0.152344 79.90625 0.0898438 78.679688 C 0.03125 77.453125 0 76.226562 0 75 C 0 73.773438 0.03125 72.546875 0.0898438 71.320312 C 0.152344 70.09375 0.242188 68.871094 0.359375 67.648438 C 0.480469 66.425781 0.632812 65.210938 0.8125 63.996094 C 0.992188 62.78125 1.203125 61.570312 1.441406 60.367188 C 1.679688 59.164062 1.949219 57.96875 2.246094 56.777344 C 2.546875 55.585938 2.875 54.402344 3.230469 53.230469 C 3.585938 52.054688 3.972656 50.890625 4.382812 49.734375 C 4.796875 48.578125 5.238281 47.433594 5.710938 46.300781 C 6.179688 45.164062 6.675781 44.042969 7.199219 42.933594 C 7.726562 41.824219 8.277344 40.726562 8.855469 39.644531 C 9.433594 38.5625 10.039062 37.496094 10.671875 36.441406 C 11.300781 35.390625 11.957031 34.351562 12.640625 33.332031 C 13.320312 32.3125 14.027344 31.308594 14.757812 30.324219 C 15.492188 29.335938 16.246094 28.371094 17.023438 27.421875 C 17.804688 26.472656 18.605469 25.542969 19.429688 24.632812 C 20.253906 23.722656 21.097656 22.835938 21.96875 21.96875 C 22.835938 21.097656 23.722656 20.253906 24.632812 19.429688 C 25.542969 18.605469 26.472656 17.804688 27.421875 17.023438 C 28.371094 16.246094 29.335938 15.492188 30.324219 14.757812 C 31.308594 14.027344 32.3125 13.320312 33.332031 12.640625 C 34.351562 11.957031 35.390625 11.300781 36.441406 10.671875 C 37.496094 10.039062 38.5625 9.433594 39.644531 8.855469 C 40.726562 8.277344 41.824219 7.726562 42.933594 7.199219 C 44.042969 6.675781 45.164062 6.179688 46.296875 5.710938 C 47.433594 5.238281 48.578125 4.796875 49.734375 4.382812 C 50.890625 3.972656 52.054688 3.585938 53.230469 3.230469 C 54.402344 2.875 55.585938 2.546875 56.777344 2.246094 C 57.96875 1.949219 59.164062 1.679688 60.367188 1.441406 C 61.570312 1.203125 62.78125 0.992188 63.996094 0.8125 C 65.210938 0.632812 66.425781 0.480469 67.648438 0.363281 C 68.871094 0.242188 70.09375 0.152344 71.320312 0.0898438 C 72.546875 0.03125 73.773438 0 75 0 Z M 75 0 " fill-opacity="1" fill-rule="evenodd"/><path fill="#ffffff" d="M 75 4.488281 C 94.472656 4.488281 112.097656 12.378906 124.859375 25.140625 C 137.621094 37.902344 145.511719 55.527344 145.511719 75 C 145.511719 94.472656 137.621094 112.097656 124.859375 124.859375 C 112.097656 137.621094 94.472656 145.511719 75 145.511719 C 55.527344 145.511719 37.902344 137.621094 25.140625 124.859375 C 12.378906 112.101562 4.488281 94.472656 4.488281 75 C 4.488281 55.527344 12.378906 37.902344 25.140625 25.140625 C 37.902344 12.378906 55.527344 4.488281 75 4.488281 Z M 122.625 27.375 C 110.4375 15.1875 93.597656 7.648438 75 7.648438 C 56.402344 7.648438 39.5625 15.1875 27.375 27.375 C 15.1875 39.5625 7.648438 56.402344 7.648438 75 C 7.648438 93.597656 15.1875 110.4375 27.375 122.625 C 39.5625 134.8125 56.402344 142.351562 75 142.351562 C 93.597656 142.351562 110.4375 134.8125 122.625 122.625 C 134.8125 110.4375 142.351562 93.597656 142.351562 75 C 142.351562 56.402344 134.8125 39.5625 122.625 27.375 Z M 122.625 27.375 " fill-opacity="1" fill-rule="evenodd"/><path fill="#545454" d="M 75 31.34375 C 82.679688 23.585938 93.101562 19.839844 103.910156 24.050781 C 112.296875 27.316406 118.636719 34.734375 120.863281 43.417969 C 122.074219 48.132812 122.03125 53.019531 120.8125 57.726562 C 119.382812 63.230469 116.449219 68.144531 112.671875 72.359375 L 75 114.351562 L 37.328125 72.359375 C 33.550781 68.144531 30.617188 63.230469 29.1875 57.726562 C 27.96875 53.019531 27.925781 48.132812 29.136719 43.414062 C 31.363281 34.734375 37.703125 27.3125 46.089844 24.050781 C 56.898438 19.839844 67.320312 23.585938 75 31.34375 Z M 75 31.34375 " fill-opacity="1" fill-rule="evenodd"/><path fill="#ffffff" d="M 75 35.886719 C 51.589844 7.511719 14.679688 42.546875 39.597656 70.324219 L 75 109.789062 L 110.402344 70.324219 C 135.320312 42.546875 98.410156 7.511719 75 35.886719 Z M 75 35.886719 " fill-opacity="1" fill-rule="evenodd"/><path fill="#ffffff" d="M 16.074219 88.398438 L 19.710938 89.257812 C 18.972656 90.875 18.859375 92.371094 19.382812 93.75 C 20.328125 96.253906 21.921875 97.085938 24.160156 96.238281 C 25.179688 95.851562 25.871094 95.175781 26.238281 94.210938 C 26.597656 93.238281 26.546875 92.140625 26.082031 90.90625 L 25.820312 90.214844 L 28.925781 89.039062 L 29.148438 89.628906 C 30 91.886719 31.328125 92.671875 33.128906 91.992188 C 35.015625 91.277344 35.5625 89.878906 34.769531 87.78125 C 34.355469 86.695312 33.476562 85.824219 32.125 85.164062 L 33.992188 82.328125 C 34.726562 82.59375 35.492188 83.152344 36.285156 84.003906 C 37.074219 84.855469 37.664062 85.785156 38.046875 86.796875 C 38.882812 89.007812 39.050781 90.90625 38.550781 92.511719 C 38.058594 94.109375 36.941406 95.238281 35.203125 95.894531 C 33.136719 96.675781 31.210938 96.339844 29.429688 94.882812 C 29.246094 97.652344 27.933594 99.496094 25.488281 100.421875 C 23.484375 101.179688 21.660156 101.070312 20.023438 100.09375 C 18.390625 99.105469 17.105469 97.386719 16.175781 94.921875 C 15.328125 92.679688 15.292969 90.503906 16.074219 88.398438 Z M 47.808594 115.148438 L 44.6875 115.972656 C 44.59375 114.753906 44 113.613281 42.894531 112.542969 C 41.835938 111.519531 40.675781 111.042969 39.410156 111.117188 C 38.140625 111.195312 36.933594 111.828125 35.78125 113.019531 C 33.460938 115.414062 33.492188 117.773438 35.886719 120.09375 C 36.921875 121.097656 38.152344 121.65625 39.578125 121.765625 L 38.574219 124.855469 C 37.292969 124.550781 36.285156 124.171875 35.550781 123.710938 C 34.820312 123.25 34.039062 122.621094 33.214844 121.820312 C 31.363281 120.023438 30.402344 118.097656 30.328125 116.03125 C 30.253906 113.972656 31.101562 112.023438 32.871094 110.199219 C 34.617188 108.398438 36.609375 107.511719 38.855469 107.539062 C 41.101562 107.5625 43.234375 108.554688 45.253906 110.515625 C 46.648438 111.863281 47.5 113.410156 47.808594 115.148438 Z M 44.660156 121.054688 C 45.730469 118.878906 47.261719 117.429688 49.25 116.710938 C 51.242188 115.988281 53.320312 116.160156 55.484375 117.222656 C 57.753906 118.339844 59.191406 119.863281 59.808594 121.796875 C 60.417969 123.726562 60.164062 125.835938 59.039062 128.121094 C 57.921875 130.390625 56.394531 131.886719 54.457031 132.597656 C 52.515625 133.308594 50.429688 133.121094 48.207031 132.027344 C 45.929688 130.90625 44.496094 129.363281 43.902344 127.390625 C 43.300781 125.414062 43.558594 123.300781 44.660156 121.054688 Z M 48.300781 122.84375 C 46.757812 125.984375 47.175781 128.132812 49.546875 129.300781 C 50.636719 129.835938 51.695312 129.847656 52.734375 129.347656 C 53.773438 128.84375 54.664062 127.835938 55.402344 126.332031 C 56.921875 123.238281 56.503906 121.109375 54.140625 119.949219 C 53.050781 119.410156 51.984375 119.394531 50.945312 119.894531 C 49.898438 120.394531 49.019531 121.378906 48.300781 122.84375 Z M 71.742188 125.695312 C 71.148438 125.125 70.445312 124.757812 69.628906 124.597656 C 68.742188 124.421875 67.878906 124.648438 67.039062 125.28125 C 66.199219 125.910156 65.667969 126.78125 65.449219 127.886719 L 63.691406 136.769531 L 59.871094 136.011719 L 62.957031 120.425781 L 66.777344 121.183594 L 66.492188 122.613281 C 67.789062 121.671875 69.328125 121.378906 71.101562 121.730469 C 72.40625 121.988281 73.367188 122.371094 73.984375 122.890625 Z M 84.453125 135.550781 C 84.164062 136.140625 83.601562 136.660156 82.765625 137.105469 C 81.933594 137.546875 81.042969 137.824219 80.089844 137.925781 C 78.308594 138.121094 76.855469 137.847656 75.742188 137.105469 C 74.628906 136.367188 73.984375 135.214844 73.816406 133.648438 C 73.617188 131.816406 74.179688 130.304688 75.503906 129.113281 C 76.832031 127.925781 78.820312 127.1875 81.46875 126.898438 C 81.925781 126.847656 82.464844 126.859375 83.101562 126.933594 C 82.898438 125.082031 81.566406 124.289062 79.101562 124.558594 C 77.648438 124.714844 76.453125 125.082031 75.523438 125.648438 L 74.375 122.871094 C 75.644531 122.121094 77.195312 121.648438 79.035156 121.449219 C 81.5625 121.171875 83.480469 121.519531 84.777344 122.488281 C 86.078125 123.457031 86.890625 125.46875 87.222656 128.527344 L 87.589844 131.90625 C 87.816406 134.011719 88.40625 135.285156 89.351562 135.726562 C 89.089844 136.300781 88.769531 136.667969 88.394531 136.835938 C 88.015625 137.003906 87.570312 137.113281 87.066406 137.167969 C 86.503906 137.230469 85.980469 137.085938 85.492188 136.738281 C 85.007812 136.394531 84.660156 136 84.453125 135.550781 Z M 83.433594 129.710938 C 82.757812 129.660156 82.261719 129.652344 81.929688 129.691406 C 78.878906 130.023438 77.460938 131.148438 77.667969 133.066406 C 77.824219 134.492188 78.761719 135.105469 80.480469 134.921875 C 82.800781 134.667969 83.839844 133.425781 83.59375 131.195312 Z M 100.136719 116.332031 L 99.757812 119.535156 C 98.59375 119.175781 97.3125 119.3125 95.910156 119.945312 C 94.570312 120.554688 93.699219 121.457031 93.304688 122.664062 C 92.914062 123.871094 93.058594 125.226562 93.742188 126.734375 C 95.121094 129.777344 97.324219 130.609375 100.363281 129.234375 C 101.675781 128.640625 102.644531 127.699219 103.273438 126.414062 L 105.78125 128.480469 C 105.027344 129.5625 104.300781 130.363281 103.605469 130.875 C 102.90625 131.382812 102.035156 131.878906 100.988281 132.351562 C 98.636719 133.417969 96.492188 133.605469 94.546875 132.914062 C 92.601562 132.230469 91.101562 130.722656 90.050781 128.410156 C 89.015625 126.125 88.921875 123.945312 89.773438 121.863281 C 90.617188 119.785156 92.324219 118.167969 94.890625 117.007812 C 96.65625 116.207031 98.40625 115.980469 100.136719 116.332031 Z M 99.945312 139.417969 L 98.585938 137.964844 C 98.941406 137.898438 99.292969 137.789062 99.632812 137.636719 C 100.867188 137.078125 101.300781 136.386719 100.929688 135.566406 C 100.792969 135.265625 100.566406 135.019531 100.246094 134.828125 C 99.925781 134.636719 99.605469 134.570312 99.28125 134.628906 L 99.941406 132.894531 C 101.792969 132.457031 103.0625 133.003906 103.757812 134.535156 C 104.148438 135.398438 104.121094 136.226562 103.667969 137.019531 C 103.222656 137.816406 102.46875 138.453125 101.394531 138.9375 C 100.917969 139.15625 100.433594 139.3125 99.945312 139.417969 Z M 104.609375 121.4375 C 103.007812 119.617188 102.253906 117.648438 102.351562 115.535156 C 102.445312 113.421875 103.398438 111.566406 105.210938 109.972656 C 107.113281 108.304688 109.070312 107.558594 111.089844 107.730469 C 113.109375 107.90625 114.957031 108.949219 116.640625 110.863281 C 118.3125 112.761719 119.105469 114.746094 119.023438 116.808594 C 118.933594 118.878906 117.960938 120.730469 116.101562 122.363281 C 114.195312 124.039062 112.21875 124.773438 110.167969 124.566406 C 108.113281 124.363281 106.257812 123.316406 104.609375 121.4375 Z M 107.652344 118.761719 C 109.960938 121.390625 112.109375 121.828125 114.09375 120.082031 C 115.003906 119.28125 115.425781 118.308594 115.359375 117.15625 C 115.289062 116.003906 114.703125 114.796875 113.597656 113.539062 C 111.320312 110.949219 109.191406 110.519531 107.214844 112.257812 C 106.300781 113.058594 105.878906 114.039062 105.941406 115.191406 C 106.003906 116.347656 106.574219 117.539062 107.652344 118.761719 Z M 102.003906 110.933594 L 100.300781 112.429688 C 99.699219 111.449219 99.394531 110.496094 99.375 109.5625 C 99.355469 108.636719 99.679688 107.878906 100.34375 107.296875 C 100.953125 106.757812 101.6875 106.371094 102.554688 106.121094 C 103.417969 105.875 103.933594 105.675781 104.109375 105.523438 C 104.582031 105.105469 104.667969 104.515625 104.363281 103.761719 L 106.089844 102.242188 C 106.769531 103.613281 107.074219 104.691406 106.996094 105.472656 C 106.921875 106.25 106.558594 106.925781 105.914062 107.496094 C 105.429688 107.921875 104.75 108.261719 103.875 108.519531 C 103 108.773438 102.46875 108.984375 102.28125 109.148438 C 101.875 109.507812 101.78125 110.101562 102.003906 110.933594 Z M 126.636719 96.226562 L 120.628906 106.523438 C 121.757812 107.097656 122.84375 107.199219 123.875 106.828125 C 124.90625 106.457031 125.777344 105.65625 126.496094 104.425781 C 127.394531 102.886719 127.699219 101.5 127.414062 100.261719 L 130.613281 100.378906 C 130.832031 102.097656 130.257812 104.125 128.886719 106.476562 C 127.605469 108.671875 125.980469 110.050781 124 110.617188 C 122.03125 111.179688 119.945312 110.816406 117.75 109.535156 C 115.585938 108.273438 114.242188 106.546875 113.71875 104.363281 C 113.195312 102.171875 113.507812 100.101562 114.652344 98.136719 C 115.875 96.046875 117.449219 94.714844 119.375 94.148438 C 121.300781 93.578125 123.183594 93.828125 125.019531 94.898438 C 125.414062 95.128906 125.953125 95.570312 126.636719 96.226562 Z M 118.292969 104.976562 L 122.414062 97.921875 C 120.265625 96.980469 118.578125 97.558594 117.359375 99.648438 C 116.242188 101.5625 116.554688 103.339844 118.292969 104.976562 Z M 132.542969 94.875 L 129.980469 92.847656 C 131.113281 91.917969 131.851562 90.742188 132.191406 89.320312 C 132.539062 87.847656 132.214844 86.992188 131.214844 86.753906 C 130.621094 86.613281 130.085938 86.722656 129.605469 87.078125 C 129.125 87.433594 128.472656 88.1875 127.660156 89.347656 C 125.886719 91.886719 124.003906 92.914062 122.007812 92.441406 C 120.667969 92.121094 119.757812 91.339844 119.261719 90.09375 C 118.773438 88.84375 118.722656 87.390625 119.117188 85.722656 C 119.519531 84.035156 120.253906 82.539062 121.328125 81.222656 L 123.863281 82.972656 C 122.996094 83.644531 122.386719 84.710938 122.039062 86.1875 C 121.722656 87.507812 122.070312 88.289062 123.070312 88.527344 C 123.46875 88.621094 123.875 88.488281 124.296875 88.128906 C 124.714844 87.769531 125.367188 86.945312 126.242188 85.648438 C 127.113281 84.347656 128.003906 83.476562 128.914062 83.03125 C 129.824219 82.585938 130.820312 82.496094 131.894531 82.75 C 133.332031 83.09375 134.328125 83.917969 134.882812 85.234375 C 135.441406 86.539062 135.496094 88.15625 135.039062 90.074219 C 134.785156 91.15625 134.492188 92.003906 134.171875 92.613281 C 133.84375 93.222656 133.300781 93.980469 132.542969 94.875 Z M 132.542969 94.875 " fill-opacity="1" fill-rule="evenodd"/><path fill="#ffffff" d="M 16.074219 86.839844 L 19.710938 87.699219 C 18.972656 89.316406 18.859375 90.8125 19.382812 92.191406 C 20.328125 94.695312 21.921875 95.527344 24.160156 94.679688 C 25.179688 94.292969 25.871094 93.617188 26.238281 92.652344 C 26.597656 91.679688 26.546875 90.582031 26.082031 89.347656 L 25.820312 88.65625 L 28.925781 87.480469 L 29.148438 88.070312 C 30 90.328125 31.328125 91.117188 33.128906 90.433594 C 35.015625 89.722656 35.5625 88.320312 34.769531 86.222656 C 34.355469 85.136719 33.476562 84.269531 32.125 83.609375 L 33.992188 80.769531 C 34.726562 81.035156 35.492188 81.59375 36.285156 82.445312 C 37.074219 83.296875 37.664062 84.226562 38.046875 85.238281 C 38.882812 87.449219 39.050781 89.351562 38.550781 90.953125 C 38.058594 92.554688 36.941406 93.679688 35.203125 94.335938 C 33.136719 95.117188 31.210938 94.78125 29.429688 93.328125 C 29.246094 96.09375 27.933594 97.941406 25.488281 98.863281 C 23.484375 99.621094 21.660156 99.511719 20.023438 98.535156 C 18.390625 97.550781 17.105469 95.828125 16.175781 93.363281 C 15.328125 91.121094 15.292969 88.945312 16.074219 86.839844 Z M 47.808594 113.589844 L 44.6875 114.414062 C 44.59375 113.199219 44 112.054688 42.894531 110.984375 C 41.835938 109.960938 40.675781 109.484375 39.410156 109.5625 C 38.140625 109.636719 36.933594 110.273438 35.78125 111.460938 C 33.460938 113.855469 33.492188 116.214844 35.886719 118.535156 C 36.921875 119.539062 38.152344 120.097656 39.578125 120.207031 L 38.574219 123.296875 C 37.292969 122.992188 36.285156 122.613281 35.550781 122.152344 C 34.820312 121.691406 34.039062 121.0625 33.214844 120.261719 C 31.363281 118.46875 30.402344 116.539062 30.328125 114.476562 C 30.253906 112.414062 31.101562 110.464844 32.871094 108.640625 C 34.617188 106.839844 36.609375 105.953125 38.855469 105.980469 C 41.101562 106.003906 43.234375 107 45.253906 108.957031 C 46.648438 110.308594 47.5 111.851562 47.808594 113.589844 Z M 44.660156 119.496094 C 45.730469 117.320312 47.261719 115.871094 49.25 115.152344 C 51.242188 114.429688 53.320312 114.601562 55.484375 115.664062 C 57.753906 116.78125 59.191406 118.304688 59.808594 120.238281 C 60.417969 122.167969 60.164062 124.277344 59.039062 126.5625 C 57.921875 128.835938 56.394531 130.328125 54.457031 131.039062 C 52.515625 131.75 50.429688 131.5625 48.207031 130.46875 C 45.929688 129.351562 44.496094 127.804688 43.902344 125.832031 C 43.300781 123.855469 43.558594 121.742188 44.660156 119.496094 Z M 48.300781 121.285156 C 46.757812 124.425781 47.175781 126.578125 49.546875 127.742188 C 50.636719 128.277344 51.695312 128.289062 52.734375 127.792969 C 53.773438 127.285156 54.664062 126.277344 55.402344 124.773438 C 56.921875 121.679688 56.503906 119.550781 54.140625 118.390625 C 53.050781 117.851562 51.984375 117.835938 50.945312 118.335938 C 49.898438 118.835938 49.019531 119.820312 48.300781 121.285156 Z M 71.742188 124.136719 C 71.148438 123.566406 70.445312 123.199219 69.628906 123.039062 C 68.742188 122.863281 67.878906 123.089844 67.039062 123.722656 C 66.199219 124.351562 65.667969 125.222656 65.449219 126.328125 L 63.691406 135.210938 L 59.871094 134.457031 L 62.957031 118.867188 L 66.777344 119.625 L 66.492188 121.054688 C 67.789062 120.113281 69.328125 119.820312 71.101562 120.171875 C 72.40625 120.429688 73.367188 120.816406 73.984375 121.335938 Z M 84.453125 133.996094 C 84.164062 134.582031 83.601562 135.101562 82.765625 135.546875 C 81.933594 135.992188 81.042969 136.265625 80.089844 136.367188 C 78.308594 136.5625 76.855469 136.289062 75.742188 135.546875 C 74.628906 134.808594 73.984375 133.65625 73.816406 132.089844 C 73.617188 130.257812 74.179688 128.746094 75.503906 127.558594 C 76.832031 126.371094 78.820312 125.628906 81.46875 125.339844 C 81.925781 125.289062 82.464844 125.304688 83.101562 125.375 C 82.898438 123.523438 81.566406 122.730469 79.101562 123 C 77.648438 123.15625 76.453125 123.523438 75.523438 124.09375 L 74.375 121.3125 C 75.644531 120.566406 77.195312 120.089844 79.035156 119.890625 C 81.5625 119.613281 83.480469 119.960938 84.777344 120.929688 C 86.078125 121.898438 86.890625 123.910156 87.222656 126.972656 L 87.589844 130.347656 C 87.816406 132.453125 88.40625 133.726562 89.351562 134.167969 C 89.089844 134.742188 88.769531 135.109375 88.394531 135.277344 C 88.015625 135.445312 87.570312 135.554688 87.066406 135.609375 C 86.503906 135.671875 85.980469 135.53125 85.492188 135.179688 C 85.007812 134.835938 84.660156 134.441406 84.453125 133.996094 Z M 83.433594 128.152344 C 82.757812 128.101562 82.261719 128.097656 81.929688 128.132812 C 78.878906 128.464844 77.460938 129.589844 77.667969 131.507812 C 77.824219 132.933594 78.761719 133.550781 80.480469 133.363281 C 82.800781 133.109375 83.839844 131.867188 83.59375 129.636719 Z M 100.136719 114.773438 L 99.757812 117.976562 C 98.59375 117.617188 97.3125 117.753906 95.910156 118.386719 C 94.570312 118.996094 93.699219 119.902344 93.304688 121.105469 C 92.914062 122.3125 93.058594 123.671875 93.742188 125.179688 C 95.121094 128.21875 97.324219 129.054688 100.363281 127.675781 C 101.675781 127.082031 102.644531 126.140625 103.273438 124.859375 L 105.78125 126.925781 C 105.027344 128.003906 104.300781 128.804688 103.605469 129.316406 C 102.90625 129.824219 102.035156 130.320312 100.988281 130.796875 C 98.636719 131.859375 96.492188 132.046875 94.546875 131.355469 C 92.601562 130.671875 91.101562 129.164062 90.050781 126.851562 C 89.015625 124.566406 88.921875 122.386719 89.773438 120.304688 C 90.617188 118.226562 92.324219 116.609375 94.890625 115.449219 C 96.65625 114.648438 98.40625 114.421875 100.136719 114.773438 Z M 99.945312 137.859375 L 98.585938 136.410156 C 98.941406 136.34375 99.292969 136.234375 99.632812 136.078125 C 100.867188 135.519531 101.300781 134.828125 100.929688 134.007812 C 100.792969 133.707031 100.566406 133.460938 100.246094 133.269531 C 99.925781 133.078125 99.605469 133.011719 99.28125 133.070312 L 99.941406 131.335938 C 101.792969 130.898438 103.0625 131.445312 103.757812 132.976562 C 104.148438 133.839844 104.121094 134.667969 103.667969 135.460938 C 103.222656 136.257812 102.46875 136.894531 101.394531 137.382812 C 100.917969 137.597656 100.433594 137.757812 99.945312 137.859375 Z M 104.609375 119.878906 C 103.007812 118.058594 102.253906 116.089844 102.351562 113.976562 C 102.445312 111.863281 103.398438 110.007812 105.210938 108.417969 C 107.113281 106.746094 109.070312 106 111.089844 106.171875 C 113.109375 106.347656 114.957031 107.390625 116.640625 109.304688 C 118.3125 111.207031 119.105469 113.191406 119.023438 115.253906 C 118.933594 117.320312 117.960938 119.171875 116.101562 120.808594 C 114.195312 122.480469 112.21875 123.214844 110.167969 123.007812 C 108.113281 122.804688 106.257812 121.757812 104.609375 119.878906 Z M 107.652344 117.203125 C 109.960938 119.832031 112.109375 120.269531 114.09375 118.523438 C 115.003906 117.726562 115.425781 116.75 115.359375 115.597656 C 115.289062 114.449219 114.703125 113.238281 113.597656 111.980469 C 111.320312 109.390625 109.191406 108.960938 107.214844 110.699219 C 106.300781 111.503906 105.878906 112.480469 105.941406 113.632812 C 106.003906 114.789062 106.574219 115.980469 107.652344 117.203125 Z M 102.003906 109.375 L 100.300781 110.871094 C 99.699219 109.890625 99.394531 108.9375 99.375 108.003906 C 99.355469 107.078125 99.679688 106.320312 100.34375 105.738281 C 100.953125 105.203125 101.6875 104.8125 102.554688 104.5625 C 103.417969 104.316406 103.933594 104.121094 104.109375 103.964844 C 104.582031 103.546875 104.667969 102.960938 104.363281 102.203125 L 106.089844 100.6875 C 106.769531 102.054688 107.074219 103.132812 106.996094 103.914062 C 106.921875 104.695312 106.558594 105.367188 105.914062 105.9375 C 105.429688 106.363281 104.75 106.703125 103.875 106.960938 C 103 107.21875 102.46875 107.425781 102.28125 107.59375 C 101.875 107.949219 101.78125 108.542969 102.003906 109.375 Z M 126.636719 94.667969 L 120.628906 104.964844 C 121.757812 105.539062 122.84375 105.640625 123.875 105.269531 C 124.90625 104.898438 125.777344 104.097656 126.496094 102.867188 C 127.394531 101.328125 127.699219 99.941406 127.414062 98.703125 L 130.613281 98.824219 C 130.832031 100.539062 130.257812 102.566406 128.886719 104.921875 C 127.605469 107.117188 125.980469 108.496094 124 109.058594 C 122.03125 109.621094 119.945312 109.261719 117.75 107.980469 C 115.585938 106.714844 114.242188 104.988281 113.71875 102.804688 C 113.195312 100.617188 113.507812 98.542969 114.652344 96.578125 C 115.875 94.488281 117.449219 93.15625 119.375 92.589844 C 121.300781 92.019531 123.183594 92.269531 125.019531 93.339844 C 125.414062 93.570312 125.953125 94.015625 126.636719 94.667969 Z M 118.292969 103.417969 L 122.414062 96.363281 C 120.265625 95.421875 118.578125 96 117.359375 98.089844 C 116.242188 100.003906 116.554688 101.78125 118.292969 103.417969 Z M 132.542969 93.320312 L 129.980469 91.289062 C 131.113281 90.363281 131.851562 89.1875 132.191406 87.761719 C 132.539062 86.289062 132.214844 85.433594 131.214844 85.195312 C 130.621094 85.054688 130.085938 85.164062 129.605469 85.519531 C 129.125 85.875 128.472656 86.628906 127.660156 87.792969 C 125.886719 90.328125 124.003906 91.355469 122.007812 90.882812 C 120.667969 90.5625 119.757812 89.785156 119.261719 88.535156 C 118.773438 87.285156 118.722656 85.832031 119.117188 84.164062 C 119.519531 82.480469 120.253906 80.980469 121.328125 79.667969 L 123.863281 81.417969 C 122.996094 82.085938 122.386719 83.15625 122.039062 84.628906 C 121.722656 85.949219 122.070312 86.730469 123.070312 86.96875 C 123.46875 87.0625 123.875 86.929688 124.296875 86.570312 C 124.714844 86.210938 125.367188 85.386719 126.242188 84.089844 C 127.113281 82.789062 128.003906 81.917969 128.914062 81.472656 C 129.824219 81.027344 130.820312 80.9375 131.894531 81.191406 C 133.332031 81.535156 134.328125 82.363281 134.882812 83.675781 C 135.441406 84.984375 135.496094 86.597656 135.039062 88.515625 C 134.785156 89.597656 134.492188 90.449219 134.171875 91.054688 C 133.84375 91.664062 133.300781 92.421875 132.542969 93.320312 Z M 132.542969 93.320312 " fill-opacity="1" fill-rule="evenodd"/><path fill="#545454" d="M 95.230469 40.226562 C 86.433594 29.5625 72.558594 42.730469 81.925781 53.167969 L 95.230469 68 L 108.535156 53.167969 C 117.898438 42.730469 104.027344 29.5625 95.230469 40.226562 Z M 95.230469 40.226562 " fill-opacity="1" fill-rule="evenodd"/><g clip-path="url(#id1)"><g clip-path="url(#id2)"><path fill="url(#id3)" d="M 80.597656 37.792969 L 80.597656 64.554688 L 109.863281 64.554688 L 109.863281 37.792969 Z M 80.597656 37.792969 " fill-rule="nonzero"/></g></g><path fill="#545454" d="M 53.835938 40.226562 C 45.039062 29.5625 31.164062 42.730469 40.53125 53.167969 L 53.835938 68 L 67.140625 53.167969 C 76.503906 42.730469 62.632812 29.5625 53.835938 40.226562 Z M 53.835938 40.226562 " fill-opacity="1" fill-rule="evenodd"/><g clip-path="url(#id4)"><g clip-path="url(#id5)"><path fill="url(#id6)" d="M 39.203125 37.792969 L 39.203125 64.554688 L 68.46875 64.554688 L 68.46875 37.792969 Z M 39.203125 37.792969 " fill-rule="nonzero"/></g></g><path fill="#545454" d="M 74.53125 70.9375 C 65.734375 60.273438 51.863281 73.441406 61.226562 83.878906 L 74.53125 98.714844 L 87.839844 83.878906 C 97.203125 73.441406 83.332031 60.273438 74.53125 70.9375 Z M 74.53125 70.9375 " fill-opacity="1" fill-rule="evenodd"/><g clip-path="url(#id7)"><g clip-path="url(#id8)"><path fill="url(#id9)" d="M 59.898438 68.503906 L 59.898438 95.269531 L 89.164062 95.269531 L 89.164062 68.503906 Z M 59.898438 68.503906 " fill-rule="nonzero"/></g></g></svg>