<svg xmlns="http://www.w3.org/2000/svg" xmlns:xlink="http://www.w3.org/1999/xlink" width="200" zoomAndPan="magnify" viewBox="0 0 150 149.999998" height="200" preserveAspectRatio="xMidYMid meet" version="1.0"><defs><clipPath id="id1"><path d="M 11.601562 1.9375 L 138.351562 1.9375 L 138.351562 129 L 11.601562 129 Z M 11.601562 1.9375 " clip-rule="nonzero"/></clipPath><clipPath id="id2"><path d="M 11.601562 134 L 23 134 L 23 149.6875 L 11.601562 149.6875 Z M 11.601562 134 " clip-rule="nonzero"/></clipPath><clipPath id="id3"><path d="M 23 134 L 36 134 L 36 149.6875 L 23 149.6875 Z M 23 134 " clip-rule="nonzero"/></clipPath><clipPath id="id4"><path d="M 37 134 L 48 134 L 48 149.6875 L 37 149.6875 Z M 37 134 " clip-rule="nonzero"/></clipPath><clipPath id="id5"><path d="M 49 134 L 61 134 L 61 149.6875 L 49 149.6875 Z M 49 134 " clip-rule="nonzero"/></clipPath><clipPath id="id6"><path d="M 62 134 L 73 134 L 73 149.6875 L 62 149.6875 Z M 62 134 " clip-rule="nonzero"/></clipPath><clipPath id="id7"><path d="M 74 134 L 77 134 L 77 149.6875 L 74 149.6875 Z M 74 134 " clip-rule="nonzero"/></clipPath><clipPath id="id8"><path d="M 79 134 L 91 134 L 91 149.6875 L 79 149.6875 Z M 79 134 " clip-rule="nonzero"/></clipPath><clipPath id="id9"><path d="M 90 134 L 104 134 L 104 149.6875 L 90 149.6875 Z M 90 134 " clip-rule="nonzero"/></clipPath><clipPath id="id10"><path d="M 104 134 L 115 134 L 115 149.6875 L 104 149.6875 Z M 104 134 " clip-rule="nonzero"/></clipPath><clipPath id="id11"><path d="M 116 134 L 127 134 L 127 149.6875 L 116 149.6875 Z M 116 134 " clip-rule="nonzero"/></clipPath><clipPath id="id12"><path d="M 128 134 L 138 134 L 138 149.6875 L 128 149.6875 Z M 128 134 " clip-rule="nonzero"/></clipPath></defs><g clip-path="url(#id1)"><path fill="#545454" d="M 138.082031 106.972656 C 138.082031 118.722656 128.542969 128.238281 116.773438 128.238281 L 33.175781 128.238281 C 21.40625 128.238281 11.871094 118.722656 11.871094 106.972656 L 11.871094 23.207031 C 11.871094 11.460938 21.40625 1.9375 33.175781 1.9375 L 116.773438 1.9375 C 128.542969 1.9375 138.082031 11.460938 138.082031 23.207031 Z M 138.082031 106.972656 " fill-opacity="1" fill-rule="nonzero"/></g><path fill="#ffffff" d="M 119.109375 107.152344 C 109.824219 119.332031 94.308594 123.132812 84.441406 115.636719 C 74.574219 108.152344 74.101562 92.207031 83.382812 80.03125 C 92.671875 67.84375 108.191406 64.042969 118.050781 71.535156 C 127.917969 79.023438 128.386719 94.976562 119.109375 107.152344 " fill-opacity="1" fill-rule="nonzero"/><path fill="#ffffff" d="M 67.863281 91.78125 C 62.914062 88.472656 55.660156 90.519531 50.730469 96.246094 C 49.859375 94.054688 48.472656 92.132812 46.472656 90.804688 C 40.34375 86.695312 31.367188 89.375 26.410156 96.78125 C 21.464844 104.175781 22.417969 113.476562 28.539062 117.5625 C 34.050781 121.238281 41.832031 119.421875 46.949219 113.660156 C 47.699219 115.371094 48.808594 116.855469 50.367188 117.890625 C 55.855469 121.554688 64.210938 118.679688 69.042969 111.460938 C 73.871094 104.25 73.34375 95.429688 67.863281 91.78125 " fill-opacity="1" fill-rule="nonzero"/><path fill="#ffffff" d="M 96.179688 64.460938 C 89.882812 66.949219 83.34375 70.558594 78.554688 76.839844 C 76.964844 78.921875 75.636719 81.113281 74.574219 83.355469 C 74.574219 83.355469 73.074219 85.105469 70.722656 85.105469 C 70.722656 85.105469 65.085938 84.734375 68.375 79.527344 C 68.375 79.527344 74.652344 66.191406 96.179688 59.785156 C 96.179688 59.785156 103.296875 57.28125 117.859375 57.28125 C 117.859375 57.28125 122.867188 56.664062 122.867188 59.710938 C 122.867188 59.710938 122.867188 61.898438 118.019531 61.898438 C 118.019531 61.898438 101.707031 62.273438 96.179688 64.460938 " fill-opacity="1" fill-rule="nonzero"/><path fill="#ffffff" d="M 52.496094 87.246094 C 52.117188 87.882812 51.285156 88.144531 50.488281 88.144531 C 49 88.144531 47.792969 86.941406 47.792969 85.453125 C 47.792969 85.453125 48.484375 74.375 68.449219 57.230469 C 68.449219 57.230469 82.285156 45.222656 97.054688 42.734375 C 99.148438 42.382812 101.179688 44.230469 101.585938 46.8125 C 101.984375 49.386719 100.625 51.746094 98.53125 52.074219 C 98.53125 52.074219 78.78125 56.191406 70.878906 64.242188 C 70.878906 64.242188 63.402344 68.910156 52.496094 87.246094 " fill-opacity="1" fill-rule="nonzero"/><path fill="#ffffff" d="M 56.628906 42.691406 C 56.628906 42.691406 51.617188 42.75 50.441406 48.296875 C 50.441406 48.296875 49.890625 53.769531 56.628906 53.769531 C 56.628906 53.769531 60.226562 54.878906 72.363281 48.226562 C 72.363281 48.226562 83.253906 42.359375 68.921875 42.359375 Z M 56.628906 42.691406 " fill-opacity="1" fill-rule="nonzero"/><path fill="#ffffff" d="M 97.105469 10.703125 C 97.105469 10.703125 86.539062 10.46875 86.539062 14.375 C 86.539062 14.375 87.246094 16.640625 96.714844 16.640625 L 105.25 16.640625 C 105.25 16.640625 114.097656 16.640625 114.097656 21.640625 C 114.097656 21.640625 114.175781 25.242188 110.730469 25.242188 C 110.730469 25.242188 107.207031 25.007812 107.207031 33.292969 L 105.71875 52.828125 C 105.71875 52.828125 105.171875 55.722656 107.679688 55.722656 C 107.679688 55.722656 109.714844 56.03125 110.417969 51.65625 C 110.417969 51.65625 112.296875 33.050781 119.1875 30.789062 C 119.1875 30.789062 126.78125 27.667969 126.707031 21.722656 C 126.707031 21.722656 126.007812 10.703125 110.652344 10.703125 Z M 97.105469 10.703125 " fill-opacity="1" fill-rule="nonzero"/><g clip-path="url(#id2)"><path fill="#545454" d="M 14.410156 142.921875 L 14.410156 147.074219 L 16.761719 147.074219 C 17.675781 147.074219 18.257812 147.039062 18.503906 146.976562 C 18.882812 146.890625 19.1875 146.6875 19.425781 146.359375 C 19.660156 146.03125 19.78125 145.589844 19.78125 145.042969 C 19.78125 144.578125 19.691406 144.179688 19.507812 143.851562 C 19.324219 143.527344 19.058594 143.292969 18.710938 143.140625 C 18.363281 142.992188 17.617188 142.921875 16.460938 142.921875 Z M 14.410156 136.742188 L 14.410156 140.335938 L 16.078125 140.335938 C 17.0625 140.335938 17.679688 140.320312 17.917969 140.28125 C 18.355469 140.222656 18.695312 140.035156 18.945312 139.726562 C 19.195312 139.417969 19.316406 139.015625 19.316406 138.511719 C 19.316406 138.035156 19.210938 137.644531 18.996094 137.34375 C 18.785156 137.046875 18.464844 136.863281 18.039062 136.800781 C 17.789062 136.761719 17.0625 136.742188 15.867188 136.742188 Z M 11.871094 134.164062 L 16.898438 134.164062 C 17.894531 134.164062 18.636719 134.210938 19.125 134.316406 C 19.617188 134.417969 20.050781 134.632812 20.4375 134.957031 C 20.824219 135.28125 21.148438 135.707031 21.40625 136.253906 C 21.660156 136.792969 21.789062 137.402344 21.789062 138.070312 C 21.789062 138.796875 21.632812 139.460938 21.3125 140.070312 C 20.996094 140.679688 20.566406 141.132812 20.019531 141.441406 C 20.789062 141.710938 21.378906 142.179688 21.789062 142.847656 C 22.203125 143.511719 22.410156 144.292969 22.410156 145.191406 C 22.410156 145.894531 22.277344 146.582031 22.011719 147.246094 C 21.746094 147.914062 21.378906 148.445312 20.917969 148.847656 C 20.457031 149.242188 19.890625 149.492188 19.214844 149.578125 C 18.792969 149.640625 17.769531 149.671875 16.152344 149.6875 L 11.871094 149.6875 Z M 11.871094 134.164062 " fill-opacity="1" fill-rule="nonzero"/></g><g clip-path="url(#id3)"><path fill="#545454" d="M 31.222656 143.542969 L 29.484375 137.785156 L 27.789062 143.542969 Z M 35.898438 149.6875 L 33.132812 149.6875 L 32.035156 146.160156 L 27.007812 146.160156 L 25.96875 149.6875 L 23.273438 149.6875 L 28.175781 134.160156 L 30.863281 134.160156 Z M 35.898438 149.6875 " fill-opacity="1" fill-rule="nonzero"/></g><g clip-path="url(#id4)"><path fill="#545454" d="M 37.273438 149.6875 L 37.273438 134.160156 L 39.746094 134.160156 L 44.894531 144.527344 L 44.894531 134.160156 L 47.253906 134.160156 L 47.253906 149.6875 L 44.703125 149.6875 L 39.632812 139.5625 L 39.632812 149.6875 Z M 37.273438 149.6875 " fill-opacity="1" fill-rule="nonzero"/></g><g clip-path="url(#id5)"><path fill="#545454" d="M 52.46875 136.789062 L 52.46875 147.074219 L 54.363281 147.074219 C 55.078125 147.074219 55.589844 147.023438 55.902344 146.921875 C 56.316406 146.796875 56.652344 146.582031 56.925781 146.273438 C 57.203125 145.972656 57.421875 145.472656 57.589844 144.777344 C 57.765625 144.082031 57.847656 143.132812 57.847656 141.9375 C 57.847656 140.734375 57.765625 139.8125 57.589844 139.167969 C 57.421875 138.527344 57.179688 138.023438 56.875 137.667969 C 56.566406 137.308594 56.171875 137.066406 55.695312 136.933594 C 55.34375 136.835938 54.648438 136.789062 53.609375 136.789062 Z M 49.933594 134.160156 L 54.574219 134.160156 C 55.621094 134.160156 56.417969 134.261719 56.96875 134.460938 C 57.707031 134.726562 58.335938 135.199219 58.863281 135.890625 C 59.390625 136.570312 59.789062 137.414062 60.0625 138.402344 C 60.339844 139.390625 60.476562 140.617188 60.476562 142.074219 C 60.476562 143.347656 60.347656 144.453125 60.089844 145.378906 C 59.777344 146.503906 59.328125 147.417969 58.746094 148.121094 C 58.304688 148.652344 57.707031 149.0625 56.957031 149.355469 C 56.398438 149.578125 55.648438 149.6875 54.710938 149.6875 L 49.933594 149.6875 Z M 49.933594 134.160156 " fill-opacity="1" fill-rule="nonzero"/></g><g clip-path="url(#id6)"><path fill="#545454" d="M 62.632812 149.6875 L 62.632812 134.160156 L 71.960938 134.160156 L 71.960938 136.789062 L 65.171875 136.789062 L 65.171875 140.226562 L 71.492188 140.226562 L 71.492188 142.84375 L 65.171875 142.84375 L 65.171875 147.070312 L 72.199219 147.070312 L 72.199219 149.6875 Z M 62.632812 149.6875 " fill-opacity="1" fill-rule="nonzero"/></g><g clip-path="url(#id7)"><path fill="#545454" d="M 74.277344 134.160156 L 76.816406 134.160156 L 76.816406 149.6875 L 74.277344 149.6875 Z M 74.277344 134.160156 " fill-opacity="1" fill-rule="nonzero"/></g><g clip-path="url(#id8)"><path fill="#545454" d="M 81.789062 140.722656 L 83.671875 140.722656 C 84.890625 140.722656 85.648438 140.664062 85.953125 140.535156 C 86.257812 140.40625 86.492188 140.191406 86.667969 139.878906 C 86.832031 139.566406 86.921875 139.179688 86.921875 138.710938 C 86.921875 138.191406 86.808594 137.765625 86.585938 137.453125 C 86.359375 137.128906 86.035156 136.925781 85.625 136.835938 C 85.417969 136.804688 84.800781 136.785156 83.773438 136.785156 L 81.789062 136.785156 Z M 79.25 149.6875 L 79.25 134.160156 L 84.59375 134.160156 C 85.941406 134.160156 86.914062 134.300781 87.523438 134.578125 C 88.136719 134.855469 88.628906 135.355469 88.992188 136.0625 C 89.355469 136.78125 89.539062 137.597656 89.539062 138.511719 C 89.539062 139.679688 89.265625 140.640625 88.707031 141.398438 C 88.152344 142.160156 87.320312 142.636719 86.21875 142.832031 C 86.769531 143.230469 87.21875 143.664062 87.574219 144.136719 C 87.933594 144.605469 88.421875 145.449219 89.027344 146.65625 L 90.558594 149.6875 L 87.523438 149.6875 L 85.6875 146.308594 C 85.035156 145.101562 84.589844 144.335938 84.34375 144.027344 C 84.105469 143.714844 83.851562 143.492188 83.582031 143.378906 C 83.316406 143.265625 82.886719 143.207031 82.304688 143.207031 L 81.789062 143.207031 L 81.789062 149.6875 Z M 79.25 149.6875 " fill-opacity="1" fill-rule="nonzero"/></g><g clip-path="url(#id9)"><path fill="#545454" d="M 98.601562 143.542969 L 96.871094 137.785156 L 95.167969 143.542969 Z M 103.273438 149.6875 L 100.519531 149.6875 L 99.414062 146.160156 L 94.386719 146.160156 L 93.347656 149.6875 L 90.652344 149.6875 L 95.554688 134.160156 L 98.242188 134.160156 Z M 103.273438 149.6875 " fill-opacity="1" fill-rule="nonzero"/></g><g clip-path="url(#id10)"><path fill="#545454" d="M 104.652344 149.6875 L 104.652344 134.160156 L 107.121094 134.160156 L 112.273438 144.527344 L 112.273438 134.160156 L 114.628906 134.160156 L 114.628906 149.6875 L 112.085938 149.6875 L 107.011719 139.5625 L 107.011719 149.6875 Z M 104.652344 149.6875 " fill-opacity="1" fill-rule="nonzero"/></g><g clip-path="url(#id11)"><path fill="#545454" d="M 120.15625 149.6875 L 120.15625 136.789062 L 116.417969 136.789062 L 116.417969 134.160156 L 126.417969 134.160156 L 126.417969 136.789062 L 122.691406 136.789062 L 122.691406 149.6875 Z M 120.15625 149.6875 " fill-opacity="1" fill-rule="nonzero"/></g><g clip-path="url(#id12)"><path fill="#545454" d="M 128.058594 149.6875 L 128.058594 134.160156 L 137.386719 134.160156 L 137.386719 136.789062 L 130.597656 136.789062 L 130.597656 140.226562 L 136.914062 140.226562 L 136.914062 142.84375 L 130.597656 142.84375 L 130.597656 147.070312 L 137.628906 147.070312 L 137.628906 149.6875 Z M 128.058594 149.6875 " fill-opacity="1" fill-rule="nonzero"/></g></svg>