<svg width="60" height="68" viewBox="0 0 60 68" fill="none" xmlns="http://www.w3.org/2000/svg">
<path d="M29.7951 25.2988C30.3296 25.2988 30.7628 24.8151 30.7628 24.2185C30.7628 23.6219 30.3296 23.1383 29.7951 23.1383C29.2606 23.1383 28.8274 23.6219 28.8274 24.2185C28.8274 24.8151 29.2606 25.2988 29.7951 25.2988Z" fill="#E8B909" fill-opacity="0.75"/>
<path d="M29.7951 25.2988C30.3296 25.2988 30.7628 24.8151 30.7628 24.2185C30.7628 23.6219 30.3296 23.1383 29.7951 23.1383C29.2606 23.1383 28.8274 23.6219 28.8274 24.2185C28.8274 24.8151 29.2606 25.2988 29.7951 25.2988Z" fill="#E8B909" fill-opacity="0.75"/>
<path d="M57.0968 0.453369H33.871C32.2703 0.453369 30.9677 1.90736 30.9677 3.69407V4.61335C28.3965 2.03699 25.0103 0.453369 21.2903 0.453369C13.2861 0.453369 6.77419 7.72226 6.77419 16.6569V19.8976H6.80419C5.61871 20.8827 4.83871 22.4458 4.83871 24.2185C4.83871 25.9761 5.60613 27.5251 6.77419 28.5114V31.7801C6.77419 33.5669 8.07677 35.0208 9.67742 35.0208H11.82C12.4858 36.4684 13.4013 37.7495 14.5161 38.779V40.6726L5.02839 43.4964C2.06806 44.3778 0 47.382 0 50.8031V67.4279H42.5806V50.8031C42.5806 47.382 40.5126 44.3778 37.5523 43.4964L28.0645 40.6726V38.779C30.4268 36.598 31.9355 33.3022 31.9355 29.6197H32.9032C35.5713 29.6197 37.7419 27.1967 37.7419 24.2185C37.7419 22.4458 36.9619 20.8827 35.7765 19.8976H35.8064H44.5161V27.4592L53.5481 19.8976H57.0968C58.6974 19.8976 60 18.4436 60 16.6569V3.69407C60 1.90736 58.6974 0.453369 57.0968 0.453369ZM8.70968 16.6569C8.70968 8.91376 14.3535 2.61384 21.2903 2.61384C28.2271 2.61384 33.871 8.91376 33.871 16.6569V18.9264C33.5584 18.8552 33.2342 18.8173 32.9032 18.8173H31.9355H30.9677C28.1061 18.8173 25.4158 17.5729 23.3923 15.3141L21.2903 12.969L19.1884 15.3141C17.1648 17.5729 14.4745 18.8173 11.6129 18.8173H10.6452H9.67742C9.34645 18.8173 9.02226 18.8552 8.70968 18.9264V16.6569ZM9.67742 20.9778H10.6452V27.4592H9.67742C8.07677 27.4592 6.77419 26.0052 6.77419 24.2185C6.77419 22.4318 8.07677 20.9778 9.67742 20.9778ZM9.67742 32.8604C9.14323 32.8604 8.70968 32.3754 8.70968 31.7801V29.5106C9.02226 29.5819 9.34645 29.6197 9.67742 29.6197H10.6452C10.6452 30.7442 10.7952 31.8288 11.0574 32.8604H9.67742ZM15.1945 42.7067L19.8571 47.9113L15.7906 51.6943L12.059 43.64L15.1945 42.7067ZM23.8394 51.7612L22.6277 54.4651H19.9529L18.7423 51.7612L21.2903 49.3901L23.8394 51.7612ZM20.2306 56.6255H22.351L23.1252 65.2674H19.4574L20.2306 56.6255ZM5.52774 45.5845L10.1429 44.2104L15.1781 55.0765L17.2142 53.1817L18.3648 55.7495L17.5113 65.2674H9.67742V53.3848H7.74194V58.786H1.93548V50.8031C1.93548 48.3596 3.41226 46.2131 5.52774 45.5845ZM1.93548 60.9465H7.74194V65.2674H1.93548V60.9465ZM34.8387 65.2674V60.9465H40.6452V65.2674H34.8387ZM40.6452 50.8031V58.786H34.8387V53.3848H32.9032V65.2674H25.0694L24.2158 55.7484L25.3665 53.1807L27.3987 55.0711L32.4755 44.2201L37.0529 45.5834C39.1684 46.2132 40.6452 48.3596 40.6452 50.8031ZM30.5584 43.6508L26.7939 51.6975L22.7235 47.9113L27.3861 42.7067L30.5584 43.6508ZM26.129 41.055L21.2903 46.4562L16.4516 41.055V40.1908C17.9052 41.0226 19.5474 41.5023 21.2903 41.5023C23.0332 41.5023 24.6755 41.0226 26.129 40.1908V41.055ZM30 29.6197C30 34.9798 26.0932 39.3418 21.2903 39.3418C18.2768 39.3418 15.6174 37.6242 14.0535 35.0208H16.6306C17.0313 36.275 18.0958 37.1813 19.3558 37.1813H23.2268C24.8274 37.1813 26.13 35.7273 26.13 33.9406C26.13 32.1539 24.8274 30.6999 23.2268 30.6999H19.3558C18.0958 30.6999 17.0313 31.6062 16.6306 32.8604H13.0897C12.7655 31.845 12.5806 30.7572 12.5806 29.6197V20.9368C15.5942 20.684 18.3977 19.2527 20.5568 16.8416L21.2903 16.0239L22.0239 16.8416C24.1829 19.2527 26.9865 20.684 30 20.9368V29.6197ZM18.3871 33.9406C18.3871 33.3454 18.8206 32.8604 19.3548 32.8604H23.2258C23.76 32.8604 24.1935 33.3454 24.1935 33.9406C24.1935 34.5358 23.76 35.0208 23.2258 35.0208H19.3548C18.8206 35.0208 18.3871 34.5358 18.3871 33.9406ZM32.9032 27.4592H31.9355V20.9778H32.9032C34.5039 20.9778 35.8064 22.4318 35.8064 24.2185C35.8064 26.0052 34.5039 27.4592 32.9032 27.4592ZM58.0645 16.6569C58.0645 17.2521 57.631 17.7371 57.0968 17.7371H52.9035L46.4516 23.1383V17.7371H35.8064V16.6569C35.8064 13.0251 34.7177 9.68073 32.9032 6.97582V3.69407C32.9032 3.09886 33.3368 2.61384 33.871 2.61384H57.0968C57.631 2.61384 58.0645 3.09886 58.0645 3.69407V16.6569Z" fill="#E8B909" fill-opacity="0.75"/>
<path d="M52.9486 6.93469C51.3479 6.93469 50.0454 8.38869 50.0454 10.1754C50.0454 11.9621 51.3479 13.4161 52.9486 13.4161C54.5492 13.4161 55.8518 11.9621 55.8518 10.1754C55.8518 8.38869 54.5492 6.93469 52.9486 6.93469ZM52.9486 11.2556C52.4144 11.2556 51.9808 10.7706 51.9808 10.1754C51.9808 9.58018 52.4144 9.09516 52.9486 9.09516C53.4828 9.09516 53.9163 9.58018 53.9163 10.1754C53.9163 10.7706 53.4828 11.2556 52.9486 11.2556Z" fill="#E8B909" fill-opacity="0.75"/>
<path d="M45.2066 6.93469C43.606 6.93469 42.3034 8.38869 42.3034 10.1754C42.3034 11.9621 43.606 13.4161 45.2066 13.4161C46.8073 13.4161 48.1099 11.9621 48.1099 10.1754C48.1099 8.38869 46.8073 6.93469 45.2066 6.93469ZM45.2066 11.2556C44.6725 11.2556 44.2389 10.7706 44.2389 10.1754C44.2389 9.58018 44.6725 9.09516 45.2066 9.09516C45.7408 9.09516 46.1744 9.58018 46.1744 10.1754C46.1744 10.7706 45.7408 11.2556 45.2066 11.2556Z" fill="#E8B909" fill-opacity="0.75"/>
<path d="M37.4647 6.93469C35.8641 6.93469 34.5615 8.38869 34.5615 10.1754C34.5615 11.9621 35.8641 13.4161 37.4647 13.4161C39.0654 13.4161 40.3679 11.9621 40.3679 10.1754C40.3679 8.38869 39.0654 6.93469 37.4647 6.93469ZM37.4647 11.2556C36.9305 11.2556 36.497 10.7706 36.497 10.1754C36.497 9.58018 36.9305 9.09516 37.4647 9.09516C37.9989 9.09516 38.4324 9.58018 38.4324 10.1754C38.4324 10.7706 37.9989 11.2556 37.4647 11.2556Z" fill="#E8B909" fill-opacity="0.75"/>
</svg>
