<svg width="60" height="61" viewBox="0 0 60 61" fill="none" xmlns="http://www.w3.org/2000/svg">
<path d="M38.3216 50.5654C37.5857 50.9346 36.8222 51.2552 36.0519 51.5189C35.3947 51.7439 35.0253 52.5208 35.2268 53.2545C35.3909 53.8524 35.8837 54.2369 36.4165 54.2369C36.5373 54.2369 36.6602 54.2171 36.7817 54.1755C37.6504 53.8782 38.5118 53.5164 39.3419 53.1C39.9689 52.7854 40.2488 51.9631 39.967 51.2633C39.6853 50.5635 38.9484 50.2511 38.3216 50.5654Z" fill="#E8B909" fill-opacity="0.75"/>
<path d="M25.9587 9.22088C26.0447 9.22088 26.1322 9.21093 26.2196 9.19C27.0068 9.00242 27.8139 8.86834 28.6182 8.79104C29.3031 8.72524 29.8105 8.05223 29.7516 7.28765C29.6926 6.5232 29.0904 5.95718 28.4048 6.02246C27.4979 6.10958 26.5878 6.26105 25.7002 6.47244C25.0279 6.63255 24.5993 7.37071 24.7426 8.12116C24.8674 8.7739 25.3839 9.22088 25.9587 9.22088Z" fill="#E8B909" fill-opacity="0.75"/>
<path d="M34.3678 9.1799C35.1571 9.36578 35.9437 9.60922 36.7059 9.90341C36.8407 9.95547 36.9779 9.98006 37.1129 9.98006C37.6286 9.98006 38.1111 9.61916 38.2891 9.04452C38.5138 8.31931 38.1692 7.52817 37.5195 7.27741C36.6596 6.94529 35.7722 6.67085 34.8817 6.46103C34.2085 6.30249 33.5488 6.78295 33.4069 7.53367C33.2649 8.28425 33.6951 9.02136 34.3678 9.1799Z" fill="#E8B909" fill-opacity="0.75"/>
<path d="M18.0532 13.1718C18.3076 13.1718 18.5645 13.085 18.7859 12.9048C19.4377 12.3739 20.1256 11.8831 20.8297 11.4464C21.4307 11.0738 21.6472 10.228 21.3134 9.55717C20.9795 8.88638 20.222 8.64451 19.6208 9.01732C18.8274 9.50929 18.0526 10.0621 17.3183 10.66C16.7631 11.1122 16.6414 11.9815 17.0465 12.6014C17.2903 12.9742 17.6691 13.1718 18.0532 13.1718Z" fill="#E8B909" fill-opacity="0.75"/>
<path d="M30.361 52.4744C30.3593 52.4744 30.3576 52.4744 30.3559 52.4744H30.3152C29.506 52.4744 28.6911 52.4185 27.893 52.3084C27.2105 52.2137 26.5893 52.7552 26.505 53.5166C26.4206 54.2781 26.9053 54.9719 27.5875 55.0659C28.4866 55.19 29.4043 55.253 30.3151 55.253H30.3657C31.053 55.25 31.6081 54.6254 31.6055 53.8581C31.6028 53.0927 31.0461 52.4744 30.361 52.4744Z" fill="#E8B909" fill-opacity="0.75"/>
<path d="M22.348 50.5851C21.6121 50.2181 20.8888 49.7955 20.1981 49.3288C19.6099 48.9315 18.8448 49.1414 18.4888 49.798C18.1329 50.4545 18.3211 51.3087 18.9092 51.706C19.6878 52.2319 20.5033 52.7084 21.3328 53.122C21.4977 53.2043 21.6701 53.2431 21.8398 53.2431C22.3159 53.2431 22.7702 52.9365 22.9768 52.4201C23.2572 51.7197 22.9757 50.898 22.348 50.5851Z" fill="#E8B909" fill-opacity="0.75"/>
<path d="M50.5401 36.4208C49.8861 36.1845 49.1842 36.5848 48.9726 37.3149C48.7245 38.1709 48.4253 39.0186 48.0831 39.8348C47.7918 40.5298 48.0604 41.3567 48.6829 41.682C48.8535 41.7711 49.0329 41.8134 49.2095 41.8134C49.6778 41.8134 50.1263 41.5172 50.3377 41.0126C50.7236 40.0923 51.0611 39.1361 51.3411 38.1706C51.5527 37.4404 51.1941 36.6571 50.5401 36.4208Z" fill="#E8B909" fill-opacity="0.75"/>
<path d="M14.245 43.1111C13.8506 42.4825 13.0746 42.3297 12.5115 42.7696C11.9484 43.2097 11.8116 44.076 12.2057 44.7046C12.7265 45.5347 13.299 46.3376 13.9076 47.0911C14.1534 47.3953 14.4921 47.5499 14.8323 47.5499C15.1294 47.5499 15.4275 47.4318 15.6655 47.1923C16.1761 46.6785 16.2166 45.8001 15.7562 45.2302C15.216 44.5613 14.7074 43.8482 14.245 43.1111Z" fill="#E8B909" fill-opacity="0.75"/>
<path d="M46.6593 45.0904C46.148 44.578 45.361 44.6249 44.9017 45.1959C44.3627 45.8661 43.7809 46.5058 43.1722 47.0974C42.6537 47.6012 42.5995 48.479 43.0509 49.0575C43.297 49.373 43.6426 49.5345 43.99 49.5345C44.28 49.5345 44.5712 49.4221 44.8069 49.1929C45.4921 48.5268 46.1472 47.8066 46.754 47.0524C47.2131 46.4813 47.1707 45.603 46.6593 45.0904Z" fill="#E8B909" fill-opacity="0.75"/>
<path d="M59.833 27.2486L49.6312 7.52435C49.4603 7.19379 49.175 6.95637 48.8424 6.86755C48.5099 6.779 48.1592 6.84689 47.8728 7.05553L47.5525 7.28889C42.7117 2.81116 36.6814 0.373657 30.3151 0.373657C23.0839 0.373657 16.2857 3.51687 11.1726 9.22434C9.99072 10.5436 8.93474 11.9652 8.0051 13.4686L6.84529 13.1243C6.1819 12.9273 5.50081 13.3673 5.32315 14.1075L0.0424573 36.1071C-0.0432066 36.4634 0.00191051 36.8432 0.167379 37.1626C0.332965 37.4819 0.605425 37.7147 0.92476 37.8094L4.24749 38.7956C5.48522 43.7244 7.84139 48.2412 11.1726 51.9599C16.2858 57.6673 23.0841 60.8106 30.3151 60.8106C37.5461 60.8106 44.3444 57.6673 49.4576 51.9599C54.5691 46.2541 57.3848 38.6685 57.3865 30.5998L59.4355 29.1068C59.989 28.7034 60.1636 27.8874 59.833 27.2486ZM30.3152 3.15257C35.9722 3.15257 41.1878 5.2981 45.3466 8.89654L41.2441 11.8862C40.6907 12.2895 40.5161 13.1053 40.8467 13.7443L41.1938 14.4155L39.0573 15.7925C38.2961 16.2831 37.4463 16.4502 36.3882 16.3164L26.7738 13.4654C25.1631 12.9834 23.4936 14.0099 22.8912 15.8526C22.8704 15.9165 22.8535 15.9821 22.8414 16.0488C22.6847 16.8979 22.7103 17.7423 22.8871 18.5285L22.7701 18.4935C21.5488 18.1281 20.2451 18.0635 18.9998 18.3062C18.1089 18.4801 17.1761 18.4336 16.3022 18.1722L13.9191 17.4593L14.0972 16.7171C14.1829 16.3608 14.1377 15.981 13.9723 15.6616C13.8067 15.3423 13.5342 15.1095 13.2149 15.0147L10.5933 14.2366C15.0775 7.51558 22.2473 3.15257 30.3152 3.15257ZM45.9468 26.67C45.4557 25.7207 44.6651 25.0421 43.7208 24.7598L26.8738 19.7022C25.7533 19.367 25.0597 18.0701 25.2608 16.7188C25.4108 16.348 25.7308 16.0303 26.1317 16.15C26.1317 16.15 35.9431 19.0551 35.9987 19.0628C37.6375 19.2914 39.0448 19.0087 40.3014 18.1988L42.438 16.8217L49.4677 30.413L46.5963 31.9572C46.3524 31.6363 46.0639 31.3548 45.7366 31.1278C45.9962 30.7327 46.1955 30.2784 46.3158 29.7768C46.5691 28.7228 46.4378 27.6194 45.9468 26.67ZM29.735 34.6637L40.8465 37.9872C41.3066 38.272 41.5532 38.8823 41.4101 39.4787C41.2442 40.1699 40.6055 40.5813 39.9862 40.3963L27.7801 36.7869C27.1161 36.5882 26.4336 37.0281 26.2556 37.7693C26.0776 38.5104 26.4717 39.2723 27.1357 39.471L37.6245 42.6082C38.0847 42.893 38.3316 43.5033 38.1886 44.0998C38.1082 44.4347 37.9159 44.7145 37.6468 44.8878C37.378 45.061 37.0648 45.1072 36.7646 45.0174L17.6539 39.3014C16.8301 39.055 16.0725 38.6314 15.4022 38.0427L15.2531 37.9119C14.3166 37.0891 13.2578 36.4972 12.1065 36.153L9.61056 35.4065L13.2744 20.1435L15.6574 20.8563C16.8785 21.2214 18.1823 21.2863 19.4277 21.0436C20.3189 20.8699 21.2517 20.9162 22.1253 21.1776L43.0767 27.4441C43.7055 27.6322 44.08 28.3562 43.909 29.0676C43.7416 29.7641 43.1148 30.1615 42.4816 29.9738L42.4789 29.973C42.3815 29.9439 32.5634 27.0487 32.5634 27.0487C31.8991 26.85 31.2171 27.29 31.0391 28.0311C30.8611 28.7722 31.2552 29.5341 31.9192 29.7328L44.1078 33.3369C44.7367 33.525 45.1113 34.2491 44.9428 34.9509C44.7771 35.6419 44.1377 36.0538 43.5189 35.8684L30.3792 31.9797C29.7145 31.7806 29.0327 32.221 28.8548 32.962C28.6769 33.7032 29.071 34.465 29.735 34.6637ZM2.76964 35.4817L7.40627 16.1661L11.3694 17.3424L6.73291 36.6579L2.76964 35.4817ZM30.3152 58.0319C19.6008 58.0319 10.4658 50.3406 7.10779 39.6446L7.29389 39.6999C7.401 39.7317 7.50857 39.7469 7.61451 39.7469C8.16412 39.7469 8.66697 39.3373 8.81603 38.7167L8.96638 38.0904L11.4624 38.8369C12.2861 39.0833 13.0436 39.5067 13.714 40.0957L13.8631 40.2265C14.7995 41.0492 15.8583 41.641 17.0096 41.9854L36.1204 47.7014C36.435 47.7954 36.7543 47.8421 37.0716 47.8421C37.7045 47.8421 38.3289 47.6569 38.8916 47.2942C39.7364 46.7499 40.3407 45.8706 40.5931 44.8189C40.7241 44.2729 40.7498 43.7227 40.6838 43.1954C42.1365 43.016 43.4143 41.8662 43.8146 40.1979C43.9361 39.6919 43.9669 39.1822 43.9184 38.6904C45.4918 38.6419 46.9198 37.4515 47.3474 35.6699C47.4356 35.303 47.4734 34.9344 47.4701 34.5718L50.716 32.826L51.0483 33.4684C51.4972 34.3732 52.6026 34.0858 52.8067 33.9372L54.8379 32.4571C53.9759 46.7206 43.3081 58.0319 30.3152 58.0319ZM52.5469 30.808L43.5916 13.4938L48.1327 10.1846L57.088 27.4988L52.5469 30.808Z" fill="#E8B909" fill-opacity="0.75"/>
</svg>
