<svg width="60" height="68" viewBox="0 0 60 68" fill="none" xmlns="http://www.w3.org/2000/svg">
<path d="M58.5002 64.0993H54.0006V25.592C54.0006 25.1479 53.8425 24.7221 53.5612 24.4081C53.28 24.0941 52.8985 23.9177 52.5007 23.9177H43.5014C43.1036 23.9177 42.7221 24.0941 42.4408 24.4081C42.1595 24.7221 42.0015 25.1479 42.0015 25.592V64.0993H36.0019V38.9858C36.0019 38.5418 35.8439 38.116 35.5626 37.802C35.2813 37.488 34.8998 37.3116 34.502 37.3116H25.5027C25.1049 37.3116 24.7234 37.488 24.4421 37.802C24.1609 38.116 24.0028 38.5418 24.0028 38.9858V64.0993H18.0033V42.3343C18.0033 41.8903 17.8453 41.4644 17.564 41.1504C17.2827 40.8365 16.9012 40.6601 16.5034 40.6601H7.5041C7.1063 40.6601 6.7248 40.8365 6.44352 41.1504C6.16224 41.4644 6.00421 41.8903 6.00421 42.3343V64.0993H1.50455C1.10676 64.0993 0.725259 64.2757 0.443976 64.5897C0.162693 64.9037 0.00466919 65.3295 0.00466919 65.7736C0.00466919 66.2176 0.162693 66.6435 0.443976 66.9574C0.725259 67.2714 1.10676 67.4478 1.50455 67.4478H58.5002C58.898 67.4478 59.2795 67.2714 59.5608 66.9574C59.8421 66.6435 60.0001 66.2176 60.0001 65.7736C60.0001 65.3295 59.8421 64.9037 59.5608 64.5897C59.2795 64.2757 58.898 64.0993 58.5002 64.0993ZM15.0035 64.0993H9.00398V44.0085H15.0035V64.0993ZM33.0022 64.0993H27.0026V40.6601H33.0022V64.0993ZM51.0008 64.0993H45.0012V27.2662H51.0008V64.0993Z" fill="#E8B909" fill-opacity="0.75"/>
<path d="M1.50444 37.3113C1.70115 37.314 1.89619 37.2707 2.07701 37.1842C2.25783 37.0977 2.42043 36.9699 2.55436 36.809L16.6533 21.1047L27.6024 30.2795C27.8893 30.5234 28.2464 30.6412 28.6059 30.6103C28.9655 30.5794 29.3023 30.4021 29.5523 30.1121L51.0007 6.20404V12.1978C51.0007 12.6418 51.1587 13.0677 51.44 13.3817C51.7213 13.6956 52.1028 13.872 52.5005 13.872C52.8983 13.872 53.2798 13.6956 53.5611 13.3817C53.8424 13.0677 54.0004 12.6418 54.0004 12.1978V2.15239C54.0451 1.94325 54.0451 1.72533 54.0004 1.51618C53.9243 1.27687 53.8014 1.05951 53.6405 0.879942C53.4796 0.700373 53.2849 0.563113 53.0705 0.478158C52.8831 0.428342 52.6879 0.428342 52.5005 0.478158H43.5012C43.1034 0.478158 42.7219 0.65455 42.4407 0.96853C42.1594 1.28251 42.0014 1.70836 42.0014 2.15239C42.0014 2.59643 42.1594 3.02227 42.4407 3.33625C42.7219 3.65023 43.1034 3.82663 43.5012 3.82663H48.8708L28.3524 26.7302L17.4032 17.5553C17.1164 17.3114 16.7593 17.1937 16.3997 17.2246C16.0402 17.2555 15.7034 17.4328 15.4534 17.7228L0.454521 34.4651C0.31104 34.6154 0.196682 34.797 0.118507 34.9985C0.0403323 35.2001 0 35.4174 0 35.6371C0 35.8567 0.0403323 36.074 0.118507 36.2756C0.196682 36.4772 0.31104 36.6587 0.454521 36.809C0.588449 36.9699 0.75105 37.0977 0.931871 37.1842C1.11269 37.2707 1.30773 37.314 1.50444 37.3113Z" fill="#E8B909" fill-opacity="0.75"/>
</svg>
