<svg width="60" height="67" viewBox="0 0 60 67" fill="none" xmlns="http://www.w3.org/2000/svg">
<path d="M47.0808 0.167725L43.7744 3.85844C39.684 1.50511 35.0524 0.167725 30.1434 0.167725H29.1803V3.41981C14.7557 3.9896 3.17618 17.257 3.17618 33.4949C3.17618 41.1752 5.74096 48.4125 10.4101 54.0018L8.351 56.3003L9.03192 57.0604C10.7732 59.0041 12.6918 60.6759 14.7471 62.0616L12.4086 64.6719H0.286835V66.822H13.2061L16.498 63.1474C20.6683 65.5449 25.3163 66.822 30.1434 66.822C38.119 66.822 45.6159 63.3549 51.2549 57.0604L51.9358 56.3003L49.8767 54.0018C54.3273 48.6749 56.8593 41.8492 57.0875 34.57H60V33.4949C60 21.395 54.1924 10.783 45.5263 4.94318L47.8782 2.31786H60V0.167725H47.0808ZM30.1434 18.4439C37.5787 18.4439 43.627 25.1953 43.627 33.4949V34.57H45.5061C45.2952 38.4015 43.9651 41.9858 41.6873 44.8605L40.3582 43.3769L39.6773 44.137C37.1318 46.9806 33.7455 48.5459 30.1434 48.5459C26.5414 48.5459 23.1551 46.9806 20.6095 44.137L19.9286 43.3769L18.5995 44.8605C16.1089 41.717 14.7336 37.7285 14.7336 33.4949C14.7336 24.3729 21.1325 16.9076 29.1803 16.3486V18.4439H30.1434ZM5.10241 33.4949C5.10241 18.4418 15.8171 6.13759 29.1803 5.56995V14.1974C20.0702 14.7607 12.8073 23.1882 12.8073 33.4949C12.8073 38.3026 14.384 42.8297 17.2377 46.3807L11.773 52.4806C7.4659 47.2988 5.10241 40.6011 5.10241 33.4949ZM30.1434 64.6719C25.8412 64.6719 21.6911 63.5872 17.934 61.5445L22.1563 56.8314L20.7945 55.3113L16.1551 60.4899C14.3474 59.3181 12.6455 57.9162 11.0863 56.2874L19.9488 46.3946C22.765 49.1758 26.3487 50.696 30.1434 50.696C33.9371 50.696 37.5218 49.1758 40.338 46.3946L49.2006 56.2874C44.0113 61.7026 37.282 64.6719 30.1434 64.6719ZM48.5149 52.4806L43.0492 46.3807C45.6881 43.0963 47.2166 38.9756 47.4323 34.57H55.1603C54.935 41.2741 52.6023 47.5611 48.5149 52.4806ZM58.0574 32.4198H45.5234C45.0447 23.7902 38.8375 16.8614 31.1065 16.3271V2.33614C35.1237 2.4888 38.9251 3.59827 42.3413 5.45814L38.1305 10.1583L39.4924 11.6785L44.1173 6.51601C52.192 11.7484 57.7193 21.3595 58.0574 32.4198Z" fill="#E8B909" fill-opacity="0.75"/>
<path d="M59.7132 4.46802H57.787V6.61816H59.7132V4.46802Z" fill="#E8B909" fill-opacity="0.75"/>
<path d="M55.8607 4.46802H50.082V6.61816H55.8607V4.46802Z" fill="#E8B909" fill-opacity="0.75"/>
<path d="M5.77869 60.3717H0V62.5218H5.77869V60.3717Z" fill="#E8B909" fill-opacity="0.75"/>
<path d="M9.63114 60.3717H7.70491V62.5218H9.63114V60.3717Z" fill="#E8B909" fill-opacity="0.75"/>
<path d="M22.8874 23.8193H18.2992V25.9695H21.4158L24.3052 37.7952H26.9672H35.6352H39.375L40.5789 27.0445H23.6753L22.8874 23.8193ZM38.3965 29.1947L37.6742 35.6451H25.7768L24.2002 29.1947H38.3965Z" fill="#E8B909" fill-opacity="0.75"/>
<path d="M24.0779 41.0204C24.0779 42.7985 25.3742 44.2456 26.9672 44.2456C28.5602 44.2456 29.8566 42.7985 29.8566 41.0204C29.8566 39.2422 28.5602 37.7952 26.9672 37.7952C25.3742 37.7952 24.0779 39.2422 24.0779 41.0204ZM26.9672 39.9453C27.4989 39.9453 27.9303 40.4269 27.9303 41.0204C27.9303 41.6138 27.4989 42.0954 26.9672 42.0954C26.4356 42.0954 26.0041 41.6138 26.0041 41.0204C26.0041 40.4269 26.4356 39.9453 26.9672 39.9453Z" fill="#E8B909" fill-opacity="0.75"/>
<path d="M32.7459 41.0204C32.7459 42.7985 34.0423 44.2456 35.6353 44.2456C37.2283 44.2456 38.5246 42.7985 38.5246 41.0204C38.5246 39.2422 37.2283 37.7952 35.6353 37.7952C34.0423 37.7952 32.7459 39.2422 32.7459 41.0204ZM35.6353 39.9453C36.1669 39.9453 36.5984 40.4269 36.5984 41.0204C36.5984 41.6138 36.1669 42.0954 35.6353 42.0954C35.1036 42.0954 34.6722 41.6138 34.6722 41.0204C34.6722 40.4269 35.1036 39.9453 35.6353 39.9453Z" fill="#E8B909" fill-opacity="0.75"/>
<path d="M55.8607 28.1195H53.9345V30.2696H55.8607V28.1195Z" fill="#E8B909" fill-opacity="0.75"/>
<path d="M52.0083 28.1195H50.082V30.2696H52.0083V28.1195Z" fill="#E8B909" fill-opacity="0.75"/>
<path d="M48.1558 28.1195H46.2296V30.2696H48.1558V28.1195Z" fill="#E8B909" fill-opacity="0.75"/>
</svg>
