<svg width="69" height="49" viewBox="0 0 69 49" fill="none" xmlns="http://www.w3.org/2000/svg">
<path d="M68.6432 39.6484L67.8449 34.6238C67.6057 33.1342 66.3818 31.7257 65.0589 31.4127L61.0903 30.4774L60.3134 28.7006C60.2458 28.546 60.1336 28.4318 60.0033 28.3453C60.6565 27.3418 61.1844 26.1911 61.572 25.0366C62.3109 24.7402 63.0515 24.0019 63.2676 23.0445C63.553 21.7777 63.2511 20.638 62.5452 20.1483V19.2534C63.1901 17.0882 63.5266 13.5457 60.5988 11.6364C59.2842 10.7803 58.2087 10.7453 57.3873 11.0435C57.2388 10.6735 57.6347 10.1156 57.6347 10.1156C56.9584 10.0898 56.6055 10.493 56.4603 10.7195C55.558 10.2555 54.3787 10.0585 52.8694 10.4102C48.0184 11.5462 47.4163 18.6348 48.3136 20.1556C47.6109 20.6528 47.3124 21.7777 47.5944 23.0445C47.8105 24.0037 48.5577 24.7439 49.2983 25.0422C49.6827 26.1966 50.2088 27.3473 50.8538 28.3471C50.7284 28.4373 50.6163 28.5478 50.5503 28.6988L49.7717 30.4755L45.8048 31.4109C45.493 31.4864 45.1862 31.6263 44.8943 31.8141L42.3722 31.2212L41.1467 28.4208C41.0758 28.2587 40.9554 28.1427 40.8168 28.0525C41.8824 26.5004 42.7302 24.6776 43.3487 22.8475C44.4341 22.4111 45.526 21.3285 45.8427 19.92C46.2633 18.053 45.8196 16.3885 44.7805 15.6631V14.343C45.7273 11.1595 46.2221 5.95264 41.9252 3.15218C40.0003 1.89648 38.4003 1.81363 37.1962 2.25367C37.0148 1.70684 37.5756 0.918805 37.5756 0.918805C36.5826 0.88014 36.0631 1.46932 35.8486 1.80258C34.5241 1.1195 32.7922 0.832268 30.577 1.34964C23.4628 3.01225 22.5589 13.4224 23.8636 15.6907C22.8492 16.4217 22.4138 18.0677 22.8311 19.9163C23.1478 21.3266 24.2463 22.4093 25.335 22.8475C25.9436 24.6776 26.7881 26.5059 27.8471 28.0525C27.7135 28.1464 27.5964 28.2606 27.5254 28.4189L26.2999 31.2194L23.7779 31.8104C23.4876 31.6263 23.1824 31.4827 22.869 31.4072L18.9037 30.4755L18.1268 28.6969C18.0592 28.5423 17.947 28.4281 17.8184 28.3398C18.4699 27.34 18.9977 26.1892 19.3887 25.0348C20.1276 24.7347 20.8699 24.0001 21.0843 23.0408C21.3697 21.7722 21.0695 20.6343 20.3635 20.1427V19.2498C21.0084 17.079 21.3433 13.5365 18.4171 11.6309C17.1042 10.7747 16.0254 10.7416 15.204 11.0399C15.0572 10.6716 15.453 10.1119 15.453 10.1119C14.7768 10.0861 14.4238 10.4893 14.2786 10.7158C13.378 10.2518 12.2003 10.0567 10.6894 10.4065C5.83833 11.5425 5.23628 18.6274 6.13193 20.152C5.43091 20.6509 5.13236 21.7759 5.41607 23.0426C5.63215 24.0019 6.37935 24.7402 7.12161 25.0385C7.50593 26.1929 8.03046 27.3437 8.6787 28.3434C8.55334 28.4337 8.44283 28.546 8.37685 28.6969L7.59995 30.4755L3.6297 31.4072C2.30353 31.7202 1.07963 33.1342 0.84211 34.6219L0.0404722 39.6465C-0.0881858 40.4511 0.0932549 41.2502 0.53696 41.8376C0.980665 42.4286 1.65529 42.7692 2.38766 42.7692H15.5718L15.3145 44.3839C15.1429 45.4555 15.3722 46.4792 15.9594 47.2599C16.545 48.0461 17.406 48.4714 18.3825 48.4714H50.3029C51.2645 48.4714 52.147 48.0295 52.7276 47.2599C53.3115 46.4792 53.5424 45.4574 53.3742 44.3839L53.1168 42.7692H66.301C67.0317 42.7692 67.7096 42.4286 68.1517 41.8376C68.5937 41.2557 68.7735 40.4548 68.6432 39.6484ZM61.6149 37.6783C61.1596 37.6783 60.7901 38.0907 60.7901 38.5989V40.9391H52.8232L52.1948 37.0081C51.8797 35.0159 50.2583 33.1342 48.4918 32.6684L49.8526 32.3444L53.9944 35.0196C54.1197 35.1025 54.2649 35.143 54.4067 35.143C54.4875 35.143 54.57 35.1282 54.6475 35.1043C54.8653 35.0288 55.0484 34.8558 55.1473 34.6256L55.4393 33.9609L55.7296 34.6256C55.8319 34.8558 56.0133 35.0288 56.2327 35.1043C56.3102 35.1319 56.3927 35.143 56.4735 35.143C56.617 35.143 56.7605 35.1025 56.8859 35.0196L61.0244 32.3444L64.7192 33.2171C65.3855 33.3754 66.1031 34.2003 66.2235 34.9515L67.0218 39.9761C67.063 40.2449 67.0169 40.4917 66.8849 40.6666C66.7529 40.8433 66.5451 40.9354 66.301 40.9354H62.4363V38.5971C62.4396 38.0852 62.0701 37.6783 61.6149 37.6783ZM51.7511 44.7154C51.8352 45.2401 51.7313 45.7262 51.4641 46.0815C51.1952 46.4387 50.7845 46.6357 50.3078 46.6357H44.246V42.7674C44.246 42.7563 44.2411 42.7453 44.2394 42.7324C44.2213 42.2371 43.865 41.8468 43.4213 41.8468C43.2316 41.8468 43.0617 41.9352 42.9232 42.0493C42.7285 42.2205 42.5966 42.4709 42.5966 42.7674V46.6357H26.0954V42.7674C26.0954 42.4746 25.9634 42.2205 25.7704 42.0548C25.6302 41.9352 25.462 41.8468 25.2706 41.8468C24.8253 41.8468 24.469 42.2445 24.4509 42.7324C24.4509 42.7453 24.4459 42.7563 24.4459 42.7674V46.6357H18.3874C17.9074 46.6357 17.4967 46.4442 17.2295 46.0852C16.9623 45.7262 16.86 45.2401 16.9442 44.7154L17.2543 42.7747L17.4011 41.8541L17.5479 40.9335L18.1235 37.3266C18.3281 36.0562 19.4992 34.7011 20.634 34.4341L23.4117 33.7823L24.3222 33.5706L25.1981 33.3662L26.2339 33.1213C26.2587 33.1398 26.2752 33.1637 26.3032 33.1858L32.4194 37.137C32.5464 37.2198 32.6899 37.2604 32.8318 37.2604C32.9126 37.2604 32.9934 37.2456 33.0726 37.2217C33.2903 37.1462 33.4718 36.9731 33.5724 36.743L34.3476 34.9681L35.1229 36.743C35.2251 36.9731 35.4049 37.1462 35.6227 37.2217C35.7035 37.2511 35.7843 37.2604 35.8635 37.2604C36.007 37.2604 36.1505 37.2198 36.2758 37.137L42.392 33.1858C42.4217 33.1637 42.4333 33.1398 42.4613 33.1213L43.4955 33.3662L44.373 33.5706L45.2835 33.7823L48.0612 34.4341C49.1961 34.7029 50.3672 36.0562 50.5701 37.3266L51.1474 40.9335L51.2942 41.8541L51.441 42.7747L51.7511 44.7154ZM7.07872 37.6783C6.62347 37.6783 6.25399 38.0907 6.25399 38.5989V40.9391H2.3926C2.14683 40.9391 1.939 40.8415 1.80705 40.6684C1.67509 40.4953 1.62725 40.2468 1.67014 39.978L2.47178 34.9533C2.59054 34.204 3.30806 33.3791 3.97609 33.2208L7.67088 32.348L11.8094 35.0215C11.9364 35.1043 12.0799 35.1467 12.2217 35.1467C12.3026 35.1467 12.3834 35.1319 12.4626 35.108C12.6803 35.0325 12.8634 34.8576 12.9624 34.6274L13.2527 33.9646L13.5446 34.6274C13.6452 34.8576 13.8267 35.0325 14.0461 35.108C14.1236 35.1356 14.206 35.1467 14.2869 35.1467C14.4304 35.1467 14.5739 35.1043 14.6992 35.0215L18.8377 32.348L20.2002 32.6721C18.4303 33.1416 16.8122 35.0178 16.4955 37.0099L15.8687 40.9427H7.9018V38.6026C7.90345 38.0852 7.53397 37.6783 7.07872 37.6783ZM17.3697 31.166L16.4246 31.7773L14.6382 32.9317L14.3017 32.1621L15.3062 31.5103L16.3734 30.8235L17.0332 30.3982L17.3169 31.0463L17.3697 31.166ZM9.47374 30.3964L10.1335 30.8217L11.2007 31.5085L12.2036 32.1602L11.8671 32.9299L10.0807 31.7754L9.1356 31.1641L9.18839 31.0426L9.47374 30.3964ZM28.3535 30.737L28.6256 30.1128L29.259 30.5216L30.3262 31.212L31.3951 31.9025L33.3118 33.1398L32.4771 35.0491L28.619 32.5561L27.791 32.0203L27.8933 31.7828L28.3535 30.737ZM40.797 31.7846L40.8993 32.0221L40.0712 32.5579L36.2132 35.0509L35.3785 33.1416L37.2952 31.9043L38.3608 31.2139L39.428 30.5234L40.063 30.1128L40.3335 30.737L40.797 31.7846ZM59.553 31.166L58.6079 31.7773L56.8215 32.9317L56.485 32.1621L57.4896 31.5103L58.5551 30.8235L59.2132 30.3982L59.497 31.0463L59.553 31.166ZM51.6571 30.3964L52.3152 30.8217L53.3808 31.5085L54.3836 32.1602L54.0488 32.9299L52.2624 31.7754L51.3173 31.1641L51.3701 31.0426L51.6571 30.3964ZM50.0785 24.0258C49.6876 24.1197 48.7788 23.5692 48.6006 22.7665C48.4175 21.9471 48.5907 21.1849 48.9882 21.0578C49.107 21.0192 49.2291 21.0505 49.3528 21.1241V19.8997C49.3544 19.8942 49.3561 19.8942 49.3594 19.8905C49.3577 19.8758 49.3561 19.8518 49.3528 19.8353V19.4136C49.4534 18.3789 50.3293 16.4143 55.1605 18.18C56.8232 18.7876 57.8426 17.8247 58.3605 16.545C60.0066 16.7421 61.1052 18.8281 61.5241 20.1133V21.1241C61.6429 21.0505 61.7666 21.0192 61.887 21.0578C62.2845 21.1812 62.461 21.9434 62.2763 22.7665C62.0998 23.5618 61.1959 24.1087 60.8033 24.0258C60.3283 25.6387 59.426 27.6567 58.1543 28.9547C57.9118 29.2051 57.6496 29.4187 57.3791 29.6065C57.0591 29.8293 56.7209 29.9987 56.363 30.111C56.0644 30.2012 55.7593 30.262 55.436 30.262C55.1193 30.262 54.8125 30.2049 54.5172 30.1147C54.1478 30.0005 53.8014 29.833 53.4764 29.6102C53.1944 29.4187 52.9255 29.1885 52.6731 28.9271C51.4278 27.6419 50.5503 25.6608 50.0785 24.0258ZM26.4714 21.3616C25.8941 21.4979 24.5614 20.6896 24.2975 19.5094C24.0269 18.3089 24.2843 17.1858 24.8698 17.0035C25.043 16.9519 25.2244 16.9925 25.4042 17.0992V15.2986C25.4075 15.2949 25.4108 15.2912 25.4141 15.2838C25.4108 15.2617 25.4075 15.2304 25.4042 15.201V14.586C25.5477 13.0652 26.836 10.1745 33.9369 12.7743C36.3814 13.6654 37.8907 12.2495 38.6511 10.3715C41.0626 10.6698 42.6725 13.7262 43.2893 15.6079V17.0974C43.3801 17.0459 43.4658 17.0072 43.5582 16.9888C43.5549 17.0035 43.5582 17.0274 43.5533 17.0385C43.5731 17.0606 43.6077 17.0458 43.6555 16.9961C43.7116 16.9925 43.766 16.9851 43.8254 17.0035C44.4093 17.1895 44.6666 18.3089 44.3994 19.5094C44.1372 20.6785 42.8127 21.4831 42.237 21.3616C41.3463 24.383 39.4313 28.3747 36.6668 29.8956C35.9476 30.2877 35.1789 30.5271 34.3476 30.5271C33.508 30.5271 32.7311 30.2914 32.0103 29.8992C29.2458 28.3968 27.3654 24.4585 26.4714 21.3616ZM7.89356 24.0258C7.50099 24.1197 6.59378 23.5692 6.41564 22.7665C6.23255 21.9471 6.40574 21.1849 6.80491 21.0578C6.92367 21.0192 7.04573 21.0505 7.16779 21.1241V19.8997C7.16944 19.8942 7.17109 19.8942 7.17439 19.8905C7.17274 19.8758 7.17109 19.8518 7.16779 19.8353V19.4136C7.26676 18.3789 8.14428 16.4143 12.9755 18.18C14.6382 18.7876 15.6576 17.8247 16.1772 16.545C17.8233 16.7421 18.9219 18.8281 19.3408 20.1133V21.1241C19.4612 21.0505 19.5849 21.0192 19.7037 21.0578C20.1012 21.1812 20.2761 21.9434 20.093 22.7665C19.9148 23.5618 19.0126 24.1087 18.6217 24.0258C18.1466 25.6387 17.2444 27.6567 15.971 28.9547C15.7285 29.2051 15.4679 29.4187 15.1974 29.6065C14.8774 29.8293 14.5376 29.9987 14.1797 30.1073C13.8828 30.2012 13.576 30.262 13.2527 30.262C12.9343 30.262 12.6292 30.2049 12.3356 30.1147C11.9694 30.0005 11.6213 29.833 11.2947 29.6102C11.0127 29.4187 10.7438 29.1885 10.4915 28.9271C9.24612 27.6419 8.36695 25.6608 7.89356 24.0258Z" fill="#E8B909" fill-opacity="0.75"/>
</svg>
