<svg width="58" height="78" viewBox="0 0 58 78" fill="none" xmlns="http://www.w3.org/2000/svg">
<path d="M56.9576 69.0345L47.8645 44.5302C47.6329 43.9061 46.9917 43.6094 46.4325 43.8681C45.8732 44.1268 45.6075 44.8424 45.8393 45.4666L54.0597 67.6191L46.5615 65.1939C46.0693 65.0346 45.5437 65.2776 45.2966 65.7789L41.5307 73.412L32.7103 49.6421C42.8907 47.4507 50.6044 37.4317 50.6044 25.4379C50.6046 11.8452 40.6977 0.786621 28.5205 0.786621C16.3433 0.786621 6.43633 11.8452 6.43633 25.4379C6.43633 30.9435 8.06196 36.033 10.8053 40.1409L0.0834256 69.0345C-0.0777644 69.4691 -0.00162663 69.9683 0.279396 70.3187C0.560273 70.6691 0.996494 70.8087 1.40115 70.6779L10.2473 67.8165L14.6899 76.8221C14.8834 77.2141 15.2521 77.4554 15.6497 77.4554C15.6699 77.4554 15.6902 77.4547 15.7105 77.4536C16.1313 77.4275 16.5013 77.1347 16.6626 76.7001L25.1585 53.805C25.3901 53.1807 25.1246 52.4651 24.5653 52.2066C24.006 51.948 23.3649 52.2444 23.1333 52.8687L15.51 73.412L11.7445 65.7789C11.4972 65.2776 10.9713 65.0346 10.4794 65.1939L2.98134 67.6191L12.3922 42.2582C16.4253 47.0737 22.1629 50.089 28.5205 50.089C29.1768 50.089 29.826 50.0549 30.4678 49.9921L40.3786 76.7001C40.5398 77.1347 40.9099 77.4275 41.3305 77.4534C41.351 77.4547 41.3711 77.4554 41.3915 77.4554C41.7891 77.4554 42.1578 77.2141 42.3511 76.8221L46.7939 67.8165L55.64 70.6779C56.045 70.8088 56.4808 70.6691 56.7618 70.3187C57.0428 69.9683 57.1188 69.4691 56.9576 69.0345ZM8.62839 25.4379C8.62839 13.1944 17.552 3.2335 28.5205 3.2335C39.489 3.2335 48.4125 13.1944 48.4125 25.4379C48.4125 37.6814 39.489 47.6422 28.5205 47.6422C17.552 47.6422 8.62839 37.6814 8.62839 25.4379Z" fill="#E8B909" fill-opacity="0.75"/>
<path d="M41.1846 20.8446C41.0585 20.411 40.7265 20.0916 40.3236 20.0161L32.9485 18.6346L29.4925 11.2321C29.3036 10.8278 28.9291 10.5741 28.5205 10.5741C28.112 10.5741 27.7373 10.8278 27.5485 11.2321L24.0924 18.6346L16.7174 20.0161C16.3145 20.0915 15.9826 20.4109 15.8563 20.8446C15.7301 21.2784 15.8303 21.7544 16.1166 22.0798L21.3556 28.0363L20.2538 36.2927C20.1936 36.7438 20.3631 37.1946 20.6936 37.4628C21.0239 37.7307 21.4607 37.7713 21.8264 37.5682L28.5205 33.847L35.2145 37.5682C35.3692 37.6542 35.5364 37.6966 35.703 37.6966C35.9306 37.6966 36.1566 37.6176 36.3473 37.463C36.6779 37.1948 36.8474 36.7439 36.7872 36.2929L35.6855 28.0365L40.9245 22.0798C41.2107 21.7544 41.3109 21.2784 41.1846 20.8446ZM33.7388 26.7569C33.4979 27.0308 33.3861 27.4148 33.4369 27.7942L34.3093 34.3313L29.0092 31.3851C28.8551 31.2996 28.688 31.2567 28.5205 31.2567C28.3532 31.2567 28.1857 31.2995 28.032 31.3851L22.7318 34.3313L23.6043 27.7942C23.655 27.4148 23.5432 27.0306 23.3024 26.7569L19.1542 22.0406L24.9935 20.9467C25.3325 20.8833 25.6252 20.6459 25.7841 20.3056L28.5205 14.4447L31.2569 20.3058C31.4159 20.6461 31.7085 20.8834 32.0475 20.9469L37.8869 22.0408L33.7388 26.7569Z" fill="#E8B909" fill-opacity="0.75"/>
<path d="M45.1235 26.6719C44.5233 26.5823 43.9724 27.0541 43.893 27.724C42.8763 36.2892 36.2675 42.7485 28.5205 42.7485C19.9694 42.7485 13.0125 34.9831 13.0125 25.4378C13.0125 15.8926 19.9694 8.12717 28.5205 8.12717C36.2677 8.12717 42.8763 14.5863 43.893 23.1516C43.9724 23.8216 44.5243 24.2937 45.1235 24.2038C45.7234 24.1151 46.1456 23.5001 46.0659 22.8303C44.9056 13.0532 37.3627 5.6803 28.5205 5.6803C18.7607 5.6803 10.8204 14.5434 10.8204 25.4378C10.8204 36.3323 18.7607 45.1952 28.5205 45.1952C37.3627 45.1952 44.9056 37.8223 46.0661 28.0452C46.1456 27.3756 45.7235 26.7606 45.1235 26.6719Z" fill="#E8B909" fill-opacity="0.75"/>
</svg>
