<svg width="60" height="68" viewBox="0 0 60 68" fill="none" xmlns="http://www.w3.org/2000/svg">
<path d="M60 39.4495C60 35.6601 58.0664 32.3437 55.1613 30.7428V13.7648C55.1613 6.6169 49.9519 0.802002 43.5484 0.802002C37.1448 0.802002 31.9355 6.6169 31.9355 13.7648V15.0416C30.7113 14.8083 29.4387 14.7835 28.1594 15.0049C28.0906 15.0168 28.0229 15.0373 27.9542 15.0503C28.021 14.6268 28.0645 14.1991 28.0645 13.7648V9.44387C28.0645 7.73494 26.8742 6.33064 25.3694 6.21181C23.4126 2.85877 20.0458 0.802002 16.4516 0.802002C10.5823 0.802002 5.80645 6.13296 5.80645 12.6846V13.7648C5.80645 16.2331 6.91065 18.5384 8.70968 19.9448V20.0064C8.70968 22.7286 9.84581 25.157 11.6129 26.7417V29.0544L7.27839 29.8603C3.06097 30.6435 0 34.6771 0 39.4495V48.3323H17.1174C13.8223 49.7766 11.6129 53.3078 11.6129 57.3674V67.7765H48.3871V57.3674C48.3871 53.3078 46.1777 49.7766 42.8826 48.3323H60V39.4495ZM33.871 13.7648C33.871 7.8084 38.2123 2.96247 43.5484 2.96247C48.8845 2.96247 53.2258 7.8084 53.2258 13.7648V29.9791C53.0584 29.937 52.8929 29.8916 52.7216 29.8592L48.3871 29.0534V26.7406C50.1542 25.1548 51.2903 22.7275 51.2903 20.0053L51.2835 13.161L49.9113 13.8663C49.8919 13.8772 47.9584 14.845 43.5484 14.845C39.1384 14.845 37.2048 13.8772 37.1932 13.8717L35.8064 13.1296V16.5939C35.1919 16.1975 34.5416 15.8723 33.871 15.6066V13.7648ZM40.0819 21.3934C39.4529 20.1609 38.6565 19.0817 37.7419 18.1668V16.325C38.8926 16.648 40.7903 17.0055 43.5484 17.0055C46.3064 17.0055 48.2042 16.648 49.3548 16.325V20.0053C49.3548 23.5798 46.7506 26.4867 43.5484 26.4867C43.2242 26.4867 42.9019 26.4468 42.5806 26.3852V24.794C42.5806 23.1142 41.5055 21.711 40.0819 21.3934ZM41.7387 33.4553C42.2768 32.0197 42.5806 30.4728 42.5806 28.8881V28.5694C42.9019 28.6148 43.2252 28.6483 43.5484 28.6483C44.5752 28.6483 45.5545 28.4193 46.4516 28.012V29.7944L43.5484 39.5165L41.7387 33.4553ZM41.8181 40.5535L39.1674 37.5948C39.6445 37.1 40.0674 36.5545 40.4516 35.9766L41.8181 40.5535ZM48.0765 31.1847L49.6055 31.4688L50.2394 35.0141L45.2787 40.5524L48.0765 31.1847ZM28.4535 17.1395C32.6255 16.4179 36.7026 18.7371 38.611 22.8982L38.8819 23.4869H39.4732C40.1197 23.4869 40.6452 24.0735 40.6452 24.794V28.8881C40.6452 31.1177 39.9406 33.2695 38.7087 34.9828L38.7039 28.3555L37.3665 28.9723C37.3452 28.9831 35.1474 29.9683 30 29.9683C24.8526 29.9683 22.6548 28.9831 22.6394 28.9756L21.2903 28.3307V32.4755C20.5074 30.6597 20.1794 28.6169 20.3855 26.5602C20.8597 21.8244 24.2526 17.8632 28.4535 17.1395ZM19.1894 32.4701C19.4081 33.101 19.6616 33.7167 19.9674 34.3044L18.2603 33.1604L19.1894 32.4701ZM16.4855 31.8857L13.5484 29.4282V28.0109C14.4455 28.4182 15.4248 28.6472 16.4516 28.6472C17.1213 28.6472 17.7774 28.5402 18.4171 28.3501C18.4432 29.0069 18.5061 29.6583 18.6194 30.2978L16.4855 31.8857ZM20.4319 37.1335L21.3803 37.7687C21.6658 40.1041 22.6945 42.1728 24.1935 43.6754V46.1718H20.2094L19.3916 38.8748L20.4319 37.1335ZM24.9223 48.423L28.3084 51.4466L25.4545 53.3586L22.829 48.9621L24.9223 48.423ZM26.129 46.7325V45.1456C27.2971 45.7959 28.6084 46.1718 30 46.1718C31.3916 46.1718 32.7029 45.797 33.871 45.1456V46.7325L30 50.1892L26.129 46.7325ZM35.0777 48.4219L37.171 48.961L34.5455 53.3575L31.6916 51.4455L35.0777 48.4219ZM30 44.0113C26.2655 44.0113 23.2258 40.6183 23.2258 36.4497V31.4093C24.4906 31.7388 26.6874 32.1288 30 32.1288C33.3126 32.1288 35.5094 31.7388 36.7742 31.4093V36.4497C36.7742 40.6183 33.7345 44.0113 30 44.0113ZM8.70968 13.1296V16.9893C8.09419 16.07 7.74194 14.9423 7.74194 13.7648V12.6846C7.74194 7.32337 11.6487 2.96247 16.4516 2.96247C19.5426 2.96247 22.4303 4.82587 23.9865 7.8246L24.2661 8.36364H25.1613C25.6955 8.36364 26.129 8.84758 26.129 9.44387V13.7648C26.129 14.4421 26.0071 15.1021 25.7806 15.7373C25.23 15.9804 24.6997 16.2709 24.1916 16.6037L24.1877 13.162L22.8155 13.8674C22.7952 13.8772 20.8616 14.845 16.4516 14.845C12.0416 14.845 10.1081 13.8772 10.0965 13.8717L8.70968 13.1296ZM10.6452 20.0053V16.325C11.7958 16.648 13.6935 17.0055 16.4516 17.0055C19.2097 17.0055 21.1074 16.648 22.2581 16.325V18.1776C20.25 20.2008 18.8661 22.9868 18.4984 26.0589C17.8403 26.3387 17.1552 26.4878 16.4516 26.4878C13.2494 26.4867 10.6452 23.5798 10.6452 20.0053ZM12.331 31.109L14.7194 33.1086L11.9448 34.9676L10.0945 31.526L12.331 31.109ZM12.6939 46.1718H7.74194V42.9311H5.80645V46.1718H1.93548V39.4495C1.93548 35.7368 4.31613 32.5998 7.59581 31.9905L8.0429 31.9073L11.281 37.9318L12.4713 37.1346L13.5106 38.8748L12.6939 46.1718ZM14.6439 46.1718L15.5197 38.3455L14.1319 36.0219L16.4516 34.4686L18.7703 36.0209L17.3826 38.3444L18.2584 46.1718H14.6439ZM26.2306 65.616H19.3548V60.2149H17.4194V65.616H13.5484V57.3674C13.5484 53.8253 15.7074 50.7952 18.7994 50.0002L20.8132 49.4817L24.8681 56.2698L26.0197 55.4986L27.0639 57.2464L26.2306 65.616ZM31.8223 65.616H28.1787L29.0661 56.7019L27.6823 54.3848L30 52.8325L32.3187 54.3848L30.9348 56.7019L31.8223 65.616ZM46.4516 57.3674V65.616H42.5806V60.2149H40.6452V65.616H33.7694L32.9361 57.2464L33.9803 55.4986L35.1319 56.2698L39.1868 49.4817L41.2006 50.0002C44.2926 50.7952 46.4516 53.8253 46.4516 57.3674ZM58.0645 46.1718H54.1935V42.9311H52.2581V46.1718H35.8064V43.6754C36.899 42.58 37.7419 41.1844 38.2306 39.6018L43.5484 45.5388L52.3413 35.7249L51.6465 31.849L52.4042 31.9905C55.6839 32.6008 58.0645 35.7378 58.0645 39.4495V46.1718Z" fill="#E8B909" fill-opacity="0.75"/>
</svg>
