<svg width="60" height="68" viewBox="0 0 60 68" fill="none" xmlns="http://www.w3.org/2000/svg">
<path d="M57.2727 25.1564H53.1476C52.8589 24.2457 52.5265 23.3515 52.1518 22.4782L55.07 19.2208C56.1351 18.0319 56.1351 16.1045 55.0702 14.9156L47.3564 6.30487C46.8449 5.73396 46.1511 5.41309 45.4278 5.41309C44.7045 5.41309 44.0109 5.73376 43.4995 6.30487L40.5811 9.56227C39.7985 9.14398 38.9978 8.77318 38.1818 8.45089V3.8463C38.1818 2.16503 36.9607 0.802002 35.4545 0.802002H24.5455C23.0393 0.802002 21.8182 2.16503 21.8182 3.8463V8.45089C21.0022 8.77318 20.2013 9.14418 19.4191 9.56227L16.5007 6.30487C15.4358 5.11597 13.7089 5.11597 12.6438 6.30487L4.92982 14.9156C3.86473 16.1045 3.86473 18.0319 4.92982 19.2208L7.848 22.4784C7.47345 23.3517 7.14127 24.2455 6.85255 25.1564H2.72727C1.22109 25.1564 0 26.5194 0 28.2007V40.3778C0 42.0591 1.22109 43.4221 2.72727 43.4221H6.85255C7.14127 44.3328 7.47364 45.227 7.848 46.1001L4.92982 49.3577C4.41836 49.9286 4.13091 50.7029 4.13091 51.5102C4.13091 52.3178 4.41818 53.092 4.92982 53.6629L12.644 62.2734C13.7091 63.4621 15.4358 63.4621 16.5007 62.2734L19.4193 59.0162C20.2018 59.4343 21.0024 59.8053 21.8182 60.1276V64.7322C21.8182 66.4135 23.0393 67.7765 24.5455 67.7765H35.4545C36.9607 67.7765 38.1818 66.4135 38.1818 64.7322V60.1274C38.9978 59.8051 39.7987 59.4343 40.5811 59.016L43.4996 62.2734C44.5645 63.4621 46.2913 63.4623 47.3564 62.2732L55.0702 53.6627C56.1353 52.4738 56.1353 50.5464 55.0702 49.3575L52.152 46.1001C52.5267 45.2268 52.8591 44.3328 53.1478 43.4219H57.2727C58.7789 43.4219 60 42.0589 60 40.3776V28.2005C60 26.5194 58.7789 25.1564 57.2727 25.1564ZM54.5455 37.3335H51.1307C49.886 37.3335 48.7995 38.274 48.4895 39.6196C48.0467 41.5414 47.3598 43.389 46.4482 45.1111C45.8151 46.3071 45.9876 47.8301 46.8678 48.8124L49.2849 51.5104L45.428 55.8157L43.0107 53.1178C42.1309 52.1357 40.7667 51.9429 39.6955 52.6494C38.1527 53.6666 36.4971 54.4333 34.7749 54.9283C33.5696 55.2744 32.7273 56.4872 32.7273 57.8764V61.6879H27.2727V57.8764C27.2727 56.4874 26.4304 55.2746 25.2253 54.9283C23.5033 54.4335 21.848 53.6668 20.3049 52.6494C19.2333 51.9427 17.8695 52.1355 16.9896 53.1178L14.5724 55.8157L10.7151 51.5102L13.1322 48.8122C14.0124 47.8299 14.1849 46.3071 13.5518 45.1111C12.6405 43.3895 11.9538 41.5416 11.5104 39.619C11.2004 38.2738 10.1136 37.3335 8.86927 37.3335H5.45455V31.245H8.86927C10.1136 31.245 11.2002 30.3047 11.5104 28.9595C11.9536 27.0367 12.6405 25.1888 13.5518 23.4672C14.1849 22.2712 14.0124 20.7484 13.1322 19.7661L10.7153 17.0681L14.5724 12.7628L16.9895 15.4607C17.8695 16.443 19.2338 16.6358 20.3051 15.9291C21.8476 14.9117 23.5033 14.1451 25.2255 13.6501C26.4304 13.3041 27.2727 12.0913 27.2727 10.702V6.89059H32.7273V10.702C32.7273 12.0911 33.5696 13.3039 34.7747 13.6501C36.4973 14.1451 38.1527 14.9117 39.6953 15.9291C40.7669 16.6356 42.1309 16.443 43.0109 15.4607L45.428 12.7628L49.2849 17.0681L46.8678 19.7661C45.9876 20.7484 45.8151 22.2714 46.4482 23.4674C47.3598 25.1892 48.0465 27.0369 48.4895 28.9589C48.7995 30.3043 49.8862 31.2447 51.1307 31.2447H54.5455V37.3335Z" fill="#E8B909" fill-opacity="0.75"/>
<path d="M33.8898 27.6718L27.6364 34.6519L25.9284 32.7456C24.8635 31.5567 23.1366 31.5567 22.0715 32.7456C21.0064 33.9345 21.0064 35.8619 22.0715 37.0508L25.7078 41.1099C26.2404 41.7043 26.9384 42.0015 27.6364 42.0015C28.3344 42.0015 29.0324 41.7043 29.5647 41.1097L37.7466 31.9768C38.8116 30.7879 38.8116 28.8605 37.7466 27.6716C36.6816 26.4827 34.9547 26.4827 33.8898 27.6718Z" fill="#E8B909" fill-opacity="0.75"/>
</svg>
