<svg width="60" height="78" viewBox="0 0 60 78" fill="none" xmlns="http://www.w3.org/2000/svg">
<path d="M13.6974 37.5395C12.3113 35.9922 10.2045 35.7296 8.57235 36.7494V20.8176C8.57235 20.0084 8.39086 19.2459 8.07174 18.577C8.26389 18.5132 8.4648 18.4798 8.66981 18.4798C9.82461 18.4798 10.7642 19.5284 10.7642 20.8176V32.5791C10.7642 33.2546 11.2548 33.8024 11.8601 33.8024C12.4653 33.8024 12.956 33.2546 12.956 32.5791V20.8176C12.956 18.1795 11.0332 16.0332 8.66981 16.0332C7.88806 16.0332 7.13437 16.2689 6.47653 16.7073C5.83506 16.2798 5.08604 16.0332 4.28617 16.0332C1.92281 16.0332 0 18.1794 0 20.8186L0.0178268 43.2692C0.0185574 44.2937 0.358435 45.74 0.808196 46.6333C0.815503 46.648 0.823247 46.6623 0.831138 46.6767L13.4551 69.4954C13.7173 70.029 13.9536 71.044 13.9536 71.6423V76.1155C13.9536 76.791 14.4442 77.3388 15.0495 77.3388C15.6547 77.3388 16.1454 76.791 16.1454 76.1155V71.6423C16.1454 70.6175 15.8061 69.1707 15.3562 68.2772C15.3487 68.2625 15.3411 68.2482 15.3332 68.2338L2.70938 45.4152C2.44709 44.8814 2.21023 43.8659 2.20979 43.2673L2.19196 20.8178C2.19196 19.5287 3.13152 18.48 4.28632 18.48C5.44112 18.48 6.38068 19.5286 6.38068 20.8178V40.9226C6.38068 40.9513 6.38272 40.9795 6.38447 41.0078C6.40332 42.2043 6.81977 43.3945 7.636 44.3056L17.452 55.2624C17.88 55.7402 18.5739 55.7402 19.0017 55.2624C19.4297 54.7847 19.4297 54.0103 19.0017 53.5325L9.18576 42.5757C8.36924 41.6643 8.36924 40.1811 9.18576 39.2697C10.0023 38.3582 11.331 38.3582 12.1476 39.2697L24.2254 52.7514C25.5736 54.2562 26.7126 57.3256 26.7126 59.4538V76.1155C26.7126 76.791 27.2032 77.3388 27.8085 77.3388C28.4137 77.3388 28.9044 76.791 28.9044 76.1155V59.4536C28.9044 56.6838 27.53 52.9798 25.7752 51.0212L13.6974 37.5395Z" fill="#E8B909" fill-opacity="0.75"/>
<path d="M55.7139 16.0333C54.914 16.0333 54.165 16.2798 53.5235 16.7074C52.8658 16.269 52.112 16.0333 51.3302 16.0333C48.9669 16.0333 47.044 18.1795 47.044 20.8177V32.5792C47.044 33.2548 47.5347 33.8025 48.14 33.8025C48.7452 33.8025 49.2359 33.2548 49.2359 32.5792V20.8177C49.2359 19.5287 50.1754 18.4799 51.3302 18.4799C51.5352 18.4799 51.7363 18.5134 51.9283 18.5771C51.6093 19.246 51.4277 20.0086 51.4277 20.8177V36.7495C49.7957 35.7299 47.6889 35.9924 46.3026 37.5397L34.2248 51.0215C32.4702 52.9801 31.0956 56.684 31.0956 59.4539V76.1154C31.0956 76.791 31.5863 77.3387 32.1916 77.3387C32.7968 77.3387 33.2875 76.791 33.2875 76.1154V59.4536C33.2875 57.3254 34.4265 54.256 35.7746 52.7512L47.8524 39.2695C48.6689 38.358 49.9976 38.358 50.8143 39.2695C51.6308 40.1809 51.6308 41.6641 50.8143 42.5757L40.9983 53.5325C40.5703 54.0102 40.5703 54.7847 40.9983 55.2624C41.4263 55.7402 42.1202 55.7402 42.548 55.2624L52.364 44.3056C53.1803 43.3945 53.5966 42.2043 53.6156 41.0077C53.6173 40.9795 53.6194 40.9513 53.6194 40.9226V20.8176C53.6194 19.5285 54.5589 18.4798 55.7137 18.4798C56.8685 18.4798 57.8081 19.5284 57.8081 20.8164L57.7902 43.2671C57.7898 43.8657 57.5528 44.8812 57.2906 45.415L44.6668 68.2338C44.6589 68.248 44.6513 68.2625 44.6439 68.2772C44.1939 69.1707 43.8547 70.6174 43.8547 71.6422V76.1154C43.8547 76.791 44.3453 77.3387 44.9506 77.3387C45.5558 77.3387 46.0465 76.791 46.0465 76.1154V71.6422C46.0465 71.044 46.2827 70.0291 46.5449 69.4954L59.1689 46.6766C59.1768 46.6625 59.1844 46.6479 59.1918 46.6333C59.6416 45.7399 59.9815 44.2938 59.9822 43.2692L60 20.8176C59.9999 18.1795 58.0771 16.0333 55.7139 16.0333Z" fill="#E8B909" fill-opacity="0.75"/>
<path d="M34.4915 33.5144C38.2778 32.1901 41.4246 29.2374 43.2716 25.3949C43.3115 25.3274 43.3454 25.2561 43.3726 25.1818C44.4441 22.873 45.0505 20.2535 45.0505 17.4786C45.0505 14.8167 44.492 12.298 43.5006 10.059C43.4784 9.99638 43.4513 9.93668 43.4207 9.87976C41.5906 5.86897 38.3599 2.7825 34.4523 1.42904C34.4123 1.41257 34.3708 1.39903 34.3284 1.38778C32.9569 0.927326 31.504 0.678589 30 0.678589C28.4964 0.678589 27.044 0.927163 25.6729 1.38745C25.6297 1.39887 25.5874 1.41273 25.5467 1.42953C19.4151 3.55383 14.9495 9.94483 14.9495 17.4786C14.9495 26.742 21.7012 34.2785 30 34.2785C31.5219 34.2785 32.9913 34.0243 34.3769 33.5532C34.4159 33.5426 34.4541 33.5296 34.4915 33.5144ZM35.2132 30.5982V24.7198C35.2132 24.0443 34.7225 23.4965 34.1173 23.4965H31.5325C31.4896 23.4483 31.414 23.3085 31.414 23.0888V20.1698H38.9179L41.106 24.7053C39.7485 27.2948 37.6854 29.3694 35.2132 30.5982ZM32.6845 3.4408C32.1769 4.53378 31.1503 5.27444 30 5.27444C28.8497 5.27444 27.8231 4.53378 27.3155 3.4408C28.1817 3.23463 29.0796 3.12519 30 3.12519C30.9204 3.12519 31.8183 3.23463 32.6845 3.4408ZM17.1413 17.4786C17.1413 13.0789 18.9246 9.13583 21.7259 6.50084V12.5311H20.2844C19.6792 12.5311 19.1885 13.0788 19.1885 13.7544V21.665C19.1885 22.3406 19.6792 22.8883 20.2844 22.8883H22.1353C22.3333 22.8883 22.5006 23.0751 22.5006 23.2961V26.4282C22.5006 27.1038 22.9913 27.6515 23.5965 27.6515C24.2018 27.6515 24.6924 27.1038 24.6924 26.4282V23.2961C24.6924 21.7221 23.5452 20.4417 22.1353 20.4417H21.3803V14.9777H21.8529C22.0367 15.3655 22.4014 15.6301 22.8218 15.6301C23.427 15.6301 23.9177 15.0824 23.9177 14.4068V4.83536C24.3318 4.58613 24.7595 4.36186 25.1992 4.16369C26.0007 6.26482 27.8807 7.72104 30 7.72104C32.1195 7.72104 33.9993 6.26482 34.8008 4.16369C37.1347 5.21605 39.1305 7.01136 40.5522 9.28605H35.9194C35.3141 9.28605 34.8235 9.83376 34.8235 10.5093V11.7426H31.341C30.7357 11.7426 30.2451 12.2903 30.2451 12.9659C30.2451 13.3657 30.4176 13.7196 30.6834 13.9429V15.0863C30.6834 15.7619 31.1741 16.3096 31.7793 16.3096C32.3846 16.3096 32.8752 15.7619 32.8752 15.0863V14.1892H35.9194C36.5246 14.1892 37.0153 13.6415 37.0153 12.9659V11.7326H41.7821C42.4738 13.4931 42.8587 15.4365 42.8587 17.4786C42.8587 19.0168 42.6399 20.4988 42.2368 21.8891L40.5374 18.3665C40.3463 17.9703 39.9757 17.7232 39.5724 17.7232H30.3181C29.7129 17.7232 29.2222 18.2709 29.2222 18.9465V23.0888C29.2222 24.6626 30.2382 25.9431 31.4871 25.9431H33.0214V31.4309C32.052 31.6923 31.0404 31.8319 30 31.8319C22.9098 31.8319 17.1413 25.393 17.1413 17.4786Z" fill="#E8B909" fill-opacity="0.75"/>
</svg>
