<svg xmlns="http://www.w3.org/2000/svg" xmlns:xlink="http://www.w3.org/1999/xlink" width="200" zoomAndPan="magnify" viewBox="0 0 150 149.999998" height="200" preserveAspectRatio="xMidYMid meet" version="1.0"><defs><clipPath id="id1"><path d="M 30 60.285156 L 70 60.285156 L 70 89.535156 L 30 89.535156 Z M 30 60.285156 " clip-rule="nonzero"/></clipPath><clipPath id="id2"><path d="M 71 60.285156 L 107 60.285156 L 107 89 L 71 89 Z M 71 60.285156 " clip-rule="nonzero"/></clipPath><clipPath id="id3"><path d="M 106 60.285156 L 120 60.285156 L 120 68 L 106 68 Z M 106 60.285156 " clip-rule="nonzero"/></clipPath><clipPath id="id4"><path d="M 84 60.285156 L 115 60.285156 L 115 89 L 84 89 Z M 84 60.285156 " clip-rule="nonzero"/></clipPath></defs><rect x="-15" width="180" fill="#ffffff" y="-15" height="179.999997" fill-opacity="1"/><rect x="-15" width="180" fill="#ffffff" y="-15" height="179.999997" fill-opacity="1"/><rect x="-15" width="180" fill="#ffffff" y="-15" height="179.999997" fill-opacity="1"/><g clip-path="url(#id1)"><path fill="#545454" d="M 64.578125 85.800781 C 61.234375 83.660156 56.695312 83.285156 49.375 85.300781 C 41.574219 87.125 38.972656 88.292969 35.554688 85.949219 C 34.242188 84.796875 33.773438 82.941406 34.125 80.269531 C 34.9375 75.914062 37.140625 71.71875 41.054688 67.070312 C 43.238281 64.652344 45.261719 62.574219 47.9375 61.742188 C 49.988281 61.21875 49.796875 62.820312 49.546875 63.050781 C 49.285156 63.050781 48.847656 63.089844 48.507812 63.3125 C 48.230469 63.523438 47.472656 64.210938 47.433594 65.132812 C 47.375 66.546875 48.847656 66.253906 49.480469 65.476562 C 50.164062 64.601562 51.175781 62.925781 50.378906 61.367188 C 50.046875 60.8125 49.472656 60.425781 48.757812 60.296875 C 46.308594 60.15625 44.027344 61.316406 41.921875 62.601562 C 37.316406 65.78125 33.636719 70.183594 31.550781 75.003906 C 30.351562 77.914062 29.261719 82.082031 30.890625 85.472656 C 32.152344 87.828125 34.765625 89.078125 37.886719 88.816406 C 40.078125 88.585938 42.722656 87.882812 44.503906 87.460938 C 46.28125 87.035156 55.394531 83.921875 58.386719 89.339844 C 58.386719 89.339844 59.382812 87.417969 61.871094 87.378906 C 63.914062 87.191406 66.867188 87.964844 69.015625 89.535156 C 68.300781 88.464844 66.269531 86.886719 64.578125 85.800781 Z M 64.578125 85.800781 " fill-opacity="1" fill-rule="nonzero"/></g><path fill="#545454" d="M 50.304688 67.617188 C 48.601562 66.507812 45.175781 68.632812 42.433594 72.277344 C 39.925781 75.546875 38.839844 79.34375 40.019531 81.101562 C 41.773438 83.167969 45.027344 80.160156 46.414062 78.550781 L 46.589844 78.363281 C 47.53125 77.359375 48.261719 76.148438 48.964844 74.988281 C 48.964844 74.988281 49.613281 73.925781 49.640625 73.878906 C 50.042969 73.804688 50.523438 73.691406 51.066406 73.535156 C 51.058594 73.558594 48.988281 77.015625 49.199219 78.730469 C 49.265625 79.253906 49.214844 81.167969 51.09375 81.746094 C 53.597656 82.164062 55.597656 80.234375 57.359375 78.519531 C 57.359375 78.519531 57.660156 78.234375 57.832031 78.070312 C 57.789062 78.242188 57.730469 78.46875 57.730469 78.46875 C 57 81.003906 57.988281 81.535156 58.605469 81.730469 C 60.472656 82.269531 62.703125 79.574219 62.710938 79.574219 C 62.652344 80.421875 62.484375 81.125 63.382812 81.691406 C 64.234375 81.992188 65.09375 81.53125 65.75 81.097656 C 68.105469 79.449219 70.003906 76.863281 71.535156 74.628906 L 70.558594 74.628906 C 70.546875 74.628906 68.144531 78.089844 66.585938 78.84375 C 66.582031 78.84375 66.300781 78.988281 66.136719 78.875 C 65.933594 78.703125 66.011719 78.34375 66.140625 78.089844 C 66.148438 78.074219 72.160156 67.707031 72.160156 67.707031 L 69.320312 67.707031 C 69.320312 67.707031 69.011719 68.207031 68.984375 68.238281 C 68.964844 68.222656 68.921875 68.136719 68.890625 68.097656 C 67.128906 65.675781 63.144531 69.398438 60.148438 73.710938 C 58.992188 75.371094 57.523438 77.238281 56 78.585938 C 56 78.585938 53.738281 80.644531 52.773438 79.167969 C 52.421875 78.546875 52.53125 77.636719 52.730469 77.042969 C 53.851562 73.863281 55.789062 70.976562 57.992188 69.238281 C 58.613281 68.753906 59.289062 68.617188 59.625 68.820312 C 59.945312 69.007812 59.996094 69.472656 59.792969 69.792969 C 59.28125 69.777344 58.871094 69.929688 58.535156 70.273438 C 57.878906 70.960938 57.648438 71.621094 57.859375 72.242188 C 58.875 73.683594 60.902344 70.839844 60.804688 69.105469 C 60.769531 68.484375 60.4375 67.894531 59.9375 67.609375 C 59.195312 67.167969 58.066406 67.285156 57.332031 67.636719 C 56.355469 68.003906 54.800781 69.285156 53.898438 70.28125 C 52.757812 71.53125 50.800781 72.921875 50.191406 72.765625 C 50.390625 72.234375 52.042969 68.875 50.304688 67.617188 Z M 63.992188 72.585938 C 64.546875 71.828125 66.152344 69.792969 66.546875 69.449219 C 67.863281 68.296875 68.390625 68.804688 68.4375 69.164062 C 67.207031 71.351562 65.753906 73.863281 64.390625 76.117188 C 64.390625 76.109375 63.960938 76.761719 63.960938 76.761719 C 63.359375 77.675781 62.753906 78.460938 61.761719 79.007812 C 61.621094 79.050781 61.386719 79.066406 61.234375 78.953125 C 61.046875 78.828125 60.972656 78.625 60.992188 78.414062 C 61.054688 77.710938 61.773438 75.5625 63.992188 72.585938 Z M 48.546875 73.902344 C 48.546875 73.902344 48.523438 73.976562 48.511719 74 C 48.507812 74 47.273438 76.003906 47.273438 76.003906 C 46.527344 76.992188 45.597656 78.234375 44.433594 78.828125 C 44.089844 78.945312 43.613281 79.019531 43.371094 78.714844 C 42.855469 78.101562 43.121094 77.253906 43.335938 76.566406 L 43.414062 76.320312 C 44.03125 74.65625 45.011719 73.183594 45.964844 71.820312 C 45.976562 71.808594 46.003906 71.800781 46.015625 71.800781 C 46.015625 71.808594 46.019531 71.808594 46.019531 71.828125 C 46.621094 72.96875 47.742188 73.5 48.582031 73.746094 C 48.589844 73.746094 48.59375 73.753906 48.59375 73.773438 C 48.59375 73.796875 48.582031 73.828125 48.546875 73.902344 Z M 49.71875 71.539062 C 49.710938 71.558594 49.167969 72.800781 49.167969 72.800781 C 49.089844 72.863281 48.964844 72.832031 48.820312 72.800781 L 48.578125 72.757812 C 47.808594 72.519531 47.230469 72.015625 47.050781 71.410156 C 46.804688 70.234375 47.816406 69.308594 48.261719 68.976562 C 48.691406 68.679688 49.355469 68.523438 49.742188 68.828125 C 49.980469 69.105469 50.070312 69.464844 50.070312 69.859375 C 50.070312 70.386719 49.90625 70.984375 49.71875 71.539062 Z M 49.71875 71.539062 " fill-opacity="1" fill-rule="nonzero"/><g clip-path="url(#id2)"><path fill="#545454" d="M 85.613281 75.332031 C 85.339844 74.742188 84.6875 74.367188 83.996094 74.410156 C 81.746094 74.613281 79.546875 76.453125 78.390625 79.089844 C 77.785156 80.449219 77.453125 81.566406 77.238281 83.347656 C 77.9375 82.546875 79.363281 81.234375 80.980469 80.511719 C 80.980469 80.511719 81.203125 78.804688 82.324219 77.285156 C 82.75 76.65625 83.601562 75.644531 84.558594 75.914062 C 85.390625 76.191406 85.097656 78.488281 83.988281 80.710938 C 83.167969 82.34375 81.914062 83.976562 80.640625 85.105469 C 79.519531 86.054688 77.855469 87.199219 76.402344 86.316406 C 75.484375 85.777344 75.019531 84.648438 75.117188 83.195312 C 75.554688 79.066406 77.445312 75.554688 80.148438 71.550781 C 82.9375 67.832031 86.011719 64.015625 90.152344 61.980469 C 90.996094 61.554688 91.777344 61.457031 92.457031 61.71875 C 92.457031 61.71875 88.566406 63.84375 86.714844 67.773438 C 86.242188 68.769531 85.589844 70.117188 86.25 71.3125 C 86.59375 71.933594 87.207031 71.980469 87.699219 71.949219 C 89.96875 71.425781 91.4375 69.316406 92.636719 67.390625 C 93.332031 65.925781 93.949219 64.472656 93.949219 62.855469 C 93.949219 62.65625 93.941406 62.394531 93.921875 62.199219 C 95.007812 61.628906 97.234375 62.640625 97.234375 62.640625 C 98.972656 63.214844 102.675781 66.03125 103.921875 66.570312 C 104.53125 65.871094 105.535156 64.808594 106.097656 64.277344 L 105.28125 63.777344 C 103.972656 62.984375 102.59375 62.234375 101.234375 61.488281 C 98.148438 59.8125 95.636719 60.402344 94.355469 60.859375 C 93.855469 61.039062 93.394531 61.195312 93.394531 61.195312 C 92.445312 60.164062 90.890625 60.261719 89.742188 60.542969 C 85.617188 61.71875 81.789062 64.585938 77.683594 69.5625 C 74.664062 73.460938 72.792969 76.828125 71.796875 80.152344 C 71.027344 82.394531 70.792969 85.6875 72.671875 87.640625 C 74.265625 89.296875 76.382812 88.9375 77.878906 88.34375 C 81.117188 86.757812 84.027344 83.339844 85.476562 79.410156 C 85.824219 78.242188 86.214844 76.589844 85.613281 75.332031 Z M 93.058594 63.015625 C 92.628906 67.902344 88.808594 70.773438 87.863281 71 C 87.289062 71.117188 86.3125 70.863281 87.183594 68.8125 C 88.46875 66.050781 90.664062 63.703125 93.019531 62.503906 C 93.078125 62.707031 93.074219 62.835938 93.058594 63.015625 Z M 93.058594 63.015625 " fill-opacity="1" fill-rule="nonzero"/></g><g clip-path="url(#id3)"><path fill="#545454" d="M 115.726562 63.636719 C 113.671875 64.800781 111.539062 65.550781 108.960938 65.289062 C 108.246094 66.089844 107.550781 66.914062 106.910156 67.765625 C 110.527344 68.679688 114.367188 66.644531 116.507812 64.710938 C 118.773438 62.757812 119.933594 60.296875 119.933594 60.296875 C 119.933594 60.296875 118.234375 62.226562 115.726562 63.636719 Z M 115.726562 63.636719 " fill-opacity="1" fill-rule="nonzero"/></g><path fill="#545454" d="M 75.359375 70.164062 L 76.878906 67.707031 L 74.183594 67.707031 L 72.660156 70.164062 Z M 75.359375 70.164062 " fill-opacity="1" fill-rule="nonzero"/><g clip-path="url(#id4)"><path fill="#545454" d="M 108.949219 86.027344 C 108.660156 86.222656 108.253906 86.074219 108.40625 85.625 C 108.785156 84.480469 110.292969 82.148438 110.292969 82.148438 L 114.492188 74.742188 L 111.617188 74.742188 C 111.480469 74.964844 111.1875 75.480469 111.1875 75.480469 C 111.054688 75.257812 110.65625 74.769531 110.492188 74.664062 C 109.789062 74.21875 108.757812 74.429688 108.046875 74.828125 C 104.953125 76.628906 102.695312 80.179688 100.914062 82.949219 C 100.914062 82.949219 99.042969 86.03125 98 86.257812 C 97.1875 86.324219 97.273438 85.238281 97.308594 84.984375 C 97.621094 83.152344 98.351562 81.414062 99.085938 79.835938 C 100.578125 78.804688 102.285156 77.457031 103.835938 75.976562 C 107.199219 72.78125 110.03125 69.164062 110.445312 68.355469 C 110.445312 68.355469 110 68.445312 109.46875 68.460938 C 106.882812 72.046875 101.585938 77.261719 99.980469 78.039062 C 100.691406 76.335938 105.289062 68.222656 109.195312 64.339844 L 109.8125 63.753906 C 110.761719 62.828125 111.75 61.882812 112.515625 61.726562 C 112.597656 61.71875 112.703125 61.726562 112.792969 61.914062 C 112.828125 62.632812 112.558594 63.164062 112.25 63.769531 L 111.816406 64.652344 C 111.816406 64.652344 112.429688 64.539062 112.832031 64.40625 C 113.300781 63.53125 113.816406 62.550781 113.625 61.382812 C 113.5625 61.007812 113.289062 60.722656 112.929688 60.65625 C 111.765625 60.433594 110.492188 61.292969 109.472656 61.988281 L 109.429688 62.011719 C 104.171875 66.105469 99.734375 72.007812 95.851562 80.0625 C 95.570312 80.277344 94.484375 80.53125 94.296875 80.40625 C 94.683594 79.621094 95.164062 78.570312 95.40625 77.425781 C 95.449219 77.097656 95.488281 76.761719 95.488281 76.4375 C 95.488281 75.730469 95.316406 75.070312 94.683594 74.613281 C 93.941406 74.246094 93.019531 74.417969 92.402344 74.695312 C 89.628906 75.839844 87.554688 78.667969 86.058594 80.996094 C 85.253906 82.476562 84.449219 84.058594 84.230469 85.875 C 84.070312 87.296875 84.390625 88.210938 85.203125 88.667969 C 86.039062 89.09375 87.09375 88.652344 87.507812 88.441406 C 90.316406 86.96875 92.28125 84.019531 93.828125 81.320312 C 93.890625 81.3125 94.734375 81.289062 95.375 81.125 C 95.382812 81.125 95.386719 81.125 95.402344 81.132812 C 95.363281 81.257812 95.035156 82.238281 95.035156 82.238281 C 94.054688 85.097656 93.597656 87.042969 94.527344 88.195312 C 95.851562 89.820312 98.042969 88.136719 99.824219 85.914062 C 99.441406 88.578125 100.832031 88.996094 101.890625 88.792969 C 103.105469 88.464844 104.460938 87.171875 105.089844 86.511719 C 104.890625 87.289062 104.945312 88.675781 106.050781 88.816406 C 106.808594 88.953125 107.375 88.546875 108.035156 88.195312 C 110.390625 86.917969 113.207031 82.671875 113.941406 81.441406 L 112.980469 81.441406 C 111.941406 83.003906 110.617188 85.054688 108.949219 86.027344 Z M 87.808594 85.742188 C 87.65625 85.523438 87.609375 85.28125 87.601562 85.019531 C 87.574219 83.417969 89.308594 80.546875 90.53125 78.984375 C 90.535156 78.984375 90.535156 78.984375 90.535156 78.984375 C 91.046875 80.101562 92.210938 80.820312 92.910156 81.121094 C 92.039062 83.050781 89.054688 87.183594 87.808594 85.742188 Z M 93.402344 80.261719 C 93.320312 80.316406 91.855469 79.828125 91.570312 78.480469 C 91.332031 77.316406 92.136719 76.410156 92.914062 75.953125 C 93.25 75.691406 93.75 75.601562 94.121094 75.734375 C 94.460938 75.960938 94.554688 76.371094 94.554688 76.8125 C 94.554688 77.082031 94.519531 77.359375 94.488281 77.613281 C 94.488281 77.613281 94.480469 77.660156 94.480469 77.667969 C 94.238281 78.578125 93.863281 79.46875 93.402344 80.261719 Z M 105.152344 85.230469 C 105.152344 85.230469 104.875 85.472656 104.875 85.472656 C 104.480469 85.824219 104.074219 86.199219 103.582031 86.011719 C 103.445312 85.964844 103.351562 85.785156 103.328125 85.644531 C 103.304688 84.640625 103.761719 83.707031 104.203125 82.800781 L 104.316406 82.5625 C 105.585938 80.457031 107.0625 77.972656 109.230469 76.246094 C 109.597656 75.984375 109.992188 75.765625 110.410156 75.9375 C 110.507812 76.027344 110.621094 76.183594 110.621094 76.335938 C 110.621094 76.386719 110.574219 76.515625 110.550781 76.558594 C 109.945312 77.53125 109.367188 78.550781 108.808594 79.53125 C 107.710938 81.46875 106.574219 83.472656 105.152344 85.230469 Z M 105.152344 85.230469 " fill-opacity="1" fill-rule="nonzero"/></g></svg>