<svg xmlns="http://www.w3.org/2000/svg" xmlns:xlink="http://www.w3.org/1999/xlink" width="200" zoomAndPan="magnify" viewBox="0 0 150 149.999998" height="200" preserveAspectRatio="xMidYMid meet" version="1.0"><defs><clipPath id="id1"><path d="M 63 76 L 94.6875 76 L 94.6875 84.402344 L 63 84.402344 Z M 63 76 " clip-rule="nonzero"/></clipPath><clipPath id="id2"><path d="M 90 70 L 94.6875 70 L 94.6875 75 L 90 75 Z M 90 70 " clip-rule="nonzero"/></clipPath><clipPath id="id3"><path d="M 55.3125 65.597656 L 94 65.597656 L 94 76 L 55.3125 76 Z M 55.3125 65.597656 " clip-rule="nonzero"/></clipPath></defs><rect x="-15" width="180" fill="#ffffff" y="-15" height="179.999997" fill-opacity="1"/><rect x="-15" width="180" fill="#ffffff" y="-15" height="179.999997" fill-opacity="1"/><path fill="#545454" d="M 72.933594 78.632812 L 72.933594 79.613281 L 72.609375 79.613281 L 71.808594 82.476562 L 70.480469 82.476562 L 69.851562 80.566406 L 69.199219 82.476562 L 67.910156 82.476562 L 67.09375 79.613281 L 66.761719 79.613281 L 66.761719 78.632812 L 68.570312 78.632812 L 68.570312 79.613281 L 68.253906 79.613281 L 68.664062 81.238281 L 69.390625 78.632812 L 70.316406 78.632812 L 71.082031 81.179688 L 71.445312 79.613281 L 71.121094 79.613281 L 71.121094 78.632812 Z M 72.933594 78.632812 " fill-opacity="1" fill-rule="nonzero"/><path fill="#545454" d="M 82.671875 78.632812 L 82.671875 79.613281 L 82.339844 79.613281 L 81.257812 82.476562 L 79.960938 82.476562 L 78.878906 79.613281 L 78.546875 79.613281 L 78.546875 78.632812 L 80.355469 78.632812 L 80.355469 79.613281 L 80.039062 79.613281 L 80.605469 81.191406 L 81.179688 79.613281 L 80.863281 79.613281 L 80.863281 78.632812 Z M 82.671875 78.632812 " fill-opacity="1" fill-rule="nonzero"/><path fill="#545454" d="M 85.566406 78.632812 L 85.566406 79.613281 L 85.0625 79.613281 L 85.0625 81.496094 L 85.566406 81.496094 L 85.566406 82.476562 L 83.464844 82.476562 L 83.464844 81.496094 L 83.847656 81.496094 L 83.847656 79.613281 L 83.464844 79.613281 L 83.464844 78.632812 Z M 85.566406 78.632812 " fill-opacity="1" fill-rule="nonzero"/><path fill="#545454" d="M 88.085938 78.953125 C 88.359375 78.710938 88.722656 78.5625 89.117188 78.5625 C 89.984375 78.5625 90.675781 79.265625 90.675781 80.128906 L 90.675781 81.601562 L 91.144531 81.601562 L 91.144531 82.476562 L 89.53125 82.476562 L 89.53125 80.1875 C 89.53125 79.828125 89.238281 79.535156 88.878906 79.535156 C 88.523438 79.535156 88.230469 79.828125 88.230469 80.183594 L 88.230469 81.496094 L 88.726562 81.496094 L 88.726562 82.476562 L 86.636719 82.476562 L 86.636719 81.496094 L 87.019531 81.496094 L 87.019531 79.609375 L 86.636719 79.609375 L 86.636719 78.632812 L 88.085938 78.632812 L 88.085938 78.953125 " fill-opacity="1" fill-rule="nonzero"/><path fill="#545454" d="M 73.265625 80.566406 C 73.265625 81.679688 74.171875 82.582031 75.285156 82.582031 C 75.742188 82.582031 76.164062 82.429688 76.503906 82.171875 L 76.503906 82.476562 L 77.964844 82.476562 L 77.964844 81.496094 L 77.496094 81.496094 L 77.496094 79.609375 L 77.964844 79.609375 L 77.964844 78.628906 L 76.503906 78.628906 L 76.503906 78.957031 C 76.164062 78.699219 75.742188 78.546875 75.285156 78.546875 C 74.171875 78.546875 73.265625 79.449219 73.265625 80.566406 M 74.40625 80.566406 C 74.40625 80.027344 74.84375 79.589844 75.378906 79.589844 C 75.917969 79.589844 76.355469 80.027344 76.355469 80.566406 C 76.355469 81.101562 75.917969 81.539062 75.378906 81.539062 C 74.84375 81.539062 74.40625 81.101562 74.40625 80.566406 " fill-opacity="1" fill-rule="nonzero"/><g clip-path="url(#id1)"><path fill="#545454" d="M 63.257812 80.566406 C 63.257812 82.683594 64.976562 84.398438 67.09375 84.398438 L 90.851562 84.402344 C 92.96875 84.402344 94.6875 82.683594 94.6875 80.566406 C 94.6875 78.449219 92.96875 76.730469 90.851562 76.730469 L 67.09375 76.730469 C 64.976562 76.730469 63.257812 78.445312 63.257812 80.566406 M 67.09375 83.445312 C 65.503906 83.445312 64.210938 82.15625 64.210938 80.566406 C 64.210938 78.972656 65.503906 77.683594 67.09375 77.683594 L 90.851562 77.683594 C 92.441406 77.683594 93.730469 78.976562 93.730469 80.566406 C 93.730469 82.15625 92.441406 83.445312 90.851562 83.445312 Z M 67.09375 83.445312 " fill-opacity="1" fill-rule="nonzero"/></g><path fill="#545454" d="M 71.867188 71.917969 C 71.851562 71.808594 71.832031 71.6875 71.824219 71.546875 C 71.8125 71.546875 71.761719 71.648438 71.707031 71.769531 C 71.707031 71.769531 71.691406 71.808594 71.644531 71.917969 L 71.394531 72.453125 C 71.339844 72.570312 71.355469 72.667969 71.433594 72.667969 L 71.84375 72.667969 C 71.917969 72.671875 71.964844 72.574219 71.949219 72.453125 Z M 72.351562 74.128906 C 72.277344 74.128906 72.199219 74.035156 72.179688 73.914062 L 72.109375 73.449219 C 72.089844 73.328125 72.011719 73.234375 71.9375 73.234375 L 71.164062 73.230469 C 71.089844 73.230469 70.980469 73.328125 70.925781 73.445312 L 70.707031 73.910156 C 70.648438 74.027344 70.542969 74.125 70.46875 74.125 L 69.625 74.121094 C 69.546875 74.121094 69.535156 74.03125 69.59375 73.917969 L 71.457031 70.425781 C 71.519531 70.3125 71.628906 70.222656 71.703125 70.222656 L 72.417969 70.222656 C 72.492188 70.222656 72.574219 70.316406 72.597656 70.429688 L 73.367188 73.929688 C 73.394531 74.042969 73.351562 74.132812 73.277344 74.132812 Z M 72.351562 74.128906 " fill-opacity="1" fill-rule="nonzero"/><path fill="#545454" d="M 77.664062 74.144531 C 77.589844 74.144531 77.535156 74.035156 77.546875 73.898438 L 77.605469 73.078125 C 77.613281 72.945312 77.632812 72.722656 77.644531 72.585938 C 77.644531 72.585938 77.660156 72.40625 77.707031 72.167969 C 77.695312 72.167969 77.636719 72.257812 77.574219 72.367188 C 77.574219 72.367188 77.421875 72.632812 77.289062 72.839844 L 76.550781 73.964844 C 76.484375 74.066406 76.367188 74.148438 76.292969 74.148438 L 75.855469 74.148438 C 75.777344 74.148438 75.6875 74.0625 75.652344 73.960938 L 75.320312 73.015625 C 75.285156 72.914062 75.230469 72.746094 75.199219 72.644531 C 75.199219 72.644531 75.113281 72.390625 75.070312 72.160156 C 75.0625 72.160156 75.035156 72.273438 75.011719 72.410156 C 75.011719 72.410156 74.976562 72.625 74.925781 72.824219 L 74.65625 73.890625 C 74.621094 74.027344 74.53125 74.136719 74.453125 74.136719 L 73.609375 74.132812 C 73.535156 74.132812 73.5 74.023438 73.535156 73.890625 L 74.390625 70.488281 C 74.425781 70.351562 74.515625 70.242188 74.59375 70.242188 L 75.273438 70.246094 C 75.347656 70.246094 75.4375 70.328125 75.472656 70.429688 L 75.949219 71.808594 C 75.984375 71.910156 76.039062 72.078125 76.070312 72.183594 C 76.070312 72.183594 76.191406 72.585938 76.257812 72.871094 C 76.269531 72.871094 76.328125 72.78125 76.386719 72.667969 C 76.386719 72.667969 76.601562 72.273438 76.785156 71.996094 L 77.8125 70.433594 C 77.882812 70.335938 77.996094 70.253906 78.070312 70.253906 L 78.742188 70.253906 C 78.820312 70.253906 78.875 70.363281 78.867188 70.5 L 78.667969 73.90625 C 78.664062 74.039062 78.59375 74.148438 78.519531 74.148438 Z M 77.664062 74.144531 " fill-opacity="1" fill-rule="nonzero"/><path fill="#545454" d="M 81.09375 71.945312 C 81.082031 71.835938 81.0625 71.714844 81.050781 71.574219 C 81.042969 71.574219 80.988281 71.671875 80.9375 71.796875 C 80.9375 71.796875 80.921875 71.835938 80.875 71.945312 L 80.625 72.476562 C 80.570312 72.597656 80.585938 72.695312 80.660156 72.695312 L 81.070312 72.699219 C 81.148438 72.699219 81.195312 72.597656 81.175781 72.480469 Z M 81.582031 74.15625 C 81.503906 74.15625 81.429688 74.058594 81.410156 73.9375 L 81.335938 73.476562 C 81.320312 73.355469 81.242188 73.257812 81.167969 73.257812 L 80.390625 73.253906 C 80.316406 73.253906 80.210938 73.351562 80.152344 73.472656 L 79.933594 73.9375 C 79.878906 74.054688 79.773438 74.152344 79.695312 74.152344 L 78.855469 74.148438 C 78.777344 74.148438 78.765625 74.054688 78.824219 73.941406 L 80.6875 70.453125 C 80.746094 70.339844 80.859375 70.25 80.933594 70.25 L 81.644531 70.25 C 81.722656 70.25 81.804688 70.34375 81.828125 70.457031 L 82.597656 73.953125 C 82.625 74.066406 82.582031 74.160156 82.507812 74.160156 Z M 81.582031 74.15625 " fill-opacity="1" fill-rule="nonzero"/><path fill="#545454" d="M 85.96875 74.183594 C 85.894531 74.183594 85.789062 74.121094 85.738281 74.046875 L 84.859375 72.839844 C 84.804688 72.765625 84.722656 72.644531 84.671875 72.570312 C 84.671875 72.570312 84.410156 72.191406 84.289062 71.957031 C 84.277344 71.957031 84.257812 72.066406 84.242188 72.203125 C 84.242188 72.203125 84.214844 72.488281 84.179688 72.695312 L 83.992188 73.914062 C 83.96875 74.054688 83.890625 74.164062 83.816406 74.164062 L 82.941406 74.160156 C 82.863281 74.160156 82.820312 74.046875 82.84375 73.910156 L 83.375 70.515625 C 83.394531 70.378906 83.476562 70.269531 83.550781 70.269531 L 84.191406 70.269531 C 84.265625 70.269531 84.371094 70.332031 84.421875 70.40625 L 85.191406 71.546875 C 85.246094 71.621094 85.328125 71.746094 85.378906 71.820312 C 85.378906 71.820312 85.613281 72.179688 85.71875 72.390625 C 85.730469 72.390625 85.75 72.273438 85.761719 72.136719 C 85.761719 72.136719 85.789062 71.886719 85.820312 71.683594 L 86 70.523438 C 86.023438 70.386719 86.101562 70.277344 86.179688 70.277344 L 87.0625 70.277344 C 87.136719 70.277344 87.179688 70.390625 87.160156 70.527344 L 86.625 73.933594 C 86.605469 74.070312 86.527344 74.183594 86.449219 74.183594 Z M 85.96875 74.183594 " fill-opacity="1" fill-rule="nonzero"/><path fill="#545454" d="M 90.515625 71.101562 C 90.394531 71.007812 90.171875 70.902344 89.78125 70.902344 C 89.105469 70.902344 88.636719 71.460938 88.515625 72.230469 C 88.394531 72.992188 88.679688 73.554688 89.394531 73.558594 C 89.757812 73.558594 90.042969 73.472656 90.210938 73.351562 L 90.09375 73.828125 C 90.058594 73.960938 89.964844 74.089844 89.886719 74.113281 C 89.886719 74.113281 89.492188 74.234375 89.066406 74.234375 C 87.839844 74.230469 87.078125 73.496094 87.277344 72.226562 C 87.472656 70.960938 88.464844 70.226562 89.695312 70.230469 C 90.167969 70.230469 90.554688 70.375 90.554688 70.375 C 90.621094 70.402344 90.652344 70.535156 90.621094 70.667969 Z M 90.515625 71.101562 " fill-opacity="1" fill-rule="nonzero"/><g clip-path="url(#id2)"><path fill="#545454" d="M 92.75 70.925781 C 92.273438 70.921875 91.800781 71.464844 91.675781 72.238281 C 91.558594 73.007812 91.863281 73.550781 92.335938 73.550781 C 92.8125 73.554688 93.289062 73.011719 93.410156 72.242188 C 93.527344 71.46875 93.222656 70.925781 92.75 70.925781 M 92.230469 74.242188 C 90.953125 74.238281 90.242188 73.4375 90.429688 72.234375 C 90.617188 71.035156 91.578125 70.234375 92.855469 70.238281 C 94.136719 70.242188 94.847656 71.046875 94.65625 72.246094 C 94.46875 73.449219 93.507812 74.246094 92.230469 74.242188 " fill-opacity="1" fill-rule="nonzero"/></g><g clip-path="url(#id3)"><path fill="#545454" d="M 59.992188 73.480469 C 59.484375 70.378906 65.636719 67.675781 76.660156 66.308594 C 84.0625 65.390625 91.394531 66.300781 93.367188 68.144531 C 91.546875 65.90625 83.730469 64.976562 73.75 66.039062 C 63.164062 67.164062 54.917969 70.109375 55.328125 72.621094 C 55.535156 73.871094 57.855469 74.777344 61.445312 75.230469 C 60.675781 74.847656 60.089844 74.070312 59.992188 73.480469 " fill-opacity="1" fill-rule="nonzero"/></g><path fill="#545454" d="M 66.703125 73.921875 C 66.175781 70.929688 72.175781 67.789062 80.097656 66.902344 C 85.851562 66.261719 91.652344 67.082031 93.652344 68.574219 C 91.953125 66.675781 85.171875 65.851562 77.34375 66.726562 C 68.550781 67.710938 61.765625 70.46875 62.191406 72.886719 C 62.410156 74.132812 64.5 75.042969 67.679688 75.503906 C 67.144531 75.03125 66.804688 74.5 66.703125 73.921875 " fill-opacity="1" fill-rule="nonzero"/></svg>