<svg xmlns="http://www.w3.org/2000/svg" xmlns:xlink="http://www.w3.org/1999/xlink" width="200" zoomAndPan="magnify" viewBox="0 0 150 149.999998" height="200" preserveAspectRatio="xMidYMid meet" version="1.0"><defs><clipPath id="id1"><path d="M 83 67 L 100 67 L 100 83 L 83 83 Z M 83 67 " clip-rule="nonzero"/></clipPath><clipPath id="id2"><path d="M 83.042969 75.816406 C 83.042969 78.429688 84.292969 80.757812 86.226562 82.222656 L 86.582031 82.222656 C 84.804688 80.800781 83.667969 78.613281 83.667969 76.15625 C 83.667969 71.871094 87.140625 68.398438 91.425781 68.398438 C 95.171875 68.398438 98.300781 71.054688 99.03125 74.585938 C 98.4375 70.730469 95.105469 67.777344 91.085938 67.777344 C 86.640625 67.777344 83.042969 71.375 83.042969 75.816406 " clip-rule="nonzero"/></clipPath></defs><rect x="-15" width="180" fill="#ffffff" y="-15" height="179.999997" fill-opacity="1"/><rect x="-15" width="180" fill="#ffffff" y="-15" height="179.999997" fill-opacity="1"/><g clip-path="url(#id1)"><g clip-path="url(#id2)"><path fill="#545454" d="M 106.253906 75 L 91.035156 59.78125 L 75.820312 75 L 91.035156 90.21875 Z M 106.253906 75 " fill-opacity="1" fill-rule="nonzero"/></g></g><path fill="#545454" d="M 88.714844 80.125 C 88.875 80.140625 89.164062 80.3125 89.292969 80.5 C 89.785156 81.238281 90.289062 81.503906 91.101562 81.261719 C 91.898438 81.023438 92.621094 80.375 93.105469 79.414062 C 93.21875 79.160156 93.53125 79.246094 93.800781 79.539062 C 94.515625 80.324219 95.496094 79.945312 96.125 79.035156 C 96.382812 78.664062 96.3125 78.160156 96.015625 77.894531 C 95.15625 77.121094 94.132812 77.441406 93.675781 78.234375 C 93.429688 78.605469 93.15625 78.355469 93.324219 77.894531 C 93.703125 76.859375 93.777344 76.054688 92.894531 75.515625 C 92.34375 75.175781 92.214844 75.082031 91.671875 74.339844 C 91.320312 73.855469 90.753906 73.820312 90.230469 74.183594 C 89.546875 74.785156 88.738281 75.050781 87.875 75.050781 C 87.5625 75.050781 87.210938 75.042969 86.898438 75.050781 C 86.503906 75.0625 86.351562 75.148438 86.191406 75.386719 C 85.238281 76.796875 85.449219 77.996094 86.542969 78.371094 C 86.988281 78.523438 87.261719 78.625 87.511719 79.164062 C 87.785156 79.78125 88.175781 80.070312 88.714844 80.125 M 91.167969 70.941406 C 90.347656 71.886719 90.546875 72.832031 91.289062 73.285156 C 92.296875 73.894531 93.195312 73.25 93.734375 72.339844 C 94.554688 70.960938 94.226562 70.484375 93.730469 70.246094 C 93.367188 70.074219 92.21875 69.730469 91.167969 70.941406 M 87.222656 71.773438 C 86.570312 72.90625 86.578125 74.054688 87.636719 74.421875 C 88.1875 74.609375 89.257812 74.199219 89.738281 72.953125 C 90.199219 71.757812 89.835938 70.632812 89.152344 70.457031 C 88.253906 70.226562 87.785156 70.789062 87.222656 71.773438 M 93.808594 74.484375 C 94.019531 74.066406 94.597656 72.757812 95.816406 73.042969 C 96.484375 73.195312 96.984375 73.492188 96.304688 74.867188 C 95.761719 75.972656 95.0625 76.5 94.367188 76.335938 C 93.742188 76.191406 93.25 75.582031 93.808594 74.484375 " fill-opacity="1" fill-rule="evenodd"/><path fill="#545454" d="M 54.515625 78.742188 L 55.761719 72.523438 L 58.199219 72.523438 L 58.449219 71.285156 L 51.214844 71.285156 L 50.96875 72.523438 L 53.425781 72.523438 L 52.179688 78.742188 Z M 59.800781 78.742188 L 61.285156 71.285156 L 58.949219 71.285156 L 57.464844 78.742188 Z M 65.507812 77.660156 C 65.40625 77.667969 65.289062 77.679688 65.171875 77.683594 C 64.171875 77.613281 63.535156 76.890625 63.535156 75.84375 C 63.535156 74.289062 64.574219 72.445312 66.261719 72.339844 C 67.707031 72.320312 68.523438 72.796875 68.628906 72.84375 L 68.90625 71.40625 C 68.15625 71.210938 67.371094 71.097656 66.574219 71.097656 L 66.230469 71.097656 C 62.898438 71.097656 61.074219 73.976562 61.074219 76.082031 C 61.074219 77.753906 62.09375 78.929688 64.167969 78.929688 C 64.238281 78.929688 64.308594 78.929688 64.378906 78.925781 C 64.425781 78.929688 64.46875 78.929688 64.511719 78.929688 C 65.617188 78.929688 66.585938 78.796875 67.535156 78.589844 L 68.195312 75.265625 L 65.992188 75.265625 Z M 72.976562 78.742188 L 75.40625 78.742188 L 73.949219 75.339844 C 75.023438 74.875 75.921875 73.90625 75.921875 72.75 C 75.921875 72.058594 75.445312 71.285156 73.972656 71.285156 L 69.890625 71.285156 L 68.40625 78.742188 L 70.617188 78.742188 L 71.847656 72.523438 C 72.035156 72.507812 72.507812 72.53125 72.8125 72.523438 C 73.195312 72.539062 73.585938 72.617188 73.585938 73.089844 C 73.585938 73.792969 72.882812 74.648438 71.882812 74.648438 L 71.613281 74.652344 Z M 75.539062 78.742188 L 77.023438 71.285156 L 82.433594 71.285156 L 82.1875 72.523438 L 79.113281 72.523438 L 78.742188 74.339844 L 81.207031 74.339844 L 80.988281 75.453125 L 78.535156 75.453125 L 78.121094 77.503906 L 81.445312 77.503906 L 81.195312 78.742188 " fill-opacity="1" fill-rule="evenodd"/></svg>