<svg xmlns="http://www.w3.org/2000/svg" xmlns:xlink="http://www.w3.org/1999/xlink" width="200" zoomAndPan="magnify" viewBox="0 0 150 149.999998" height="200" preserveAspectRatio="xMidYMid meet" version="1.0"><defs><clipPath id="id1"><path d="M 45 60.980469 L 105 60.980469 L 105 88.730469 L 45 88.730469 Z M 45 60.980469 " clip-rule="nonzero"/></clipPath></defs><rect x="-15" width="180" fill="#ffffff" y="-15" height="179.999997" fill-opacity="1"/><rect x="-15" width="180" fill="#ffffff" y="-15" height="179.999997" fill-opacity="1"/><g clip-path="url(#id1)"><path fill="#545454" d="M 45 66.152344 L 45 85.722656 L 105 88.726562 L 105 60.980469 Z M 45 66.152344 " fill-opacity="1" fill-rule="nonzero"/></g><path fill="#ffffff" d="M 64.859375 79.113281 C 62.84375 79.113281 61.652344 77.558594 61.652344 75.796875 C 61.652344 74.046875 62.832031 72.503906 64.859375 72.503906 C 66.847656 72.503906 68.039062 74.0625 68.039062 75.796875 C 68.054688 77.558594 66.851562 79.113281 64.859375 79.113281 M 64.859375 70.207031 C 61.273438 70.207031 59.152344 72.878906 59.152344 75.796875 C 59.152344 78.726562 61.273438 81.394531 64.859375 81.394531 C 68.421875 81.394531 70.539062 78.726562 70.539062 75.796875 C 70.542969 72.882812 68.421875 70.207031 64.859375 70.207031 M 59.359375 70.480469 L 52.003906 70.480469 L 52.003906 72.699219 L 54.441406 72.699219 L 54.441406 81.121094 L 56.929688 81.121094 L 56.929688 72.699219 L 59.359375 72.699219 Z M 75.332031 76.132812 L 73.8125 76.132812 L 73.8125 72.578125 L 75.332031 72.578125 C 76.546875 72.578125 77.230469 73.214844 77.230469 74.355469 C 77.21875 75.511719 76.539062 76.132812 75.332031 76.132812 M 79.691406 74.320312 C 79.691406 72.257812 78.160156 70.480469 75.597656 70.480469 L 71.339844 70.480469 L 71.339844 81.121094 L 73.800781 81.121094 L 73.800781 78.179688 L 74.953125 78.179688 L 76.875 81.121094 L 79.691406 81.121094 L 77.429688 77.722656 C 78.753906 77.140625 79.691406 76 79.691406 74.320312 M 91.828125 77.6875 L 93.125 73.191406 L 94.355469 77.6875 Z M 84.433594 76.132812 L 82.910156 76.132812 L 82.910156 72.578125 L 84.433594 72.578125 C 85.648438 72.578125 86.332031 73.214844 86.332031 74.355469 C 86.332031 75.511719 85.652344 76.132812 84.433594 76.132812 M 94.460938 70.480469 L 91.867188 70.480469 L 88.425781 80.578125 L 86.523438 77.726562 C 87.847656 77.128906 88.789062 76.003906 88.789062 74.320312 C 88.789062 72.257812 87.257812 70.480469 84.691406 70.480469 L 80.441406 70.480469 L 80.441406 81.121094 L 82.898438 81.121094 L 82.898438 78.179688 L 84.050781 78.179688 L 85.976562 81.121094 L 90.78125 81.121094 L 91.238281 79.683594 L 94.972656 79.683594 L 95.445312 81.121094 L 98.167969 81.121094 Z M 94.460938 70.480469 " fill-opacity="1" fill-rule="nonzero"/></svg>