<svg xmlns="http://www.w3.org/2000/svg" xmlns:xlink="http://www.w3.org/1999/xlink" width="200" zoomAndPan="magnify" viewBox="0 0 150 149.999998" height="200" preserveAspectRatio="xMidYMid meet" version="1.0"><defs><clipPath id="id1"><path d="M 45 75 L 48 75 L 48 79.285156 L 45 79.285156 Z M 45 75 " clip-rule="nonzero"/></clipPath><clipPath id="id2"><path d="M 48 75 L 52 75 L 52 79.285156 L 48 79.285156 Z M 48 75 " clip-rule="nonzero"/></clipPath><clipPath id="id3"><path d="M 52 75 L 56 75 L 56 79.285156 L 52 79.285156 Z M 52 75 " clip-rule="nonzero"/></clipPath><clipPath id="id4"><path d="M 56.238281 75.457031 L 60 75.457031 L 60 79.285156 L 56.238281 79.285156 Z M 56.238281 75.457031 " clip-rule="nonzero"/></clipPath><clipPath id="id5"><path d="M 61.039062 75.457031 L 63.527344 75.457031 L 63.527344 79.285156 L 61.039062 79.285156 Z M 61.039062 75.457031 " clip-rule="nonzero"/></clipPath><clipPath id="id6"><path d="M 67.988281 75.457031 L 69.960938 75.457031 L 69.960938 79.285156 L 67.988281 79.285156 Z M 67.988281 75.457031 " clip-rule="nonzero"/></clipPath><clipPath id="id7"><path d="M 74 75.546875 L 77.078125 75.546875 L 77.078125 79.285156 L 74 79.285156 Z M 74 75.546875 " clip-rule="nonzero"/></clipPath><clipPath id="id8"><path d="M 78.195312 75.371094 L 81.96875 75.371094 L 81.96875 79.285156 L 78.195312 79.285156 Z M 78.195312 75.371094 " clip-rule="nonzero"/></clipPath><clipPath id="id9"><path d="M 83.253906 75.371094 L 86.429688 75.371094 L 86.429688 79.285156 L 83.253906 79.285156 Z M 83.253906 75.371094 " clip-rule="nonzero"/></clipPath><clipPath id="id10"><path d="M 87.886719 75.457031 L 89.945312 75.457031 L 89.945312 79.285156 L 87.886719 79.285156 Z M 87.886719 75.457031 " clip-rule="nonzero"/></clipPath><clipPath id="id11"><path d="M 90.632812 75.457031 L 93.804688 75.457031 L 93.804688 79.285156 L 90.632812 79.285156 Z M 90.632812 75.457031 " clip-rule="nonzero"/></clipPath><clipPath id="id12"><path d="M 94.492188 74.671875 L 98.351562 74.671875 L 98.351562 79.285156 L 94.492188 79.285156 Z M 94.492188 74.671875 " clip-rule="nonzero"/></clipPath><clipPath id="id13"><path d="M 99.550781 75.457031 L 101.609375 75.457031 L 101.609375 79.285156 L 99.550781 79.285156 Z M 99.550781 75.457031 " clip-rule="nonzero"/></clipPath><clipPath id="id14"><path d="M 102.640625 75.457031 L 105 75.457031 L 105 79.285156 L 102.640625 79.285156 Z M 102.640625 75.457031 " clip-rule="nonzero"/></clipPath><clipPath id="id15"><path d="M 45 62.789062 L 105 62.789062 L 105 63.660156 L 45 63.660156 Z M 45 62.789062 " clip-rule="nonzero"/></clipPath><clipPath id="id16"><path d="M 45 72.835938 L 105 72.835938 L 105 73.710938 L 45 73.710938 Z M 45 72.835938 " clip-rule="nonzero"/></clipPath><clipPath id="id17"><path d="M 45 64.097656 L 105 64.097656 L 105 72.398438 L 45 72.398438 Z M 45 64.097656 " clip-rule="nonzero"/></clipPath></defs><rect x="-15" width="180" fill="#ffffff" y="-15" height="179.999997" fill-opacity="1"/><rect x="-15" width="180" fill="#ffffff" y="-15" height="179.999997" fill-opacity="1"/><g clip-path="url(#id1)"><path fill="#545454" d="M 46.566406 76.144531 L 46.566406 79.195312 L 45.972656 79.195312 L 45.972656 76.144531 L 45 76.144531 L 45 75.65625 L 47.53125 75.65625 L 47.53125 76.144531 " fill-opacity="1" fill-rule="nonzero"/></g><g clip-path="url(#id2)"><path fill="#545454" d="M 48.609375 75.664062 L 49.167969 75.664062 L 49.167969 77.753906 C 49.167969 78.0625 49.238281 78.296875 49.382812 78.453125 C 49.527344 78.609375 49.746094 78.6875 50.03125 78.6875 C 50.320312 78.6875 50.535156 78.609375 50.679688 78.453125 C 50.824219 78.296875 50.898438 78.0625 50.898438 77.753906 L 50.898438 75.664062 L 51.460938 75.664062 L 51.460938 77.804688 C 51.460938 78.269531 51.34375 78.617188 51.105469 78.851562 C 50.867188 79.082031 50.511719 79.195312 50.03125 79.195312 C 49.554688 79.195312 49.199219 79.082031 48.960938 78.851562 C 48.726562 78.621094 48.609375 78.273438 48.609375 77.804688 " fill-opacity="1" fill-rule="nonzero"/></g><g clip-path="url(#id3)"><path fill="#545454" d="M 53.507812 78.714844 L 53.699219 78.714844 C 53.890625 78.714844 54.035156 78.707031 54.128906 78.691406 C 54.226562 78.675781 54.300781 78.648438 54.355469 78.605469 C 54.425781 78.558594 54.476562 78.496094 54.515625 78.417969 C 54.550781 78.339844 54.570312 78.253906 54.570312 78.15625 C 54.570312 78.042969 54.546875 77.945312 54.503906 77.863281 C 54.457031 77.777344 54.394531 77.714844 54.3125 77.667969 C 54.257812 77.640625 54.199219 77.621094 54.132812 77.605469 C 54.066406 77.59375 53.976562 77.585938 53.867188 77.585938 L 53.507812 77.585938 Z M 53.507812 77.152344 L 53.71875 77.152344 C 53.980469 77.152344 54.167969 77.113281 54.273438 77.039062 C 54.382812 76.964844 54.4375 76.839844 54.4375 76.660156 C 54.4375 76.46875 54.386719 76.332031 54.289062 76.253906 C 54.1875 76.175781 54 76.136719 53.71875 76.136719 L 53.507812 76.136719 Z M 52.972656 79.195312 L 52.972656 75.65625 L 53.824219 75.65625 C 54.066406 75.65625 54.246094 75.671875 54.363281 75.699219 C 54.480469 75.726562 54.578125 75.773438 54.660156 75.835938 C 54.765625 75.914062 54.84375 76.019531 54.902344 76.152344 C 54.960938 76.28125 54.988281 76.425781 54.988281 76.582031 C 54.988281 76.773438 54.949219 76.929688 54.867188 77.054688 C 54.78125 77.183594 54.660156 77.269531 54.503906 77.320312 C 54.699219 77.351562 54.855469 77.445312 54.96875 77.601562 C 55.082031 77.757812 55.136719 77.953125 55.136719 78.191406 C 55.136719 78.335938 55.113281 78.472656 55.066406 78.601562 C 55.019531 78.730469 54.949219 78.839844 54.863281 78.929688 C 54.769531 79.027344 54.65625 79.097656 54.519531 79.136719 C 54.382812 79.175781 54.152344 79.195312 53.828125 79.195312 " fill-opacity="1" fill-rule="nonzero"/></g><g clip-path="url(#id4)"><path fill="#545454" d="M 59.386719 77.375 C 59.386719 77.191406 59.355469 77.015625 59.292969 76.847656 C 59.230469 76.683594 59.136719 76.535156 59.019531 76.40625 C 58.902344 76.277344 58.769531 76.179688 58.617188 76.109375 C 58.464844 76.042969 58.304688 76.007812 58.132812 76.007812 C 57.964844 76.007812 57.804688 76.042969 57.652344 76.109375 C 57.5 76.175781 57.363281 76.277344 57.246094 76.40625 C 57.125 76.535156 57.035156 76.679688 56.972656 76.847656 C 56.910156 77.011719 56.878906 77.1875 56.878906 77.375 C 56.878906 77.558594 56.910156 77.730469 56.972656 77.894531 C 57.035156 78.058594 57.125 78.207031 57.246094 78.335938 C 57.363281 78.464844 57.5 78.566406 57.652344 78.632812 C 57.804688 78.699219 57.964844 78.734375 58.132812 78.734375 C 58.300781 78.734375 58.460938 78.699219 58.613281 78.632812 C 58.761719 78.566406 58.898438 78.464844 59.019531 78.335938 C 59.136719 78.207031 59.230469 78.058594 59.292969 77.894531 C 59.355469 77.730469 59.386719 77.554688 59.386719 77.375 M 59.96875 77.375 C 59.96875 77.632812 59.921875 77.878906 59.832031 78.109375 C 59.738281 78.339844 59.605469 78.542969 59.433594 78.722656 C 59.253906 78.90625 59.054688 79.042969 58.832031 79.140625 C 58.609375 79.238281 58.378906 79.285156 58.132812 79.285156 C 57.886719 79.285156 57.652344 79.234375 57.425781 79.140625 C 57.203125 79.042969 57.003906 78.902344 56.832031 78.722656 C 56.65625 78.542969 56.523438 78.339844 56.433594 78.109375 C 56.34375 77.882812 56.296875 77.636719 56.296875 77.375 C 56.296875 77.113281 56.34375 76.867188 56.433594 76.636719 C 56.523438 76.40625 56.65625 76.199219 56.832031 76.019531 C 57.007812 75.835938 57.207031 75.699219 57.429688 75.605469 C 57.648438 75.511719 57.886719 75.460938 58.132812 75.460938 C 58.382812 75.460938 58.617188 75.511719 58.835938 75.605469 C 59.058594 75.699219 59.257812 75.835938 59.433594 76.019531 C 59.605469 76.203125 59.738281 76.410156 59.832031 76.640625 C 59.921875 76.871094 59.96875 77.117188 59.96875 77.375 " fill-opacity="1" fill-rule="nonzero"/></g><g clip-path="url(#id5)"><path fill="#545454" d="M 61.117188 78.472656 L 61.589844 78.257812 C 61.632812 78.417969 61.714844 78.539062 61.835938 78.621094 C 61.953125 78.707031 62.105469 78.75 62.292969 78.75 C 62.464844 78.75 62.605469 78.699219 62.710938 78.605469 C 62.8125 78.507812 62.863281 78.378906 62.863281 78.21875 C 62.863281 78.007812 62.6875 77.820312 62.332031 77.65625 C 62.285156 77.632812 62.246094 77.613281 62.21875 77.601562 C 61.820312 77.410156 61.550781 77.234375 61.417969 77.078125 C 61.285156 76.925781 61.21875 76.734375 61.21875 76.507812 C 61.21875 76.214844 61.320312 75.980469 61.519531 75.800781 C 61.722656 75.617188 61.984375 75.527344 62.3125 75.527344 C 62.578125 75.527344 62.804688 75.578125 62.984375 75.679688 C 63.164062 75.78125 63.289062 75.929688 63.359375 76.121094 L 62.898438 76.355469 C 62.824219 76.242188 62.746094 76.160156 62.65625 76.105469 C 62.570312 76.054688 62.472656 76.027344 62.359375 76.027344 C 62.199219 76.027344 62.074219 76.070312 61.980469 76.152344 C 61.886719 76.234375 61.839844 76.34375 61.839844 76.480469 C 61.839844 76.695312 62.042969 76.894531 62.453125 77.082031 C 62.484375 77.09375 62.511719 77.105469 62.53125 77.113281 C 62.886719 77.277344 63.136719 77.4375 63.269531 77.59375 C 63.402344 77.75 63.46875 77.945312 63.46875 78.175781 C 63.46875 78.515625 63.363281 78.785156 63.144531 78.984375 C 62.929688 79.183594 62.636719 79.285156 62.265625 79.285156 C 61.957031 79.285156 61.703125 79.214844 61.503906 79.074219 C 61.308594 78.933594 61.179688 78.734375 61.117188 78.472656 " fill-opacity="1" fill-rule="nonzero"/></g><g clip-path="url(#id6)"><path fill="#545454" d="M 67.996094 79.285156 L 67.996094 75.527344 L 69.921875 75.527344 L 69.921875 76.046875 L 68.558594 76.046875 L 68.558594 76.988281 L 69.921875 76.988281 L 69.921875 77.523438 L 68.558594 77.523438 L 68.558594 78.738281 L 69.921875 78.738281 L 69.921875 79.285156 " fill-opacity="1" fill-rule="nonzero"/></g><g clip-path="url(#id7)"><path fill="#545454" d="M 76.980469 76.5 C 76.820312 76.363281 76.652344 76.257812 76.476562 76.1875 C 76.296875 76.117188 76.113281 76.082031 75.917969 76.082031 C 75.539062 76.082031 75.230469 76.207031 74.996094 76.457031 C 74.757812 76.703125 74.640625 77.027344 74.640625 77.421875 C 74.640625 77.804688 74.753906 78.117188 74.984375 78.367188 C 75.214844 78.617188 75.507812 78.738281 75.855469 78.738281 C 76.0625 78.738281 76.257812 78.703125 76.441406 78.628906 C 76.625 78.554688 76.804688 78.441406 76.972656 78.292969 L 76.972656 78.941406 C 76.824219 79.054688 76.660156 79.136719 76.480469 79.191406 C 76.304688 79.246094 76.109375 79.273438 75.902344 79.273438 C 75.636719 79.273438 75.394531 79.230469 75.167969 79.140625 C 74.945312 79.050781 74.746094 78.921875 74.578125 78.75 C 74.410156 78.582031 74.28125 78.378906 74.1875 78.152344 C 74.097656 77.921875 74.054688 77.675781 74.054688 77.417969 C 74.054688 77.15625 74.097656 76.914062 74.1875 76.683594 C 74.28125 76.457031 74.410156 76.257812 74.582031 76.082031 C 74.753906 75.910156 74.949219 75.777344 75.171875 75.6875 C 75.394531 75.597656 75.632812 75.554688 75.894531 75.554688 C 76.097656 75.554688 76.289062 75.585938 76.472656 75.644531 C 76.65625 75.707031 76.835938 75.796875 77.007812 75.917969 " fill-opacity="1" fill-rule="nonzero"/></g><g clip-path="url(#id8)"><path fill="#545454" d="M 81.351562 77.363281 C 81.351562 77.179688 81.320312 77.003906 81.257812 76.839844 C 81.195312 76.671875 81.101562 76.523438 80.984375 76.394531 C 80.867188 76.269531 80.734375 76.167969 80.582031 76.101562 C 80.429688 76.03125 80.269531 75.996094 80.101562 75.996094 C 79.929688 75.996094 79.769531 76.03125 79.617188 76.097656 C 79.464844 76.167969 79.328125 76.265625 79.210938 76.394531 C 79.09375 76.523438 79 76.667969 78.9375 76.835938 C 78.875 77 78.84375 77.175781 78.84375 77.363281 C 78.84375 77.546875 78.875 77.722656 78.9375 77.886719 C 79 78.050781 79.09375 78.195312 79.210938 78.328125 C 79.328125 78.457031 79.464844 78.554688 79.617188 78.621094 C 79.769531 78.691406 79.929688 78.722656 80.101562 78.722656 C 80.265625 78.722656 80.425781 78.691406 80.578125 78.621094 C 80.726562 78.554688 80.863281 78.457031 80.984375 78.328125 C 81.101562 78.195312 81.195312 78.050781 81.257812 77.882812 C 81.320312 77.71875 81.351562 77.546875 81.351562 77.363281 M 81.933594 77.363281 C 81.933594 77.621094 81.886719 77.867188 81.796875 78.097656 C 81.707031 78.328125 81.574219 78.535156 81.398438 78.714844 C 81.21875 78.894531 81.019531 79.035156 80.800781 79.128906 C 80.578125 79.226562 80.34375 79.273438 80.101562 79.273438 C 79.851562 79.273438 79.617188 79.226562 79.390625 79.128906 C 79.167969 79.03125 78.96875 78.894531 78.796875 78.714844 C 78.621094 78.535156 78.488281 78.328125 78.398438 78.101562 C 78.308594 77.871094 78.261719 77.625 78.261719 77.363281 C 78.261719 77.101562 78.308594 76.855469 78.398438 76.625 C 78.488281 76.394531 78.621094 76.191406 78.796875 76.007812 C 78.972656 75.828125 79.171875 75.6875 79.394531 75.59375 C 79.617188 75.5 79.851562 75.453125 80.101562 75.453125 C 80.347656 75.453125 80.582031 75.5 80.800781 75.59375 C 81.023438 75.6875 81.222656 75.828125 81.398438 76.007812 C 81.574219 76.191406 81.707031 76.398438 81.796875 76.628906 C 81.886719 76.863281 81.933594 77.105469 81.933594 77.363281 " fill-opacity="1" fill-rule="nonzero"/></g><g clip-path="url(#id9)"><path fill="#545454" d="M 83.316406 79.136719 L 83.316406 75.429688 L 85.515625 77.609375 C 85.574219 77.671875 85.636719 77.738281 85.699219 77.808594 C 85.757812 77.875 85.824219 77.957031 85.890625 78.042969 L 85.890625 75.570312 L 86.414062 75.570312 L 86.414062 79.273438 L 84.167969 77.058594 C 84.109375 76.996094 84.050781 76.933594 83.992188 76.867188 C 83.9375 76.800781 83.886719 76.730469 83.835938 76.65625 L 83.835938 79.136719 " fill-opacity="1" fill-rule="nonzero"/></g><g clip-path="url(#id10)"><path fill="#545454" d="M 87.957031 79.273438 L 87.957031 75.515625 L 89.882812 75.515625 L 89.882812 76.035156 L 88.519531 76.035156 L 88.519531 76.976562 L 89.882812 76.976562 L 89.882812 77.515625 L 88.519531 77.515625 L 88.519531 78.726562 L 89.882812 78.726562 L 89.882812 79.273438 " fill-opacity="1" fill-rule="nonzero"/></g><g clip-path="url(#id11)"><path fill="#545454" d="M 90.703125 79.273438 L 91.921875 77.3125 L 90.84375 75.527344 L 91.488281 75.527344 L 92.027344 76.441406 C 92.058594 76.492188 92.113281 76.589844 92.191406 76.738281 L 92.230469 76.8125 C 92.257812 76.761719 92.289062 76.703125 92.320312 76.644531 C 92.355469 76.585938 92.390625 76.519531 92.433594 76.449219 L 93.007812 75.527344 L 93.636719 75.527344 L 92.535156 77.300781 L 93.722656 79.273438 L 93.042969 79.273438 L 92.414062 78.210938 L 92.402344 78.195312 C 92.335938 78.066406 92.273438 77.945312 92.214844 77.832031 C 92.183594 77.890625 92.152344 77.949219 92.117188 78.011719 C 92.085938 78.074219 92.046875 78.140625 92.007812 78.203125 L 91.351562 79.273438 " fill-opacity="1" fill-rule="nonzero"/></g><g clip-path="url(#id12)"><path fill="#545454" d="M 97.121094 74.675781 C 97.09375 74.835938 97.035156 74.957031 96.953125 75.046875 C 96.871094 75.136719 96.769531 75.179688 96.652344 75.179688 C 96.628906 75.179688 96.609375 75.175781 96.589844 75.175781 C 96.566406 75.171875 96.546875 75.167969 96.523438 75.164062 L 96.226562 75.085938 C 96.199219 75.082031 96.179688 75.078125 96.167969 75.078125 C 96.152344 75.074219 96.144531 75.074219 96.132812 75.074219 C 96.078125 75.074219 96.03125 75.085938 96 75.113281 C 95.96875 75.140625 95.945312 75.179688 95.925781 75.238281 L 95.710938 75.238281 C 95.746094 75.066406 95.800781 74.941406 95.875 74.855469 C 95.953125 74.773438 96.046875 74.730469 96.164062 74.730469 C 96.1875 74.730469 96.214844 74.734375 96.238281 74.738281 C 96.261719 74.742188 96.289062 74.746094 96.3125 74.75 L 96.59375 74.828125 C 96.605469 74.832031 96.621094 74.832031 96.636719 74.835938 C 96.652344 74.835938 96.675781 74.835938 96.707031 74.835938 C 96.757812 74.835938 96.796875 74.824219 96.832031 74.792969 C 96.867188 74.765625 96.890625 74.726562 96.902344 74.675781 Z M 97.699219 77.410156 C 97.699219 77.230469 97.667969 77.0625 97.601562 76.898438 C 97.539062 76.738281 97.445312 76.59375 97.324219 76.46875 C 97.203125 76.34375 97.066406 76.246094 96.910156 76.179688 C 96.753906 76.113281 96.589844 76.078125 96.414062 76.078125 C 96.242188 76.078125 96.078125 76.113281 95.921875 76.179688 C 95.761719 76.246094 95.625 76.339844 95.503906 76.46875 C 95.378906 76.589844 95.289062 76.734375 95.222656 76.898438 C 95.160156 77.058594 95.125 77.230469 95.125 77.410156 C 95.125 77.589844 95.160156 77.761719 95.222656 77.921875 C 95.289062 78.082031 95.378906 78.222656 95.503906 78.351562 C 95.625 78.476562 95.761719 78.574219 95.917969 78.636719 C 96.074219 78.703125 96.238281 78.738281 96.414062 78.738281 C 96.585938 78.738281 96.75 78.703125 96.90625 78.636719 C 97.058594 78.574219 97.199219 78.476562 97.324219 78.351562 C 97.445312 78.222656 97.539062 78.078125 97.601562 77.917969 C 97.667969 77.757812 97.699219 77.589844 97.699219 77.410156 M 98.296875 77.410156 C 98.296875 77.664062 98.25 77.902344 98.15625 78.125 C 98.0625 78.351562 97.925781 78.550781 97.746094 78.726562 C 97.566406 78.90625 97.359375 79.039062 97.132812 79.132812 C 96.90625 79.226562 96.664062 79.273438 96.414062 79.273438 C 96.160156 79.273438 95.917969 79.226562 95.6875 79.132812 C 95.457031 79.039062 95.253906 78.902344 95.078125 78.726562 C 94.898438 78.550781 94.761719 78.351562 94.667969 78.128906 C 94.574219 77.90625 94.53125 77.667969 94.53125 77.410156 C 94.53125 77.15625 94.574219 76.917969 94.667969 76.691406 C 94.761719 76.46875 94.898438 76.265625 95.078125 76.089844 C 95.257812 75.914062 95.460938 75.777344 95.691406 75.6875 C 95.917969 75.59375 96.160156 75.546875 96.414062 75.546875 C 96.667969 75.546875 96.910156 75.59375 97.136719 75.6875 C 97.363281 75.777344 97.566406 75.914062 97.746094 76.089844 C 97.925781 76.269531 98.0625 76.472656 98.15625 76.695312 C 98.25 76.921875 98.296875 77.160156 98.296875 77.410156 " fill-opacity="1" fill-rule="nonzero"/></g><g clip-path="url(#id13)"><path fill="#545454" d="M 99.636719 79.277344 L 99.636719 75.527344 L 101.5625 75.527344 L 101.5625 76.042969 L 100.199219 76.042969 L 100.199219 76.984375 L 101.5625 76.984375 L 101.5625 77.519531 L 100.199219 77.519531 L 100.199219 78.730469 L 101.5625 78.730469 L 101.5625 79.277344 " fill-opacity="1" fill-rule="nonzero"/></g><g clip-path="url(#id14)"><path fill="#545454" d="M 102.707031 78.46875 L 103.164062 78.253906 C 103.207031 78.414062 103.285156 78.535156 103.402344 78.617188 C 103.515625 78.703125 103.664062 78.746094 103.84375 78.746094 C 104.011719 78.746094 104.148438 78.695312 104.246094 78.601562 C 104.347656 78.503906 104.398438 78.375 104.398438 78.214844 C 104.398438 78.003906 104.226562 77.816406 103.882812 77.652344 C 103.835938 77.628906 103.800781 77.609375 103.773438 77.597656 C 103.386719 77.40625 103.128906 77.230469 103 77.074219 C 102.871094 76.917969 102.804688 76.730469 102.804688 76.503906 C 102.804688 76.210938 102.902344 75.976562 103.097656 75.796875 C 103.292969 75.613281 103.546875 75.523438 103.863281 75.523438 C 104.121094 75.523438 104.339844 75.574219 104.511719 75.675781 C 104.6875 75.777344 104.808594 75.925781 104.875 76.117188 L 104.429688 76.351562 C 104.359375 76.238281 104.28125 76.15625 104.199219 76.101562 C 104.113281 76.050781 104.015625 76.023438 103.90625 76.023438 C 103.753906 76.023438 103.632812 76.066406 103.542969 76.148438 C 103.453125 76.230469 103.40625 76.339844 103.40625 76.476562 C 103.40625 76.691406 103.605469 76.890625 104.003906 77.078125 C 104.03125 77.089844 104.054688 77.101562 104.074219 77.109375 C 104.421875 77.273438 104.660156 77.433594 104.789062 77.589844 C 104.917969 77.746094 104.984375 77.9375 104.984375 78.171875 C 104.984375 78.511719 104.878906 78.78125 104.667969 78.980469 C 104.460938 79.179688 104.175781 79.28125 103.820312 79.28125 C 103.519531 79.28125 103.273438 79.210938 103.082031 79.070312 C 102.890625 78.929688 102.765625 78.730469 102.707031 78.46875 " fill-opacity="1" fill-rule="nonzero"/></g><g clip-path="url(#id15)"><path fill="#545454" d="M 45.015625 63.609375 L 105 63.609375 L 105 62.789062 L 45.015625 62.789062 Z M 45.015625 63.609375 " fill-opacity="1" fill-rule="nonzero"/></g><g clip-path="url(#id16)"><path fill="#545454" d="M 45.015625 73.695312 L 105 73.695312 L 105 72.875 L 45.015625 72.875 Z M 45.015625 73.695312 " fill-opacity="1" fill-rule="nonzero"/></g><g clip-path="url(#id17)"><path fill="#545454" d="M 45.015625 72.367188 L 105 72.367188 L 105 64.136719 L 45.015625 64.136719 Z M 45.015625 72.367188 " fill-opacity="1" fill-rule="nonzero"/></g><path fill="#ffffff" d="M 53.941406 69.347656 C 53.378906 69.347656 52.921875 68.824219 52.921875 68.183594 C 52.921875 67.539062 53.378906 67.019531 53.941406 67.019531 C 54.507812 67.019531 54.964844 67.539062 54.964844 68.183594 C 54.964844 68.824219 54.507812 69.347656 53.941406 69.347656 M 53.945312 64.976562 C 52.160156 64.976562 50.714844 66.421875 50.714844 68.207031 C 50.714844 69.992188 52.160156 71.4375 53.945312 71.4375 C 55.734375 71.4375 57.179688 69.992188 57.179688 68.207031 C 57.179688 66.421875 55.734375 64.976562 53.945312 64.976562 " fill-opacity="1" fill-rule="nonzero"/><path fill="#ffffff" d="M 59.46875 68.019531 L 59.46875 66.808594 C 59.46875 66.808594 60.351562 66.703125 60.402344 67.25 C 60.402344 67.25 60.632812 68.113281 59.46875 68.019531 M 61.324219 68.878906 C 62.117188 68.855469 62.414062 67.941406 62.414062 67.941406 C 62.503906 67.644531 62.488281 66.992188 62.488281 66.992188 C 62.261719 65.113281 60.1875 65.285156 60.1875 65.285156 L 57.332031 65.285156 L 57.332031 71.4375 L 59.46875 71.4375 L 59.46875 69.363281 L 60.519531 71.4375 L 62.9375 71.4375 " fill-opacity="1" fill-rule="nonzero"/><path fill="#ffffff" d="M 65.148438 68.019531 L 65.148438 66.808594 C 65.148438 66.808594 66.03125 66.703125 66.085938 67.25 C 66.085938 67.25 66.3125 68.113281 65.148438 68.019531 M 67.003906 68.878906 C 67.796875 68.855469 68.09375 67.941406 68.09375 67.941406 C 68.183594 67.644531 68.167969 66.992188 68.167969 66.992188 C 67.941406 65.113281 65.867188 65.285156 65.867188 65.285156 L 63.011719 65.285156 L 63.011719 71.4375 L 65.148438 71.4375 L 65.148438 69.363281 L 66.199219 71.4375 L 68.617188 71.4375 " fill-opacity="1" fill-rule="nonzero"/><path fill="#ffffff" d="M 78.351562 69.363281 L 78.351562 65.273438 L 76.28125 65.273438 L 76.28125 71.4375 L 79.542969 71.4375 L 79.542969 69.363281 " fill-opacity="1" fill-rule="nonzero"/><path fill="#ffffff" d="M 82.011719 69.117188 L 82.457031 67.070312 L 82.949219 69.117188 Z M 83.507812 71.4375 L 85.824219 71.4375 L 83.675781 65.273438 L 81.332031 65.273438 L 79.492188 70.5625 L 79.492188 71.4375 L 81.5 71.4375 L 81.699219 70.535156 L 83.292969 70.535156 " fill-opacity="1" fill-rule="nonzero"/><path fill="#ffffff" d="M 85.824219 70.832031 L 86.53125 69.09375 C 86.53125 69.09375 87.148438 69.597656 87.75 69.707031 C 87.75 69.707031 88.441406 69.882812 88.460938 69.445312 C 88.460938 69.445312 88.527344 69.113281 87.757812 69.023438 C 87.757812 69.023438 86.484375 68.898438 86.183594 67.714844 C 86.183594 67.714844 86.042969 66.816406 86.445312 66.207031 C 86.445312 66.207031 87.015625 65.113281 88.574219 65.113281 C 88.574219 65.113281 89.964844 65.203125 90.589844 65.691406 L 89.957031 67.253906 C 89.957031 67.253906 89.285156 66.84375 88.871094 66.804688 C 88.871094 66.804688 88.402344 66.695312 88.300781 67.042969 C 88.300781 67.042969 88.195312 67.382812 88.871094 67.449219 C 88.871094 67.449219 89.890625 67.5625 90.339844 68.144531 C 90.339844 68.144531 90.804688 68.625 90.703125 69.550781 C 90.703125 69.550781 90.695312 70.53125 89.6875 71.105469 C 89.6875 71.105469 89.101562 71.546875 88.019531 71.507812 C 88.019531 71.507812 86.515625 71.46875 85.824219 70.832031 " fill-opacity="1" fill-rule="nonzero"/><path fill="#ffffff" d="M 95.1875 65.269531 L 90.71875 65.269531 L 90.71875 67.238281 L 91.886719 67.238281 L 91.886719 71.507812 L 94.023438 71.507812 L 94.023438 67.238281 L 95.1875 67.238281 " fill-opacity="1" fill-rule="nonzero"/><path fill="#ffffff" d="M 95.507812 71.507812 L 97.707031 71.507812 L 97.707031 65.269531 L 95.507812 65.269531 Z M 95.507812 71.507812 " fill-opacity="1" fill-rule="nonzero"/><path fill="#ffffff" d="M 104.207031 71.507812 L 101.988281 68.25 L 103.832031 65.269531 L 101.464844 65.269531 L 100.195312 67.714844 L 100.195312 65.269531 L 98.035156 65.269531 L 98.035156 71.507812 L 100.195312 71.507812 L 100.195312 68.933594 L 101.578125 71.507812 " fill-opacity="1" fill-rule="nonzero"/><path fill="#ffffff" d="M 49.222656 69.546875 C 48.644531 69.546875 48.078125 69.148438 48.078125 68.347656 C 48.078125 67.53125 48.667969 67.152344 49.234375 67.121094 C 49.742188 67.09375 50.253906 67.429688 50.425781 67.628906 L 50.433594 65.597656 L 50.433594 65.5 C 50.371094 65.445312 50.109375 65.316406 50.109375 65.316406 C 49.902344 65.207031 49.625 65.109375 48.96875 65.113281 C 47.246094 65.125 45.859375 66.382812 45.859375 68.359375 C 45.859375 70.296875 47.132812 71.527344 48.851562 71.527344 C 49.84375 71.527344 50.152344 71.34375 50.472656 71.152344 L 50.476562 68.945312 C 50.09375 69.363281 49.546875 69.546875 49.222656 69.546875 " fill-opacity="1" fill-rule="nonzero"/><path fill="#ffffff" d="M 73.078125 66.929688 L 73.082031 67.945312 L 73.632812 67.945312 C 73.925781 67.945312 74.003906 67.769531 74.003906 67.410156 C 74.003906 67.019531 73.746094 66.929688 73.453125 66.929688 Z M 73.039062 69.492188 L 73.050781 71.4375 L 70.9375 71.4375 L 70.9375 65.28125 L 73.578125 65.28125 C 74.757812 65.28125 76.046875 65.640625 76.082031 67.375 C 76.121094 69.347656 74.828125 69.507812 73.640625 69.507812 " fill-opacity="1" fill-rule="nonzero"/></svg>