<svg xmlns="http://www.w3.org/2000/svg" xmlns:xlink="http://www.w3.org/1999/xlink" width="200" zoomAndPan="magnify" viewBox="0 0 150 149.999998" height="200" preserveAspectRatio="xMidYMid meet" version="1.0"><defs><clipPath id="id1"><path d="M 54 88 L 105 88 L 105 98.941406 L 54 98.941406 Z M 54 88 " clip-rule="nonzero"/></clipPath><clipPath id="id2"><path d="M 45 89 L 54 89 L 54 98.941406 L 45 98.941406 Z M 45 89 " clip-rule="nonzero"/></clipPath><clipPath id="id3"><path d="M 68 50.941406 L 99 50.941406 L 99 83 L 68 83 Z M 68 50.941406 " clip-rule="nonzero"/></clipPath></defs><rect x="-15" width="180" fill="#ffffff" y="-15" height="179.999997" fill-opacity="1"/><rect x="-15" width="180" fill="#ffffff" y="-15" height="179.999997" fill-opacity="1"/><g clip-path="url(#id1)"><path fill="#545454" d="M 57.21875 95.476562 C 56.4375 95.476562 55.871094 95.867188 55.871094 96.617188 C 55.871094 97.316406 56.363281 97.804688 57.105469 97.804688 C 57.601562 97.804688 58.09375 97.53125 58.402344 97.140625 L 58.402344 96.144531 C 58.402344 95.808594 57.96875 95.476562 57.21875 95.476562 M 74.023438 95.339844 C 74.058594 96.652344 74.898438 97.605469 76.34375 97.605469 C 77.222656 97.605469 77.890625 97.128906 78.125 96.832031 C 78.234375 96.914062 78.347656 97.039062 78.347656 97.332031 C 78.347656 97.984375 77.554688 98.886719 75.714844 98.886719 C 73.863281 98.886719 72.355469 97.414062 72.355469 95.488281 C 72.355469 93.371094 73.75 91.855469 75.816406 91.855469 C 77.691406 91.855469 78.554688 93.230469 78.554688 94.40625 C 78.554688 94.75 78.480469 95.070312 78.332031 95.339844 Z M 76.640625 94.488281 C 76.9375 94.488281 76.949219 94.316406 76.949219 94.085938 C 76.9375 93.394531 76.394531 92.753906 75.566406 92.753906 C 74.492188 92.753906 74.074219 93.652344 74.035156 94.488281 Z M 94.066406 95.214844 C 94.066406 96.820312 94.289062 97.640625 95.328125 97.640625 C 96.460938 97.640625 96.769531 96.628906 96.769531 95.710938 L 96.769531 93.960938 C 96.769531 93.359375 96.484375 93.125 95.832031 93.195312 C 95.558594 92.519531 96.460938 92.085938 96.96875 91.988281 C 97.128906 91.964844 97.277344 91.941406 97.414062 91.941406 C 98.128906 91.941406 98.402344 92.386719 98.402344 93.050781 C 98.402344 93.292969 98.378906 93.738281 98.378906 95.582031 C 98.378906 96.363281 98.367188 96.773438 98.367188 96.902344 C 98.367188 97.507812 98.648438 97.816406 99.300781 97.746094 C 99.570312 98.425781 98.675781 98.746094 98.164062 98.839844 C 98.007812 98.863281 97.863281 98.886719 97.746094 98.886719 C 97.066406 98.886719 96.929688 98.449219 96.792969 97.820312 C 96.699219 97.9375 96.609375 98.035156 96.425781 98.210938 C 95.980469 98.625 95.398438 98.875 94.746094 98.875 C 94.027344 98.875 93.421875 98.601562 93.039062 98.152344 C 92.449219 97.449219 92.449219 96.546875 92.449219 95.226562 L 92.449219 93.960938 C 92.449219 93.359375 92.164062 93.125 91.507812 93.195312 C 91.238281 92.519531 92.140625 92.089844 92.644531 91.988281 C 92.804688 91.964844 92.953125 91.941406 93.089844 91.941406 C 93.804688 91.941406 94.078125 92.386719 94.078125 93.050781 Z M 90.941406 95.351562 C 90.941406 93.269531 89.496094 91.851562 87.496094 91.851562 C 85.644531 91.851562 84 93.269531 84 95.351562 C 84 97.460938 85.542969 98.875 87.433594 98.875 C 89.433594 98.875 90.941406 97.4375 90.941406 95.351562 M 59.945312 97.1875 C 59.945312 97.71875 60.292969 97.890625 60.898438 97.972656 C 60.859375 98.589844 60.425781 98.828125 59.921875 98.875 C 59.351562 98.921875 58.796875 98.660156 58.574219 98.070312 C 58.316406 98.304688 57.550781 98.898438 56.550781 98.898438 C 55.179688 98.898438 54.152344 97.984375 54.152344 96.734375 C 54.152344 95.417969 55.300781 94.636719 56.921875 94.636719 C 57.476562 94.636719 58.054688 94.75 58.402344 94.929688 L 58.402344 94.046875 C 58.402344 93.253906 58.054688 92.753906 57.15625 92.753906 C 56.96875 92.753906 56.5625 92.800781 56.242188 92.925781 C 56.277344 93.050781 56.304688 93.183594 56.304688 93.304688 C 56.304688 93.789062 55.996094 94.179688 55.476562 94.179688 C 55.019531 94.179688 54.671875 93.8125 54.671875 93.34375 C 54.671875 92.480469 55.761719 91.851562 57.265625 91.851562 C 58.464844 91.851562 59.195312 92.136719 59.578125 92.628906 C 59.921875 93.0625 59.945312 93.726562 59.945312 94.6875 Z M 89.175781 95.453125 C 89.175781 97.054688 88.484375 97.925781 87.507812 97.925781 C 86.644531 97.925781 85.804688 97.054688 85.804688 95.15625 C 85.804688 93.675781 86.421875 92.753906 87.433594 92.753906 C 88.433594 92.753906 89.175781 93.777344 89.175781 95.453125 M 64.835938 93.023438 C 64.875 93.445312 65.230469 93.738281 65.652344 93.738281 C 66.183594 93.738281 66.503906 93.269531 66.503906 92.8125 C 66.503906 92.171875 65.984375 91.839844 65.464844 91.839844 C 64.875 91.839844 64.242188 92.285156 63.886719 92.949219 L 63.859375 92.960938 C 63.75 92.371094 63.464844 91.925781 62.871094 91.925781 C 62.738281 91.925781 62.589844 91.953125 62.429688 92 C 61.933594 92.148438 61.207031 92.527344 61.476562 93.207031 C 62.167969 93.074219 62.414062 93.304688 62.414062 93.90625 L 62.414062 96.773438 C 62.414062 97.339844 62.34375 97.578125 62.144531 97.746094 C 61.957031 97.886719 61.761719 97.945312 61.636719 97.972656 C 61.355469 98.589844 61.910156 98.78125 63.28125 98.78125 C 64.652344 98.78125 65.121094 98.589844 64.835938 97.972656 C 64.714844 97.945312 64.367188 97.886719 64.183594 97.746094 C 63.984375 97.578125 63.898438 97.339844 63.898438 96.773438 L 63.898438 95.042969 C 63.898438 93.503906 64.464844 93.097656 64.835938 93.023438 M 81.828125 92.023438 L 83.59375 92.023438 C 83.804688 92.53125 83.519531 92.9375 83.125 92.972656 C 83 92.988281 82.867188 92.988281 82.742188 92.988281 C 82.421875 92.988281 82.101562 92.960938 81.878906 92.960938 L 81.878906 96.773438 C 81.878906 97.339844 81.976562 97.578125 82.175781 97.746094 C 82.359375 97.886719 82.792969 97.945312 82.914062 97.972656 C 83.199219 98.589844 82.53125 98.78125 81.160156 98.78125 C 79.792969 98.78125 79.222656 98.589844 79.507812 97.972656 C 79.628906 97.945312 79.828125 97.886719 80.011719 97.746094 C 80.210938 97.578125 80.285156 97.339844 80.285156 96.773438 L 80.285156 92.933594 L 79.246094 92.898438 C 79.039062 92.394531 79.320312 92.039062 79.742188 92.039062 L 80.261719 92.039062 L 80.261719 91.542969 C 80.261719 90.546875 80.445312 89.992188 80.691406 89.621094 C 81.074219 89.03125 81.730469 88.625 82.753906 88.625 C 84.050781 88.625 85.101562 89.226562 85.101562 90.140625 C 85.101562 90.535156 84.828125 91.015625 84.261719 91.015625 C 83.839844 91.015625 83.445312 90.65625 83.445312 90.214844 C 83.445312 90.027344 83.519531 89.832031 83.617188 89.707031 C 83.472656 89.535156 83.164062 89.449219 82.867188 89.449219 C 82.011719 89.449219 81.828125 90.078125 81.828125 90.867188 Z M 70.453125 93.023438 C 70.492188 93.445312 70.851562 93.738281 71.269531 93.738281 C 71.800781 93.738281 72.121094 93.269531 72.121094 92.8125 C 72.121094 92.171875 71.601562 91.839844 71.085938 91.839844 C 70.492188 91.839844 69.863281 92.285156 69.503906 92.949219 L 69.480469 92.960938 C 69.367188 92.371094 69.085938 91.925781 68.492188 91.925781 C 68.355469 91.925781 68.207031 91.953125 68.046875 92 C 67.554688 92.148438 66.824219 92.527344 67.097656 93.207031 C 67.789062 93.074219 68.035156 93.304688 68.035156 93.90625 L 68.035156 96.773438 C 68.035156 97.339844 67.960938 97.578125 67.761719 97.746094 C 67.578125 97.886719 67.378906 97.945312 67.257812 97.972656 C 66.972656 98.589844 67.53125 98.78125 68.898438 98.78125 C 70.269531 98.78125 70.738281 98.589844 70.457031 97.972656 C 70.332031 97.945312 69.988281 97.886719 69.800781 97.746094 C 69.605469 97.578125 69.515625 97.339844 69.515625 96.773438 L 69.515625 95.042969 C 69.515625 93.503906 70.085938 93.097656 70.453125 93.023438 M 103.320312 93.023438 C 103.363281 93.445312 103.722656 93.738281 104.144531 93.738281 C 104.667969 93.738281 104.992188 93.269531 104.992188 92.8125 C 104.992188 92.171875 104.480469 91.839844 103.953125 91.839844 C 103.363281 91.839844 102.738281 92.285156 102.382812 92.949219 L 102.347656 92.960938 C 102.238281 92.371094 101.953125 91.925781 101.371094 91.925781 C 101.226562 91.925781 101.085938 91.953125 100.914062 92 C 100.429688 92.148438 99.703125 92.527344 99.96875 93.207031 C 100.660156 93.074219 100.902344 93.304688 100.902344 93.90625 L 100.902344 96.773438 C 100.902344 97.339844 100.832031 97.578125 100.628906 97.746094 C 100.453125 97.886719 100.246094 97.945312 100.128906 97.972656 C 99.84375 98.585938 100.402344 98.78125 101.773438 98.78125 C 103.144531 98.78125 103.609375 98.589844 103.320312 97.972656 C 103.203125 97.945312 102.859375 97.886719 102.664062 97.746094 C 102.476562 97.578125 102.394531 97.339844 102.394531 96.773438 L 102.394531 95.042969 C 102.394531 93.503906 102.953125 93.097656 103.320312 93.023438 " fill-opacity="1" fill-rule="nonzero"/></g><g clip-path="url(#id2)"><path fill="#545454" d="M 45.007812 93.988281 C 45.007812 97.097656 47.15625 98.941406 49.492188 98.941406 C 51.589844 98.941406 53.058594 97.46875 53.058594 96.242188 C 53.058594 95.589844 52.652344 95.113281 52.121094 95.113281 C 51.578125 95.113281 51.121094 95.480469 51.121094 96.113281 C 51.121094 96.515625 51.34375 96.742188 51.503906 96.921875 C 51.21875 97.46875 50.613281 97.917969 49.675781 97.917969 C 48.121094 97.917969 46.996094 96.300781 46.996094 93.976562 C 46.996094 91.648438 48.070312 90.023438 49.628906 90.023438 C 50.566406 90.023438 51.171875 90.480469 51.457031 91.023438 C 51.292969 91.207031 51.074219 91.429688 51.074219 91.835938 C 51.074219 92.464844 51.53125 92.832031 52.074219 92.832031 C 52.605469 92.832031 53.011719 92.351562 53.011719 91.699219 C 53.011719 90.480469 51.542969 89 49.441406 89 C 47.109375 89 45.007812 91.023438 45.007812 93.988281 " fill-opacity="1" fill-rule="nonzero"/></g><path fill="#545454" d="M 65.234375 52.011719 L 52.132812 64.65625 C 51.480469 65.210938 51.0625 65.859375 51.0625 66.792969 C 51.0625 67.71875 51.480469 68.371094 52.132812 68.929688 L 65.234375 81.570312 C 65.320312 81.65625 65.402344 81.691406 65.46875 81.691406 C 65.59375 81.691406 65.679688 81.578125 65.675781 81.445312 C 65.671875 81.371094 65.636719 81.28125 65.5625 81.203125 C 62.484375 77.390625 60.246094 73.019531 60.246094 66.839844 C 60.246094 60.652344 62.484375 56.195312 65.5625 52.382812 C 65.636719 52.304688 65.671875 52.21875 65.675781 52.136719 C 65.679688 52.003906 65.59375 51.894531 65.46875 51.894531 C 65.402344 51.890625 65.320312 51.925781 65.234375 52.011719 " fill-opacity="1" fill-rule="nonzero"/><g clip-path="url(#id3)"><path fill="#545454" d="M 75.308594 50.941406 C 70.179688 50.941406 68.175781 58.191406 68.175781 66.835938 C 68.175781 75.484375 70.179688 82.640625 75.308594 82.640625 C 78.386719 82.640625 81.011719 80.84375 81.019531 79.363281 C 81.023438 79.039062 80.898438 78.730469 80.625 78.460938 C 79.164062 77.054688 78.59375 75.648438 78.589844 74.40625 C 78.582031 72.039062 80.640625 70.277344 82.539062 70.277344 C 85.148438 70.277344 86.6875 72.320312 86.6875 74.972656 C 86.6875 77.480469 85.613281 79.574219 84.449219 81.25 C 84.402344 81.316406 84.382812 81.394531 84.382812 81.460938 C 84.382812 81.589844 84.460938 81.699219 84.574219 81.699219 C 84.644531 81.699219 84.730469 81.660156 84.820312 81.570312 L 97.925781 68.929688 C 98.578125 68.371094 98.996094 67.71875 98.996094 66.792969 C 98.996094 65.859375 98.578125 65.210938 97.925781 64.65625 L 84.820312 52.011719 C 84.730469 51.921875 84.648438 51.882812 84.574219 51.882812 C 84.457031 51.882812 84.382812 51.992188 84.382812 52.125 C 84.382812 52.191406 84.402344 52.265625 84.449219 52.335938 C 85.613281 54.007812 86.6875 56.101562 86.6875 58.609375 C 86.6875 61.257812 85.148438 63.304688 82.539062 63.304688 C 80.640625 63.304688 78.582031 61.542969 78.589844 59.175781 C 78.59375 57.933594 79.164062 56.527344 80.625 55.125 C 80.898438 54.851562 81.023438 54.542969 81.019531 54.21875 C 81.011719 52.738281 78.386719 50.941406 75.308594 50.941406 " fill-opacity="1" fill-rule="nonzero"/></g></svg>