<svg xmlns="http://www.w3.org/2000/svg" xmlns:xlink="http://www.w3.org/1999/xlink" width="200" zoomAndPan="magnify" viewBox="0 0 150 149.999998" height="200" preserveAspectRatio="xMidYMid meet" version="1.0"><defs><clipPath id="id1"><path d="M 77 60 L 89 60 L 89 71 L 77 71 Z M 77 60 " clip-rule="nonzero"/></clipPath><clipPath id="id2"><path d="M 83.09375 70.824219 L 87.730469 65.652344 C 88.492188 64.800781 88.945312 63.707031 88.652344 62.566406 C 88.425781 61.691406 87.785156 60.925781 86.9375 60.59375 C 85.707031 60.117188 84.589844 60.71875 83.800781 61.675781 L 83.09375 62.535156 L 82.382812 61.675781 C 81.59375 60.71875 80.476562 60.117188 79.246094 60.59375 C 78.398438 60.925781 77.757812 61.691406 77.53125 62.566406 C 77.238281 63.707031 77.691406 64.800781 78.453125 65.652344 Z M 83.09375 70.824219 " clip-rule="nonzero"/></clipPath><linearGradient x1="494.504" gradientTransform="matrix(0.219749, 0, 0, 0.202146, -31.225273, 10.506136)" y1="245.418168" x2="494.504" gradientUnits="userSpaceOnUse" y2="298.380378" id="id3"><stop stop-opacity="1" stop-color="rgb(32.899475%, 32.899475%, 32.899475%)" offset="0"/><stop stop-opacity="1" stop-color="rgb(32.861328%, 32.861328%, 32.861328%)" offset="0.03125"/><stop stop-opacity="1" stop-color="rgb(32.69043%, 32.69043%, 32.69043%)" offset="0.0390625"/><stop stop-opacity="1" stop-color="rgb(32.426453%, 32.426453%, 32.426453%)" offset="0.046875"/><stop stop-opacity="1" stop-color="rgb(32.16095%, 32.16095%, 32.16095%)" offset="0.0546875"/><stop stop-opacity="1" stop-color="rgb(31.896973%, 31.896973%, 31.896973%)" offset="0.0625"/><stop stop-opacity="1" stop-color="rgb(31.63147%, 31.63147%, 31.63147%)" offset="0.0703125"/><stop stop-opacity="1" stop-color="rgb(31.367493%, 31.367493%, 31.367493%)" offset="0.078125"/><stop stop-opacity="1" stop-color="rgb(31.10199%, 31.10199%, 31.10199%)" offset="0.0859375"/><stop stop-opacity="1" stop-color="rgb(30.838013%, 30.838013%, 30.838013%)" offset="0.09375"/><stop stop-opacity="1" stop-color="rgb(30.57251%, 30.57251%, 30.57251%)" offset="0.101562"/><stop stop-opacity="1" stop-color="rgb(30.308533%, 30.308533%, 30.308533%)" offset="0.109375"/><stop stop-opacity="1" stop-color="rgb(30.04303%, 30.04303%, 30.04303%)" offset="0.117187"/><stop stop-opacity="1" stop-color="rgb(29.779053%, 29.779053%, 29.779053%)" offset="0.125"/><stop stop-opacity="1" stop-color="rgb(29.51355%, 29.51355%, 29.51355%)" offset="0.132812"/><stop stop-opacity="1" stop-color="rgb(29.249573%, 29.249573%, 29.249573%)" offset="0.140625"/><stop stop-opacity="1" stop-color="rgb(28.98407%, 28.98407%, 28.98407%)" offset="0.148437"/><stop stop-opacity="1" stop-color="rgb(28.720093%, 28.720093%, 28.720093%)" offset="0.15625"/><stop stop-opacity="1" stop-color="rgb(28.45459%, 28.45459%, 28.45459%)" offset="0.164062"/><stop stop-opacity="1" stop-color="rgb(28.190613%, 28.190613%, 28.190613%)" offset="0.171875"/><stop stop-opacity="1" stop-color="rgb(27.926636%, 27.926636%, 27.926636%)" offset="0.179687"/><stop stop-opacity="1" stop-color="rgb(27.661133%, 27.661133%, 27.661133%)" offset="0.1875"/><stop stop-opacity="1" stop-color="rgb(27.397156%, 27.397156%, 27.397156%)" offset="0.195312"/><stop stop-opacity="1" stop-color="rgb(27.131653%, 27.131653%, 27.131653%)" offset="0.203125"/><stop stop-opacity="1" stop-color="rgb(26.867676%, 26.867676%, 26.867676%)" offset="0.210937"/><stop stop-opacity="1" stop-color="rgb(26.602173%, 26.602173%, 26.602173%)" offset="0.21875"/><stop stop-opacity="1" stop-color="rgb(26.338196%, 26.338196%, 26.338196%)" offset="0.226562"/><stop stop-opacity="1" stop-color="rgb(26.072693%, 26.072693%, 26.072693%)" offset="0.234375"/><stop stop-opacity="1" stop-color="rgb(25.808716%, 25.808716%, 25.808716%)" offset="0.242187"/><stop stop-opacity="1" stop-color="rgb(25.543213%, 25.543213%, 25.543213%)" offset="0.25"/><stop stop-opacity="1" stop-color="rgb(25.279236%, 25.279236%, 25.279236%)" offset="0.257812"/><stop stop-opacity="1" stop-color="rgb(25.013733%, 25.013733%, 25.013733%)" offset="0.265625"/><stop stop-opacity="1" stop-color="rgb(24.749756%, 24.749756%, 24.749756%)" offset="0.273438"/><stop stop-opacity="1" stop-color="rgb(24.484253%, 24.484253%, 24.484253%)" offset="0.28125"/><stop stop-opacity="1" stop-color="rgb(24.220276%, 24.220276%, 24.220276%)" offset="0.289062"/><stop stop-opacity="1" stop-color="rgb(23.954773%, 23.954773%, 23.954773%)" offset="0.296875"/><stop stop-opacity="1" stop-color="rgb(23.690796%, 23.690796%, 23.690796%)" offset="0.304688"/><stop stop-opacity="1" stop-color="rgb(23.425293%, 23.425293%, 23.425293%)" offset="0.3125"/><stop stop-opacity="1" stop-color="rgb(23.161316%, 23.161316%, 23.161316%)" offset="0.320312"/><stop stop-opacity="1" stop-color="rgb(22.895813%, 22.895813%, 22.895813%)" offset="0.328125"/><stop stop-opacity="1" stop-color="rgb(22.631836%, 22.631836%, 22.631836%)" offset="0.335937"/><stop stop-opacity="1" stop-color="rgb(22.366333%, 22.366333%, 22.366333%)" offset="0.34375"/><stop stop-opacity="1" stop-color="rgb(22.102356%, 22.102356%, 22.102356%)" offset="0.351562"/><stop stop-opacity="1" stop-color="rgb(21.836853%, 21.836853%, 21.836853%)" offset="0.359375"/><stop stop-opacity="1" stop-color="rgb(21.572876%, 21.572876%, 21.572876%)" offset="0.367187"/><stop stop-opacity="1" stop-color="rgb(21.307373%, 21.307373%, 21.307373%)" offset="0.375"/><stop stop-opacity="1" stop-color="rgb(21.043396%, 21.043396%, 21.043396%)" offset="0.382812"/><stop stop-opacity="1" stop-color="rgb(20.777893%, 20.777893%, 20.777893%)" offset="0.390625"/><stop stop-opacity="1" stop-color="rgb(20.513916%, 20.513916%, 20.513916%)" offset="0.398437"/><stop stop-opacity="1" stop-color="rgb(20.248413%, 20.248413%, 20.248413%)" offset="0.40625"/><stop stop-opacity="1" stop-color="rgb(19.984436%, 19.984436%, 19.984436%)" offset="0.414062"/><stop stop-opacity="1" stop-color="rgb(19.718933%, 19.718933%, 19.718933%)" offset="0.421875"/><stop stop-opacity="1" stop-color="rgb(19.454956%, 19.454956%, 19.454956%)" offset="0.429688"/><stop stop-opacity="1" stop-color="rgb(19.189453%, 19.189453%, 19.189453%)" offset="0.4375"/><stop stop-opacity="1" stop-color="rgb(18.925476%, 18.925476%, 18.925476%)" offset="0.445312"/><stop stop-opacity="1" stop-color="rgb(18.659973%, 18.659973%, 18.659973%)" offset="0.453125"/><stop stop-opacity="1" stop-color="rgb(18.395996%, 18.395996%, 18.395996%)" offset="0.460937"/><stop stop-opacity="1" stop-color="rgb(18.132019%, 18.132019%, 18.132019%)" offset="0.46875"/><stop stop-opacity="1" stop-color="rgb(17.866516%, 17.866516%, 17.866516%)" offset="0.476562"/><stop stop-opacity="1" stop-color="rgb(17.602539%, 17.602539%, 17.602539%)" offset="0.484375"/><stop stop-opacity="1" stop-color="rgb(17.337036%, 17.337036%, 17.337036%)" offset="0.492187"/><stop stop-opacity="1" stop-color="rgb(17.073059%, 17.073059%, 17.073059%)" offset="0.5"/><stop stop-opacity="1" stop-color="rgb(16.807556%, 16.807556%, 16.807556%)" offset="0.507812"/><stop stop-opacity="1" stop-color="rgb(16.543579%, 16.543579%, 16.543579%)" offset="0.515625"/><stop stop-opacity="1" stop-color="rgb(16.278076%, 16.278076%, 16.278076%)" offset="0.523437"/><stop stop-opacity="1" stop-color="rgb(16.014099%, 16.014099%, 16.014099%)" offset="0.53125"/><stop stop-opacity="1" stop-color="rgb(15.748596%, 15.748596%, 15.748596%)" offset="0.539062"/><stop stop-opacity="1" stop-color="rgb(15.484619%, 15.484619%, 15.484619%)" offset="0.546875"/><stop stop-opacity="1" stop-color="rgb(15.219116%, 15.219116%, 15.219116%)" offset="0.554688"/><stop stop-opacity="1" stop-color="rgb(14.955139%, 14.955139%, 14.955139%)" offset="0.5625"/><stop stop-opacity="1" stop-color="rgb(14.689636%, 14.689636%, 14.689636%)" offset="0.570312"/><stop stop-opacity="1" stop-color="rgb(14.425659%, 14.425659%, 14.425659%)" offset="0.578125"/><stop stop-opacity="1" stop-color="rgb(14.160156%, 14.160156%, 14.160156%)" offset="0.585938"/><stop stop-opacity="1" stop-color="rgb(13.896179%, 13.896179%, 13.896179%)" offset="0.59375"/><stop stop-opacity="1" stop-color="rgb(13.630676%, 13.630676%, 13.630676%)" offset="0.601562"/><stop stop-opacity="1" stop-color="rgb(13.366699%, 13.366699%, 13.366699%)" offset="0.609375"/><stop stop-opacity="1" stop-color="rgb(13.101196%, 13.101196%, 13.101196%)" offset="0.617187"/><stop stop-opacity="1" stop-color="rgb(12.837219%, 12.837219%, 12.837219%)" offset="0.625"/><stop stop-opacity="1" stop-color="rgb(12.571716%, 12.571716%, 12.571716%)" offset="0.632812"/><stop stop-opacity="1" stop-color="rgb(12.307739%, 12.307739%, 12.307739%)" offset="0.640625"/><stop stop-opacity="1" stop-color="rgb(12.042236%, 12.042236%, 12.042236%)" offset="0.648437"/><stop stop-opacity="1" stop-color="rgb(11.778259%, 11.778259%, 11.778259%)" offset="0.65625"/><stop stop-opacity="1" stop-color="rgb(11.512756%, 11.512756%, 11.512756%)" offset="0.664062"/><stop stop-opacity="1" stop-color="rgb(11.248779%, 11.248779%, 11.248779%)" offset="0.671875"/><stop stop-opacity="1" stop-color="rgb(10.983276%, 10.983276%, 10.983276%)" offset="0.679687"/><stop stop-opacity="1" stop-color="rgb(10.719299%, 10.719299%, 10.719299%)" offset="0.6875"/><stop stop-opacity="1" stop-color="rgb(10.453796%, 10.453796%, 10.453796%)" offset="0.695312"/><stop stop-opacity="1" stop-color="rgb(10.189819%, 10.189819%, 10.189819%)" offset="0.703125"/><stop stop-opacity="1" stop-color="rgb(9.924316%, 9.924316%, 9.924316%)" offset="0.710938"/><stop stop-opacity="1" stop-color="rgb(9.660339%, 9.660339%, 9.660339%)" offset="0.71875"/><stop stop-opacity="1" stop-color="rgb(9.394836%, 9.394836%, 9.394836%)" offset="0.726562"/><stop stop-opacity="1" stop-color="rgb(9.130859%, 9.130859%, 9.130859%)" offset="0.734375"/><stop stop-opacity="1" stop-color="rgb(8.865356%, 8.865356%, 8.865356%)" offset="0.742187"/><stop stop-opacity="1" stop-color="rgb(8.601379%, 8.601379%, 8.601379%)" offset="0.75"/><stop stop-opacity="1" stop-color="rgb(8.335876%, 8.335876%, 8.335876%)" offset="0.757812"/><stop stop-opacity="1" stop-color="rgb(8.071899%, 8.071899%, 8.071899%)" offset="0.765625"/><stop stop-opacity="1" stop-color="rgb(7.807922%, 7.807922%, 7.807922%)" offset="0.773437"/><stop stop-opacity="1" stop-color="rgb(7.542419%, 7.542419%, 7.542419%)" offset="0.78125"/><stop stop-opacity="1" stop-color="rgb(7.278442%, 7.278442%, 7.278442%)" offset="0.789062"/><stop stop-opacity="1" stop-color="rgb(7.012939%, 7.012939%, 7.012939%)" offset="0.796875"/><stop stop-opacity="1" stop-color="rgb(6.748962%, 6.748962%, 6.748962%)" offset="0.804687"/><stop stop-opacity="1" stop-color="rgb(6.483459%, 6.483459%, 6.483459%)" offset="0.8125"/><stop stop-opacity="1" stop-color="rgb(6.219482%, 6.219482%, 6.219482%)" offset="0.820312"/><stop stop-opacity="1" stop-color="rgb(5.953979%, 5.953979%, 5.953979%)" offset="0.828125"/><stop stop-opacity="1" stop-color="rgb(5.690002%, 5.690002%, 5.690002%)" offset="0.835937"/><stop stop-opacity="1" stop-color="rgb(5.4245%, 5.4245%, 5.4245%)" offset="0.84375"/><stop stop-opacity="1" stop-color="rgb(5.160522%, 5.160522%, 5.160522%)" offset="0.851562"/><stop stop-opacity="1" stop-color="rgb(4.89502%, 4.89502%, 4.89502%)" offset="0.859375"/><stop stop-opacity="1" stop-color="rgb(4.631042%, 4.631042%, 4.631042%)" offset="0.867187"/><stop stop-opacity="1" stop-color="rgb(4.36554%, 4.36554%, 4.36554%)" offset="0.875"/><stop stop-opacity="1" stop-color="rgb(4.101562%, 4.101562%, 4.101562%)" offset="0.882812"/><stop stop-opacity="1" stop-color="rgb(3.83606%, 3.83606%, 3.83606%)" offset="0.890625"/><stop stop-opacity="1" stop-color="rgb(3.572083%, 3.572083%, 3.572083%)" offset="0.898437"/><stop stop-opacity="1" stop-color="rgb(3.30658%, 3.30658%, 3.30658%)" offset="0.90625"/><stop stop-opacity="1" stop-color="rgb(3.042603%, 3.042603%, 3.042603%)" offset="0.914062"/><stop stop-opacity="1" stop-color="rgb(2.7771%, 2.7771%, 2.7771%)" offset="0.921875"/><stop stop-opacity="1" stop-color="rgb(2.513123%, 2.513123%, 2.513123%)" offset="0.929687"/><stop stop-opacity="1" stop-color="rgb(2.24762%, 2.24762%, 2.24762%)" offset="0.9375"/><stop stop-opacity="1" stop-color="rgb(1.983643%, 1.983643%, 1.983643%)" offset="0.945312"/><stop stop-opacity="1" stop-color="rgb(1.71814%, 1.71814%, 1.71814%)" offset="0.953125"/><stop stop-opacity="1" stop-color="rgb(1.454163%, 1.454163%, 1.454163%)" offset="0.960938"/><stop stop-opacity="1" stop-color="rgb(1.18866%, 1.18866%, 1.18866%)" offset="0.96875"/><stop stop-opacity="1" stop-color="rgb(0.924683%, 0.924683%, 0.924683%)" offset="0.976562"/><stop stop-opacity="1" stop-color="rgb(0.65918%, 0.65918%, 0.65918%)" offset="0.984375"/><stop stop-opacity="1" stop-color="rgb(0.395203%, 0.395203%, 0.395203%)" offset="0.992187"/><stop stop-opacity="1" stop-color="rgb(0.131226%, 0.131226%, 0.131226%)" offset="1"/></linearGradient><clipPath id="id4"><path d="M 60 60 L 73 60 L 73 71 L 60 71 Z M 60 60 " clip-rule="nonzero"/></clipPath><clipPath id="id5"><path d="M 66.535156 70.824219 L 71.171875 65.652344 C 71.933594 64.800781 72.386719 63.707031 72.09375 62.566406 C 71.871094 61.691406 71.226562 60.925781 70.378906 60.59375 C 69.152344 60.117188 68.03125 60.71875 67.242188 61.675781 L 66.535156 62.535156 L 65.824219 61.675781 C 65.035156 60.71875 63.917969 60.117188 62.6875 60.59375 C 61.839844 60.925781 61.199219 61.691406 60.972656 62.566406 C 60.679688 63.707031 61.132812 64.800781 61.898438 65.652344 Z M 66.535156 70.824219 " clip-rule="nonzero"/></clipPath><linearGradient x1="419.15601" gradientTransform="matrix(0.219749, 0, 0, 0.202146, -31.225273, 10.506136)" y1="245.418168" x2="419.15601" gradientUnits="userSpaceOnUse" y2="298.380378" id="id6"><stop stop-opacity="1" stop-color="rgb(32.899475%, 32.899475%, 32.899475%)" offset="0"/><stop stop-opacity="1" stop-color="rgb(32.861328%, 32.861328%, 32.861328%)" offset="0.03125"/><stop stop-opacity="1" stop-color="rgb(32.69043%, 32.69043%, 32.69043%)" offset="0.0390625"/><stop stop-opacity="1" stop-color="rgb(32.426453%, 32.426453%, 32.426453%)" offset="0.046875"/><stop stop-opacity="1" stop-color="rgb(32.16095%, 32.16095%, 32.16095%)" offset="0.0546875"/><stop stop-opacity="1" stop-color="rgb(31.896973%, 31.896973%, 31.896973%)" offset="0.0625"/><stop stop-opacity="1" stop-color="rgb(31.63147%, 31.63147%, 31.63147%)" offset="0.0703125"/><stop stop-opacity="1" stop-color="rgb(31.367493%, 31.367493%, 31.367493%)" offset="0.078125"/><stop stop-opacity="1" stop-color="rgb(31.10199%, 31.10199%, 31.10199%)" offset="0.0859375"/><stop stop-opacity="1" stop-color="rgb(30.838013%, 30.838013%, 30.838013%)" offset="0.09375"/><stop stop-opacity="1" stop-color="rgb(30.57251%, 30.57251%, 30.57251%)" offset="0.101562"/><stop stop-opacity="1" stop-color="rgb(30.308533%, 30.308533%, 30.308533%)" offset="0.109375"/><stop stop-opacity="1" stop-color="rgb(30.04303%, 30.04303%, 30.04303%)" offset="0.117187"/><stop stop-opacity="1" stop-color="rgb(29.779053%, 29.779053%, 29.779053%)" offset="0.125"/><stop stop-opacity="1" stop-color="rgb(29.51355%, 29.51355%, 29.51355%)" offset="0.132812"/><stop stop-opacity="1" stop-color="rgb(29.249573%, 29.249573%, 29.249573%)" offset="0.140625"/><stop stop-opacity="1" stop-color="rgb(28.98407%, 28.98407%, 28.98407%)" offset="0.148437"/><stop stop-opacity="1" stop-color="rgb(28.720093%, 28.720093%, 28.720093%)" offset="0.15625"/><stop stop-opacity="1" stop-color="rgb(28.45459%, 28.45459%, 28.45459%)" offset="0.164062"/><stop stop-opacity="1" stop-color="rgb(28.190613%, 28.190613%, 28.190613%)" offset="0.171875"/><stop stop-opacity="1" stop-color="rgb(27.926636%, 27.926636%, 27.926636%)" offset="0.179687"/><stop stop-opacity="1" stop-color="rgb(27.661133%, 27.661133%, 27.661133%)" offset="0.1875"/><stop stop-opacity="1" stop-color="rgb(27.397156%, 27.397156%, 27.397156%)" offset="0.195312"/><stop stop-opacity="1" stop-color="rgb(27.131653%, 27.131653%, 27.131653%)" offset="0.203125"/><stop stop-opacity="1" stop-color="rgb(26.867676%, 26.867676%, 26.867676%)" offset="0.210937"/><stop stop-opacity="1" stop-color="rgb(26.602173%, 26.602173%, 26.602173%)" offset="0.21875"/><stop stop-opacity="1" stop-color="rgb(26.338196%, 26.338196%, 26.338196%)" offset="0.226562"/><stop stop-opacity="1" stop-color="rgb(26.072693%, 26.072693%, 26.072693%)" offset="0.234375"/><stop stop-opacity="1" stop-color="rgb(25.808716%, 25.808716%, 25.808716%)" offset="0.242187"/><stop stop-opacity="1" stop-color="rgb(25.543213%, 25.543213%, 25.543213%)" offset="0.25"/><stop stop-opacity="1" stop-color="rgb(25.279236%, 25.279236%, 25.279236%)" offset="0.257812"/><stop stop-opacity="1" stop-color="rgb(25.013733%, 25.013733%, 25.013733%)" offset="0.265625"/><stop stop-opacity="1" stop-color="rgb(24.749756%, 24.749756%, 24.749756%)" offset="0.273438"/><stop stop-opacity="1" stop-color="rgb(24.484253%, 24.484253%, 24.484253%)" offset="0.28125"/><stop stop-opacity="1" stop-color="rgb(24.220276%, 24.220276%, 24.220276%)" offset="0.289062"/><stop stop-opacity="1" stop-color="rgb(23.954773%, 23.954773%, 23.954773%)" offset="0.296875"/><stop stop-opacity="1" stop-color="rgb(23.690796%, 23.690796%, 23.690796%)" offset="0.304688"/><stop stop-opacity="1" stop-color="rgb(23.425293%, 23.425293%, 23.425293%)" offset="0.3125"/><stop stop-opacity="1" stop-color="rgb(23.161316%, 23.161316%, 23.161316%)" offset="0.320312"/><stop stop-opacity="1" stop-color="rgb(22.895813%, 22.895813%, 22.895813%)" offset="0.328125"/><stop stop-opacity="1" stop-color="rgb(22.631836%, 22.631836%, 22.631836%)" offset="0.335937"/><stop stop-opacity="1" stop-color="rgb(22.366333%, 22.366333%, 22.366333%)" offset="0.34375"/><stop stop-opacity="1" stop-color="rgb(22.102356%, 22.102356%, 22.102356%)" offset="0.351562"/><stop stop-opacity="1" stop-color="rgb(21.836853%, 21.836853%, 21.836853%)" offset="0.359375"/><stop stop-opacity="1" stop-color="rgb(21.572876%, 21.572876%, 21.572876%)" offset="0.367187"/><stop stop-opacity="1" stop-color="rgb(21.307373%, 21.307373%, 21.307373%)" offset="0.375"/><stop stop-opacity="1" stop-color="rgb(21.043396%, 21.043396%, 21.043396%)" offset="0.382812"/><stop stop-opacity="1" stop-color="rgb(20.777893%, 20.777893%, 20.777893%)" offset="0.390625"/><stop stop-opacity="1" stop-color="rgb(20.513916%, 20.513916%, 20.513916%)" offset="0.398437"/><stop stop-opacity="1" stop-color="rgb(20.248413%, 20.248413%, 20.248413%)" offset="0.40625"/><stop stop-opacity="1" stop-color="rgb(19.984436%, 19.984436%, 19.984436%)" offset="0.414062"/><stop stop-opacity="1" stop-color="rgb(19.718933%, 19.718933%, 19.718933%)" offset="0.421875"/><stop stop-opacity="1" stop-color="rgb(19.454956%, 19.454956%, 19.454956%)" offset="0.429688"/><stop stop-opacity="1" stop-color="rgb(19.189453%, 19.189453%, 19.189453%)" offset="0.4375"/><stop stop-opacity="1" stop-color="rgb(18.925476%, 18.925476%, 18.925476%)" offset="0.445312"/><stop stop-opacity="1" stop-color="rgb(18.659973%, 18.659973%, 18.659973%)" offset="0.453125"/><stop stop-opacity="1" stop-color="rgb(18.395996%, 18.395996%, 18.395996%)" offset="0.460937"/><stop stop-opacity="1" stop-color="rgb(18.132019%, 18.132019%, 18.132019%)" offset="0.46875"/><stop stop-opacity="1" stop-color="rgb(17.866516%, 17.866516%, 17.866516%)" offset="0.476562"/><stop stop-opacity="1" stop-color="rgb(17.602539%, 17.602539%, 17.602539%)" offset="0.484375"/><stop stop-opacity="1" stop-color="rgb(17.337036%, 17.337036%, 17.337036%)" offset="0.492187"/><stop stop-opacity="1" stop-color="rgb(17.073059%, 17.073059%, 17.073059%)" offset="0.5"/><stop stop-opacity="1" stop-color="rgb(16.807556%, 16.807556%, 16.807556%)" offset="0.507812"/><stop stop-opacity="1" stop-color="rgb(16.543579%, 16.543579%, 16.543579%)" offset="0.515625"/><stop stop-opacity="1" stop-color="rgb(16.278076%, 16.278076%, 16.278076%)" offset="0.523437"/><stop stop-opacity="1" stop-color="rgb(16.014099%, 16.014099%, 16.014099%)" offset="0.53125"/><stop stop-opacity="1" stop-color="rgb(15.748596%, 15.748596%, 15.748596%)" offset="0.539062"/><stop stop-opacity="1" stop-color="rgb(15.484619%, 15.484619%, 15.484619%)" offset="0.546875"/><stop stop-opacity="1" stop-color="rgb(15.219116%, 15.219116%, 15.219116%)" offset="0.554688"/><stop stop-opacity="1" stop-color="rgb(14.955139%, 14.955139%, 14.955139%)" offset="0.5625"/><stop stop-opacity="1" stop-color="rgb(14.689636%, 14.689636%, 14.689636%)" offset="0.570312"/><stop stop-opacity="1" stop-color="rgb(14.425659%, 14.425659%, 14.425659%)" offset="0.578125"/><stop stop-opacity="1" stop-color="rgb(14.160156%, 14.160156%, 14.160156%)" offset="0.585938"/><stop stop-opacity="1" stop-color="rgb(13.896179%, 13.896179%, 13.896179%)" offset="0.59375"/><stop stop-opacity="1" stop-color="rgb(13.630676%, 13.630676%, 13.630676%)" offset="0.601562"/><stop stop-opacity="1" stop-color="rgb(13.366699%, 13.366699%, 13.366699%)" offset="0.609375"/><stop stop-opacity="1" stop-color="rgb(13.101196%, 13.101196%, 13.101196%)" offset="0.617187"/><stop stop-opacity="1" stop-color="rgb(12.837219%, 12.837219%, 12.837219%)" offset="0.625"/><stop stop-opacity="1" stop-color="rgb(12.571716%, 12.571716%, 12.571716%)" offset="0.632812"/><stop stop-opacity="1" stop-color="rgb(12.307739%, 12.307739%, 12.307739%)" offset="0.640625"/><stop stop-opacity="1" stop-color="rgb(12.042236%, 12.042236%, 12.042236%)" offset="0.648437"/><stop stop-opacity="1" stop-color="rgb(11.778259%, 11.778259%, 11.778259%)" offset="0.65625"/><stop stop-opacity="1" stop-color="rgb(11.512756%, 11.512756%, 11.512756%)" offset="0.664062"/><stop stop-opacity="1" stop-color="rgb(11.248779%, 11.248779%, 11.248779%)" offset="0.671875"/><stop stop-opacity="1" stop-color="rgb(10.983276%, 10.983276%, 10.983276%)" offset="0.679687"/><stop stop-opacity="1" stop-color="rgb(10.719299%, 10.719299%, 10.719299%)" offset="0.6875"/><stop stop-opacity="1" stop-color="rgb(10.453796%, 10.453796%, 10.453796%)" offset="0.695312"/><stop stop-opacity="1" stop-color="rgb(10.189819%, 10.189819%, 10.189819%)" offset="0.703125"/><stop stop-opacity="1" stop-color="rgb(9.924316%, 9.924316%, 9.924316%)" offset="0.710938"/><stop stop-opacity="1" stop-color="rgb(9.660339%, 9.660339%, 9.660339%)" offset="0.71875"/><stop stop-opacity="1" stop-color="rgb(9.394836%, 9.394836%, 9.394836%)" offset="0.726562"/><stop stop-opacity="1" stop-color="rgb(9.130859%, 9.130859%, 9.130859%)" offset="0.734375"/><stop stop-opacity="1" stop-color="rgb(8.865356%, 8.865356%, 8.865356%)" offset="0.742187"/><stop stop-opacity="1" stop-color="rgb(8.601379%, 8.601379%, 8.601379%)" offset="0.75"/><stop stop-opacity="1" stop-color="rgb(8.335876%, 8.335876%, 8.335876%)" offset="0.757812"/><stop stop-opacity="1" stop-color="rgb(8.071899%, 8.071899%, 8.071899%)" offset="0.765625"/><stop stop-opacity="1" stop-color="rgb(7.807922%, 7.807922%, 7.807922%)" offset="0.773437"/><stop stop-opacity="1" stop-color="rgb(7.542419%, 7.542419%, 7.542419%)" offset="0.78125"/><stop stop-opacity="1" stop-color="rgb(7.278442%, 7.278442%, 7.278442%)" offset="0.789062"/><stop stop-opacity="1" stop-color="rgb(7.012939%, 7.012939%, 7.012939%)" offset="0.796875"/><stop stop-opacity="1" stop-color="rgb(6.748962%, 6.748962%, 6.748962%)" offset="0.804687"/><stop stop-opacity="1" stop-color="rgb(6.483459%, 6.483459%, 6.483459%)" offset="0.8125"/><stop stop-opacity="1" stop-color="rgb(6.219482%, 6.219482%, 6.219482%)" offset="0.820312"/><stop stop-opacity="1" stop-color="rgb(5.953979%, 5.953979%, 5.953979%)" offset="0.828125"/><stop stop-opacity="1" stop-color="rgb(5.690002%, 5.690002%, 5.690002%)" offset="0.835937"/><stop stop-opacity="1" stop-color="rgb(5.4245%, 5.4245%, 5.4245%)" offset="0.84375"/><stop stop-opacity="1" stop-color="rgb(5.160522%, 5.160522%, 5.160522%)" offset="0.851562"/><stop stop-opacity="1" stop-color="rgb(4.89502%, 4.89502%, 4.89502%)" offset="0.859375"/><stop stop-opacity="1" stop-color="rgb(4.631042%, 4.631042%, 4.631042%)" offset="0.867187"/><stop stop-opacity="1" stop-color="rgb(4.36554%, 4.36554%, 4.36554%)" offset="0.875"/><stop stop-opacity="1" stop-color="rgb(4.101562%, 4.101562%, 4.101562%)" offset="0.882812"/><stop stop-opacity="1" stop-color="rgb(3.83606%, 3.83606%, 3.83606%)" offset="0.890625"/><stop stop-opacity="1" stop-color="rgb(3.572083%, 3.572083%, 3.572083%)" offset="0.898437"/><stop stop-opacity="1" stop-color="rgb(3.30658%, 3.30658%, 3.30658%)" offset="0.90625"/><stop stop-opacity="1" stop-color="rgb(3.042603%, 3.042603%, 3.042603%)" offset="0.914062"/><stop stop-opacity="1" stop-color="rgb(2.7771%, 2.7771%, 2.7771%)" offset="0.921875"/><stop stop-opacity="1" stop-color="rgb(2.513123%, 2.513123%, 2.513123%)" offset="0.929687"/><stop stop-opacity="1" stop-color="rgb(2.24762%, 2.24762%, 2.24762%)" offset="0.9375"/><stop stop-opacity="1" stop-color="rgb(1.983643%, 1.983643%, 1.983643%)" offset="0.945312"/><stop stop-opacity="1" stop-color="rgb(1.71814%, 1.71814%, 1.71814%)" offset="0.953125"/><stop stop-opacity="1" stop-color="rgb(1.454163%, 1.454163%, 1.454163%)" offset="0.960938"/><stop stop-opacity="1" stop-color="rgb(1.18866%, 1.18866%, 1.18866%)" offset="0.96875"/><stop stop-opacity="1" stop-color="rgb(0.924683%, 0.924683%, 0.924683%)" offset="0.976562"/><stop stop-opacity="1" stop-color="rgb(0.65918%, 0.65918%, 0.65918%)" offset="0.984375"/><stop stop-opacity="1" stop-color="rgb(0.395203%, 0.395203%, 0.395203%)" offset="0.992187"/><stop stop-opacity="1" stop-color="rgb(0.131226%, 0.131226%, 0.131226%)" offset="1"/></linearGradient><clipPath id="id7"><path d="M 69 72 L 81 72 L 81 84 L 69 84 Z M 69 72 " clip-rule="nonzero"/></clipPath><clipPath id="id8"><path d="M 74.8125 83.105469 L 79.449219 77.9375 C 80.214844 77.085938 80.667969 75.992188 80.371094 74.851562 C 80.148438 73.976562 79.507812 73.210938 78.660156 72.878906 C 77.429688 72.402344 76.3125 73.003906 75.523438 73.960938 L 74.8125 74.820312 L 74.101562 73.960938 C 73.3125 73.003906 72.195312 72.402344 70.964844 72.878906 C 70.121094 73.210938 69.476562 73.976562 69.253906 74.851562 C 68.960938 75.992188 69.414062 77.085938 70.175781 77.9375 Z M 74.8125 83.105469 " clip-rule="nonzero"/></clipPath><linearGradient x1="456.82901" gradientTransform="matrix(0.219749, 0, 0, 0.202146, -31.225273, 10.506136)" y1="306.190003" x2="456.82901" gradientUnits="userSpaceOnUse" y2="359.152129" id="id9"><stop stop-opacity="1" stop-color="rgb(32.899475%, 32.899475%, 32.899475%)" offset="0"/><stop stop-opacity="1" stop-color="rgb(32.861328%, 32.861328%, 32.861328%)" offset="0.03125"/><stop stop-opacity="1" stop-color="rgb(32.69043%, 32.69043%, 32.69043%)" offset="0.0390625"/><stop stop-opacity="1" stop-color="rgb(32.426453%, 32.426453%, 32.426453%)" offset="0.046875"/><stop stop-opacity="1" stop-color="rgb(32.16095%, 32.16095%, 32.16095%)" offset="0.0546875"/><stop stop-opacity="1" stop-color="rgb(31.896973%, 31.896973%, 31.896973%)" offset="0.0625"/><stop stop-opacity="1" stop-color="rgb(31.63147%, 31.63147%, 31.63147%)" offset="0.0703125"/><stop stop-opacity="1" stop-color="rgb(31.367493%, 31.367493%, 31.367493%)" offset="0.078125"/><stop stop-opacity="1" stop-color="rgb(31.10199%, 31.10199%, 31.10199%)" offset="0.0859375"/><stop stop-opacity="1" stop-color="rgb(30.838013%, 30.838013%, 30.838013%)" offset="0.09375"/><stop stop-opacity="1" stop-color="rgb(30.57251%, 30.57251%, 30.57251%)" offset="0.101562"/><stop stop-opacity="1" stop-color="rgb(30.308533%, 30.308533%, 30.308533%)" offset="0.109375"/><stop stop-opacity="1" stop-color="rgb(30.04303%, 30.04303%, 30.04303%)" offset="0.117188"/><stop stop-opacity="1" stop-color="rgb(29.779053%, 29.779053%, 29.779053%)" offset="0.125"/><stop stop-opacity="1" stop-color="rgb(29.51355%, 29.51355%, 29.51355%)" offset="0.132812"/><stop stop-opacity="1" stop-color="rgb(29.249573%, 29.249573%, 29.249573%)" offset="0.140625"/><stop stop-opacity="1" stop-color="rgb(28.985596%, 28.985596%, 28.985596%)" offset="0.148438"/><stop stop-opacity="1" stop-color="rgb(28.720093%, 28.720093%, 28.720093%)" offset="0.15625"/><stop stop-opacity="1" stop-color="rgb(28.456116%, 28.456116%, 28.456116%)" offset="0.164063"/><stop stop-opacity="1" stop-color="rgb(28.190613%, 28.190613%, 28.190613%)" offset="0.171875"/><stop stop-opacity="1" stop-color="rgb(27.926636%, 27.926636%, 27.926636%)" offset="0.179688"/><stop stop-opacity="1" stop-color="rgb(27.661133%, 27.661133%, 27.661133%)" offset="0.1875"/><stop stop-opacity="1" stop-color="rgb(27.397156%, 27.397156%, 27.397156%)" offset="0.195312"/><stop stop-opacity="1" stop-color="rgb(27.131653%, 27.131653%, 27.131653%)" offset="0.203125"/><stop stop-opacity="1" stop-color="rgb(26.867676%, 26.867676%, 26.867676%)" offset="0.210938"/><stop stop-opacity="1" stop-color="rgb(26.602173%, 26.602173%, 26.602173%)" offset="0.21875"/><stop stop-opacity="1" stop-color="rgb(26.338196%, 26.338196%, 26.338196%)" offset="0.226562"/><stop stop-opacity="1" stop-color="rgb(26.072693%, 26.072693%, 26.072693%)" offset="0.234375"/><stop stop-opacity="1" stop-color="rgb(25.808716%, 25.808716%, 25.808716%)" offset="0.242187"/><stop stop-opacity="1" stop-color="rgb(25.543213%, 25.543213%, 25.543213%)" offset="0.25"/><stop stop-opacity="1" stop-color="rgb(25.279236%, 25.279236%, 25.279236%)" offset="0.257813"/><stop stop-opacity="1" stop-color="rgb(25.013733%, 25.013733%, 25.013733%)" offset="0.265625"/><stop stop-opacity="1" stop-color="rgb(24.749756%, 24.749756%, 24.749756%)" offset="0.273438"/><stop stop-opacity="1" stop-color="rgb(24.484253%, 24.484253%, 24.484253%)" offset="0.28125"/><stop stop-opacity="1" stop-color="rgb(24.220276%, 24.220276%, 24.220276%)" offset="0.289063"/><stop stop-opacity="1" stop-color="rgb(23.954773%, 23.954773%, 23.954773%)" offset="0.296875"/><stop stop-opacity="1" stop-color="rgb(23.690796%, 23.690796%, 23.690796%)" offset="0.304688"/><stop stop-opacity="1" stop-color="rgb(23.425293%, 23.425293%, 23.425293%)" offset="0.3125"/><stop stop-opacity="1" stop-color="rgb(23.161316%, 23.161316%, 23.161316%)" offset="0.320313"/><stop stop-opacity="1" stop-color="rgb(22.895813%, 22.895813%, 22.895813%)" offset="0.328125"/><stop stop-opacity="1" stop-color="rgb(22.631836%, 22.631836%, 22.631836%)" offset="0.335938"/><stop stop-opacity="1" stop-color="rgb(22.366333%, 22.366333%, 22.366333%)" offset="0.34375"/><stop stop-opacity="1" stop-color="rgb(22.102356%, 22.102356%, 22.102356%)" offset="0.351563"/><stop stop-opacity="1" stop-color="rgb(21.836853%, 21.836853%, 21.836853%)" offset="0.359375"/><stop stop-opacity="1" stop-color="rgb(21.572876%, 21.572876%, 21.572876%)" offset="0.367188"/><stop stop-opacity="1" stop-color="rgb(21.307373%, 21.307373%, 21.307373%)" offset="0.375"/><stop stop-opacity="1" stop-color="rgb(21.043396%, 21.043396%, 21.043396%)" offset="0.382812"/><stop stop-opacity="1" stop-color="rgb(20.777893%, 20.777893%, 20.777893%)" offset="0.390625"/><stop stop-opacity="1" stop-color="rgb(20.513916%, 20.513916%, 20.513916%)" offset="0.398438"/><stop stop-opacity="1" stop-color="rgb(20.248413%, 20.248413%, 20.248413%)" offset="0.40625"/><stop stop-opacity="1" stop-color="rgb(19.984436%, 19.984436%, 19.984436%)" offset="0.414062"/><stop stop-opacity="1" stop-color="rgb(19.720459%, 19.720459%, 19.720459%)" offset="0.421875"/><stop stop-opacity="1" stop-color="rgb(19.454956%, 19.454956%, 19.454956%)" offset="0.429688"/><stop stop-opacity="1" stop-color="rgb(19.190979%, 19.190979%, 19.190979%)" offset="0.4375"/><stop stop-opacity="1" stop-color="rgb(18.925476%, 18.925476%, 18.925476%)" offset="0.445313"/><stop stop-opacity="1" stop-color="rgb(18.661499%, 18.661499%, 18.661499%)" offset="0.453125"/><stop stop-opacity="1" stop-color="rgb(18.395996%, 18.395996%, 18.395996%)" offset="0.460938"/><stop stop-opacity="1" stop-color="rgb(18.132019%, 18.132019%, 18.132019%)" offset="0.46875"/><stop stop-opacity="1" stop-color="rgb(17.866516%, 17.866516%, 17.866516%)" offset="0.476563"/><stop stop-opacity="1" stop-color="rgb(17.602539%, 17.602539%, 17.602539%)" offset="0.484375"/><stop stop-opacity="1" stop-color="rgb(17.337036%, 17.337036%, 17.337036%)" offset="0.492188"/><stop stop-opacity="1" stop-color="rgb(17.073059%, 17.073059%, 17.073059%)" offset="0.5"/><stop stop-opacity="1" stop-color="rgb(16.807556%, 16.807556%, 16.807556%)" offset="0.507813"/><stop stop-opacity="1" stop-color="rgb(16.543579%, 16.543579%, 16.543579%)" offset="0.515625"/><stop stop-opacity="1" stop-color="rgb(16.278076%, 16.278076%, 16.278076%)" offset="0.523438"/><stop stop-opacity="1" stop-color="rgb(16.014099%, 16.014099%, 16.014099%)" offset="0.53125"/><stop stop-opacity="1" stop-color="rgb(15.748596%, 15.748596%, 15.748596%)" offset="0.539063"/><stop stop-opacity="1" stop-color="rgb(15.484619%, 15.484619%, 15.484619%)" offset="0.546875"/><stop stop-opacity="1" stop-color="rgb(15.219116%, 15.219116%, 15.219116%)" offset="0.554688"/><stop stop-opacity="1" stop-color="rgb(14.955139%, 14.955139%, 14.955139%)" offset="0.5625"/><stop stop-opacity="1" stop-color="rgb(14.689636%, 14.689636%, 14.689636%)" offset="0.570313"/><stop stop-opacity="1" stop-color="rgb(14.425659%, 14.425659%, 14.425659%)" offset="0.578125"/><stop stop-opacity="1" stop-color="rgb(14.160156%, 14.160156%, 14.160156%)" offset="0.585938"/><stop stop-opacity="1" stop-color="rgb(13.896179%, 13.896179%, 13.896179%)" offset="0.59375"/><stop stop-opacity="1" stop-color="rgb(13.630676%, 13.630676%, 13.630676%)" offset="0.601562"/><stop stop-opacity="1" stop-color="rgb(13.366699%, 13.366699%, 13.366699%)" offset="0.609375"/><stop stop-opacity="1" stop-color="rgb(13.101196%, 13.101196%, 13.101196%)" offset="0.617188"/><stop stop-opacity="1" stop-color="rgb(12.837219%, 12.837219%, 12.837219%)" offset="0.625"/><stop stop-opacity="1" stop-color="rgb(12.571716%, 12.571716%, 12.571716%)" offset="0.632812"/><stop stop-opacity="1" stop-color="rgb(12.307739%, 12.307739%, 12.307739%)" offset="0.640625"/><stop stop-opacity="1" stop-color="rgb(12.042236%, 12.042236%, 12.042236%)" offset="0.648438"/><stop stop-opacity="1" stop-color="rgb(11.778259%, 11.778259%, 11.778259%)" offset="0.65625"/><stop stop-opacity="1" stop-color="rgb(11.512756%, 11.512756%, 11.512756%)" offset="0.664062"/><stop stop-opacity="1" stop-color="rgb(11.248779%, 11.248779%, 11.248779%)" offset="0.671875"/><stop stop-opacity="1" stop-color="rgb(10.983276%, 10.983276%, 10.983276%)" offset="0.679688"/><stop stop-opacity="1" stop-color="rgb(10.719299%, 10.719299%, 10.719299%)" offset="0.6875"/><stop stop-opacity="1" stop-color="rgb(10.453796%, 10.453796%, 10.453796%)" offset="0.695312"/><stop stop-opacity="1" stop-color="rgb(10.189819%, 10.189819%, 10.189819%)" offset="0.703125"/><stop stop-opacity="1" stop-color="rgb(9.925842%, 9.925842%, 9.925842%)" offset="0.710938"/><stop stop-opacity="1" stop-color="rgb(9.660339%, 9.660339%, 9.660339%)" offset="0.71875"/><stop stop-opacity="1" stop-color="rgb(9.396362%, 9.396362%, 9.396362%)" offset="0.726562"/><stop stop-opacity="1" stop-color="rgb(9.130859%, 9.130859%, 9.130859%)" offset="0.734375"/><stop stop-opacity="1" stop-color="rgb(8.866882%, 8.866882%, 8.866882%)" offset="0.742188"/><stop stop-opacity="1" stop-color="rgb(8.601379%, 8.601379%, 8.601379%)" offset="0.75"/><stop stop-opacity="1" stop-color="rgb(8.337402%, 8.337402%, 8.337402%)" offset="0.757812"/><stop stop-opacity="1" stop-color="rgb(8.071899%, 8.071899%, 8.071899%)" offset="0.765625"/><stop stop-opacity="1" stop-color="rgb(7.807922%, 7.807922%, 7.807922%)" offset="0.773437"/><stop stop-opacity="1" stop-color="rgb(7.542419%, 7.542419%, 7.542419%)" offset="0.78125"/><stop stop-opacity="1" stop-color="rgb(7.278442%, 7.278442%, 7.278442%)" offset="0.789062"/><stop stop-opacity="1" stop-color="rgb(7.012939%, 7.012939%, 7.012939%)" offset="0.796875"/><stop stop-opacity="1" stop-color="rgb(6.748962%, 6.748962%, 6.748962%)" offset="0.804687"/><stop stop-opacity="1" stop-color="rgb(6.483459%, 6.483459%, 6.483459%)" offset="0.8125"/><stop stop-opacity="1" stop-color="rgb(6.219482%, 6.219482%, 6.219482%)" offset="0.820312"/><stop stop-opacity="1" stop-color="rgb(5.953979%, 5.953979%, 5.953979%)" offset="0.828125"/><stop stop-opacity="1" stop-color="rgb(5.690002%, 5.690002%, 5.690002%)" offset="0.835937"/><stop stop-opacity="1" stop-color="rgb(5.4245%, 5.4245%, 5.4245%)" offset="0.84375"/><stop stop-opacity="1" stop-color="rgb(5.160522%, 5.160522%, 5.160522%)" offset="0.851562"/><stop stop-opacity="1" stop-color="rgb(4.89502%, 4.89502%, 4.89502%)" offset="0.859375"/><stop stop-opacity="1" stop-color="rgb(4.631042%, 4.631042%, 4.631042%)" offset="0.867187"/><stop stop-opacity="1" stop-color="rgb(4.36554%, 4.36554%, 4.36554%)" offset="0.875"/><stop stop-opacity="1" stop-color="rgb(4.101562%, 4.101562%, 4.101562%)" offset="0.882813"/><stop stop-opacity="1" stop-color="rgb(3.83606%, 3.83606%, 3.83606%)" offset="0.890625"/><stop stop-opacity="1" stop-color="rgb(3.572083%, 3.572083%, 3.572083%)" offset="0.898438"/><stop stop-opacity="1" stop-color="rgb(3.30658%, 3.30658%, 3.30658%)" offset="0.90625"/><stop stop-opacity="1" stop-color="rgb(3.042603%, 3.042603%, 3.042603%)" offset="0.914063"/><stop stop-opacity="1" stop-color="rgb(2.7771%, 2.7771%, 2.7771%)" offset="0.921875"/><stop stop-opacity="1" stop-color="rgb(2.513123%, 2.513123%, 2.513123%)" offset="0.929688"/><stop stop-opacity="1" stop-color="rgb(2.24762%, 2.24762%, 2.24762%)" offset="0.9375"/><stop stop-opacity="1" stop-color="rgb(1.983643%, 1.983643%, 1.983643%)" offset="0.945312"/><stop stop-opacity="1" stop-color="rgb(1.71814%, 1.71814%, 1.71814%)" offset="0.953125"/><stop stop-opacity="1" stop-color="rgb(1.454163%, 1.454163%, 1.454163%)" offset="0.960938"/><stop stop-opacity="1" stop-color="rgb(1.18866%, 1.18866%, 1.18866%)" offset="0.96875"/><stop stop-opacity="1" stop-color="rgb(0.924683%, 0.924683%, 0.924683%)" offset="0.976562"/><stop stop-opacity="1" stop-color="rgb(0.65918%, 0.65918%, 0.65918%)" offset="0.984375"/><stop stop-opacity="1" stop-color="rgb(0.395203%, 0.395203%, 0.395203%)" offset="0.992188"/><stop stop-opacity="1" stop-color="rgb(0.131226%, 0.131226%, 0.131226%)" offset="1"/></linearGradient></defs><rect x="-15" width="180" fill="#ffffff" y="-15" height="179.999997" fill-opacity="1"/><rect x="-15" width="180" fill="#ffffff" y="-15" height="179.999997" fill-opacity="1"/><path fill="#545454" d="M 75 45 C 75.984375 45 76.960938 45.046875 77.941406 45.144531 C 78.917969 45.242188 79.890625 45.386719 80.851562 45.578125 C 81.816406 45.769531 82.769531 46.007812 83.707031 46.292969 C 84.648438 46.578125 85.574219 46.90625 86.480469 47.285156 C 87.386719 47.660156 88.273438 48.078125 89.140625 48.542969 C 90.007812 49.003906 90.851562 49.511719 91.667969 50.054688 C 92.484375 50.601562 93.273438 51.1875 94.03125 51.808594 C 94.792969 52.433594 95.519531 53.09375 96.214844 53.785156 C 96.90625 54.480469 97.566406 55.207031 98.191406 55.96875 C 98.8125 56.726562 99.398438 57.515625 99.945312 58.332031 C 100.488281 59.148438 100.996094 59.992188 101.457031 60.859375 C 101.921875 61.726562 102.339844 62.613281 102.714844 63.519531 C 103.09375 64.425781 103.421875 65.351562 103.707031 66.292969 C 103.992188 67.230469 104.230469 68.183594 104.421875 69.148438 C 104.613281 70.109375 104.757812 71.082031 104.855469 72.058594 C 104.953125 73.039062 105 74.015625 105 75 C 105 75.984375 104.953125 76.960938 104.855469 77.941406 C 104.757812 78.917969 104.617188 79.890625 104.421875 80.851562 C 104.230469 81.816406 103.992188 82.769531 103.707031 83.707031 C 103.421875 84.648438 103.09375 85.574219 102.714844 86.480469 C 102.339844 87.386719 101.921875 88.277344 101.457031 89.140625 C 100.996094 90.007812 100.488281 90.851562 99.945312 91.667969 C 99.398438 92.484375 98.8125 93.273438 98.191406 94.03125 C 97.566406 94.792969 96.90625 95.519531 96.214844 96.214844 C 95.519531 96.90625 94.792969 97.566406 94.03125 98.191406 C 93.273438 98.8125 92.484375 99.398438 91.667969 99.945312 C 90.851562 100.488281 90.007812 100.996094 89.140625 101.457031 C 88.273438 101.921875 87.386719 102.339844 86.480469 102.714844 C 85.574219 103.09375 84.648438 103.421875 83.707031 103.707031 C 82.769531 103.992188 81.816406 104.230469 80.851562 104.421875 C 79.890625 104.617188 78.917969 104.757812 77.941406 104.855469 C 76.960938 104.953125 75.984375 105 75 105 C 74.015625 105 73.039062 104.953125 72.058594 104.855469 C 71.082031 104.757812 70.109375 104.617188 69.148438 104.421875 C 68.183594 104.230469 67.230469 103.992188 66.292969 103.707031 C 65.351562 103.421875 64.425781 103.09375 63.519531 102.714844 C 62.613281 102.339844 61.726562 101.921875 60.859375 101.457031 C 59.992188 100.996094 59.148438 100.488281 58.332031 99.945312 C 57.515625 99.398438 56.726562 98.8125 55.96875 98.191406 C 55.207031 97.566406 54.480469 96.90625 53.785156 96.214844 C 53.09375 95.519531 52.433594 94.792969 51.808594 94.03125 C 51.1875 93.273438 50.601562 92.484375 50.054688 91.667969 C 49.511719 90.851562 49.003906 90.007812 48.542969 89.140625 C 48.078125 88.277344 47.660156 87.386719 47.285156 86.480469 C 46.90625 85.574219 46.578125 84.648438 46.292969 83.707031 C 46.007812 82.769531 45.769531 81.816406 45.578125 80.851562 C 45.386719 79.890625 45.242188 78.917969 45.144531 77.941406 C 45.046875 76.960938 45 75.984375 45 75 C 45 74.015625 45.046875 73.039062 45.144531 72.058594 C 45.242188 71.082031 45.386719 70.109375 45.578125 69.148438 C 45.769531 68.183594 46.007812 67.230469 46.292969 66.292969 C 46.578125 65.351562 46.90625 64.425781 47.285156 63.519531 C 47.660156 62.613281 48.078125 61.726562 48.542969 60.859375 C 49.003906 59.992188 49.511719 59.148438 50.054688 58.332031 C 50.601562 57.515625 51.1875 56.726562 51.808594 55.96875 C 52.433594 55.207031 53.09375 54.480469 53.785156 53.785156 C 54.480469 53.09375 55.207031 52.433594 55.96875 51.808594 C 56.726562 51.1875 57.515625 50.601562 58.332031 50.054688 C 59.148438 49.511719 59.992188 49.003906 60.859375 48.542969 C 61.726562 48.078125 62.613281 47.660156 63.519531 47.285156 C 64.425781 46.90625 65.351562 46.578125 66.292969 46.292969 C 67.230469 46.007812 68.183594 45.769531 69.148438 45.578125 C 70.109375 45.386719 71.082031 45.242188 72.058594 45.144531 C 73.039062 45.046875 74.015625 45 75 45 Z M 75 45 " fill-opacity="1" fill-rule="evenodd"/><path fill="#ffffff" d="M 75 46.796875 C 82.789062 46.796875 89.839844 49.953125 94.945312 55.054688 C 100.046875 60.160156 103.203125 67.210938 103.203125 75 C 103.203125 82.789062 100.046875 89.839844 94.945312 94.945312 C 89.839844 100.046875 82.789062 103.207031 75 103.207031 C 67.210938 103.207031 60.160156 100.046875 55.054688 94.945312 C 49.953125 89.839844 46.796875 82.789062 46.796875 75 C 46.796875 67.210938 49.953125 60.160156 55.054688 55.054688 C 60.160156 49.953125 67.210938 46.796875 75 46.796875 Z M 94.050781 55.949219 C 89.175781 51.074219 82.4375 48.058594 75 48.058594 C 67.5625 48.058594 60.824219 51.074219 55.949219 55.949219 C 51.074219 60.824219 48.058594 67.5625 48.058594 75 C 48.058594 82.4375 51.074219 89.175781 55.949219 94.050781 C 60.824219 98.925781 67.5625 101.941406 75 101.941406 C 82.4375 101.941406 89.175781 98.925781 94.050781 94.050781 C 98.925781 89.175781 101.941406 82.4375 101.941406 75 C 101.941406 67.5625 98.925781 60.824219 94.050781 55.949219 Z M 94.050781 55.949219 " fill-opacity="1" fill-rule="evenodd"/><path fill="#545454" d="M 75 57.539062 C 78.070312 54.433594 82.242188 52.9375 86.566406 54.621094 C 89.917969 55.925781 92.453125 58.894531 93.34375 62.367188 C 93.828125 64.253906 93.8125 66.207031 93.324219 68.089844 C 92.753906 70.292969 91.582031 72.257812 90.070312 73.941406 L 75 90.742188 L 59.929688 73.941406 C 58.421875 72.257812 57.246094 70.292969 56.675781 68.089844 C 56.1875 66.207031 56.171875 64.253906 56.65625 62.367188 C 57.546875 58.894531 60.082031 55.925781 63.433594 54.621094 C 67.757812 52.9375 71.929688 54.433594 75 57.539062 Z M 75 57.539062 " fill-opacity="1" fill-rule="evenodd"/><path fill="#ffffff" d="M 75 59.355469 C 65.636719 48.003906 50.871094 62.019531 60.839844 73.128906 L 75 88.914062 L 89.160156 73.128906 C 99.128906 62.019531 84.363281 48.003906 75 59.355469 Z M 75 59.355469 " fill-opacity="1" fill-rule="evenodd"/><path fill="#ffffff" d="M 51.429688 80.359375 L 52.882812 80.703125 C 52.589844 81.351562 52.542969 81.949219 52.753906 82.5 C 53.132812 83.5 53.769531 83.832031 54.664062 83.496094 C 55.070312 83.339844 55.347656 83.070312 55.496094 82.683594 C 55.640625 82.296875 55.617188 81.855469 55.433594 81.363281 L 55.328125 81.085938 L 56.570312 80.617188 L 56.660156 80.851562 C 57 81.753906 57.53125 82.070312 58.25 81.796875 C 59.007812 81.511719 59.226562 80.949219 58.90625 80.113281 C 58.742188 79.675781 58.390625 79.332031 57.847656 79.066406 L 58.597656 77.933594 C 58.890625 78.039062 59.195312 78.261719 59.515625 78.601562 C 59.832031 78.941406 60.066406 79.3125 60.21875 79.71875 C 60.554688 80.601562 60.621094 81.363281 60.421875 82.003906 C 60.222656 82.644531 59.777344 83.09375 59.082031 83.359375 C 58.253906 83.671875 57.484375 83.535156 56.769531 82.953125 C 56.699219 84.0625 56.171875 84.800781 55.195312 85.167969 C 54.394531 85.472656 53.664062 85.429688 53.007812 85.035156 C 52.355469 84.644531 51.84375 83.953125 51.46875 82.96875 C 51.128906 82.070312 51.117188 81.199219 51.429688 80.359375 Z M 64.121094 91.058594 L 62.875 91.390625 C 62.839844 90.902344 62.597656 90.445312 62.15625 90.015625 C 61.734375 89.605469 61.269531 89.417969 60.761719 89.449219 C 60.257812 89.476562 59.773438 89.730469 59.3125 90.207031 C 58.382812 91.167969 58.398438 92.109375 59.355469 93.039062 C 59.769531 93.4375 60.261719 93.660156 60.832031 93.707031 L 60.429688 94.941406 C 59.917969 94.820312 59.511719 94.667969 59.222656 94.484375 C 58.929688 94.300781 58.617188 94.046875 58.285156 93.726562 C 57.546875 93.011719 57.160156 92.238281 57.132812 91.414062 C 57.101562 90.589844 57.441406 89.808594 58.148438 89.078125 C 58.847656 88.359375 59.644531 88.003906 60.542969 88.015625 C 61.441406 88.023438 62.292969 88.421875 63.101562 89.207031 C 63.660156 89.746094 64 90.363281 64.121094 91.058594 Z M 62.863281 93.421875 C 63.292969 92.550781 63.90625 91.972656 64.699219 91.683594 C 65.496094 91.394531 66.328125 91.464844 67.191406 91.886719 C 68.101562 92.335938 68.675781 92.945312 68.921875 93.71875 C 69.167969 94.492188 69.066406 95.332031 68.617188 96.25 C 68.167969 97.15625 67.558594 97.753906 66.78125 98.039062 C 66.003906 98.324219 65.171875 98.246094 64.28125 97.8125 C 63.371094 97.363281 62.796875 96.746094 62.5625 95.957031 C 62.320312 95.164062 62.421875 94.320312 62.863281 93.421875 Z M 64.320312 94.136719 C 63.703125 95.394531 63.871094 96.253906 64.820312 96.71875 C 65.253906 96.933594 65.679688 96.9375 66.09375 96.738281 C 66.507812 96.539062 66.863281 96.136719 67.160156 95.53125 C 67.769531 94.296875 67.601562 93.445312 66.65625 92.980469 C 66.21875 92.765625 65.792969 92.757812 65.378906 92.957031 C 64.960938 93.160156 64.605469 93.550781 64.320312 94.136719 Z M 73.699219 95.277344 C 73.457031 95.050781 73.175781 94.902344 72.851562 94.839844 C 72.496094 94.769531 72.152344 94.859375 71.816406 95.113281 C 71.480469 95.363281 71.265625 95.710938 71.179688 96.15625 L 70.476562 99.707031 L 68.949219 99.40625 L 70.183594 93.171875 L 71.710938 93.472656 L 71.597656 94.046875 C 72.117188 93.667969 72.730469 93.550781 73.441406 93.691406 C 73.960938 93.792969 74.347656 93.949219 74.59375 94.15625 Z M 78.78125 99.222656 C 78.667969 99.457031 78.441406 99.664062 78.105469 99.84375 C 77.773438 100.019531 77.417969 100.128906 77.035156 100.171875 C 76.324219 100.25 75.742188 100.136719 75.296875 99.84375 C 74.851562 99.546875 74.59375 99.085938 74.527344 98.460938 C 74.445312 97.726562 74.671875 97.121094 75.203125 96.644531 C 75.730469 96.171875 76.527344 95.875 77.585938 95.757812 C 77.769531 95.738281 77.988281 95.746094 78.238281 95.773438 C 78.160156 95.03125 77.625 94.714844 76.640625 94.824219 C 76.058594 94.886719 75.582031 95.03125 75.210938 95.261719 L 74.75 94.148438 C 75.257812 93.847656 75.878906 93.660156 76.613281 93.578125 C 77.625 93.46875 78.390625 93.609375 78.910156 93.996094 C 79.429688 94.382812 79.753906 95.1875 79.886719 96.410156 L 80.035156 97.761719 C 80.128906 98.605469 80.363281 99.113281 80.742188 99.292969 C 80.636719 99.519531 80.507812 99.667969 80.355469 99.734375 C 80.207031 99.800781 80.027344 99.84375 79.824219 99.867188 C 79.601562 99.890625 79.390625 99.835938 79.195312 99.695312 C 79.003906 99.558594 78.863281 99.398438 78.78125 99.222656 Z M 78.375 96.882812 C 78.105469 96.863281 77.90625 96.863281 77.769531 96.875 C 76.550781 97.007812 75.984375 97.460938 76.066406 98.226562 C 76.128906 98.796875 76.503906 99.042969 77.191406 98.96875 C 78.121094 98.867188 78.535156 98.371094 78.4375 97.476562 Z M 85.054688 91.53125 L 84.902344 92.816406 C 84.4375 92.671875 83.925781 92.722656 83.363281 92.976562 C 82.828125 93.222656 82.480469 93.582031 82.324219 94.066406 C 82.164062 94.546875 82.222656 95.089844 82.496094 95.695312 C 83.046875 96.910156 83.929688 97.246094 85.144531 96.695312 C 85.671875 96.457031 86.058594 96.082031 86.308594 95.566406 L 87.3125 96.394531 C 87.011719 96.824219 86.722656 97.144531 86.441406 97.347656 C 86.164062 97.554688 85.8125 97.75 85.394531 97.941406 C 84.457031 98.367188 83.597656 98.441406 82.816406 98.167969 C 82.039062 97.890625 81.441406 97.289062 81.019531 96.363281 C 80.605469 95.449219 80.570312 94.578125 80.910156 93.746094 C 81.246094 92.914062 81.929688 92.265625 82.957031 91.800781 C 83.664062 91.480469 84.363281 91.390625 85.054688 91.53125 Z M 84.976562 100.769531 L 84.433594 100.1875 C 84.574219 100.160156 84.71875 100.117188 84.851562 100.054688 C 85.347656 99.832031 85.519531 99.554688 85.371094 99.226562 C 85.316406 99.105469 85.226562 99.007812 85.097656 98.933594 C 84.96875 98.855469 84.839844 98.828125 84.710938 98.851562 L 84.976562 98.15625 C 85.71875 97.980469 86.226562 98.203125 86.503906 98.8125 C 86.660156 99.160156 86.648438 99.492188 86.46875 99.808594 C 86.289062 100.125 85.988281 100.382812 85.558594 100.574219 C 85.367188 100.664062 85.171875 100.726562 84.976562 100.769531 Z M 86.84375 93.574219 C 86.203125 92.847656 85.902344 92.058594 85.941406 91.214844 C 85.980469 90.367188 86.359375 89.625 87.085938 88.988281 C 87.84375 88.320312 88.628906 88.023438 89.4375 88.09375 C 90.242188 88.164062 90.984375 88.578125 91.65625 89.34375 C 92.324219 90.105469 92.644531 90.898438 92.609375 91.722656 C 92.574219 92.550781 92.183594 93.292969 91.441406 93.945312 C 90.679688 94.617188 89.886719 94.910156 89.066406 94.828125 C 88.246094 94.746094 87.503906 94.328125 86.84375 93.574219 Z M 88.0625 92.503906 C 88.984375 93.554688 89.84375 93.730469 90.636719 93.035156 C 91.003906 92.714844 91.167969 92.324219 91.144531 91.863281 C 91.117188 91.402344 90.882812 90.917969 90.4375 90.414062 C 89.527344 89.378906 88.675781 89.207031 87.886719 89.902344 C 87.519531 90.222656 87.351562 90.617188 87.375 91.074219 C 87.402344 91.539062 87.628906 92.015625 88.0625 92.503906 Z M 85.800781 89.375 L 85.121094 89.972656 C 84.878906 89.578125 84.757812 89.199219 84.75 88.824219 C 84.742188 88.453125 84.871094 88.152344 85.136719 87.917969 C 85.382812 87.703125 85.675781 87.546875 86.019531 87.449219 C 86.367188 87.347656 86.574219 87.269531 86.644531 87.210938 C 86.832031 87.042969 86.867188 86.808594 86.746094 86.503906 L 87.4375 85.898438 C 87.707031 86.445312 87.828125 86.875 87.796875 87.1875 C 87.769531 87.5 87.625 87.769531 87.367188 88 C 87.171875 88.167969 86.902344 88.304688 86.550781 88.40625 C 86.199219 88.511719 85.988281 88.59375 85.914062 88.660156 C 85.75 88.804688 85.710938 89.042969 85.800781 89.375 Z M 95.65625 83.488281 L 93.25 87.609375 C 93.703125 87.839844 94.136719 87.878906 94.550781 87.730469 C 94.960938 87.582031 95.3125 87.261719 95.597656 86.769531 C 95.957031 86.152344 96.078125 85.601562 95.964844 85.105469 L 97.246094 85.152344 C 97.332031 85.839844 97.101562 86.648438 96.554688 87.589844 C 96.042969 88.46875 95.390625 89.019531 94.601562 89.246094 C 93.8125 89.472656 92.976562 89.328125 92.101562 88.816406 C 91.234375 88.308594 90.695312 87.617188 90.488281 86.746094 C 90.277344 85.871094 90.402344 85.039062 90.863281 84.253906 C 91.347656 83.417969 91.980469 82.886719 92.75 82.660156 C 93.519531 82.429688 94.273438 82.53125 95.007812 82.960938 C 95.164062 83.050781 95.382812 83.230469 95.65625 83.488281 Z M 92.316406 86.992188 L 93.964844 84.167969 C 93.105469 83.792969 92.433594 84.023438 91.945312 84.859375 C 91.496094 85.625 91.621094 86.335938 92.316406 86.992188 Z M 98.015625 82.949219 L 96.992188 82.136719 C 97.445312 81.769531 97.742188 81.296875 97.875 80.726562 C 98.015625 80.136719 97.886719 79.796875 97.484375 79.703125 C 97.25 79.644531 97.035156 79.6875 96.84375 79.832031 C 96.652344 79.972656 96.390625 80.273438 96.066406 80.738281 C 95.355469 81.753906 94.601562 82.164062 93.804688 81.976562 C 93.269531 81.847656 92.902344 81.535156 92.703125 81.035156 C 92.507812 80.539062 92.488281 79.957031 92.648438 79.289062 C 92.808594 78.613281 93.101562 78.015625 93.53125 77.488281 L 94.546875 78.191406 C 94.199219 78.457031 93.957031 78.886719 93.816406 79.476562 C 93.691406 80.003906 93.828125 80.316406 94.226562 80.410156 C 94.386719 80.449219 94.550781 80.394531 94.71875 80.25 C 94.886719 80.109375 95.144531 79.777344 95.496094 79.261719 C 95.84375 78.738281 96.203125 78.390625 96.566406 78.210938 C 96.929688 78.035156 97.328125 78 97.757812 78.101562 C 98.332031 78.238281 98.730469 78.566406 98.953125 79.09375 C 99.175781 79.617188 99.199219 80.261719 99.015625 81.03125 C 98.914062 81.460938 98.796875 81.800781 98.667969 82.046875 C 98.539062 82.289062 98.320312 82.59375 98.015625 82.949219 Z M 98.015625 82.949219 " fill-opacity="1" fill-rule="evenodd"/><path fill="#ffffff" d="M 51.429688 79.734375 L 52.882812 80.078125 C 52.589844 80.726562 52.542969 81.324219 52.753906 81.875 C 53.132812 82.878906 53.769531 83.210938 54.664062 82.871094 C 55.070312 82.71875 55.347656 82.449219 55.496094 82.0625 C 55.640625 81.671875 55.617188 81.234375 55.433594 80.738281 L 55.328125 80.460938 L 56.570312 79.992188 L 56.660156 80.230469 C 57 81.132812 57.53125 81.445312 58.25 81.175781 C 59.007812 80.886719 59.226562 80.328125 58.90625 79.488281 C 58.742188 79.054688 58.390625 78.707031 57.847656 78.441406 L 58.597656 77.308594 C 58.890625 77.414062 59.195312 77.636719 59.515625 77.980469 C 59.832031 78.320312 60.066406 78.691406 60.21875 79.09375 C 60.554688 79.980469 60.621094 80.738281 60.421875 81.382812 C 60.222656 82.019531 59.777344 82.472656 59.082031 82.734375 C 58.253906 83.046875 57.484375 82.914062 56.769531 82.332031 C 56.699219 83.4375 56.171875 84.175781 55.195312 84.546875 C 54.394531 84.847656 53.664062 84.804688 53.007812 84.414062 C 52.355469 84.019531 51.84375 83.332031 51.46875 82.34375 C 51.128906 81.449219 51.117188 80.578125 51.429688 79.734375 Z M 64.121094 90.4375 L 62.875 90.765625 C 62.839844 90.277344 62.597656 89.820312 62.15625 89.394531 C 61.734375 88.984375 61.269531 88.792969 60.761719 88.824219 C 60.257812 88.855469 59.773438 89.109375 59.3125 89.585938 C 58.382812 90.542969 58.398438 91.484375 59.355469 92.414062 C 59.769531 92.816406 60.261719 93.039062 60.832031 93.082031 L 60.429688 94.320312 C 59.917969 94.199219 59.511719 94.046875 59.222656 93.863281 C 58.929688 93.675781 58.617188 93.425781 58.285156 93.105469 C 57.546875 92.386719 57.160156 91.617188 57.132812 90.789062 C 57.101562 89.964844 57.441406 89.1875 58.148438 88.457031 C 58.847656 87.738281 59.644531 87.382812 60.542969 87.390625 C 61.441406 87.402344 62.292969 87.800781 63.101562 88.582031 C 63.660156 89.121094 64 89.742188 64.121094 90.4375 Z M 62.863281 92.800781 C 63.292969 91.929688 63.90625 91.347656 64.699219 91.0625 C 65.496094 90.773438 66.328125 90.839844 67.191406 91.265625 C 68.101562 91.710938 68.675781 92.320312 68.921875 93.09375 C 69.167969 93.867188 69.066406 94.710938 68.617188 95.625 C 68.167969 96.535156 67.558594 97.132812 66.78125 97.417969 C 66.003906 97.699219 65.171875 97.625 64.28125 97.1875 C 63.371094 96.738281 62.796875 96.121094 62.5625 95.332031 C 62.320312 94.542969 62.421875 93.695312 62.863281 92.800781 Z M 64.320312 93.515625 C 63.703125 94.769531 63.871094 95.628906 64.820312 96.097656 C 65.253906 96.3125 65.679688 96.316406 66.09375 96.117188 C 66.507812 95.914062 66.863281 95.511719 67.160156 94.910156 C 67.769531 93.671875 67.601562 92.820312 66.65625 92.355469 C 66.21875 92.140625 65.792969 92.136719 65.378906 92.335938 C 64.960938 92.535156 64.605469 92.929688 64.320312 93.515625 Z M 73.699219 94.65625 C 73.457031 94.425781 73.175781 94.28125 72.851562 94.214844 C 72.496094 94.144531 72.152344 94.234375 71.816406 94.488281 C 71.480469 94.742188 71.265625 95.089844 71.179688 95.53125 L 70.476562 99.085938 L 68.949219 98.78125 L 70.183594 92.546875 L 71.710938 92.851562 L 71.597656 93.421875 C 72.117188 93.046875 72.730469 92.929688 73.441406 93.066406 C 73.960938 93.171875 74.347656 93.324219 74.59375 93.535156 Z M 78.78125 98.597656 C 78.667969 98.832031 78.441406 99.039062 78.105469 99.21875 C 77.773438 99.394531 77.417969 99.507812 77.035156 99.546875 C 76.324219 99.625 75.742188 99.515625 75.296875 99.21875 C 74.851562 98.921875 74.59375 98.460938 74.527344 97.835938 C 74.445312 97.101562 74.671875 96.5 75.203125 96.023438 C 75.730469 95.546875 76.527344 95.25 77.585938 95.136719 C 77.769531 95.117188 77.988281 95.121094 78.238281 95.152344 C 78.160156 94.410156 77.625 94.09375 76.640625 94.199219 C 76.058594 94.261719 75.582031 94.410156 75.210938 94.636719 L 74.75 93.527344 C 75.257812 93.226562 75.878906 93.035156 76.613281 92.957031 C 77.625 92.847656 78.390625 92.984375 78.910156 93.371094 C 79.429688 93.761719 79.753906 94.5625 79.886719 95.789062 L 80.035156 97.140625 C 80.128906 97.980469 80.363281 98.492188 80.742188 98.667969 C 80.636719 98.898438 80.507812 99.042969 80.355469 99.109375 C 80.207031 99.179688 80.027344 99.222656 79.824219 99.246094 C 79.601562 99.269531 79.390625 99.210938 79.195312 99.070312 C 79.003906 98.933594 78.863281 98.777344 78.78125 98.597656 Z M 78.375 96.261719 C 78.105469 96.242188 77.90625 96.238281 77.769531 96.253906 C 76.550781 96.386719 75.984375 96.835938 76.066406 97.605469 C 76.128906 98.171875 76.503906 98.417969 77.191406 98.34375 C 78.121094 98.242188 78.535156 97.746094 78.4375 96.855469 Z M 85.054688 90.910156 L 84.902344 92.191406 C 84.4375 92.046875 83.925781 92.101562 83.363281 92.355469 C 82.828125 92.597656 82.480469 92.960938 82.324219 93.441406 C 82.164062 93.925781 82.222656 94.46875 82.496094 95.070312 C 83.046875 96.285156 83.929688 96.621094 85.144531 96.070312 C 85.671875 95.832031 86.058594 95.457031 86.308594 94.941406 L 87.3125 95.769531 C 87.011719 96.203125 86.722656 96.523438 86.441406 96.726562 C 86.164062 96.929688 85.8125 97.128906 85.394531 97.316406 C 84.457031 97.742188 83.597656 97.820312 82.816406 97.542969 C 82.039062 97.269531 81.441406 96.667969 81.019531 95.738281 C 80.605469 94.828125 80.570312 93.953125 80.910156 93.121094 C 81.246094 92.292969 81.929688 91.644531 82.957031 91.179688 C 83.664062 90.859375 84.363281 90.769531 85.054688 90.910156 Z M 84.976562 100.144531 L 84.433594 99.5625 C 84.574219 99.535156 84.71875 99.492188 84.851562 99.429688 C 85.347656 99.207031 85.519531 98.929688 85.371094 98.601562 C 85.316406 98.484375 85.226562 98.382812 85.097656 98.308594 C 84.96875 98.230469 84.839844 98.203125 84.710938 98.226562 L 84.976562 97.535156 C 85.71875 97.359375 86.226562 97.578125 86.503906 98.191406 C 86.660156 98.535156 86.648438 98.867188 86.46875 99.183594 C 86.289062 99.503906 85.988281 99.757812 85.558594 99.953125 C 85.367188 100.039062 85.171875 100.101562 84.976562 100.144531 Z M 86.84375 92.953125 C 86.203125 92.222656 85.902344 91.4375 85.941406 90.589844 C 85.980469 89.746094 86.359375 89.003906 87.085938 88.367188 C 87.84375 87.699219 88.628906 87.402344 89.4375 87.46875 C 90.242188 87.539062 90.984375 87.957031 91.65625 88.722656 C 92.324219 89.480469 92.644531 90.277344 92.609375 91.101562 C 92.574219 91.929688 92.183594 92.667969 91.441406 93.324219 C 90.679688 93.992188 89.886719 94.285156 89.066406 94.203125 C 88.246094 94.121094 87.503906 93.703125 86.84375 92.953125 Z M 88.0625 91.882812 C 88.984375 92.933594 89.84375 93.109375 90.636719 92.410156 C 91.003906 92.089844 91.167969 91.699219 91.144531 91.238281 C 91.117188 90.777344 90.882812 90.296875 90.4375 89.792969 C 89.527344 88.757812 88.675781 88.585938 87.886719 89.28125 C 87.519531 89.601562 87.351562 89.992188 87.375 90.453125 C 87.402344 90.917969 87.628906 91.390625 88.0625 91.882812 Z M 85.800781 88.75 L 85.121094 89.347656 C 84.878906 88.957031 84.757812 88.574219 84.75 88.203125 C 84.742188 87.832031 84.871094 87.527344 85.136719 87.296875 C 85.382812 87.082031 85.675781 86.925781 86.019531 86.824219 C 86.367188 86.726562 86.574219 86.648438 86.644531 86.585938 C 86.832031 86.417969 86.867188 86.183594 86.746094 85.882812 L 87.4375 85.273438 C 87.707031 85.824219 87.828125 86.253906 87.796875 86.566406 C 87.769531 86.878906 87.625 87.148438 87.367188 87.375 C 87.171875 87.546875 86.902344 87.679688 86.550781 87.785156 C 86.199219 87.886719 85.988281 87.972656 85.914062 88.035156 C 85.75 88.179688 85.710938 88.417969 85.800781 88.75 Z M 95.65625 82.867188 L 93.25 86.988281 C 93.703125 87.214844 94.136719 87.257812 94.550781 87.109375 C 94.960938 86.960938 95.3125 86.640625 95.597656 86.148438 C 95.957031 85.53125 96.078125 84.976562 95.964844 84.480469 L 97.246094 84.527344 C 97.332031 85.214844 97.101562 86.027344 96.554688 86.96875 C 96.042969 87.847656 95.390625 88.398438 94.601562 88.625 C 93.8125 88.847656 92.976562 88.703125 92.101562 88.191406 C 91.234375 87.6875 90.695312 86.996094 90.488281 86.121094 C 90.277344 85.246094 90.402344 84.417969 90.863281 83.632812 C 91.347656 82.796875 91.980469 82.261719 92.75 82.035156 C 93.519531 81.808594 94.273438 81.90625 95.007812 82.335938 C 95.164062 82.429688 95.382812 82.605469 95.65625 82.867188 Z M 92.316406 86.367188 L 93.964844 83.546875 C 93.105469 83.167969 92.433594 83.398438 91.945312 84.234375 C 91.496094 85 91.621094 85.710938 92.316406 86.367188 Z M 98.015625 82.328125 L 96.992188 81.515625 C 97.445312 81.144531 97.742188 80.675781 97.875 80.105469 C 98.015625 79.515625 97.886719 79.171875 97.484375 79.078125 C 97.25 79.023438 97.035156 79.066406 96.84375 79.207031 C 96.652344 79.351562 96.390625 79.652344 96.066406 80.117188 C 95.355469 81.132812 94.601562 81.542969 93.804688 81.351562 C 93.269531 81.226562 92.902344 80.914062 92.703125 80.414062 C 92.507812 79.914062 92.488281 79.332031 92.648438 78.667969 C 92.808594 77.992188 93.101562 77.390625 93.53125 76.867188 L 94.546875 77.566406 C 94.199219 77.835938 93.957031 78.261719 93.816406 78.851562 C 93.691406 79.378906 93.828125 79.691406 94.226562 79.789062 C 94.386719 79.824219 94.550781 79.773438 94.71875 79.628906 C 94.886719 79.484375 95.144531 79.15625 95.496094 78.636719 C 95.84375 78.117188 96.203125 77.769531 96.566406 77.589844 C 96.929688 77.410156 97.328125 77.375 97.757812 77.476562 C 98.332031 77.613281 98.730469 77.945312 98.953125 78.46875 C 99.175781 78.992188 99.199219 79.640625 99.015625 80.40625 C 98.914062 80.839844 98.796875 81.179688 98.667969 81.421875 C 98.539062 81.667969 98.320312 81.96875 98.015625 82.328125 Z M 98.015625 82.328125 " fill-opacity="1" fill-rule="evenodd"/><path fill="#545454" d="M 83.09375 61.089844 C 79.574219 56.824219 74.023438 62.09375 77.769531 66.265625 L 83.09375 72.199219 L 88.414062 66.265625 C 92.160156 62.09375 86.609375 56.824219 83.09375 61.089844 Z M 83.09375 61.089844 " fill-opacity="1" fill-rule="evenodd"/><g clip-path="url(#id1)"><g clip-path="url(#id2)"><path fill="url(#id3)" d="M 77.238281 60.117188 L 77.238281 70.824219 L 88.945312 70.824219 L 88.945312 60.117188 Z M 77.238281 60.117188 " fill-rule="nonzero"/></g></g><path fill="#545454" d="M 66.535156 61.089844 C 63.015625 56.824219 57.464844 62.09375 61.210938 66.265625 L 66.535156 72.199219 L 71.855469 66.265625 C 75.601562 62.09375 70.054688 56.824219 66.535156 61.089844 Z M 66.535156 61.089844 " fill-opacity="1" fill-rule="evenodd"/><g clip-path="url(#id4)"><g clip-path="url(#id5)"><path fill="url(#id6)" d="M 60.679688 60.117188 L 60.679688 70.824219 L 72.386719 70.824219 L 72.386719 60.117188 Z M 60.679688 60.117188 " fill-rule="nonzero"/></g></g><path fill="#545454" d="M 74.8125 73.375 C 71.292969 69.109375 65.746094 74.375 69.492188 78.550781 L 74.8125 84.484375 L 80.136719 78.550781 C 83.882812 74.375 78.332031 69.109375 74.8125 73.375 Z M 74.8125 73.375 " fill-opacity="1" fill-rule="evenodd"/><g clip-path="url(#id7)"><g clip-path="url(#id8)"><path fill="url(#id9)" d="M 68.960938 72.402344 L 68.960938 83.105469 L 80.667969 83.105469 L 80.667969 72.402344 Z M 68.960938 72.402344 " fill-rule="nonzero"/></g></g></svg>