<svg xmlns="http://www.w3.org/2000/svg" xmlns:xlink="http://www.w3.org/1999/xlink" width="200" zoomAndPan="magnify" viewBox="0 0 150 149.999998" height="200" preserveAspectRatio="xMidYMid meet" version="1.0"><defs><clipPath id="id1"><path d="M 49.308594 45 L 101 45 L 101 97 L 49.308594 97 Z M 49.308594 45 " clip-rule="nonzero"/></clipPath><clipPath id="id2"><path d="M 49.308594 98 L 54 98 L 54 105 L 49.308594 105 Z M 49.308594 98 " clip-rule="nonzero"/></clipPath></defs><rect x="-15" width="180" fill="#ffffff" y="-15" height="179.999997" fill-opacity="1"/><rect x="-15" width="180" fill="#ffffff" y="-15" height="179.999997" fill-opacity="1"/><g clip-path="url(#id1)"><path fill="#545454" d="M 100.953125 87.65625 C 100.953125 92.425781 97.054688 96.289062 92.25 96.289062 L 58.117188 96.289062 C 53.308594 96.289062 49.414062 92.425781 49.414062 87.65625 L 49.414062 53.636719 C 49.414062 48.867188 53.308594 45 58.117188 45 L 92.25 45 C 97.054688 45 100.953125 48.867188 100.953125 53.636719 Z M 100.953125 87.65625 " fill-opacity="1" fill-rule="nonzero"/></g><path fill="#ffffff" d="M 93.203125 87.726562 C 89.414062 92.671875 83.078125 94.214844 79.046875 91.171875 C 75.019531 88.132812 74.828125 81.660156 78.617188 76.710938 C 82.410156 71.761719 88.746094 70.222656 92.773438 73.261719 C 96.800781 76.304688 96.992188 82.78125 93.203125 87.726562 " fill-opacity="1" fill-rule="nonzero"/><path fill="#ffffff" d="M 72.277344 81.484375 C 70.257812 80.140625 67.296875 80.972656 65.285156 83.296875 C 64.925781 82.40625 64.363281 81.628906 63.546875 81.089844 C 61.042969 79.421875 57.375 80.507812 55.351562 83.515625 C 53.332031 86.519531 53.722656 90.292969 56.222656 91.953125 C 58.472656 93.445312 61.648438 92.710938 63.738281 90.371094 C 64.046875 91.0625 64.5 91.667969 65.136719 92.089844 C 67.375 93.574219 70.789062 92.40625 72.761719 89.476562 C 74.734375 86.546875 74.515625 82.964844 72.277344 81.484375 " fill-opacity="1" fill-rule="nonzero"/><path fill="#ffffff" d="M 83.839844 70.390625 C 81.269531 71.402344 78.601562 72.867188 76.644531 75.417969 C 75.996094 76.265625 75.453125 77.152344 75.019531 78.0625 C 75.019531 78.0625 74.40625 78.773438 73.445312 78.773438 C 73.445312 78.773438 71.144531 78.625 72.488281 76.507812 C 72.488281 76.507812 75.050781 71.09375 83.839844 68.492188 C 83.839844 68.492188 86.746094 67.476562 92.695312 67.476562 C 92.695312 67.476562 94.738281 67.222656 94.738281 68.460938 C 94.738281 68.460938 94.738281 69.351562 92.757812 69.351562 C 92.757812 69.351562 86.097656 69.5 83.839844 70.390625 " fill-opacity="1" fill-rule="nonzero"/><path fill="#ffffff" d="M 66.003906 79.644531 C 65.851562 79.902344 65.511719 80.007812 65.183594 80.007812 C 64.578125 80.007812 64.085938 79.519531 64.085938 78.914062 C 64.085938 78.914062 64.367188 74.417969 72.519531 67.453125 C 72.519531 67.453125 78.167969 62.578125 84.199219 61.566406 C 85.054688 61.425781 85.882812 62.175781 86.050781 63.222656 C 86.210938 64.269531 85.65625 65.226562 84.800781 65.359375 C 84.800781 65.359375 76.738281 67.03125 73.511719 70.300781 C 73.511719 70.300781 70.457031 72.199219 66.003906 79.644531 " fill-opacity="1" fill-rule="nonzero"/><path fill="#ffffff" d="M 67.691406 61.550781 C 67.691406 61.550781 65.644531 61.574219 65.167969 63.824219 C 65.167969 63.824219 64.941406 66.046875 67.691406 66.046875 C 67.691406 66.046875 69.160156 66.5 74.117188 63.796875 C 74.117188 63.796875 78.5625 61.414062 72.710938 61.414062 Z M 67.691406 61.550781 " fill-opacity="1" fill-rule="nonzero"/><path fill="#ffffff" d="M 84.21875 48.5625 C 84.21875 48.5625 79.90625 48.464844 79.90625 50.050781 C 79.90625 50.050781 80.195312 50.972656 84.0625 50.972656 L 87.546875 50.972656 C 87.546875 50.972656 91.160156 50.96875 91.160156 53.003906 C 91.160156 53.003906 91.191406 54.464844 89.785156 54.464844 C 89.785156 54.464844 88.34375 54.367188 88.34375 57.734375 L 87.738281 65.667969 C 87.738281 65.667969 87.511719 66.84375 88.539062 66.84375 C 88.539062 66.84375 89.367188 66.96875 89.65625 65.191406 C 89.65625 65.191406 90.421875 57.636719 93.238281 56.714844 C 93.238281 56.714844 96.335938 55.449219 96.308594 53.035156 C 96.308594 53.035156 96.023438 48.558594 89.75 48.558594 Z M 84.21875 48.5625 " fill-opacity="1" fill-rule="nonzero"/><g clip-path="url(#id2)"><path fill="#545454" d="M 50.453125 102.253906 L 50.453125 103.9375 L 51.414062 103.9375 C 51.785156 103.9375 52.023438 103.925781 52.125 103.898438 C 52.277344 103.863281 52.402344 103.78125 52.5 103.648438 C 52.597656 103.515625 52.644531 103.335938 52.644531 103.113281 C 52.644531 102.925781 52.609375 102.761719 52.535156 102.628906 C 52.460938 102.5 52.351562 102.402344 52.210938 102.339844 C 52.066406 102.28125 51.761719 102.253906 51.289062 102.253906 Z M 50.453125 99.742188 L 50.453125 101.203125 L 51.132812 101.203125 C 51.535156 101.203125 51.789062 101.195312 51.886719 101.179688 C 52.0625 101.15625 52.203125 101.082031 52.304688 100.957031 C 52.40625 100.828125 52.457031 100.664062 52.457031 100.460938 C 52.457031 100.269531 52.414062 100.109375 52.328125 99.988281 C 52.238281 99.867188 52.109375 99.792969 51.933594 99.765625 C 51.832031 99.75 51.535156 99.742188 51.046875 99.742188 Z M 49.414062 98.695312 L 51.46875 98.695312 C 51.875 98.695312 52.179688 98.714844 52.378906 98.757812 C 52.578125 98.800781 52.757812 98.886719 52.914062 99.019531 C 53.074219 99.152344 53.203125 99.324219 53.308594 99.542969 C 53.414062 99.761719 53.464844 100.011719 53.464844 100.28125 C 53.464844 100.578125 53.402344 100.847656 53.269531 101.09375 C 53.140625 101.339844 52.964844 101.527344 52.742188 101.652344 C 53.058594 101.761719 53.296875 101.949219 53.464844 102.222656 C 53.632812 102.492188 53.71875 102.808594 53.71875 103.175781 C 53.71875 103.460938 53.664062 103.738281 53.554688 104.007812 C 53.449219 104.28125 53.300781 104.496094 53.109375 104.660156 C 52.921875 104.820312 52.691406 104.921875 52.414062 104.957031 C 52.242188 104.980469 51.824219 104.996094 51.164062 105 L 49.414062 105 Z M 49.414062 98.695312 " fill-opacity="1" fill-rule="nonzero"/></g><path fill="#545454" d="M 57.316406 102.503906 L 56.609375 100.167969 L 55.914062 102.503906 Z M 59.226562 105 L 58.097656 105 L 57.648438 103.566406 L 55.597656 103.566406 L 55.171875 105 L 54.070312 105 L 56.074219 98.695312 L 57.171875 98.695312 Z M 59.226562 105 " fill-opacity="1" fill-rule="nonzero"/><path fill="#545454" d="M 59.789062 105 L 59.789062 98.695312 L 60.796875 98.695312 L 62.898438 102.90625 L 62.898438 98.695312 L 63.863281 98.695312 L 63.863281 105 L 62.824219 105 L 60.753906 100.886719 L 60.753906 105 Z M 59.789062 105 " fill-opacity="1" fill-rule="nonzero"/><path fill="#545454" d="M 65.992188 99.761719 L 65.992188 103.9375 L 66.769531 103.9375 C 67.058594 103.9375 67.265625 103.917969 67.394531 103.878906 C 67.5625 103.828125 67.703125 103.738281 67.8125 103.613281 C 67.925781 103.492188 68.015625 103.289062 68.085938 103.007812 C 68.15625 102.722656 68.191406 102.339844 68.191406 101.851562 C 68.191406 101.363281 68.15625 100.988281 68.085938 100.730469 C 68.015625 100.46875 67.917969 100.265625 67.792969 100.121094 C 67.667969 99.972656 67.503906 99.875 67.3125 99.820312 C 67.167969 99.78125 66.882812 99.761719 66.460938 99.761719 Z M 64.957031 98.695312 L 66.851562 98.695312 C 67.28125 98.695312 67.605469 98.734375 67.832031 98.816406 C 68.132812 98.925781 68.390625 99.117188 68.605469 99.398438 C 68.820312 99.675781 68.984375 100.015625 69.09375 100.417969 C 69.207031 100.820312 69.261719 101.316406 69.261719 101.910156 C 69.261719 102.425781 69.210938 102.875 69.105469 103.25 C 68.976562 103.707031 68.792969 104.078125 68.554688 104.363281 C 68.375 104.578125 68.132812 104.746094 67.828125 104.867188 C 67.597656 104.957031 67.292969 105 66.910156 105 L 64.957031 105 Z M 64.957031 98.695312 " fill-opacity="1" fill-rule="nonzero"/><path fill="#545454" d="M 70.144531 105 L 70.144531 98.695312 L 73.953125 98.695312 L 73.953125 99.761719 L 71.179688 99.761719 L 71.179688 101.160156 L 73.761719 101.160156 L 73.761719 102.222656 L 71.179688 102.222656 L 71.179688 103.9375 L 74.050781 103.9375 L 74.050781 105 Z M 70.144531 105 " fill-opacity="1" fill-rule="nonzero"/><path fill="#545454" d="M 74.898438 98.695312 L 75.933594 98.695312 L 75.933594 105 L 74.898438 105 Z M 74.898438 98.695312 " fill-opacity="1" fill-rule="nonzero"/><path fill="#545454" d="M 77.964844 101.359375 L 78.734375 101.359375 C 79.230469 101.359375 79.542969 101.335938 79.667969 101.285156 C 79.789062 101.230469 79.886719 101.144531 79.957031 101.015625 C 80.023438 100.890625 80.0625 100.730469 80.0625 100.542969 C 80.0625 100.332031 80.015625 100.160156 79.921875 100.03125 C 79.832031 99.902344 79.699219 99.816406 79.53125 99.78125 C 79.445312 99.769531 79.195312 99.761719 78.777344 99.761719 L 77.964844 99.761719 Z M 76.929688 105 L 76.929688 98.695312 L 79.113281 98.695312 C 79.660156 98.695312 80.058594 98.753906 80.308594 98.863281 C 80.558594 98.976562 80.757812 99.179688 80.90625 99.46875 C 81.054688 99.757812 81.128906 100.089844 81.128906 100.460938 C 81.128906 100.9375 81.019531 101.328125 80.789062 101.632812 C 80.5625 101.941406 80.226562 102.136719 79.773438 102.214844 C 80 102.378906 80.183594 102.554688 80.328125 102.746094 C 80.476562 102.9375 80.671875 103.28125 80.921875 103.769531 L 81.546875 105 L 80.308594 105 L 79.558594 103.628906 C 79.292969 103.136719 79.109375 102.828125 79.007812 102.703125 C 78.910156 102.574219 78.808594 102.484375 78.699219 102.4375 C 78.589844 102.390625 78.414062 102.367188 78.175781 102.367188 L 77.964844 102.367188 L 77.964844 105 Z M 76.929688 105 " fill-opacity="1" fill-rule="nonzero"/><path fill="#545454" d="M 84.832031 102.503906 L 84.125 100.167969 L 83.429688 102.503906 Z M 86.738281 105 L 85.613281 105 L 85.164062 103.566406 L 83.109375 103.566406 L 82.6875 105 L 81.585938 105 L 83.585938 98.695312 L 84.683594 98.695312 Z M 86.738281 105 " fill-opacity="1" fill-rule="nonzero"/><path fill="#545454" d="M 87.300781 105 L 87.300781 98.695312 L 88.308594 98.695312 L 90.414062 102.90625 L 90.414062 98.695312 L 91.375 98.695312 L 91.375 105 L 90.335938 105 L 88.265625 100.886719 L 88.265625 105 Z M 87.300781 105 " fill-opacity="1" fill-rule="nonzero"/><path fill="#545454" d="M 93.632812 105 L 93.632812 99.761719 L 92.105469 99.761719 L 92.105469 98.695312 L 96.1875 98.695312 L 96.1875 99.761719 L 94.667969 99.761719 L 94.667969 105 Z M 93.632812 105 " fill-opacity="1" fill-rule="nonzero"/><path fill="#545454" d="M 96.859375 105 L 96.859375 98.695312 L 100.667969 98.695312 L 100.667969 99.761719 L 97.894531 99.761719 L 97.894531 101.160156 L 100.476562 101.160156 L 100.476562 102.222656 L 97.894531 102.222656 L 97.894531 103.9375 L 100.765625 103.9375 L 100.765625 105 Z M 96.859375 105 " fill-opacity="1" fill-rule="nonzero"/></svg>